<?xml version="1.0" encoding="UTF-8"?>
<svg xmlns="http://www.w3.org/2000/svg" version="1.1" width="420" height="420" viewBox="0 0 420 420"><rect x="0" y="0" width="420" height="420" fill="#ffffff"/><g transform="scale(7.925)"><g transform="translate(0,0)"><path fill-rule="evenodd" d="M8 0L8 4L9 4L9 5L8 5L8 7L9 7L9 9L10 9L10 11L11 11L11 12L9 12L9 11L8 11L8 12L6 12L6 13L5 13L5 11L7 11L7 10L8 10L8 9L7 9L7 8L4 8L4 9L3 9L3 11L2 11L2 12L3 12L3 13L1 13L1 14L0 14L0 16L1 16L1 17L4 17L4 16L5 16L5 17L7 17L7 16L9 16L9 17L8 17L8 18L6 18L6 19L5 19L5 18L3 18L3 20L2 20L2 21L0 21L0 23L2 23L2 24L3 24L3 25L2 25L2 26L1 26L1 27L0 27L0 28L2 28L2 29L1 29L1 30L0 30L0 31L1 31L1 32L0 32L0 33L1 33L1 34L5 34L5 35L7 35L7 34L8 34L8 36L6 36L6 37L8 37L8 38L6 38L6 39L7 39L7 40L5 40L5 41L4 41L4 39L2 39L2 36L1 36L1 35L0 35L0 38L1 38L1 39L0 39L0 43L1 43L1 44L3 44L3 45L4 45L4 44L3 44L3 43L7 43L7 44L6 44L6 45L8 45L8 46L10 46L10 47L8 47L8 49L9 49L9 51L8 51L8 53L12 53L12 52L13 52L13 53L16 53L16 52L17 52L17 53L20 53L20 51L19 51L19 52L18 52L18 49L19 49L19 47L18 47L18 46L16 46L16 45L17 45L17 44L18 44L18 45L19 45L19 46L20 46L20 47L22 47L22 48L21 48L21 49L20 49L20 50L21 50L21 52L22 52L22 50L23 50L23 51L24 51L24 50L23 50L23 49L22 49L22 48L24 48L24 49L25 49L25 51L27 51L27 52L28 52L28 51L29 51L29 48L30 48L30 47L32 47L32 48L31 48L31 49L30 49L30 51L31 51L31 50L32 50L32 49L34 49L34 48L35 48L35 49L37 49L37 48L38 48L38 47L37 47L37 44L36 44L36 43L37 43L37 42L36 42L36 41L38 41L38 42L39 42L39 41L40 41L40 42L42 42L42 44L43 44L43 45L42 45L42 46L40 46L40 47L39 47L39 49L38 49L38 50L37 50L37 51L36 51L36 50L35 50L35 51L34 51L34 50L33 50L33 51L34 51L34 52L32 52L32 53L34 53L34 52L35 52L35 53L37 53L37 52L38 52L38 51L40 51L40 52L39 52L39 53L40 53L40 52L42 52L42 53L43 53L43 52L44 52L44 53L45 53L45 52L44 52L44 50L43 50L43 49L42 49L42 47L43 47L43 45L44 45L44 49L45 49L45 51L46 51L46 53L47 53L47 52L48 52L48 53L52 53L52 52L53 52L53 51L51 51L51 52L50 52L50 51L48 51L48 49L49 49L49 50L52 50L52 48L53 48L53 44L51 44L51 45L50 45L50 44L49 44L49 43L47 43L47 42L49 42L49 41L50 41L50 42L52 42L52 43L53 43L53 41L50 41L50 39L51 39L51 40L52 40L52 39L53 39L53 36L52 36L52 38L51 38L51 37L50 37L50 35L53 35L53 29L52 29L52 30L51 30L51 29L50 29L50 30L49 30L49 28L50 28L50 27L51 27L51 28L52 28L52 27L53 27L53 26L52 26L52 27L51 27L51 26L49 26L49 24L50 24L50 23L49 23L49 24L48 24L48 22L47 22L47 23L46 23L46 22L45 22L45 21L44 21L44 20L42 20L42 21L41 21L41 22L40 22L40 19L43 19L43 17L44 17L44 18L46 18L46 16L45 16L45 15L46 15L46 14L45 14L45 13L47 13L47 11L46 11L46 9L44 9L44 8L43 8L43 3L44 3L44 4L45 4L45 3L44 3L44 1L43 1L43 0L41 0L41 1L39 1L39 0L38 0L38 1L36 1L36 3L37 3L37 2L38 2L38 4L36 4L36 5L33 5L33 4L32 4L32 3L34 3L34 4L35 4L35 2L33 2L33 1L34 1L34 0L32 0L32 3L31 3L31 4L27 4L27 3L26 3L26 4L25 4L25 1L26 1L26 2L27 2L27 1L29 1L29 0L24 0L24 3L23 3L23 2L21 2L21 3L20 3L20 4L19 4L19 5L18 5L18 9L13 9L13 4L9 4L9 1L10 1L10 2L11 2L11 3L12 3L12 2L14 2L14 3L15 3L15 4L16 4L16 3L17 3L17 4L18 4L18 3L19 3L19 2L20 2L20 1L21 1L21 0L19 0L19 1L18 1L18 0L17 0L17 1L18 1L18 2L16 2L16 1L15 1L15 0L14 0L14 1L12 1L12 2L11 2L11 1L10 1L10 0ZM22 0L22 1L23 1L23 0ZM30 0L30 1L31 1L31 0ZM38 1L38 2L39 2L39 3L41 3L41 4L42 4L42 3L43 3L43 2L42 2L42 3L41 3L41 2L39 2L39 1ZM28 2L28 3L30 3L30 2ZM21 3L21 4L22 4L22 5L21 5L21 7L20 7L20 5L19 5L19 7L20 7L20 9L21 9L21 11L22 11L22 10L23 10L23 9L24 9L24 8L23 8L23 7L24 7L24 4L22 4L22 3ZM39 4L39 5L38 5L38 6L37 6L37 9L36 9L36 8L35 8L35 7L36 7L36 6L35 6L35 7L34 7L34 6L33 6L33 5L30 5L30 6L29 6L29 7L30 7L30 8L29 8L29 13L30 13L30 12L31 12L31 13L32 13L32 14L31 14L31 15L33 15L33 13L32 13L32 12L33 12L33 10L32 10L32 11L30 11L30 9L32 9L32 6L33 6L33 7L34 7L34 10L38 10L38 8L39 8L39 7L40 7L40 6L41 6L41 8L40 8L40 9L39 9L39 10L41 10L41 9L43 9L43 10L44 10L44 11L42 11L42 12L44 12L44 13L43 13L43 14L44 14L44 15L42 15L42 14L40 14L40 13L41 13L41 11L40 11L40 12L39 12L39 11L37 11L37 12L38 12L38 13L37 13L37 15L38 15L38 16L37 16L37 17L36 17L36 15L35 15L35 17L34 17L34 18L32 18L32 16L28 16L28 15L26 15L26 14L28 14L28 13L27 13L27 12L28 12L28 11L24 11L24 12L22 12L22 13L21 13L21 12L20 12L20 10L19 10L19 9L18 9L18 10L16 10L16 11L15 11L15 10L13 10L13 9L12 9L12 10L11 10L11 11L12 11L12 12L11 12L11 13L9 13L9 12L8 12L8 15L9 15L9 14L13 14L13 15L14 15L14 16L15 16L15 18L14 18L14 17L13 17L13 16L12 16L12 15L11 15L11 17L9 17L9 18L10 18L10 20L9 20L9 19L8 19L8 22L7 22L7 21L6 21L6 20L7 20L7 19L6 19L6 20L5 20L5 21L6 21L6 22L7 22L7 23L6 23L6 24L8 24L8 23L10 23L10 22L9 22L9 21L11 21L11 23L12 23L12 21L13 21L13 22L15 22L15 24L14 24L14 23L13 23L13 24L12 24L12 27L10 27L10 28L9 28L9 29L6 29L6 30L5 30L5 29L3 29L3 30L4 30L4 31L6 31L6 32L7 32L7 33L5 33L5 34L7 34L7 33L10 33L10 34L9 34L9 36L8 36L8 37L9 37L9 40L10 40L10 41L9 41L9 43L8 43L8 42L7 42L7 41L8 41L8 40L7 40L7 41L5 41L5 42L7 42L7 43L8 43L8 44L9 44L9 43L10 43L10 45L11 45L11 46L13 46L13 45L14 45L14 46L15 46L15 45L16 45L16 42L17 42L17 43L18 43L18 44L19 44L19 45L24 45L24 44L25 44L25 43L22 43L22 44L21 44L21 42L22 42L22 41L24 41L24 42L25 42L25 40L27 40L27 41L26 41L26 43L27 43L27 42L28 42L28 43L29 43L29 45L30 45L30 44L31 44L31 45L32 45L32 47L36 47L36 46L35 46L35 44L34 44L34 45L32 45L32 43L30 43L30 40L32 40L32 39L33 39L33 41L34 41L34 42L35 42L35 43L36 43L36 42L35 42L35 40L36 40L36 38L37 38L37 40L38 40L38 41L39 41L39 39L40 39L40 41L41 41L41 40L43 40L43 39L41 39L41 38L39 38L39 39L38 39L38 37L39 37L39 35L40 35L40 37L41 37L41 36L42 36L42 37L43 37L43 38L44 38L44 39L45 39L45 40L46 40L46 41L45 41L45 42L44 42L44 41L43 41L43 43L46 43L46 44L47 44L47 43L46 43L46 41L48 41L48 40L47 40L47 39L46 39L46 38L48 38L48 37L49 37L49 35L50 35L50 34L48 34L48 33L51 33L51 34L52 34L52 33L51 33L51 30L50 30L50 32L49 32L49 31L48 31L48 32L47 32L47 31L46 31L46 30L47 30L47 29L44 29L44 25L43 25L43 26L42 26L42 27L43 27L43 31L42 31L42 32L41 32L41 30L40 30L40 31L39 31L39 32L40 32L40 34L39 34L39 35L38 35L38 34L35 34L35 32L36 32L36 31L38 31L38 29L39 29L39 28L38 28L38 26L36 26L36 24L35 24L35 25L33 25L33 26L32 26L32 27L30 27L30 25L32 25L32 23L30 23L30 22L29 22L29 23L30 23L30 24L29 24L29 29L25 29L25 31L23 31L23 30L22 30L22 29L23 29L23 28L22 28L22 27L23 27L23 26L24 26L24 25L23 25L23 24L28 24L28 23L24 23L24 22L22 22L22 21L25 21L25 20L26 20L26 21L29 21L29 19L28 19L28 20L27 20L27 18L28 18L28 17L29 17L29 18L30 18L30 17L31 17L31 20L32 20L32 19L33 19L33 21L34 21L34 22L33 22L33 23L34 23L34 22L35 22L35 23L37 23L37 24L38 24L38 25L39 25L39 24L40 24L40 25L42 25L42 24L43 24L43 23L44 23L44 24L45 24L45 23L44 23L44 21L43 21L43 23L42 23L42 24L41 24L41 23L40 23L40 22L39 22L39 23L38 23L38 21L39 21L39 20L38 20L38 18L37 18L37 17L41 17L41 18L42 18L42 16L44 16L44 17L45 17L45 16L44 16L44 15L45 15L45 14L44 14L44 13L45 13L45 10L44 10L44 9L43 9L43 8L42 8L42 5L40 5L40 4ZM9 5L9 7L10 7L10 9L11 9L11 7L12 7L12 6L11 6L11 5ZM16 5L16 7L15 7L15 6L14 6L14 8L16 8L16 7L17 7L17 5ZM25 5L25 8L28 8L28 5ZM10 6L10 7L11 7L11 6ZM22 6L22 7L21 7L21 9L22 9L22 7L23 7L23 6ZM26 6L26 7L27 7L27 6ZM30 6L30 7L31 7L31 6ZM38 6L38 7L39 7L39 6ZM44 6L44 7L45 7L45 6ZM0 8L0 10L1 10L1 9L2 9L2 8ZM47 8L47 10L48 10L48 13L49 13L49 14L47 14L47 19L48 19L48 21L50 21L50 22L52 22L52 23L51 23L51 24L52 24L52 23L53 23L53 22L52 22L52 21L53 21L53 17L52 17L52 19L51 19L51 17L49 17L49 16L50 16L50 15L51 15L51 16L52 16L52 15L53 15L53 13L52 13L52 12L53 12L53 8L49 8L49 9L50 9L50 10L48 10L48 8ZM4 9L4 10L7 10L7 9ZM51 9L51 10L50 10L50 13L51 13L51 15L52 15L52 13L51 13L51 12L52 12L52 9ZM18 10L18 11L17 11L17 12L14 12L14 11L13 11L13 12L12 12L12 13L17 13L17 12L18 12L18 13L19 13L19 15L16 15L16 14L15 14L15 16L18 16L18 17L19 17L19 18L20 18L20 19L22 19L22 20L21 20L21 21L19 21L19 19L18 19L18 18L16 18L16 19L17 19L17 20L16 20L16 21L18 21L18 23L17 23L17 22L16 22L16 24L15 24L15 25L13 25L13 26L14 26L14 28L13 28L13 29L11 29L11 31L10 31L10 32L12 32L12 30L13 30L13 29L15 29L15 30L16 30L16 31L20 31L20 30L21 30L21 29L22 29L22 28L21 28L21 29L19 29L19 28L20 28L20 26L21 26L21 25L22 25L22 26L23 26L23 25L22 25L22 24L21 24L21 21L22 21L22 20L24 20L24 19L25 19L25 18L27 18L27 17L24 17L24 18L23 18L23 17L22 17L22 16L23 16L23 15L21 15L21 17L19 17L19 15L20 15L20 14L21 14L21 13L19 13L19 12L18 12L18 11L19 11L19 10ZM3 11L3 12L4 12L4 11ZM34 11L34 14L35 14L35 11ZM3 13L3 14L2 14L2 15L1 15L1 16L2 16L2 15L3 15L3 14L4 14L4 15L6 15L6 16L7 16L7 15L6 15L6 14L7 14L7 13L6 13L6 14L4 14L4 13ZM22 13L22 14L23 14L23 13ZM24 13L24 15L25 15L25 13ZM38 13L38 14L39 14L39 13ZM39 15L39 16L40 16L40 15ZM12 17L12 18L13 18L13 17ZM21 17L21 18L22 18L22 19L23 19L23 18L22 18L22 17ZM48 17L48 19L49 19L49 17ZM34 18L34 20L35 20L35 21L36 21L36 22L37 22L37 21L38 21L38 20L37 20L37 19L36 19L36 18ZM11 19L11 21L12 21L12 19ZM13 19L13 21L15 21L15 19ZM35 19L35 20L36 20L36 19ZM50 19L50 21L51 21L51 19ZM2 21L2 22L3 22L3 24L5 24L5 22L3 22L3 21ZM19 22L19 24L20 24L20 25L21 25L21 24L20 24L20 22ZM9 24L9 25L10 25L10 26L11 26L11 24ZM17 24L17 25L16 25L16 27L17 27L17 28L19 28L19 25L18 25L18 24ZM5 25L5 28L8 28L8 25ZM17 25L17 26L18 26L18 25ZM25 25L25 28L28 28L28 25ZM45 25L45 28L48 28L48 25ZM3 26L3 27L2 27L2 28L3 28L3 27L4 27L4 26ZM6 26L6 27L7 27L7 26ZM26 26L26 27L27 27L27 26ZM33 26L33 27L32 27L32 28L30 28L30 29L29 29L29 30L30 30L30 31L28 31L28 30L27 30L27 31L26 31L26 32L24 32L24 33L22 33L22 31L21 31L21 33L20 33L20 32L18 32L18 33L17 33L17 32L16 32L16 33L17 33L17 34L18 34L18 35L16 35L16 34L15 34L15 32L14 32L14 31L13 31L13 33L11 33L11 35L13 35L13 37L12 37L12 38L13 38L13 39L10 39L10 40L12 40L12 42L14 42L14 43L12 43L12 45L13 45L13 44L14 44L14 45L15 45L15 41L17 41L17 42L18 42L18 41L20 41L20 42L19 42L19 44L20 44L20 42L21 42L21 41L22 41L22 40L21 40L21 41L20 41L20 40L18 40L18 41L17 41L17 40L16 40L16 39L18 39L18 38L16 38L16 37L19 37L19 39L20 39L20 38L21 38L21 37L19 37L19 36L20 36L20 35L19 35L19 34L18 34L18 33L20 33L20 34L21 34L21 33L22 33L22 36L25 36L25 37L22 37L22 39L24 39L24 40L25 40L25 39L27 39L27 40L28 40L28 41L29 41L29 40L30 40L30 39L32 39L32 38L34 38L34 37L35 37L35 38L36 38L36 37L37 37L37 36L38 36L38 35L34 35L34 37L33 37L33 35L32 35L32 36L29 36L29 35L27 35L27 36L26 36L26 35L24 35L24 33L25 33L25 34L26 34L26 33L27 33L27 32L28 32L28 34L29 34L29 32L30 32L30 31L31 31L31 30L32 30L32 29L33 29L33 30L34 30L34 31L33 31L33 32L32 32L32 33L30 33L30 35L31 35L31 34L32 34L32 33L33 33L33 32L35 32L35 30L34 30L34 29L38 29L38 28L36 28L36 26L35 26L35 27L34 27L34 26ZM46 26L46 27L47 27L47 26ZM40 27L40 29L41 29L41 27ZM15 28L15 29L16 29L16 30L19 30L19 29L16 29L16 28ZM6 30L6 31L7 31L7 32L9 32L9 31L7 31L7 30ZM43 31L43 33L41 33L41 34L40 34L40 35L41 35L41 34L42 34L42 36L43 36L43 37L45 37L45 38L46 38L46 36L47 36L47 35L48 35L48 34L47 34L47 33L46 33L46 36L45 36L45 35L44 35L44 34L45 34L45 33L44 33L44 32L45 32L45 31ZM2 32L2 33L3 33L3 32ZM13 33L13 35L14 35L14 36L15 36L15 37L13 37L13 38L15 38L15 39L16 39L16 38L15 38L15 37L16 37L16 36L15 36L15 34L14 34L14 33ZM3 36L3 38L5 38L5 36ZM10 36L10 37L11 37L11 36ZM28 36L28 37L29 37L29 36ZM25 37L25 38L27 38L27 39L29 39L29 38L27 38L27 37ZM31 37L31 38L32 38L32 37ZM49 38L49 39L50 39L50 38ZM1 39L1 40L2 40L2 39ZM13 39L13 41L15 41L15 40L14 40L14 39ZM34 39L34 40L35 40L35 39ZM3 41L3 42L2 42L2 43L3 43L3 42L4 42L4 41ZM10 42L10 43L11 43L11 42ZM39 43L39 45L38 45L38 46L39 46L39 45L40 45L40 43ZM25 45L25 48L28 48L28 45ZM45 45L45 48L48 48L48 45ZM49 45L49 46L50 46L50 47L49 47L49 48L50 48L50 49L51 49L51 48L52 48L52 47L51 47L51 46L52 46L52 45L51 45L51 46L50 46L50 45ZM22 46L22 47L24 47L24 46ZM26 46L26 47L27 47L27 46ZM46 46L46 47L47 47L47 46ZM11 47L11 48L9 48L9 49L11 49L11 50L10 50L10 52L12 52L12 50L14 50L14 51L13 51L13 52L15 52L15 51L16 51L16 50L17 50L17 49L18 49L18 47L17 47L17 49L15 49L15 48L16 48L16 47L14 47L14 49L13 49L13 48L12 48L12 47ZM40 47L40 51L41 51L41 47ZM11 48L11 49L12 49L12 48ZM14 49L14 50L15 50L15 49ZM46 49L46 50L47 50L47 49ZM42 51L42 52L43 52L43 51ZM23 52L23 53L26 53L26 52ZM29 52L29 53L31 53L31 52ZM0 0L0 7L7 7L7 0ZM1 1L1 6L6 6L6 1ZM2 2L2 5L5 5L5 2ZM46 0L46 7L53 7L53 0ZM47 1L47 6L52 6L52 1ZM48 2L48 5L51 5L51 2ZM0 46L0 53L7 53L7 46ZM1 47L1 52L6 52L6 47ZM2 48L2 51L5 51L5 48Z" fill="#000000"/></g></g></svg>
