<?xml version="1.0" encoding="UTF-8"?>
<svg xmlns="http://www.w3.org/2000/svg" version="1.1" width="420" height="420" viewBox="0 0 420 420"><rect x="0" y="0" width="420" height="420" fill="#ffffff"/><g transform="scale(7.925)"><g transform="translate(0,0)"><path fill-rule="evenodd" d="M8 0L8 1L9 1L9 3L11 3L11 4L9 4L9 5L11 5L11 6L10 6L10 7L9 7L9 6L8 6L8 8L9 8L9 9L10 9L10 8L12 8L12 10L14 10L14 11L11 11L11 12L10 12L10 10L9 10L9 12L8 12L8 9L7 9L7 8L6 8L6 9L7 9L7 10L6 10L6 11L5 11L5 8L3 8L3 9L2 9L2 8L0 8L0 10L1 10L1 9L2 9L2 10L3 10L3 11L4 11L4 12L3 12L3 13L2 13L2 14L1 14L1 13L0 13L0 14L1 14L1 15L2 15L2 16L3 16L3 17L1 17L1 16L0 16L0 19L1 19L1 20L2 20L2 21L0 21L0 22L1 22L1 23L0 23L0 26L2 26L2 27L3 27L3 29L4 29L4 30L2 30L2 29L1 29L1 31L5 31L5 29L7 29L7 30L6 30L6 31L8 31L8 32L9 32L9 33L10 33L10 34L9 34L9 37L7 37L7 36L6 36L6 37L7 37L7 38L6 38L6 39L5 39L5 40L3 40L3 39L4 39L4 38L5 38L5 37L4 37L4 36L3 36L3 37L4 37L4 38L3 38L3 39L2 39L2 38L1 38L1 37L2 37L2 35L3 35L3 34L4 34L4 35L5 35L5 32L3 32L3 34L2 34L2 32L1 32L1 35L0 35L0 38L1 38L1 39L0 39L0 41L5 41L5 42L3 42L3 43L2 43L2 42L0 42L0 43L1 43L1 44L3 44L3 45L4 45L4 44L3 44L3 43L7 43L7 44L6 44L6 45L8 45L8 46L9 46L9 45L8 45L8 43L7 43L7 42L6 42L6 41L7 41L7 40L9 40L9 41L10 41L10 42L9 42L9 43L11 43L11 41L13 41L13 42L14 42L14 43L13 43L13 44L10 44L10 45L11 45L11 46L10 46L10 47L9 47L9 48L8 48L8 50L9 50L9 51L8 51L8 53L9 53L9 52L11 52L11 51L10 51L10 50L9 50L9 48L10 48L10 49L11 49L11 50L13 50L13 51L12 51L12 53L13 53L13 51L14 51L14 53L17 53L17 52L18 52L18 53L20 53L20 52L21 52L21 53L22 53L22 52L24 52L24 53L27 53L27 51L28 51L28 52L29 52L29 53L33 53L33 52L31 52L31 51L30 51L30 50L33 50L33 51L35 51L35 50L34 50L34 48L35 48L35 49L37 49L37 50L38 50L38 52L40 52L40 51L41 51L41 52L42 52L42 50L44 50L44 49L45 49L45 52L44 52L44 51L43 51L43 52L44 52L44 53L50 53L50 52L51 52L51 51L49 51L49 50L50 50L50 48L49 48L49 47L51 47L51 46L53 46L53 42L52 42L52 39L53 39L53 37L52 37L52 34L51 34L51 32L52 32L52 33L53 33L53 32L52 32L52 31L53 31L53 30L52 30L52 28L51 28L51 26L49 26L49 24L50 24L50 23L51 23L51 25L53 25L53 24L52 24L52 23L51 23L51 22L52 22L52 21L51 21L51 19L50 19L50 20L48 20L48 19L49 19L49 18L51 18L51 17L52 17L52 15L53 15L53 11L51 11L51 10L49 10L49 12L48 12L48 11L47 11L47 10L48 10L48 9L47 9L47 8L46 8L46 9L45 9L45 6L44 6L44 7L43 7L43 3L44 3L44 4L45 4L45 3L44 3L44 1L43 1L43 0L42 0L42 2L43 2L43 3L42 3L42 5L41 5L41 3L40 3L40 4L38 4L38 5L37 5L37 3L39 3L39 1L40 1L40 0L38 0L38 1L37 1L37 0L36 0L36 2L37 2L37 3L34 3L34 2L35 2L35 0L33 0L33 1L32 1L32 0L29 0L29 3L28 3L28 2L27 2L27 3L28 3L28 4L24 4L24 5L23 5L23 3L24 3L24 2L23 2L23 0L18 0L18 1L16 1L16 2L17 2L17 5L18 5L18 4L19 4L19 5L20 5L20 7L19 7L19 6L18 6L18 7L19 7L19 9L18 9L18 8L16 8L16 10L17 10L17 9L18 9L18 10L20 10L20 8L21 8L21 10L23 10L23 11L19 11L19 12L18 12L18 11L16 11L16 12L18 12L18 13L19 13L19 14L18 14L18 15L16 15L16 14L14 14L14 15L16 15L16 16L15 16L15 18L14 18L14 20L13 20L13 18L11 18L11 17L14 17L14 16L13 16L13 13L15 13L15 12L14 12L14 11L15 11L15 9L14 9L14 8L15 8L15 6L14 6L14 8L13 8L13 5L14 5L14 4L15 4L15 5L16 5L16 3L15 3L15 2L14 2L14 1L15 1L15 0L12 0L12 1L11 1L11 0ZM25 0L25 1L28 1L28 0ZM10 1L10 2L11 2L11 3L12 3L12 2L13 2L13 1L12 1L12 2L11 2L11 1ZM19 1L19 2L20 2L20 3L19 3L19 4L20 4L20 3L22 3L22 2L20 2L20 1ZM30 1L30 2L31 2L31 5L29 5L29 9L26 9L26 10L25 10L25 9L24 9L24 8L23 8L23 7L24 7L24 6L23 6L23 7L22 7L22 5L21 5L21 7L22 7L22 8L23 8L23 10L25 10L25 12L26 12L26 13L24 13L24 12L23 12L23 13L24 13L24 14L22 14L22 13L21 13L21 12L20 12L20 13L21 13L21 14L20 14L20 16L21 16L21 17L19 17L19 19L20 19L20 18L22 18L22 16L23 16L23 15L25 15L25 14L28 14L28 13L30 13L30 12L29 12L29 11L34 11L34 12L33 12L33 13L32 13L32 12L31 12L31 13L32 13L32 16L31 16L31 18L29 18L29 17L27 17L27 16L25 16L25 18L24 18L24 17L23 17L23 19L25 19L25 20L23 20L23 21L22 21L22 23L23 23L23 24L24 24L24 21L26 21L26 22L25 22L25 23L26 23L26 24L28 24L28 23L30 23L30 22L29 22L29 21L30 21L30 20L31 20L31 18L32 18L32 16L33 16L33 17L35 17L35 18L37 18L37 17L38 17L38 19L35 19L35 20L34 20L34 21L33 21L33 19L32 19L32 21L31 21L31 24L30 24L30 25L29 25L29 26L30 26L30 27L29 27L29 28L30 28L30 29L31 29L31 30L29 30L29 31L28 31L28 32L29 32L29 34L30 34L30 36L32 36L32 35L31 35L31 34L32 34L32 33L33 33L33 34L34 34L34 33L35 33L35 32L36 32L36 31L37 31L37 33L39 33L39 34L38 34L38 37L36 37L36 36L37 36L37 34L36 34L36 36L35 36L35 37L34 37L34 41L32 41L32 42L34 42L34 43L35 43L35 44L33 44L33 43L32 43L32 44L31 44L31 42L28 42L28 43L26 43L26 41L25 41L25 40L26 40L26 39L27 39L27 37L28 37L28 34L27 34L27 31L25 31L25 33L26 33L26 36L25 36L25 35L24 35L24 37L23 37L23 40L22 40L22 41L23 41L23 42L25 42L25 44L29 44L29 45L35 45L35 44L37 44L37 45L39 45L39 46L38 46L38 47L37 47L37 46L36 46L36 48L38 48L38 49L39 49L39 51L40 51L40 50L41 50L41 49L40 49L40 48L42 48L42 49L43 49L43 47L44 47L44 46L42 46L42 47L41 47L41 45L40 45L40 43L39 43L39 41L41 41L41 42L42 42L42 43L41 43L41 44L42 44L42 45L43 45L43 44L45 44L45 43L46 43L46 42L45 42L45 39L46 39L46 40L48 40L48 41L47 41L47 42L48 42L48 41L50 41L50 42L51 42L51 45L52 45L52 42L51 42L51 40L49 40L49 38L48 38L48 37L50 37L50 36L51 36L51 35L50 35L50 30L51 30L51 31L52 31L52 30L51 30L51 28L50 28L50 27L49 27L49 29L50 29L50 30L48 30L48 29L47 29L47 30L48 30L48 31L47 31L47 32L46 32L46 33L45 33L45 35L44 35L44 34L42 34L42 35L40 35L40 32L38 32L38 30L40 30L40 29L41 29L41 30L42 30L42 32L45 32L45 31L46 31L46 29L44 29L44 26L41 26L41 28L40 28L40 27L39 27L39 28L38 28L38 25L39 25L39 24L41 24L41 25L42 25L42 24L41 24L41 23L42 23L42 22L41 22L41 23L39 23L39 22L38 22L38 21L40 21L40 20L41 20L41 21L43 21L43 20L44 20L44 19L45 19L45 20L47 20L47 22L49 22L49 23L50 23L50 22L49 22L49 21L48 21L48 20L47 20L47 18L49 18L49 17L48 17L48 16L49 16L49 15L50 15L50 14L49 14L49 13L47 13L47 12L46 12L46 11L44 11L44 13L45 13L45 12L46 12L46 14L44 14L44 19L43 19L43 18L42 18L42 17L41 17L41 15L43 15L43 14L42 14L42 13L39 13L39 16L38 16L38 15L36 15L36 14L35 14L35 13L36 13L36 12L37 12L37 13L38 13L38 12L43 12L43 10L42 10L42 11L40 11L40 9L39 9L39 10L38 10L38 11L34 11L34 9L35 9L35 10L36 10L36 8L37 8L37 9L38 9L38 6L37 6L37 7L36 7L36 5L35 5L35 4L32 4L32 2L31 2L31 1ZM33 1L33 2L34 2L34 1ZM13 3L13 4L14 4L14 3ZM25 5L25 8L28 8L28 5ZM39 5L39 8L40 8L40 5ZM11 6L11 7L12 7L12 6ZM16 6L16 7L17 7L17 6ZM26 6L26 7L27 7L27 6ZM30 6L30 8L31 8L31 9L30 9L30 10L31 10L31 9L32 9L32 7L33 7L33 9L34 9L34 8L36 8L36 7L35 7L35 6L34 6L34 7L33 7L33 6L32 6L32 7L31 7L31 6ZM41 6L41 7L42 7L42 8L41 8L41 9L43 9L43 7L42 7L42 6ZM52 8L52 9L53 9L53 8ZM3 9L3 10L4 10L4 9ZM26 10L26 11L27 11L27 10ZM0 11L0 12L2 12L2 11ZM6 11L6 12L5 12L5 13L3 13L3 15L4 15L4 19L6 19L6 20L7 20L7 21L5 21L5 20L3 20L3 23L6 23L6 24L7 24L7 23L12 23L12 24L13 24L13 23L14 23L14 24L15 24L15 26L14 26L14 25L13 25L13 26L14 26L14 27L13 27L13 28L12 28L12 29L11 29L11 27L9 27L9 29L8 29L8 30L9 30L9 32L10 32L10 33L12 33L12 35L10 35L10 36L12 36L12 38L11 38L11 37L10 37L10 38L9 38L9 39L10 39L10 38L11 38L11 39L12 39L12 40L13 40L13 41L14 41L14 42L15 42L15 44L13 44L13 45L15 45L15 47L14 47L14 46L13 46L13 47L12 47L12 48L11 48L11 47L10 47L10 48L11 48L11 49L13 49L13 47L14 47L14 50L15 50L15 47L17 47L17 48L18 48L18 47L17 47L17 46L19 46L19 49L20 49L20 47L21 47L21 50L18 50L18 51L19 51L19 52L20 52L20 51L21 51L21 52L22 52L22 51L23 51L23 48L24 48L24 47L22 47L22 46L24 46L24 44L23 44L23 43L21 43L21 42L20 42L20 43L19 43L19 42L18 42L18 43L19 43L19 45L17 45L17 43L16 43L16 41L20 41L20 39L21 39L21 38L19 38L19 37L21 37L21 36L23 36L23 34L22 34L22 33L23 33L23 32L24 32L24 31L23 31L23 30L24 30L24 29L23 29L23 28L24 28L24 25L22 25L22 27L20 27L20 28L19 28L19 34L20 34L20 33L21 33L21 34L22 34L22 35L19 35L19 37L18 37L18 36L17 36L17 35L18 35L18 34L17 34L17 33L18 33L18 32L17 32L17 33L16 33L16 34L17 34L17 35L16 35L16 36L15 36L15 34L14 34L14 32L16 32L16 31L17 31L17 30L18 30L18 25L19 25L19 26L21 26L21 25L19 25L19 24L21 24L21 22L20 22L20 21L18 21L18 17L17 17L17 16L16 16L16 19L17 19L17 20L14 20L14 21L13 21L13 20L12 20L12 19L11 19L11 18L10 18L10 20L9 20L9 19L8 19L8 18L7 18L7 17L8 17L8 15L6 15L6 16L7 16L7 17L6 17L6 18L5 18L5 13L6 13L6 14L8 14L8 13L6 13L6 12L7 12L7 11ZM50 11L50 13L51 13L51 15L52 15L52 12L51 12L51 11ZM27 12L27 13L28 13L28 12ZM9 13L9 15L11 15L11 16L12 16L12 15L11 15L11 14L10 14L10 13ZM33 13L33 15L34 15L34 16L35 16L35 17L37 17L37 16L35 16L35 15L34 15L34 13ZM40 14L40 15L41 15L41 14ZM29 15L29 16L30 16L30 15ZM45 15L45 16L46 16L46 15ZM39 16L39 17L40 17L40 16ZM50 16L50 17L51 17L51 16ZM45 17L45 18L47 18L47 17ZM2 18L2 19L3 19L3 18ZM6 18L6 19L7 19L7 18ZM25 18L25 19L26 19L26 20L27 20L27 22L26 22L26 23L28 23L28 20L29 20L29 18L28 18L28 20L27 20L27 19L26 19L26 18ZM39 18L39 19L42 19L42 20L43 20L43 19L42 19L42 18ZM52 18L52 19L53 19L53 18ZM21 19L21 20L22 20L22 19ZM8 20L8 21L7 21L7 22L6 22L6 23L7 23L7 22L8 22L8 21L9 21L9 20ZM11 20L11 21L10 21L10 22L11 22L11 21L12 21L12 20ZM35 20L35 21L34 21L34 22L33 22L33 23L32 23L32 24L31 24L31 25L30 25L30 26L31 26L31 25L32 25L32 26L33 26L33 27L34 27L34 28L32 28L32 27L31 27L31 28L32 28L32 30L31 30L31 31L29 31L29 32L30 32L30 34L31 34L31 32L32 32L32 31L33 31L33 30L34 30L34 31L36 31L36 30L38 30L38 29L37 29L37 28L36 28L36 30L35 30L35 29L34 29L34 28L35 28L35 27L34 27L34 26L33 26L33 23L34 23L34 25L35 25L35 26L36 26L36 27L37 27L37 26L36 26L36 25L37 25L37 24L39 24L39 23L37 23L37 22L36 22L36 21L38 21L38 20ZM4 21L4 22L5 22L5 21ZM16 21L16 22L14 22L14 23L16 23L16 25L17 25L17 24L18 24L18 23L17 23L17 21ZM12 22L12 23L13 23L13 22ZM35 23L35 25L36 25L36 23ZM43 23L43 24L46 24L46 23ZM1 24L1 25L2 25L2 26L3 26L3 27L4 27L4 25L3 25L3 24ZM10 24L10 25L9 25L9 26L11 26L11 24ZM5 25L5 28L8 28L8 25ZM25 25L25 28L28 28L28 25ZM45 25L45 28L48 28L48 25ZM6 26L6 27L7 27L7 26ZM16 26L16 28L14 28L14 30L15 30L15 31L16 31L16 30L17 30L17 26ZM26 26L26 27L27 27L27 26ZM46 26L46 27L47 27L47 26ZM52 26L52 27L53 27L53 26ZM0 27L0 28L1 28L1 27ZM42 27L42 28L41 28L41 29L42 29L42 30L43 30L43 31L45 31L45 30L43 30L43 29L42 29L42 28L43 28L43 27ZM21 28L21 29L22 29L22 28ZM9 29L9 30L11 30L11 31L12 31L12 33L13 33L13 32L14 32L14 31L12 31L12 30L13 30L13 29L12 29L12 30L11 30L11 29ZM15 29L15 30L16 30L16 29ZM25 29L25 30L28 30L28 29ZM20 30L20 32L21 32L21 30ZM22 31L22 32L23 32L23 31ZM48 31L48 32L49 32L49 31ZM6 32L6 33L7 33L7 34L6 34L6 35L8 35L8 33L7 33L7 32ZM33 32L33 33L34 33L34 32ZM46 33L46 34L47 34L47 33ZM48 33L48 36L46 36L46 35L45 35L45 36L44 36L44 35L42 35L42 37L41 37L41 36L39 36L39 37L38 37L38 38L35 38L35 39L36 39L36 41L34 41L34 42L35 42L35 43L38 43L38 44L39 44L39 43L38 43L38 42L36 42L36 41L37 41L37 39L38 39L38 41L39 41L39 37L41 37L41 38L40 38L40 39L41 39L41 40L42 40L42 42L43 42L43 40L44 40L44 38L46 38L46 39L47 39L47 38L46 38L46 37L48 37L48 36L50 36L50 35L49 35L49 33ZM13 34L13 35L14 35L14 34ZM13 36L13 40L14 40L14 41L15 41L15 39L16 39L16 40L17 40L17 39L18 39L18 38L17 38L17 39L16 39L16 38L15 38L15 39L14 39L14 37L15 37L15 36ZM26 36L26 37L27 37L27 36ZM45 36L45 37L46 37L46 36ZM32 37L32 38L31 38L31 39L30 39L30 38L29 38L29 39L30 39L30 40L28 40L28 41L30 41L30 40L31 40L31 39L32 39L32 40L33 40L33 39L32 39L32 38L33 38L33 37ZM43 37L43 38L41 38L41 39L43 39L43 38L44 38L44 37ZM51 37L51 39L52 39L52 37ZM7 38L7 39L6 39L6 40L7 40L7 39L8 39L8 38ZM24 38L24 39L25 39L25 38ZM1 39L1 40L2 40L2 39ZM10 40L10 41L11 41L11 40ZM23 40L23 41L24 41L24 40ZM29 43L29 44L30 44L30 43ZM42 43L42 44L43 44L43 43ZM47 43L47 44L48 44L48 43ZM49 43L49 45L50 45L50 43ZM15 44L15 45L16 45L16 46L17 46L17 45L16 45L16 44ZM20 44L20 46L22 46L22 45L23 45L23 44ZM25 45L25 48L28 48L28 45ZM45 45L45 48L48 48L48 45ZM26 46L26 47L27 47L27 46ZM29 46L29 47L30 47L30 46ZM39 46L39 47L40 47L40 46ZM46 46L46 47L47 47L47 46ZM31 47L31 49L32 49L32 47ZM33 47L33 48L34 48L34 47ZM51 48L51 49L53 49L53 48ZM24 49L24 52L26 52L26 51L25 51L25 50L26 50L26 49ZM28 49L28 50L30 50L30 49ZM46 49L46 50L47 50L47 52L49 52L49 51L48 51L48 50L49 50L49 49L48 49L48 50L47 50L47 49ZM16 50L16 52L17 52L17 50ZM21 50L21 51L22 51L22 50ZM52 51L52 52L53 52L53 51ZM34 52L34 53L35 53L35 52ZM36 52L36 53L37 53L37 52ZM0 0L0 7L7 7L7 0ZM1 1L1 6L6 6L6 1ZM2 2L2 5L5 5L5 2ZM46 0L46 7L53 7L53 0ZM47 1L47 6L52 6L52 1ZM48 2L48 5L51 5L51 2ZM0 46L0 53L7 53L7 46ZM1 47L1 52L6 52L6 47ZM2 48L2 51L5 51L5 48Z" fill="#000000"/></g></g></svg>
