<?xml version="1.0" encoding="UTF-8"?>
<svg xmlns="http://www.w3.org/2000/svg" version="1.1" width="420" height="420" viewBox="0 0 420 420"><rect x="0" y="0" width="420" height="420" fill="#ffffff"/><g transform="scale(7.925)"><g transform="translate(0,0)"><path fill-rule="evenodd" d="M9 0L9 1L10 1L10 0ZM11 0L11 1L12 1L12 0ZM13 0L13 2L12 2L12 7L11 7L11 2L8 2L8 3L10 3L10 4L9 4L9 5L10 5L10 7L9 7L9 6L8 6L8 8L4 8L4 9L3 9L3 8L0 8L0 9L2 9L2 10L1 10L1 11L0 11L0 13L1 13L1 14L0 14L0 16L2 16L2 17L1 17L1 18L0 18L0 19L1 19L1 21L0 21L0 23L2 23L2 24L0 24L0 26L1 26L1 27L3 27L3 28L4 28L4 29L5 29L5 30L6 30L6 31L5 31L5 32L4 32L4 30L2 30L2 28L0 28L0 30L2 30L2 31L3 31L3 32L2 32L2 33L3 33L3 34L0 34L0 39L2 39L2 40L3 40L3 41L1 41L1 42L0 42L0 43L1 43L1 44L3 44L3 45L4 45L4 44L3 44L3 43L9 43L9 42L3 42L3 41L4 41L4 40L3 40L3 39L2 39L2 38L6 38L6 39L5 39L5 40L6 40L6 41L7 41L7 40L8 40L8 41L11 41L11 42L10 42L10 43L11 43L11 42L12 42L12 44L10 44L10 45L11 45L11 46L9 46L9 45L8 45L8 49L9 49L9 50L8 50L8 53L11 53L11 52L12 52L12 53L13 53L13 52L14 52L14 53L19 53L19 52L18 52L18 51L19 51L19 50L18 50L18 48L20 48L20 50L21 50L21 48L20 48L20 47L18 47L18 46L20 46L20 43L21 43L21 44L22 44L22 47L23 47L23 42L22 42L22 40L24 40L24 39L22 39L22 38L25 38L25 40L26 40L26 41L24 41L24 42L27 42L27 40L26 40L26 38L25 38L25 37L28 37L28 38L27 38L27 39L29 39L29 40L28 40L28 41L29 41L29 44L28 44L28 43L27 43L27 44L24 44L24 49L23 49L23 48L22 48L22 49L23 49L23 50L24 50L24 51L25 51L25 52L23 52L23 51L20 51L20 52L22 52L22 53L25 53L25 52L26 52L26 49L27 49L27 51L28 51L28 52L27 52L27 53L30 53L30 52L31 52L31 53L33 53L33 52L34 52L34 53L37 53L37 52L38 52L38 50L35 50L35 51L37 51L37 52L34 52L34 51L33 51L33 50L34 50L34 49L38 49L38 48L39 48L39 49L41 49L41 47L42 47L42 48L44 48L44 49L43 49L43 52L44 52L44 53L46 53L46 52L44 52L44 51L47 51L47 52L48 52L48 53L49 53L49 52L50 52L50 51L49 51L49 48L50 48L50 47L51 47L51 46L52 46L52 47L53 47L53 45L51 45L51 46L49 46L49 44L48 44L48 43L50 43L50 42L51 42L51 43L53 43L53 37L51 37L51 38L52 38L52 39L51 39L51 40L52 40L52 42L51 42L51 41L50 41L50 42L48 42L48 43L47 43L47 41L49 41L49 39L47 39L47 38L48 38L48 37L47 37L47 33L48 33L48 31L47 31L47 29L49 29L49 27L50 27L50 24L47 24L47 23L46 23L46 21L45 21L45 23L46 23L46 24L44 24L44 22L43 22L43 24L42 24L42 23L41 23L41 22L42 22L42 21L43 21L43 20L44 20L44 17L43 17L43 19L42 19L42 21L41 21L41 18L42 18L42 17L41 17L41 14L40 14L40 13L43 13L43 12L44 12L44 11L45 11L45 10L44 10L44 11L43 11L43 12L42 12L42 11L40 11L40 10L41 10L41 9L42 9L42 8L44 8L44 7L45 7L45 6L44 6L44 7L43 7L43 3L44 3L44 4L45 4L45 3L44 3L44 1L43 1L43 0L40 0L40 1L42 1L42 2L43 2L43 3L42 3L42 4L40 4L40 5L39 5L39 4L35 4L35 2L36 2L36 0L30 0L30 1L29 1L29 2L28 2L28 0L27 0L27 2L26 2L26 4L25 4L25 0L24 0L24 3L23 3L23 2L22 2L22 1L20 1L20 0L18 0L18 1L17 1L17 0L16 0L16 1L17 1L17 2L16 2L16 3L15 3L15 4L16 4L16 5L14 5L14 3L13 3L13 2L14 2L14 1L15 1L15 0ZM38 0L38 1L37 1L37 2L39 2L39 0ZM18 1L18 2L17 2L17 3L18 3L18 4L17 4L17 5L18 5L18 6L17 6L17 10L16 10L16 8L14 8L14 10L13 10L13 11L12 11L12 12L13 12L13 14L12 14L12 13L11 13L11 10L10 10L10 9L11 9L11 8L10 8L10 9L9 9L9 11L8 11L8 9L5 9L5 13L4 13L4 12L2 12L2 13L3 13L3 14L1 14L1 15L3 15L3 17L2 17L2 18L1 18L1 19L3 19L3 20L4 20L4 21L2 21L2 23L6 23L6 24L7 24L7 23L8 23L8 24L10 24L10 25L11 25L11 26L12 26L12 27L11 27L11 28L10 28L10 27L9 27L9 28L10 28L10 29L8 29L8 31L6 31L6 32L5 32L5 33L4 33L4 35L3 35L3 36L2 36L2 37L4 37L4 36L5 36L5 33L6 33L6 34L7 34L7 35L6 35L6 36L7 36L7 35L8 35L8 37L10 37L10 40L11 40L11 41L12 41L12 42L13 42L13 41L12 41L12 40L13 40L13 39L12 39L12 40L11 40L11 38L14 38L14 39L15 39L15 38L17 38L17 42L16 42L16 40L14 40L14 42L15 42L15 43L13 43L13 44L12 44L12 45L13 45L13 44L15 44L15 45L14 45L14 46L13 46L13 47L15 47L15 48L17 48L17 47L16 47L16 46L17 46L17 45L18 45L18 44L19 44L19 43L18 43L18 44L16 44L16 43L17 43L17 42L19 42L19 41L18 41L18 40L19 40L19 39L20 39L20 40L21 40L21 39L20 39L20 38L21 38L21 37L22 37L22 36L23 36L23 37L25 37L25 36L23 36L23 35L24 35L24 32L25 32L25 33L26 33L26 32L25 32L25 31L26 31L26 30L27 30L27 32L29 32L29 33L28 33L28 36L29 36L29 38L30 38L30 40L29 40L29 41L30 41L30 44L29 44L29 47L30 47L30 48L29 48L29 49L28 49L28 50L29 50L29 49L30 49L30 51L29 51L29 52L30 52L30 51L31 51L31 52L33 52L33 51L32 51L32 50L31 50L31 49L32 49L32 48L31 48L31 47L30 47L30 46L31 46L31 45L30 45L30 44L31 44L31 41L32 41L32 43L33 43L33 45L32 45L32 46L33 46L33 47L34 47L34 48L36 48L36 47L35 47L35 44L34 44L34 42L35 42L35 43L36 43L36 42L37 42L37 45L38 45L38 46L37 46L37 48L38 48L38 47L39 47L39 46L43 46L43 47L44 47L44 46L43 46L43 45L44 45L44 43L43 43L43 41L44 41L44 42L45 42L45 41L46 41L46 40L45 40L45 41L44 41L44 39L45 39L45 38L46 38L46 36L45 36L45 38L44 38L44 39L43 39L43 37L44 37L44 35L43 35L43 33L44 33L44 34L45 34L45 35L46 35L46 34L45 34L45 33L47 33L47 32L44 32L44 31L45 31L45 30L43 30L43 27L42 27L42 26L44 26L44 25L42 25L42 24L41 24L41 25L39 25L39 23L40 23L40 22L39 22L39 18L41 18L41 17L38 17L38 15L39 15L39 13L40 13L40 12L39 12L39 8L40 8L40 6L41 6L41 8L42 8L42 6L41 6L41 5L40 5L40 6L39 6L39 5L38 5L38 6L37 6L37 7L36 7L36 6L35 6L35 7L34 7L34 6L33 6L33 4L34 4L34 2L35 2L35 1L31 1L31 2L29 2L29 3L31 3L31 2L32 2L32 4L31 4L31 5L32 5L32 6L31 6L31 7L30 7L30 6L29 6L29 7L30 7L30 8L29 8L29 9L28 9L28 10L29 10L29 9L30 9L30 12L28 12L28 11L26 11L26 10L27 10L27 9L26 9L26 10L25 10L25 9L24 9L24 8L23 8L23 10L25 10L25 11L22 11L22 12L23 12L23 13L24 13L24 15L23 15L23 14L22 14L22 15L20 15L20 16L18 16L18 18L17 18L17 17L16 17L16 18L17 18L17 19L16 19L16 20L15 20L15 19L14 19L14 18L15 18L15 17L14 17L14 16L15 16L15 15L16 15L16 16L17 16L17 13L18 13L18 12L19 12L19 9L18 9L18 8L21 8L21 7L22 7L22 6L23 6L23 7L24 7L24 6L23 6L23 5L24 5L24 4L23 4L23 3L22 3L22 2L20 2L20 3L21 3L21 4L23 4L23 5L22 5L22 6L21 6L21 5L20 5L20 4L19 4L19 1ZM40 2L40 3L41 3L41 2ZM27 3L27 4L28 4L28 3ZM29 4L29 5L30 5L30 4ZM13 5L13 7L12 7L12 8L13 8L13 7L14 7L14 5ZM25 5L25 8L28 8L28 5ZM15 6L15 7L16 7L16 6ZM18 6L18 7L19 7L19 6ZM20 6L20 7L21 7L21 6ZM26 6L26 7L27 7L27 6ZM32 6L32 7L31 7L31 12L32 12L32 13L31 13L31 15L29 15L29 13L27 13L27 14L28 14L28 15L29 15L29 16L28 16L28 17L27 17L27 16L26 16L26 17L25 17L25 20L26 20L26 19L29 19L29 18L30 18L30 17L29 17L29 16L31 16L31 17L33 17L33 18L32 18L32 19L31 19L31 20L29 20L29 21L28 21L28 20L27 20L27 21L24 21L24 20L21 20L21 19L20 19L20 20L19 20L19 18L18 18L18 19L17 19L17 22L16 22L16 21L15 21L15 20L14 20L14 19L13 19L13 18L12 18L12 19L11 19L11 18L9 18L9 17L10 17L10 15L11 15L11 14L10 14L10 15L8 15L8 13L7 13L7 12L6 12L6 13L5 13L5 14L6 14L6 15L8 15L8 16L5 16L5 15L4 15L4 14L3 14L3 15L4 15L4 16L5 16L5 17L4 17L4 18L3 18L3 19L4 19L4 18L5 18L5 20L6 20L6 21L7 21L7 20L8 20L8 19L7 19L7 18L5 18L5 17L8 17L8 18L9 18L9 19L10 19L10 20L11 20L11 21L10 21L10 22L9 22L9 21L8 21L8 22L9 22L9 23L10 23L10 22L11 22L11 23L12 23L12 20L14 20L14 22L13 22L13 24L12 24L12 25L13 25L13 26L14 26L14 24L15 24L15 23L17 23L17 22L18 22L18 23L19 23L19 24L18 24L18 25L19 25L19 26L17 26L17 24L16 24L16 26L17 26L17 27L16 27L16 28L17 28L17 30L15 30L15 27L13 27L13 28L14 28L14 31L16 31L16 32L14 32L14 33L15 33L15 34L14 34L14 35L15 35L15 36L14 36L14 38L15 38L15 36L16 36L16 35L17 35L17 38L18 38L18 39L19 39L19 38L20 38L20 36L21 36L21 35L23 35L23 34L21 34L21 30L22 30L22 31L23 31L23 32L22 32L22 33L23 33L23 32L24 32L24 31L23 31L23 30L26 30L26 29L27 29L27 30L28 30L28 29L29 29L29 27L30 27L30 25L29 25L29 24L30 24L30 22L29 22L29 21L33 21L33 19L34 19L34 17L35 17L35 18L36 18L36 19L35 19L35 20L34 20L34 21L37 21L37 23L35 23L35 24L34 24L34 23L33 23L33 22L31 22L31 29L32 29L32 30L33 30L33 29L35 29L35 30L36 30L36 33L35 33L35 34L36 34L36 36L35 36L35 35L34 35L34 33L33 33L33 32L32 32L32 31L31 31L31 34L32 34L32 35L31 35L31 36L30 36L30 37L32 37L32 38L31 38L31 40L30 40L30 41L31 41L31 40L32 40L32 41L33 41L33 40L34 40L34 39L32 39L32 38L33 38L33 37L34 37L34 36L35 36L35 37L37 37L37 38L35 38L35 40L36 40L36 41L35 41L35 42L36 42L36 41L37 41L37 40L38 40L38 39L37 39L37 38L38 38L38 37L37 37L37 36L38 36L38 34L37 34L37 33L38 33L38 32L37 32L37 31L38 31L38 29L37 29L37 28L39 28L39 29L40 29L40 30L39 30L39 33L43 33L43 31L42 31L42 32L41 32L41 31L40 31L40 30L42 30L42 29L41 29L41 28L42 28L42 27L40 27L40 26L38 26L38 27L33 27L33 26L34 26L34 25L35 25L35 26L37 26L37 24L38 24L38 21L37 21L37 20L38 20L38 19L37 19L37 18L38 18L38 17L37 17L37 16L36 16L36 15L37 15L37 14L38 14L38 13L39 13L39 12L38 12L38 13L37 13L37 11L35 11L35 12L34 12L34 11L33 11L33 10L34 10L34 7L33 7L33 6ZM38 6L38 7L37 7L37 8L36 8L36 7L35 7L35 9L37 9L37 10L38 10L38 9L37 9L37 8L38 8L38 7L39 7L39 6ZM45 8L45 9L47 9L47 10L48 10L48 11L47 11L47 12L45 12L45 14L43 14L43 16L45 16L45 17L47 17L47 18L48 18L48 20L47 20L47 21L50 21L50 20L49 20L49 19L50 19L50 16L49 16L49 15L50 15L50 12L49 12L49 11L53 11L53 9L51 9L51 8L50 8L50 9L51 9L51 10L49 10L49 9L47 9L47 8ZM20 9L20 10L22 10L22 9ZM32 9L32 10L33 10L33 9ZM2 10L2 11L4 11L4 10ZM6 10L6 11L7 11L7 10ZM14 10L14 11L15 11L15 10ZM17 10L17 11L16 11L16 12L14 12L14 15L15 15L15 14L16 14L16 12L18 12L18 10ZM20 11L20 14L21 14L21 11ZM25 11L25 12L24 12L24 13L25 13L25 14L26 14L26 11ZM51 12L51 15L52 15L52 17L51 17L51 21L52 21L52 19L53 19L53 12ZM6 13L6 14L7 14L7 13ZM33 13L33 14L32 14L32 15L31 15L31 16L32 16L32 15L33 15L33 14L34 14L34 16L33 16L33 17L34 17L34 16L35 16L35 13ZM46 13L46 14L45 14L45 15L47 15L47 16L48 16L48 14L49 14L49 13L48 13L48 14L47 14L47 13ZM18 14L18 15L19 15L19 14ZM8 16L8 17L9 17L9 16ZM11 16L11 17L13 17L13 16ZM20 16L20 18L22 18L22 17L23 17L23 19L24 19L24 17L23 17L23 16L22 16L22 17L21 17L21 16ZM28 17L28 18L29 18L29 17ZM48 17L48 18L49 18L49 17ZM6 19L6 20L7 20L7 19ZM45 19L45 20L46 20L46 19ZM20 20L20 22L19 22L19 21L18 21L18 22L19 22L19 23L21 23L21 20ZM4 21L4 22L5 22L5 21ZM23 21L23 22L22 22L22 23L23 23L23 24L22 24L22 27L20 27L20 30L18 30L18 31L20 31L20 30L21 30L21 28L23 28L23 29L24 29L24 28L23 28L23 27L24 27L24 26L23 26L23 24L27 24L27 23L28 23L28 24L29 24L29 23L28 23L28 21L27 21L27 23L25 23L25 22L24 22L24 21ZM6 22L6 23L7 23L7 22ZM14 22L14 23L15 23L15 22ZM23 22L23 23L24 23L24 22ZM50 22L50 23L51 23L51 24L52 24L52 25L51 25L51 28L52 28L52 29L51 29L51 30L49 30L49 31L51 31L51 33L50 33L50 32L49 32L49 34L48 34L48 35L51 35L51 34L52 34L52 36L53 36L53 33L52 33L52 31L53 31L53 26L52 26L52 25L53 25L53 22ZM2 24L2 25L3 25L3 26L4 26L4 24ZM35 24L35 25L36 25L36 24ZM5 25L5 28L8 28L8 25ZM20 25L20 26L21 26L21 25ZM25 25L25 28L28 28L28 25ZM32 25L32 26L33 26L33 25ZM45 25L45 28L48 28L48 25ZM6 26L6 27L7 27L7 26ZM26 26L26 27L27 27L27 26ZM46 26L46 27L47 27L47 26ZM17 27L17 28L19 28L19 27ZM39 27L39 28L40 28L40 27ZM6 29L6 30L7 30L7 29ZM10 29L10 30L9 30L9 31L8 31L8 32L6 32L6 33L8 33L8 34L9 34L9 35L10 35L10 34L9 34L9 31L10 31L10 30L12 30L12 29ZM51 30L51 31L52 31L52 30ZM11 31L11 36L10 36L10 37L12 37L12 36L13 36L13 34L12 34L12 33L13 33L13 32L12 32L12 31ZM29 31L29 32L30 32L30 31ZM34 31L34 32L35 32L35 31ZM0 32L0 33L1 33L1 32ZM18 32L18 35L19 35L19 36L20 36L20 35L21 35L21 34L20 34L20 32ZM16 33L16 34L17 34L17 33ZM29 33L29 35L30 35L30 33ZM25 34L25 35L26 35L26 36L27 36L27 34ZM39 34L39 37L40 37L40 39L39 39L39 41L40 41L40 42L39 42L39 43L38 43L38 45L41 45L41 44L42 44L42 43L41 43L41 41L43 41L43 40L42 40L42 39L41 39L41 38L42 38L42 37L43 37L43 35L42 35L42 37L41 37L41 34ZM33 35L33 36L34 36L34 35ZM6 37L6 38L7 38L7 37ZM49 37L49 38L50 38L50 37ZM6 39L6 40L7 40L7 39ZM8 39L8 40L9 40L9 39ZM20 41L20 42L21 42L21 43L22 43L22 42L21 42L21 41ZM2 42L2 43L3 43L3 42ZM45 43L45 44L46 44L46 43ZM6 44L6 45L7 45L7 44ZM25 45L25 48L28 48L28 45ZM33 45L33 46L34 46L34 45ZM45 45L45 48L48 48L48 45ZM11 46L11 47L10 47L10 48L9 48L9 49L10 49L10 50L9 50L9 52L11 52L11 49L12 49L12 50L13 50L13 49L14 49L14 50L15 50L15 49L14 49L14 48L12 48L12 46ZM26 46L26 47L27 47L27 46ZM46 46L46 47L47 47L47 46ZM10 48L10 49L11 49L11 48ZM51 48L51 49L50 49L50 50L51 50L51 53L53 53L53 52L52 52L52 49L53 49L53 48ZM16 49L16 50L17 50L17 51L16 51L16 52L17 52L17 51L18 51L18 50L17 50L17 49ZM24 49L24 50L25 50L25 49ZM47 49L47 51L48 51L48 49ZM40 50L40 51L39 51L39 53L41 53L41 52L42 52L42 51L41 51L41 50ZM0 0L0 7L7 7L7 0ZM1 1L1 6L6 6L6 1ZM2 2L2 5L5 5L5 2ZM46 0L46 7L53 7L53 0ZM47 1L47 6L52 6L52 1ZM48 2L48 5L51 5L51 2ZM0 46L0 53L7 53L7 46ZM1 47L1 52L6 52L6 47ZM2 48L2 51L5 51L5 48Z" fill="#000000"/></g></g></svg>
