<?xml version="1.0" encoding="UTF-8"?>
<svg xmlns="http://www.w3.org/2000/svg" version="1.1" width="420" height="420" viewBox="0 0 420 420"><rect x="0" y="0" width="420" height="420" fill="#ffffff"/><g transform="scale(7.925)"><g transform="translate(0,0)"><path fill-rule="evenodd" d="M8 0L8 4L9 4L9 5L8 5L8 7L9 7L9 5L10 5L10 4L9 4L9 2L10 2L10 3L12 3L12 7L11 7L11 6L10 6L10 7L11 7L11 8L12 8L12 9L14 9L14 10L15 10L15 9L16 9L16 7L17 7L17 9L18 9L18 11L17 11L17 10L16 10L16 11L15 11L15 12L14 12L14 11L13 11L13 10L12 10L12 13L11 13L11 14L12 14L12 16L13 16L13 15L14 15L14 16L17 16L17 15L18 15L18 14L17 14L17 15L16 15L16 14L13 14L13 13L17 13L17 12L18 12L18 13L19 13L19 15L20 15L20 14L21 14L21 13L22 13L22 14L23 14L23 13L24 13L24 15L25 15L25 17L24 17L24 19L25 19L25 18L26 18L26 17L27 17L27 16L28 16L28 15L29 15L29 16L32 16L32 18L34 18L34 19L32 19L32 20L31 20L31 21L30 21L30 20L28 20L28 21L26 21L26 20L23 20L23 19L22 19L22 18L21 18L21 17L23 17L23 16L22 16L22 15L21 15L21 16L20 16L20 17L19 17L19 16L18 16L18 17L13 17L13 18L12 18L12 17L10 17L10 21L12 21L12 23L13 23L13 25L14 25L14 28L13 28L13 27L12 27L12 26L11 26L11 27L10 27L10 26L9 26L9 25L11 25L11 24L10 24L10 23L11 23L11 22L10 22L10 23L9 23L9 24L5 24L5 23L7 23L7 22L9 22L9 21L8 21L8 20L6 20L6 19L9 19L9 16L11 16L11 15L10 15L10 14L8 14L8 12L9 12L9 13L10 13L10 12L9 12L9 11L8 11L8 10L9 10L9 9L7 9L7 8L4 8L4 10L2 10L2 11L0 11L0 13L1 13L1 14L0 14L0 16L1 16L1 19L0 19L0 21L1 21L1 20L2 20L2 19L4 19L4 20L6 20L6 21L7 21L7 22L5 22L5 23L4 23L4 24L3 24L3 23L2 23L2 26L3 26L3 27L2 27L2 28L1 28L1 27L0 27L0 28L1 28L1 29L0 29L0 31L1 31L1 30L2 30L2 31L5 31L5 32L4 32L4 33L3 33L3 32L2 32L2 33L3 33L3 34L1 34L1 33L0 33L0 35L3 35L3 34L4 34L4 35L5 35L5 33L8 33L8 32L9 32L9 33L10 33L10 32L11 32L11 31L14 31L14 32L15 32L15 30L16 30L16 31L18 31L18 30L16 30L16 29L19 29L19 31L21 31L21 32L20 32L20 33L19 33L19 32L18 32L18 33L13 33L13 32L12 32L12 33L13 33L13 34L12 34L12 35L10 35L10 37L11 37L11 36L12 36L12 41L11 41L11 38L10 38L10 39L9 39L9 40L8 40L8 39L7 39L7 38L8 38L8 36L9 36L9 35L8 35L8 34L6 34L6 35L8 35L8 36L5 36L5 37L7 37L7 38L4 38L4 40L5 40L5 39L7 39L7 40L6 40L6 41L5 41L5 42L3 42L3 41L2 41L2 39L0 39L0 41L2 41L2 42L0 42L0 43L1 43L1 44L3 44L3 45L4 45L4 44L3 44L3 43L7 43L7 42L6 42L6 41L8 41L8 42L10 42L10 43L9 43L9 44L10 44L10 45L11 45L11 46L10 46L10 47L13 47L13 46L12 46L12 44L13 44L13 45L14 45L14 47L16 47L16 48L17 48L17 47L18 47L18 46L16 46L16 45L17 45L17 44L18 44L18 45L19 45L19 46L20 46L20 47L21 47L21 48L20 48L20 49L19 49L19 48L18 48L18 49L15 49L15 48L13 48L13 50L14 50L14 51L16 51L16 50L17 50L17 53L20 53L20 52L18 52L18 50L19 50L19 51L20 51L20 50L21 50L21 52L22 52L22 50L21 50L21 49L23 49L23 48L24 48L24 50L25 50L25 51L27 51L27 53L28 53L28 51L29 51L29 53L31 53L31 50L32 50L32 49L34 49L34 48L35 48L35 49L37 49L37 48L38 48L38 46L39 46L39 49L38 49L38 50L37 50L37 51L36 51L36 50L35 50L35 51L34 51L34 50L33 50L33 51L32 51L32 53L33 53L33 51L34 51L34 52L35 52L35 53L38 53L38 51L39 51L39 53L40 53L40 47L41 47L41 51L44 51L44 53L45 53L45 51L46 51L46 53L47 53L47 52L48 52L48 53L50 53L50 52L49 52L49 51L48 51L48 49L50 49L50 48L49 48L49 47L50 47L50 46L51 46L51 47L52 47L52 48L51 48L51 49L52 49L52 48L53 48L53 41L51 41L51 42L49 42L49 41L50 41L50 39L51 39L51 40L52 40L52 39L53 39L53 36L52 36L52 38L51 38L51 37L50 37L50 33L48 33L48 31L49 31L49 32L50 32L50 30L51 30L51 33L52 33L52 34L51 34L51 35L53 35L53 29L52 29L52 30L51 30L51 29L50 29L50 27L51 27L51 28L52 28L52 27L53 27L53 26L52 26L52 27L51 27L51 25L49 25L49 24L50 24L50 23L49 23L49 20L50 20L50 19L51 19L51 21L50 21L50 22L52 22L52 23L51 23L51 24L52 24L52 23L53 23L53 22L52 22L52 21L53 21L53 17L52 17L52 19L51 19L51 17L49 17L49 16L50 16L50 15L51 15L51 13L52 13L52 15L53 15L53 13L52 13L52 12L53 12L53 8L49 8L49 9L50 9L50 10L48 10L48 8L47 8L47 10L48 10L48 11L46 11L46 9L44 9L44 8L43 8L43 3L44 3L44 4L45 4L45 3L44 3L44 1L43 1L43 0L42 0L42 1L39 1L39 0L38 0L38 1L36 1L36 2L33 2L33 1L34 1L34 0L32 0L32 3L34 3L34 4L33 4L33 6L32 6L32 4L31 4L31 3L30 3L30 2L28 2L28 3L29 3L29 4L26 4L26 1L29 1L29 0L13 0L13 2L12 2L12 0L11 0L11 2L10 2L10 0ZM30 0L30 1L31 1L31 0ZM15 1L15 3L14 3L14 2L13 2L13 5L15 5L15 7L14 7L14 6L13 6L13 7L14 7L14 8L15 8L15 7L16 7L16 5L18 5L18 6L17 6L17 7L18 7L18 6L19 6L19 7L20 7L20 8L21 8L21 9L19 9L19 8L18 8L18 9L19 9L19 11L18 11L18 12L19 12L19 13L21 13L21 12L19 12L19 11L20 11L20 10L21 10L21 11L22 11L22 10L23 10L23 9L24 9L24 8L22 8L22 6L21 6L21 7L20 7L20 5L19 5L19 4L20 4L20 3L21 3L21 4L22 4L22 5L23 5L23 7L24 7L24 4L22 4L22 3L21 3L21 2L24 2L24 3L25 3L25 1L21 1L21 2L20 2L20 1L19 1L19 3L18 3L18 4L17 4L17 2L18 2L18 1L17 1L17 2L16 2L16 1ZM38 1L38 3L35 3L35 4L34 4L34 5L35 5L35 7L34 7L34 6L33 6L33 7L34 7L34 10L38 10L38 8L39 8L39 7L40 7L40 5L41 5L41 8L40 8L40 9L39 9L39 10L41 10L41 9L43 9L43 10L44 10L44 11L43 11L43 12L44 12L44 13L43 13L43 14L44 14L44 17L43 17L43 19L42 19L42 20L41 20L41 19L40 19L40 20L38 20L38 18L37 18L37 17L41 17L41 18L42 18L42 16L43 16L43 15L40 15L40 16L39 16L39 15L38 15L38 16L37 16L37 17L36 17L36 15L35 15L35 12L34 12L34 11L33 11L33 10L32 10L32 11L33 11L33 13L32 13L32 14L30 14L30 15L33 15L33 13L34 13L34 15L35 15L35 17L34 17L34 18L36 18L36 19L37 19L37 20L38 20L38 21L39 21L39 23L37 23L37 21L35 21L35 19L34 19L34 23L37 23L37 24L38 24L38 25L39 25L39 24L40 24L40 25L42 25L42 24L43 24L43 23L44 23L44 24L45 24L45 23L47 23L47 21L46 21L46 20L45 20L45 19L47 19L47 20L48 20L48 19L49 19L49 17L48 17L48 19L47 19L47 14L48 14L48 15L49 15L49 14L48 14L48 13L47 13L47 12L46 12L46 11L45 11L45 10L44 10L44 9L43 9L43 8L42 8L42 5L41 5L41 4L42 4L42 3L43 3L43 2L42 2L42 3L41 3L41 4L40 4L40 3L39 3L39 1ZM15 3L15 4L16 4L16 3ZM35 4L35 5L36 5L36 7L35 7L35 8L36 8L36 9L37 9L37 6L38 6L38 7L39 7L39 6L38 6L38 5L40 5L40 4L37 4L37 5L36 5L36 4ZM25 5L25 8L28 8L28 5ZM29 5L29 7L30 7L30 8L29 8L29 11L30 11L30 13L31 13L31 11L30 11L30 9L32 9L32 6L31 6L31 5ZM26 6L26 7L27 7L27 6ZM30 6L30 7L31 7L31 6ZM44 6L44 7L45 7L45 6ZM0 8L0 9L2 9L2 8ZM5 9L5 10L4 10L4 11L3 11L3 12L1 12L1 13L2 13L2 14L4 14L4 13L5 13L5 14L7 14L7 15L6 15L6 16L8 16L8 14L7 14L7 13L5 13L5 12L4 12L4 11L5 11L5 10L7 10L7 9ZM27 9L27 11L26 11L26 10L25 10L25 11L24 11L24 12L25 12L25 13L27 13L27 14L28 14L28 13L29 13L29 12L28 12L28 9ZM51 9L51 10L50 10L50 12L49 12L49 13L51 13L51 12L52 12L52 9ZM6 11L6 12L7 12L7 11ZM37 11L37 12L38 12L38 13L39 13L39 14L42 14L42 11L41 11L41 12L40 12L40 13L39 13L39 11ZM3 12L3 13L4 13L4 12ZM22 12L22 13L23 13L23 12ZM45 12L45 13L44 13L44 14L45 14L45 15L46 15L46 14L45 14L45 13L46 13L46 12ZM25 14L25 15L26 15L26 16L27 16L27 15L26 15L26 14ZM1 15L1 16L2 16L2 18L4 18L4 17L5 17L5 15L4 15L4 16L3 16L3 15ZM45 16L45 17L44 17L44 18L46 18L46 16ZM6 17L6 18L7 18L7 17ZM28 17L28 19L31 19L31 17L30 17L30 18L29 18L29 17ZM11 18L11 19L12 19L12 18ZM14 18L14 20L15 20L15 21L13 21L13 20L12 20L12 21L13 21L13 23L14 23L14 24L16 24L16 25L15 25L15 27L16 27L16 26L17 26L17 28L19 28L19 29L21 29L21 31L22 31L22 32L23 32L23 33L21 33L21 34L20 34L20 35L19 35L19 37L16 37L16 36L17 36L17 35L18 35L18 34L16 34L16 35L15 35L15 34L13 34L13 35L14 35L14 36L15 36L15 37L13 37L13 39L14 39L14 40L15 40L15 39L16 39L16 41L15 41L15 42L14 42L14 41L12 41L12 42L13 42L13 44L14 44L14 45L16 45L16 44L14 44L14 43L16 43L16 42L17 42L17 43L18 43L18 44L19 44L19 45L24 45L24 44L25 44L25 43L22 43L22 44L19 44L19 43L20 43L20 42L21 42L21 41L22 41L22 42L23 42L23 41L24 41L24 42L25 42L25 40L28 40L28 41L29 41L29 42L28 42L28 43L30 43L30 44L31 44L31 46L33 46L33 47L34 47L34 46L35 46L35 47L37 47L37 46L38 46L38 45L39 45L39 43L40 43L40 45L43 45L43 47L42 47L42 49L44 49L44 51L45 51L45 49L44 49L44 45L43 45L43 43L42 43L42 42L40 42L40 41L41 41L41 40L43 40L43 38L45 38L45 40L44 40L44 41L45 41L45 42L44 42L44 43L45 43L45 44L47 44L47 43L46 43L46 41L47 41L47 39L46 39L46 38L48 38L48 37L49 37L49 34L48 34L48 35L46 35L46 38L45 38L45 37L43 37L43 35L45 35L45 34L46 34L46 32L47 32L47 31L46 31L46 30L47 30L47 29L44 29L44 25L43 25L43 26L42 26L42 27L40 27L40 29L39 29L39 30L40 30L40 29L41 29L41 30L42 30L42 27L43 27L43 31L42 31L42 32L41 32L41 31L39 31L39 32L40 32L40 34L39 34L39 36L40 36L40 37L43 37L43 38L39 38L39 39L38 39L38 38L37 38L37 37L34 37L34 36L35 36L35 35L38 35L38 34L35 34L35 32L36 32L36 31L35 31L35 29L34 29L34 31L35 31L35 32L33 32L33 30L32 30L32 27L33 27L33 28L35 28L35 26L36 26L36 27L38 27L38 28L39 28L39 27L38 27L38 26L36 26L36 24L35 24L35 25L33 25L33 26L32 26L32 27L30 27L30 25L32 25L32 23L30 23L30 21L29 21L29 23L30 23L30 24L29 24L29 27L30 27L30 29L26 29L26 30L25 30L25 29L24 29L24 28L22 28L22 27L23 27L23 26L24 26L24 25L23 25L23 24L25 24L25 23L26 23L26 24L28 24L28 23L26 23L26 21L23 21L23 20L22 20L22 19L21 19L21 18L20 18L20 19L19 19L19 18L18 18L18 19L19 19L19 21L21 21L21 22L22 22L22 21L23 21L23 24L22 24L22 23L21 23L21 25L19 25L19 24L20 24L20 22L19 22L19 24L18 24L18 25L17 25L17 24L16 24L16 22L17 22L17 23L18 23L18 21L16 21L16 20L17 20L17 18L16 18L16 19L15 19L15 18ZM21 20L21 21L22 21L22 20ZM3 21L3 22L4 22L4 21ZM32 21L32 22L33 22L33 21ZM42 21L42 22L40 22L40 23L41 23L41 24L42 24L42 23L43 23L43 21ZM44 21L44 22L45 22L45 21ZM0 22L0 24L1 24L1 22ZM24 22L24 23L25 23L25 22ZM48 23L48 24L49 24L49 23ZM0 25L0 26L1 26L1 25ZM5 25L5 28L8 28L8 25ZM18 25L18 26L19 26L19 25ZM21 25L21 26L20 26L20 27L19 27L19 28L21 28L21 29L22 29L22 30L23 30L23 31L25 31L25 30L24 30L24 29L22 29L22 28L21 28L21 26L22 26L22 25ZM25 25L25 28L28 28L28 25ZM45 25L45 28L48 28L48 25ZM6 26L6 27L7 27L7 26ZM26 26L26 27L27 27L27 26ZM33 26L33 27L34 27L34 26ZM46 26L46 27L47 27L47 26ZM3 27L3 29L2 29L2 30L3 30L3 29L4 29L4 30L5 30L5 31L6 31L6 32L8 32L8 31L9 31L9 32L10 32L10 31L11 31L11 29L4 29L4 27ZM11 27L11 28L12 28L12 27ZM15 28L15 29L12 29L12 30L15 30L15 29L16 29L16 28ZM30 29L30 31L29 31L29 30L27 30L27 31L26 31L26 32L24 32L24 33L23 33L23 34L22 34L22 36L26 36L26 37L27 37L27 38L24 38L24 37L22 37L22 38L21 38L21 37L19 37L19 38L18 38L18 39L17 39L17 38L16 38L16 37L15 37L15 38L16 38L16 39L17 39L17 41L18 41L18 42L19 42L19 41L21 41L21 40L19 40L19 39L20 39L20 38L21 38L21 39L22 39L22 40L23 40L23 39L24 39L24 40L25 40L25 39L27 39L27 38L30 38L30 39L28 39L28 40L30 40L30 43L32 43L32 45L33 45L33 46L34 46L34 45L33 45L33 44L35 44L35 46L37 46L37 45L38 45L38 44L37 44L37 42L36 42L36 41L38 41L38 42L39 42L39 41L40 41L40 39L39 39L39 41L38 41L38 40L37 40L37 39L36 39L36 38L35 38L35 39L34 39L34 38L32 38L32 40L30 40L30 39L31 39L31 36L30 36L30 35L31 35L31 34L32 34L32 33L33 33L33 32L32 32L32 33L30 33L30 35L27 35L27 34L26 34L26 33L27 33L27 31L28 31L28 32L30 32L30 31L32 31L32 30L31 30L31 29ZM49 29L49 30L50 30L50 29ZM6 30L6 31L7 31L7 30ZM9 30L9 31L10 31L10 30ZM37 30L37 31L38 31L38 30ZM44 30L44 31L43 31L43 33L41 33L41 34L40 34L40 35L41 35L41 36L42 36L42 35L43 35L43 33L44 33L44 34L45 34L45 30ZM24 33L24 35L25 35L25 33ZM41 34L41 35L42 35L42 34ZM32 35L32 37L33 37L33 35ZM0 36L0 38L2 38L2 36ZM28 36L28 37L30 37L30 36ZM49 38L49 39L50 39L50 38ZM33 39L33 41L34 41L34 42L35 42L35 44L36 44L36 42L35 42L35 40L36 40L36 39L35 39L35 40L34 40L34 39ZM18 40L18 41L19 41L19 40ZM10 41L10 42L11 42L11 41ZM26 41L26 44L27 44L27 41ZM2 42L2 43L3 43L3 42ZM48 42L48 44L49 44L49 42ZM51 42L51 43L50 43L50 45L49 45L49 46L50 46L50 45L51 45L51 46L52 46L52 44L51 44L51 43L52 43L52 42ZM10 43L10 44L12 44L12 43ZM41 43L41 44L42 44L42 43ZM6 44L6 45L8 45L8 46L9 46L9 45L8 45L8 44ZM25 45L25 48L28 48L28 45ZM45 45L45 48L48 48L48 45ZM21 46L21 47L22 47L22 48L23 48L23 47L24 47L24 46ZM26 46L26 47L27 47L27 46ZM46 46L46 47L47 47L47 46ZM8 47L8 49L9 49L9 50L10 50L10 51L11 51L11 50L12 50L12 48L11 48L11 50L10 50L10 48L9 48L9 47ZM30 47L30 48L29 48L29 51L30 51L30 49L31 49L31 48L32 48L32 47ZM46 49L46 50L47 50L47 49ZM50 50L50 51L51 51L51 53L52 53L52 52L53 52L53 51L51 51L51 50ZM8 51L8 53L9 53L9 51ZM10 52L10 53L11 53L11 52ZM12 52L12 53L13 53L13 52ZM14 52L14 53L16 53L16 52ZM23 52L23 53L26 53L26 52ZM41 52L41 53L43 53L43 52ZM0 0L0 7L7 7L7 0ZM1 1L1 6L6 6L6 1ZM2 2L2 5L5 5L5 2ZM46 0L46 7L53 7L53 0ZM47 1L47 6L52 6L52 1ZM48 2L48 5L51 5L51 2ZM0 46L0 53L7 53L7 46ZM1 47L1 52L6 52L6 47ZM2 48L2 51L5 51L5 48Z" fill="#000000"/></g></g></svg>
