<?xml version="1.0" encoding="UTF-8"?>
<svg xmlns="http://www.w3.org/2000/svg" version="1.1" width="420" height="420" viewBox="0 0 420 420"><rect x="0" y="0" width="420" height="420" fill="#ffffff"/><g transform="scale(7.925)"><g transform="translate(0,0)"><path fill-rule="evenodd" d="M12 0L12 1L11 1L11 4L10 4L10 5L8 5L8 7L9 7L9 6L10 6L10 8L11 8L11 9L10 9L10 10L9 10L9 13L8 13L8 15L9 15L9 16L5 16L5 15L7 15L7 14L6 14L6 13L7 13L7 12L8 12L8 11L7 11L7 10L8 10L8 9L9 9L9 8L6 8L6 9L5 9L5 8L0 8L0 9L5 9L5 10L3 10L3 11L2 11L2 10L0 10L0 12L2 12L2 13L0 13L0 14L1 14L1 15L0 15L0 17L2 17L2 16L4 16L4 19L3 19L3 18L2 18L2 19L1 19L1 18L0 18L0 19L1 19L1 21L2 21L2 20L5 20L5 21L8 21L8 23L9 23L9 24L6 24L6 23L7 23L7 22L6 22L6 23L4 23L4 22L2 22L2 23L1 23L1 24L0 24L0 26L1 26L1 28L0 28L0 31L2 31L2 30L3 30L3 31L4 31L4 33L3 33L3 32L0 32L0 33L1 33L1 34L2 34L2 35L0 35L0 37L2 37L2 38L0 38L0 39L1 39L1 40L0 40L0 43L1 43L1 44L3 44L3 45L4 45L4 44L3 44L3 43L7 43L7 44L6 44L6 45L8 45L8 47L10 47L10 46L12 46L12 45L13 45L13 44L11 44L11 45L10 45L10 44L9 44L9 43L10 43L10 42L12 42L12 41L16 41L16 42L14 42L14 45L15 45L15 46L14 46L14 47L16 47L16 45L21 45L21 46L20 46L20 47L22 47L22 46L23 46L23 48L24 48L24 51L28 51L28 49L29 49L29 46L30 46L30 48L31 48L31 49L30 49L30 50L29 50L29 52L30 52L30 53L32 53L32 52L33 52L33 51L32 51L32 52L31 52L31 51L30 51L30 50L31 50L31 49L32 49L32 50L34 50L34 53L35 53L35 50L34 50L34 49L37 49L37 50L36 50L36 51L39 51L39 53L40 53L40 52L42 52L42 53L43 53L43 52L42 52L42 51L41 51L41 50L43 50L43 49L44 49L44 50L45 50L45 51L44 51L44 53L47 53L47 52L45 52L45 51L46 51L46 50L45 50L45 49L47 49L47 50L48 50L48 51L49 51L49 52L48 52L48 53L49 53L49 52L50 52L50 53L51 53L51 52L52 52L52 51L53 51L53 50L52 50L52 49L53 49L53 47L52 47L52 46L53 46L53 43L52 43L52 44L50 44L50 43L51 43L51 42L49 42L49 41L46 41L46 40L47 40L47 39L46 39L46 40L45 40L45 37L43 37L43 36L48 36L48 35L46 35L46 34L45 34L45 35L43 35L43 36L42 36L42 34L43 34L43 33L41 33L41 35L39 35L39 34L38 34L38 35L39 35L39 36L38 36L38 37L39 37L39 38L36 38L36 39L35 39L35 38L33 38L33 39L32 39L32 40L33 40L33 43L32 43L32 44L35 44L35 43L36 43L36 41L37 41L37 42L38 42L38 41L39 41L39 42L40 42L40 43L42 43L42 44L44 44L44 45L42 45L42 46L44 46L44 48L43 48L43 47L42 47L42 48L41 48L41 47L40 47L40 46L41 46L41 45L39 45L39 43L38 43L38 45L39 45L39 46L37 46L37 44L36 44L36 46L33 46L33 45L32 45L32 46L31 46L31 43L30 43L30 42L32 42L32 41L30 41L30 42L28 42L28 43L27 43L27 41L26 41L26 43L25 43L25 40L27 40L27 39L29 39L29 38L31 38L31 37L32 37L32 35L30 35L30 36L31 36L31 37L29 37L29 36L28 36L28 35L29 35L29 33L28 33L28 31L30 31L30 30L31 30L31 31L32 31L32 32L33 32L33 33L32 33L32 34L34 34L34 35L35 35L35 37L37 37L37 32L39 32L39 30L38 30L38 31L37 31L37 30L34 30L34 31L32 31L32 30L31 30L31 29L32 29L32 28L34 28L34 27L35 27L35 26L34 26L34 25L35 25L35 24L34 24L34 23L37 23L37 22L38 22L38 20L41 20L41 21L40 21L40 22L39 22L39 23L40 23L40 24L41 24L41 23L40 23L40 22L44 22L44 21L46 21L46 19L47 19L47 21L48 21L48 24L46 24L46 23L47 23L47 22L45 22L45 23L44 23L44 25L43 25L43 23L42 23L42 25L40 25L40 26L38 26L38 27L37 27L37 24L36 24L36 27L37 27L37 28L35 28L35 29L37 29L37 28L38 28L38 27L39 27L39 28L41 28L41 30L46 30L46 29L47 29L47 30L49 30L49 31L48 31L48 32L49 32L49 33L48 33L48 34L49 34L49 37L48 37L48 38L49 38L49 37L52 37L52 38L50 38L50 39L49 39L49 40L50 40L50 41L52 41L52 42L53 42L53 41L52 41L52 40L50 40L50 39L52 39L52 38L53 38L53 35L52 35L52 34L53 34L53 33L51 33L51 32L50 32L50 29L51 29L51 31L52 31L52 30L53 30L53 29L52 29L52 28L53 28L53 27L51 27L51 28L50 28L50 25L51 25L51 26L52 26L52 24L53 24L53 23L52 23L52 22L53 22L53 20L52 20L52 19L51 19L51 18L53 18L53 16L52 16L52 14L53 14L53 13L51 13L51 14L49 14L49 13L50 13L50 11L51 11L51 10L53 10L53 9L52 9L52 8L51 8L51 10L50 10L50 11L49 11L49 12L48 12L48 8L47 8L47 10L45 10L45 12L41 12L41 11L40 11L40 9L39 9L39 10L38 10L38 8L36 8L36 9L37 9L37 11L40 11L40 12L41 12L41 13L40 13L40 15L39 15L39 16L38 16L38 15L37 15L37 14L38 14L38 13L37 13L37 12L35 12L35 11L34 11L34 10L33 10L33 11L32 11L32 10L31 10L31 9L32 9L32 8L35 8L35 5L37 5L37 3L38 3L38 2L39 2L39 3L41 3L41 4L39 4L39 5L38 5L38 7L39 7L39 8L40 8L40 7L41 7L41 8L42 8L42 7L43 7L43 3L44 3L44 4L45 4L45 3L44 3L44 1L43 1L43 0L41 0L41 1L40 1L40 0L39 0L39 1L38 1L38 0L37 0L37 1L36 1L36 2L37 2L37 3L33 3L33 2L34 2L34 1L33 1L33 2L32 2L32 3L31 3L31 4L30 4L30 5L31 5L31 6L30 6L30 7L29 7L29 4L28 4L28 1L29 1L29 3L30 3L30 1L32 1L32 0L28 0L28 1L25 1L25 0L22 0L22 1L21 1L21 0L18 0L18 2L17 2L17 3L16 3L16 2L14 2L14 3L15 3L15 4L13 4L13 5L12 5L12 8L11 8L11 6L10 6L10 5L11 5L11 4L12 4L12 3L13 3L13 1L14 1L14 0ZM15 0L15 1L16 1L16 0ZM8 1L8 2L9 2L9 3L8 3L8 4L9 4L9 3L10 3L10 1ZM19 1L19 2L20 2L20 1ZM22 1L22 2L23 2L23 3L21 3L21 4L18 4L18 3L17 3L17 4L16 4L16 5L15 5L15 8L16 8L16 9L13 9L13 10L12 10L12 9L11 9L11 13L12 13L12 14L10 14L10 16L9 16L9 18L8 18L8 17L6 17L6 18L5 18L5 20L7 20L7 19L6 19L6 18L8 18L8 20L9 20L9 21L11 21L11 22L13 22L13 21L15 21L15 23L18 23L18 22L20 22L20 23L19 23L19 24L20 24L20 25L19 25L19 26L18 26L18 27L17 27L17 29L15 29L15 28L16 28L16 27L15 27L15 26L16 26L16 25L18 25L18 24L16 24L16 25L12 25L12 24L11 24L11 23L10 23L10 24L9 24L9 26L10 26L10 24L11 24L11 26L13 26L13 27L10 27L10 28L12 28L12 29L9 29L9 30L7 30L7 29L6 29L6 30L4 30L4 26L3 26L3 25L2 25L2 24L1 24L1 25L2 25L2 27L3 27L3 28L2 28L2 29L3 29L3 30L4 30L4 31L6 31L6 32L7 32L7 33L6 33L6 34L7 34L7 33L8 33L8 31L9 31L9 30L10 30L10 32L9 32L9 34L8 34L8 35L5 35L5 33L4 33L4 35L3 35L3 36L2 36L2 37L3 37L3 36L4 36L4 37L5 37L5 39L4 39L4 38L3 38L3 39L2 39L2 40L1 40L1 41L2 41L2 43L3 43L3 41L4 41L4 40L5 40L5 42L8 42L8 43L9 43L9 42L8 42L8 41L6 41L6 40L7 40L7 39L6 39L6 38L7 38L7 37L8 37L8 38L9 38L9 37L10 37L10 39L11 39L11 41L12 41L12 38L13 38L13 37L15 37L15 38L16 38L16 41L18 41L18 40L17 40L17 39L18 39L18 37L17 37L17 36L19 36L19 40L20 40L20 41L19 41L19 42L20 42L20 43L19 43L19 44L21 44L21 45L23 45L23 46L24 46L24 45L23 45L23 44L25 44L25 43L24 43L24 42L23 42L23 41L24 41L24 40L25 40L25 39L27 39L27 35L28 35L28 33L27 33L27 31L28 31L28 30L29 30L29 29L31 29L31 28L32 28L32 27L31 27L31 26L33 26L33 25L34 25L34 24L32 24L32 23L31 23L31 22L30 22L30 21L31 21L31 20L32 20L32 21L33 21L33 22L35 22L35 21L34 21L34 20L35 20L35 19L36 19L36 20L38 20L38 18L40 18L40 19L41 19L41 20L42 20L42 21L43 21L43 20L45 20L45 19L46 19L46 18L47 18L47 19L48 19L48 18L51 18L51 17L52 17L52 16L51 16L51 15L50 15L50 16L51 16L51 17L48 17L48 18L47 18L47 16L49 16L49 15L47 15L47 16L46 16L46 14L48 14L48 13L47 13L47 12L45 12L45 13L44 13L44 15L43 15L43 14L41 14L41 15L43 15L43 17L44 17L44 18L42 18L42 16L40 16L40 17L36 17L36 16L37 16L37 15L36 15L36 14L37 14L37 13L35 13L35 12L32 12L32 11L31 11L31 10L28 10L28 9L25 9L25 10L24 10L24 8L22 8L22 6L23 6L23 7L24 7L24 5L22 5L22 4L23 4L23 3L24 3L24 4L25 4L25 3L27 3L27 2L25 2L25 1ZM37 1L37 2L38 2L38 1ZM39 1L39 2L40 2L40 1ZM24 2L24 3L25 3L25 2ZM41 2L41 3L43 3L43 2ZM32 3L32 6L31 6L31 8L32 8L32 6L33 6L33 7L34 7L34 6L33 6L33 5L35 5L35 4L33 4L33 3ZM17 4L17 5L18 5L18 7L17 7L17 6L16 6L16 7L17 7L17 8L18 8L18 9L16 9L16 10L14 10L14 12L15 12L15 13L14 13L14 14L15 14L15 13L17 13L17 12L18 12L18 13L21 13L21 14L22 14L22 15L21 15L21 17L18 17L18 16L17 16L17 15L18 15L18 14L17 14L17 15L16 15L16 16L17 16L17 17L18 17L18 19L19 19L19 20L18 20L18 21L21 21L21 20L22 20L22 18L24 18L24 19L23 19L23 21L24 21L24 20L25 20L25 23L24 23L24 22L23 22L23 23L22 23L22 22L21 22L21 24L23 24L23 25L22 25L22 26L24 26L24 29L21 29L21 28L22 28L22 27L21 27L21 28L19 28L19 27L20 27L20 26L19 26L19 27L18 27L18 29L21 29L21 30L20 30L20 31L21 31L21 30L22 30L22 31L23 31L23 32L24 32L24 31L25 31L25 30L27 30L27 29L29 29L29 27L30 27L30 28L31 28L31 27L30 27L30 26L31 26L31 25L30 25L30 26L29 26L29 24L28 24L28 22L29 22L29 21L27 21L27 20L28 20L28 18L29 18L29 17L30 17L30 18L31 18L31 17L32 17L32 18L33 18L33 17L32 17L32 16L31 16L31 15L30 15L30 14L32 14L32 15L33 15L33 16L34 16L34 17L35 17L35 16L36 16L36 15L35 15L35 14L33 14L33 13L32 13L32 12L31 12L31 11L30 11L30 12L31 12L31 13L30 13L30 14L29 14L29 12L26 12L26 13L25 13L25 11L26 11L26 10L25 10L25 11L24 11L24 10L23 10L23 9L21 9L21 10L23 10L23 11L24 11L24 12L23 12L23 13L22 13L22 11L21 11L21 12L19 12L19 11L20 11L20 10L19 10L19 9L20 9L20 8L21 8L21 6L22 6L22 5L20 5L20 8L19 8L19 5L18 5L18 4ZM25 5L25 8L28 8L28 5ZM40 5L40 6L39 6L39 7L40 7L40 6L41 6L41 7L42 7L42 5ZM13 6L13 8L14 8L14 6ZM26 6L26 7L27 7L27 6ZM36 6L36 7L37 7L37 6ZM44 6L44 7L45 7L45 6ZM29 8L29 9L30 9L30 8ZM44 8L44 9L41 9L41 10L43 10L43 11L44 11L44 9L46 9L46 8ZM49 8L49 9L50 9L50 8ZM6 9L6 10L7 10L7 9ZM27 10L27 11L28 11L28 10ZM3 11L3 12L7 12L7 11ZM12 11L12 13L13 13L13 11ZM15 11L15 12L16 12L16 11ZM2 13L2 14L3 14L3 15L4 15L4 14L5 14L5 13ZM26 13L26 14L23 14L23 15L22 15L22 17L24 17L24 16L23 16L23 15L26 15L26 16L25 16L25 17L27 17L27 18L26 18L26 19L25 19L25 20L27 20L27 18L28 18L28 16L29 16L29 14L28 14L28 13ZM19 14L19 15L20 15L20 14ZM27 14L27 15L28 15L28 14ZM13 15L13 16L14 16L14 15ZM34 15L34 16L35 16L35 15ZM44 15L44 17L45 17L45 15ZM11 17L11 18L12 18L12 19L13 19L13 18L14 18L14 17L13 17L13 18L12 18L12 17ZM15 17L15 18L16 18L16 17ZM40 17L40 18L41 18L41 17ZM9 18L9 20L10 20L10 18ZM19 18L19 19L20 19L20 18ZM36 18L36 19L37 19L37 18ZM14 19L14 20L15 20L15 21L17 21L17 20L16 20L16 19ZM32 19L32 20L34 20L34 19ZM42 19L42 20L43 20L43 19ZM50 19L50 20L49 20L49 21L50 21L50 22L49 22L49 23L50 23L50 24L51 24L51 21L52 21L52 20L51 20L51 19ZM12 20L12 21L13 21L13 20ZM50 20L50 21L51 21L51 20ZM13 23L13 24L14 24L14 23ZM25 23L25 24L27 24L27 23ZM30 23L30 24L31 24L31 23ZM38 24L38 25L39 25L39 24ZM5 25L5 28L8 28L8 25ZM25 25L25 28L28 28L28 25ZM45 25L45 28L48 28L48 25ZM6 26L6 27L7 27L7 26ZM26 26L26 27L27 27L27 26ZM40 26L40 27L41 27L41 28L42 28L42 26ZM43 26L43 28L44 28L44 26ZM46 26L46 27L47 27L47 26ZM13 27L13 28L14 28L14 27ZM13 29L13 30L15 30L15 31L16 31L16 30L15 30L15 29ZM24 29L24 30L23 30L23 31L24 31L24 30L25 30L25 29ZM6 30L6 31L7 31L7 30ZM11 30L11 31L12 31L12 30ZM17 30L17 31L18 31L18 30ZM13 31L13 32L10 32L10 34L11 34L11 33L13 33L13 34L12 34L12 35L13 35L13 36L12 36L12 37L11 37L11 38L12 38L12 37L13 37L13 36L16 36L16 35L13 35L13 34L14 34L14 33L13 33L13 32L14 32L14 31ZM34 31L34 34L35 34L35 31ZM36 31L36 32L37 32L37 31ZM40 31L40 32L41 32L41 31ZM42 31L42 32L45 32L45 31ZM46 31L46 32L47 32L47 31ZM17 32L17 33L18 33L18 35L19 35L19 36L20 36L20 37L21 37L21 38L20 38L20 40L22 40L22 41L21 41L21 42L22 42L22 43L23 43L23 42L22 42L22 41L23 41L23 38L24 38L24 39L25 39L25 38L26 38L26 36L25 36L25 34L27 34L27 33L25 33L25 34L24 34L24 35L23 35L23 34L22 34L22 32L21 32L21 33L18 33L18 32ZM2 33L2 34L3 34L3 33ZM15 33L15 34L16 34L16 33ZM30 33L30 34L31 34L31 33ZM49 33L49 34L51 34L51 33ZM19 34L19 35L20 35L20 34ZM8 35L8 36L11 36L11 35ZM21 35L21 37L25 37L25 36L23 36L23 35ZM50 35L50 36L52 36L52 35ZM5 36L5 37L7 37L7 36ZM33 36L33 37L34 37L34 36ZM39 36L39 37L41 37L41 38L40 38L40 39L43 39L43 38L42 38L42 36ZM28 37L28 38L29 38L29 37ZM21 38L21 39L22 39L22 38ZM5 39L5 40L6 40L6 39ZM13 39L13 40L14 40L14 39ZM30 39L30 40L31 40L31 39ZM33 39L33 40L34 40L34 42L35 42L35 39ZM36 39L36 40L37 40L37 41L38 41L38 40L39 40L39 41L41 41L41 40L39 40L39 39ZM2 40L2 41L3 41L3 40ZM43 40L43 41L44 41L44 42L42 42L42 43L45 43L45 44L46 44L46 43L47 43L47 42L46 42L46 43L45 43L45 40ZM48 42L48 44L49 44L49 45L50 45L50 47L49 47L49 49L48 49L48 50L50 50L50 52L51 52L51 51L52 51L52 50L50 50L50 48L51 48L51 46L52 46L52 45L50 45L50 44L49 44L49 42ZM15 43L15 44L16 44L16 43ZM26 43L26 44L27 44L27 43ZM28 43L28 44L29 44L29 43ZM8 44L8 45L9 45L9 44ZM25 45L25 48L28 48L28 45ZM45 45L45 48L48 48L48 45ZM17 46L17 47L18 47L18 46ZM26 46L26 47L27 47L27 46ZM36 46L36 47L35 47L35 48L37 48L37 46ZM46 46L46 47L47 47L47 46ZM12 47L12 48L10 48L10 52L9 52L9 48L8 48L8 53L10 53L10 52L12 52L12 53L13 53L13 52L15 52L15 53L19 53L19 52L20 52L20 53L22 53L22 52L21 52L21 49L22 49L22 48L21 48L21 49L18 49L18 48L17 48L17 49L18 49L18 50L17 50L17 51L18 51L18 50L20 50L20 51L19 51L19 52L16 52L16 51L15 51L15 50L16 50L16 49L14 49L14 50L12 50L12 51L11 51L11 49L13 49L13 47ZM31 47L31 48L32 48L32 49L33 49L33 48L34 48L34 47ZM38 47L38 48L39 48L39 49L38 49L38 50L41 50L41 48L39 48L39 47ZM42 48L42 49L43 49L43 48ZM25 49L25 50L27 50L27 49ZM12 51L12 52L13 52L13 51ZM24 52L24 53L25 53L25 52ZM26 52L26 53L27 53L27 52ZM36 52L36 53L38 53L38 52ZM0 0L0 7L7 7L7 0ZM1 1L1 6L6 6L6 1ZM2 2L2 5L5 5L5 2ZM46 0L46 7L53 7L53 0ZM47 1L47 6L52 6L52 1ZM48 2L48 5L51 5L51 2ZM0 46L0 53L7 53L7 46ZM1 47L1 52L6 52L6 47ZM2 48L2 51L5 51L5 48Z" fill="#000000"/></g></g></svg>
