<?xml version="1.0" encoding="UTF-8"?>
<svg xmlns="http://www.w3.org/2000/svg" version="1.1" width="420" height="420" viewBox="0 0 420 420"><rect x="0" y="0" width="420" height="420" fill="#ffffff"/><g transform="scale(7.925)"><g transform="translate(0,0)"><path fill-rule="evenodd" d="M10 0L10 1L8 1L8 2L10 2L10 3L8 3L8 4L9 4L9 5L8 5L8 7L9 7L9 6L10 6L10 7L11 7L11 6L12 6L12 7L13 7L13 6L14 6L14 8L13 8L13 9L16 9L16 10L15 10L15 11L16 11L16 13L13 13L13 12L14 12L14 11L13 11L13 10L12 10L12 8L10 8L10 9L9 9L9 8L6 8L6 9L8 9L8 10L5 10L5 12L4 12L4 13L3 13L3 11L4 11L4 10L3 10L3 11L1 11L1 9L5 9L5 8L0 8L0 11L1 11L1 12L0 12L0 13L1 13L1 14L4 14L4 13L5 13L5 12L6 12L6 13L7 13L7 14L5 14L5 15L4 15L4 17L5 17L5 18L3 18L3 16L2 16L2 15L0 15L0 16L2 16L2 18L1 18L1 19L2 19L2 22L1 22L1 24L0 24L0 26L1 26L1 27L3 27L3 26L2 26L2 25L1 25L1 24L3 24L3 25L4 25L4 28L3 28L3 29L8 29L8 30L9 30L9 31L7 31L7 30L4 30L4 32L3 32L3 33L4 33L4 32L5 32L5 33L7 33L7 32L9 32L9 33L8 33L8 34L6 34L6 35L8 35L8 36L9 36L9 37L10 37L10 36L11 36L11 35L10 35L10 34L12 34L12 32L14 32L14 31L12 31L12 29L11 29L11 30L10 30L10 29L9 29L9 28L12 28L12 27L13 27L13 25L16 25L16 26L14 26L14 28L15 28L15 29L13 29L13 30L15 30L15 29L21 29L21 31L20 31L20 30L19 30L19 31L20 31L20 32L21 32L21 33L18 33L18 32L17 32L17 31L18 31L18 30L17 30L17 31L16 31L16 32L17 32L17 33L18 33L18 34L17 34L17 35L18 35L18 34L20 34L20 35L19 35L19 36L16 36L16 35L15 35L15 37L13 37L13 36L14 36L14 35L12 35L12 37L11 37L11 38L13 38L13 39L12 39L12 40L11 40L11 39L10 39L10 38L9 38L9 39L8 39L8 37L7 37L7 36L6 36L6 37L5 37L5 35L4 35L4 37L5 37L5 40L6 40L6 41L7 41L7 42L5 42L5 41L3 41L3 40L4 40L4 38L3 38L3 40L1 40L1 41L3 41L3 43L2 43L2 42L0 42L0 43L1 43L1 44L3 44L3 45L4 45L4 44L3 44L3 43L7 43L7 44L6 44L6 45L8 45L8 47L9 47L9 48L8 48L8 53L12 53L12 52L11 52L11 51L12 51L12 49L11 49L11 51L10 51L10 50L9 50L9 48L10 48L10 47L9 47L9 46L10 46L10 45L11 45L11 44L10 44L10 42L9 42L9 41L11 41L11 42L13 42L13 43L12 43L12 47L11 47L11 48L15 48L15 47L16 47L16 46L13 46L13 45L17 45L17 43L18 43L18 45L22 45L22 46L20 46L20 47L22 47L22 46L23 46L23 48L24 48L24 49L23 49L23 50L21 50L21 49L22 49L22 48L21 48L21 49L18 49L18 48L17 48L17 49L18 49L18 52L17 52L17 53L19 53L19 52L20 52L20 53L22 53L22 52L23 52L23 53L25 53L25 50L26 50L26 49L28 49L28 50L27 50L27 52L26 52L26 53L27 53L27 52L29 52L29 53L32 53L32 51L31 51L31 52L29 52L29 51L30 51L30 50L31 50L31 49L30 49L30 50L29 50L29 46L30 46L30 48L31 48L31 47L32 47L32 48L34 48L34 47L37 47L37 48L35 48L35 49L37 49L37 50L36 50L36 51L35 51L35 50L34 50L34 49L32 49L32 50L33 50L33 53L34 53L34 51L35 51L35 53L37 53L37 51L39 51L39 52L38 52L38 53L39 53L39 52L41 52L41 50L43 50L43 51L42 51L42 52L43 52L43 51L44 51L44 50L45 50L45 51L46 51L46 50L45 50L45 49L47 49L47 50L48 50L48 51L49 51L49 50L50 50L50 51L51 51L51 52L50 52L50 53L51 53L51 52L52 52L52 51L53 51L53 50L52 50L52 49L51 49L51 48L50 48L50 49L49 49L49 47L50 47L50 45L51 45L51 47L52 47L52 46L53 46L53 44L50 44L50 43L51 43L51 41L52 41L52 42L53 42L53 41L52 41L52 40L53 40L53 39L52 39L52 38L53 38L53 35L52 35L52 34L53 34L53 32L52 32L52 30L53 30L53 29L52 29L52 28L53 28L53 27L51 27L51 26L52 26L52 24L53 24L53 23L51 23L51 24L50 24L50 23L48 23L48 24L46 24L46 23L47 23L47 22L50 22L50 21L51 21L51 20L52 20L52 21L53 21L53 20L52 20L52 19L51 19L51 18L53 18L53 17L52 17L52 16L53 16L53 15L52 15L52 16L50 16L50 15L51 15L51 14L53 14L53 13L51 13L51 12L50 12L50 8L49 8L49 12L47 12L47 13L48 13L48 15L49 15L49 16L47 16L47 14L46 14L46 13L45 13L45 12L44 12L44 13L43 13L43 11L44 11L44 9L46 9L46 8L44 8L44 9L41 9L41 10L43 10L43 11L42 11L42 12L41 12L41 11L40 11L40 9L39 9L39 10L38 10L38 8L36 8L36 9L37 9L37 12L35 12L35 13L37 13L37 12L38 12L38 11L39 11L39 14L38 14L38 15L37 15L37 14L34 14L34 15L33 15L33 13L32 13L32 14L31 14L31 13L29 13L29 12L28 12L28 11L27 11L27 10L26 10L26 11L27 11L27 12L25 12L25 11L24 11L24 10L25 10L25 9L28 9L28 10L29 10L29 11L30 11L30 12L31 12L31 11L32 11L32 12L34 12L34 10L33 10L33 11L32 11L32 10L31 10L31 9L32 9L32 8L35 8L35 5L38 5L38 3L40 3L40 2L43 2L43 3L41 3L41 5L42 5L42 7L41 7L41 6L40 6L40 4L39 4L39 6L38 6L38 7L39 7L39 8L40 8L40 7L41 7L41 8L42 8L42 7L43 7L43 3L44 3L44 4L45 4L45 3L44 3L44 1L43 1L43 0L41 0L41 1L40 1L40 0L39 0L39 1L38 1L38 0L37 0L37 1L36 1L36 2L37 2L37 1L38 1L38 3L34 3L34 1L33 1L33 2L32 2L32 0L30 0L30 1L31 1L31 3L34 3L34 4L35 4L35 5L33 5L33 4L32 4L32 5L33 5L33 6L32 6L32 8L31 8L31 6L30 6L30 8L31 8L31 9L30 9L30 10L29 10L29 3L28 3L28 4L27 4L27 3L26 3L26 2L28 2L28 1L29 1L29 0L28 0L28 1L27 1L27 0L26 0L26 2L25 2L25 0L24 0L24 3L26 3L26 4L24 4L24 9L22 9L22 10L23 10L23 12L25 12L25 13L26 13L26 15L24 15L24 14L23 14L23 13L21 13L21 12L22 12L22 11L21 11L21 12L19 12L19 11L20 11L20 10L19 10L19 9L20 9L20 7L21 7L21 8L23 8L23 6L22 6L22 5L21 5L21 6L20 6L20 5L18 5L18 7L17 7L17 5L16 5L16 4L17 4L17 3L16 3L16 2L14 2L14 3L15 3L15 4L13 4L13 3L12 3L12 2L10 2L10 1L11 1L11 0ZM13 0L13 1L14 1L14 0ZM15 0L15 1L16 1L16 0ZM18 0L18 2L19 2L19 3L18 3L18 4L19 4L19 3L20 3L20 4L21 4L21 3L22 3L22 1L23 1L23 0ZM19 1L19 2L20 2L20 1ZM39 1L39 2L40 2L40 1ZM12 4L12 5L13 5L13 4ZM30 4L30 5L31 5L31 4ZM10 5L10 6L11 6L11 5ZM25 5L25 8L28 8L28 5ZM15 6L15 7L16 7L16 6ZM19 6L19 7L20 7L20 6ZM21 6L21 7L22 7L22 6ZM26 6L26 7L27 7L27 6ZM33 6L33 7L34 7L34 6ZM36 6L36 7L37 7L37 6ZM39 6L39 7L40 7L40 6ZM44 6L44 7L45 7L45 6ZM16 8L16 9L18 9L18 8ZM47 8L47 10L45 10L45 11L48 11L48 8ZM51 8L51 10L53 10L53 9L52 9L52 8ZM10 9L10 10L11 10L11 9ZM8 10L8 11L6 11L6 12L8 12L8 13L9 13L9 16L8 16L8 17L6 17L6 16L7 16L7 15L8 15L8 14L7 14L7 15L6 15L6 16L5 16L5 17L6 17L6 18L8 18L8 20L9 20L9 22L8 22L8 21L6 21L6 20L7 20L7 19L5 19L5 20L4 20L4 19L3 19L3 21L5 21L5 22L8 22L8 24L9 24L9 23L10 23L10 24L11 24L11 25L10 25L10 26L9 26L9 27L12 27L12 26L11 26L11 25L13 25L13 24L14 24L14 23L13 23L13 22L11 22L11 19L12 19L12 21L15 21L15 19L16 19L16 20L19 20L19 19L20 19L20 18L19 18L19 19L18 19L18 17L21 17L21 16L22 16L22 18L24 18L24 19L25 19L25 20L23 20L23 19L21 19L21 21L19 21L19 24L20 24L20 25L19 25L19 26L20 26L20 27L19 27L19 28L21 28L21 29L24 29L24 30L22 30L22 31L21 31L21 32L22 32L22 33L21 33L21 36L22 36L22 37L24 37L24 38L23 38L23 39L24 39L24 38L25 38L25 37L24 37L24 36L25 36L25 35L26 35L26 33L27 33L27 32L29 32L29 34L30 34L30 35L28 35L28 34L27 34L27 35L28 35L28 36L26 36L26 38L28 38L28 39L25 39L25 40L23 40L23 41L22 41L22 40L21 40L21 39L22 39L22 38L21 38L21 37L15 37L15 39L18 39L18 38L19 38L19 40L20 40L20 41L19 41L19 42L20 42L20 43L19 43L19 44L21 44L21 41L22 41L22 43L25 43L25 44L26 44L26 43L27 43L27 42L30 42L30 43L31 43L31 44L32 44L32 45L31 45L31 46L32 46L32 47L33 47L33 44L34 44L34 43L35 43L35 44L37 44L37 45L34 45L34 46L37 46L37 47L38 47L38 48L39 48L39 49L38 49L38 50L41 50L41 48L42 48L42 49L43 49L43 50L44 50L44 49L43 49L43 48L44 48L44 46L43 46L43 48L42 48L42 47L41 47L41 45L44 45L44 44L42 44L42 43L43 43L43 42L44 42L44 43L45 43L45 44L46 44L46 43L47 43L47 44L48 44L48 42L45 42L45 40L46 40L46 41L47 41L47 40L49 40L49 41L50 41L50 40L51 40L51 39L50 39L50 38L51 38L51 37L50 37L50 36L52 36L52 35L51 35L51 34L50 34L50 33L49 33L49 32L48 32L48 31L49 31L49 30L47 30L47 29L46 29L46 30L45 30L45 32L46 32L46 31L47 31L47 32L48 32L48 33L49 33L49 34L50 34L50 36L43 36L43 34L44 34L44 35L45 35L45 33L44 33L44 32L42 32L42 31L44 31L44 30L42 30L42 29L43 29L43 28L44 28L44 26L43 26L43 28L42 28L42 26L40 26L40 25L42 25L42 23L43 23L43 25L44 25L44 24L45 24L45 23L46 23L46 22L47 22L47 21L46 21L46 22L45 22L45 21L44 21L44 20L45 20L45 19L46 19L46 20L47 20L47 19L48 19L48 20L49 20L49 19L48 19L48 18L51 18L51 17L48 17L48 18L47 18L47 16L46 16L46 15L45 15L45 13L44 13L44 15L43 15L43 14L41 14L41 12L40 12L40 14L39 14L39 15L38 15L38 16L39 16L39 15L43 15L43 17L44 17L44 18L42 18L42 16L40 16L40 17L36 17L36 16L37 16L37 15L36 15L36 16L35 16L35 15L34 15L34 16L32 16L32 18L30 18L30 17L31 17L31 14L30 14L30 15L29 15L29 14L28 14L28 15L29 15L29 16L28 16L28 17L29 17L29 18L27 18L27 15L26 15L26 16L23 16L23 15L22 15L22 14L21 14L21 13L18 13L18 11L19 11L19 10L18 10L18 11L17 11L17 13L16 13L16 14L18 14L18 15L16 15L16 16L15 16L15 14L12 14L12 12L13 12L13 11L12 11L12 12L11 12L11 11L9 11L9 10ZM30 10L30 11L31 11L31 10ZM8 11L8 12L9 12L9 13L10 13L10 14L11 14L11 12L9 12L9 11ZM27 12L27 13L28 13L28 12ZM49 13L49 14L51 14L51 13ZM19 14L19 15L20 15L20 14ZM11 15L11 16L9 16L9 17L10 17L10 18L9 18L9 19L11 19L11 17L12 17L12 16L14 16L14 15ZM44 15L44 17L45 17L45 15ZM17 16L17 17L18 17L18 16ZM34 16L34 17L35 17L35 16ZM13 17L13 18L12 18L12 19L13 19L13 20L14 20L14 19L13 19L13 18L14 18L14 17ZM15 17L15 18L16 18L16 17ZM24 17L24 18L26 18L26 19L27 19L27 20L26 20L26 21L24 21L24 22L23 22L23 21L21 21L21 22L20 22L20 24L22 24L22 25L21 25L21 26L22 26L22 27L23 27L23 26L22 26L22 25L24 25L24 29L26 29L26 30L27 30L27 31L26 31L26 32L27 32L27 31L28 31L28 29L29 29L29 31L30 31L30 32L31 32L31 33L30 33L30 34L31 34L31 33L32 33L32 34L34 34L34 37L35 37L35 38L33 38L33 37L32 37L32 36L33 36L33 35L32 35L32 36L31 36L31 35L30 35L30 36L29 36L29 37L28 37L28 38L31 38L31 39L30 39L30 42L31 42L31 43L32 43L32 44L33 44L33 43L34 43L34 42L31 42L31 39L32 39L32 40L33 40L33 41L34 41L34 40L33 40L33 39L35 39L35 43L36 43L36 41L37 41L37 42L38 42L38 41L39 41L39 42L40 42L40 43L37 43L37 44L41 44L41 43L42 43L42 42L43 42L43 40L45 40L45 37L43 37L43 36L42 36L42 34L43 34L43 33L41 33L41 35L39 35L39 34L38 34L38 35L39 35L39 36L36 36L36 35L37 35L37 32L39 32L39 30L36 30L36 31L35 31L35 30L33 30L33 29L32 29L32 28L35 28L35 29L37 29L37 28L35 28L35 26L34 26L34 25L35 25L35 24L34 24L34 23L35 23L35 22L37 22L37 23L40 23L40 24L41 24L41 23L40 23L40 22L41 22L41 21L39 21L39 20L42 20L42 22L43 22L43 23L45 23L45 22L44 22L44 21L43 21L43 20L42 20L42 19L40 19L40 18L41 18L41 17L40 17L40 18L38 18L38 19L39 19L39 20L38 20L38 21L39 21L39 22L37 22L37 20L35 20L35 22L33 22L33 23L32 23L32 20L33 20L33 21L34 21L34 20L33 20L33 19L32 19L32 20L31 20L31 19L30 19L30 21L28 21L28 22L26 22L26 21L27 21L27 20L28 20L28 19L27 19L27 18L26 18L26 17ZM36 18L36 19L37 19L37 18ZM46 18L46 19L47 19L47 18ZM50 19L50 20L51 20L51 19ZM0 20L0 21L1 21L1 20ZM16 21L16 22L15 22L15 24L16 24L16 25L18 25L18 24L17 24L17 23L18 23L18 21ZM21 22L21 23L22 23L22 22ZM24 22L24 23L26 23L26 24L29 24L29 26L30 26L30 27L29 27L29 29L31 29L31 28L32 28L32 27L33 27L33 25L34 25L34 24L32 24L32 23L31 23L31 24L30 24L30 22L28 22L28 23L26 23L26 22ZM4 23L4 24L7 24L7 23ZM11 23L11 24L12 24L12 23ZM31 24L31 25L30 25L30 26L31 26L31 27L32 27L32 26L31 26L31 25L32 25L32 24ZM36 24L36 27L37 27L37 24ZM38 24L38 25L39 25L39 24ZM5 25L5 28L8 28L8 25ZM25 25L25 28L28 28L28 25ZM45 25L45 28L48 28L48 25ZM49 25L49 26L51 26L51 25ZM6 26L6 27L7 27L7 26ZM26 26L26 27L27 27L27 26ZM38 26L38 29L39 29L39 27L40 27L40 28L41 28L41 27L40 27L40 26ZM46 26L46 27L47 27L47 26ZM15 27L15 28L16 28L16 27ZM50 27L50 28L49 28L49 29L50 29L50 32L51 32L51 33L52 33L52 32L51 32L51 29L50 29L50 28L51 28L51 27ZM1 28L1 29L0 29L0 30L1 30L1 31L2 31L2 28ZM40 29L40 32L41 32L41 29ZM30 30L30 31L31 31L31 32L32 32L32 33L33 33L33 31L32 31L32 30ZM5 31L5 32L7 32L7 31ZM9 31L9 32L12 32L12 31ZM34 31L34 34L35 34L35 31ZM36 31L36 32L37 32L37 31ZM0 32L0 33L1 33L1 35L3 35L3 34L2 34L2 32ZM24 32L24 33L23 33L23 34L24 34L24 35L25 35L25 34L24 34L24 33L25 33L25 32ZM9 33L9 34L8 34L8 35L9 35L9 36L10 36L10 35L9 35L9 34L10 34L10 33ZM13 33L13 34L14 34L14 33ZM15 33L15 34L16 34L16 33ZM46 34L46 35L48 35L48 34ZM1 36L1 37L0 37L0 38L1 38L1 39L2 39L2 36ZM30 36L30 37L31 37L31 36ZM39 36L39 37L37 37L37 39L36 39L36 40L37 40L37 41L38 41L38 40L39 40L39 41L41 41L41 40L39 40L39 39L38 39L38 38L40 38L40 39L43 39L43 38L42 38L42 36ZM6 37L6 38L7 38L7 37ZM40 37L40 38L41 38L41 37ZM48 37L48 38L49 38L49 37ZM6 39L6 40L7 40L7 41L9 41L9 40L10 40L10 39L9 39L9 40L8 40L8 39ZM13 39L13 40L14 40L14 39ZM46 39L46 40L47 40L47 39ZM49 39L49 40L50 40L50 39ZM16 40L16 41L13 41L13 42L16 42L16 41L18 41L18 40ZM28 40L28 41L29 41L29 40ZM23 41L23 42L24 42L24 41ZM26 41L26 42L25 42L25 43L26 43L26 42L27 42L27 41ZM7 42L7 43L8 43L8 45L10 45L10 44L9 44L9 42ZM15 43L15 44L16 44L16 43ZM28 43L28 44L29 44L29 43ZM22 44L22 45L24 45L24 44ZM49 44L49 45L50 45L50 44ZM25 45L25 48L28 48L28 45ZM45 45L45 48L48 48L48 45ZM17 46L17 47L18 47L18 46ZM26 46L26 47L27 47L27 46ZM38 46L38 47L39 47L39 48L41 48L41 47L39 47L39 46ZM46 46L46 47L47 47L47 46ZM14 49L14 50L13 50L13 52L14 52L14 53L15 53L15 52L16 52L16 51L15 51L15 50L16 50L16 49ZM48 49L48 50L49 50L49 49ZM19 50L19 51L20 51L20 50ZM23 50L23 51L24 51L24 50ZM28 50L28 51L29 51L29 50ZM51 50L51 51L52 51L52 50ZM14 51L14 52L15 52L15 51ZM45 52L45 53L47 53L47 52ZM48 52L48 53L49 53L49 52ZM0 0L0 7L7 7L7 0ZM1 1L1 6L6 6L6 1ZM2 2L2 5L5 5L5 2ZM46 0L46 7L53 7L53 0ZM47 1L47 6L52 6L52 1ZM48 2L48 5L51 5L51 2ZM0 46L0 53L7 53L7 46ZM1 47L1 52L6 52L6 47ZM2 48L2 51L5 51L5 48Z" fill="#000000"/></g></g></svg>
