<?xml version="1.0" encoding="UTF-8"?>
<svg xmlns="http://www.w3.org/2000/svg" version="1.1" width="420" height="420" viewBox="0 0 420 420"><rect x="0" y="0" width="420" height="420" fill="#ffffff"/><g transform="scale(7.925)"><g transform="translate(0,0)"><path fill-rule="evenodd" d="M8 0L8 1L9 1L9 0ZM10 0L10 1L12 1L12 2L11 2L11 3L9 3L9 2L8 2L8 5L10 5L10 4L11 4L11 5L12 5L12 4L11 4L11 3L15 3L15 4L17 4L17 3L18 3L18 5L19 5L19 6L18 6L18 7L19 7L19 6L20 6L20 7L21 7L21 10L19 10L19 9L17 9L17 8L16 8L16 7L17 7L17 5L14 5L14 4L13 4L13 5L14 5L14 7L15 7L15 8L14 8L14 9L15 9L15 8L16 8L16 11L13 11L13 6L12 6L12 10L11 10L11 8L8 8L8 10L11 10L11 11L9 11L9 13L10 13L10 15L8 15L8 11L7 11L7 10L5 10L5 9L4 9L4 8L0 8L0 10L1 10L1 11L2 11L2 13L3 13L3 14L0 14L0 16L1 16L1 17L0 17L0 19L1 19L1 20L3 20L3 23L2 23L2 22L0 22L0 24L1 24L1 23L2 23L2 24L3 24L3 25L1 25L1 26L2 26L2 27L1 27L1 28L0 28L0 30L1 30L1 31L0 31L0 35L1 35L1 36L0 36L0 38L3 38L3 36L4 36L4 37L5 37L5 36L6 36L6 37L8 37L8 38L9 38L9 37L10 37L10 38L12 38L12 37L10 37L10 35L9 35L9 36L6 36L6 35L7 35L7 34L10 34L10 33L11 33L11 35L13 35L13 34L14 34L14 36L15 36L15 35L16 35L16 36L17 36L17 38L16 38L16 37L15 37L15 38L14 38L14 37L13 37L13 38L14 38L14 40L13 40L13 39L12 39L12 40L13 40L13 41L10 41L10 40L11 40L11 39L7 39L7 38L6 38L6 39L4 39L4 40L5 40L5 41L2 41L2 40L3 40L3 39L0 39L0 43L1 43L1 44L3 44L3 45L4 45L4 44L3 44L3 43L7 43L7 42L5 42L5 41L7 41L7 40L8 40L8 41L10 41L10 42L11 42L11 43L12 43L12 44L13 44L13 43L15 43L15 44L14 44L14 45L15 45L15 46L11 46L11 47L10 47L10 48L9 48L9 49L8 49L8 53L11 53L11 51L12 51L12 50L11 50L11 49L13 49L13 51L15 51L15 52L16 52L16 53L17 53L17 52L16 52L16 51L19 51L19 52L21 52L21 51L23 51L23 50L25 50L25 49L26 49L26 51L27 51L27 53L28 53L28 51L30 51L30 52L29 52L29 53L30 53L30 52L31 52L31 53L36 53L36 52L35 52L35 51L34 51L34 50L33 50L33 51L32 51L32 50L30 50L30 49L29 49L29 46L30 46L30 47L31 47L31 49L32 49L32 46L33 46L33 45L35 45L35 44L37 44L37 45L36 45L36 48L34 48L34 47L35 47L35 46L34 46L34 47L33 47L33 49L35 49L35 50L38 50L38 51L39 51L39 52L37 52L37 53L39 53L39 52L41 52L41 53L42 53L42 51L44 51L44 52L45 52L45 51L44 51L44 50L42 50L42 51L39 51L39 50L40 50L40 49L39 49L39 48L37 48L37 47L38 47L38 46L37 46L37 45L39 45L39 46L41 46L41 47L43 47L43 49L45 49L45 50L46 50L46 51L47 51L47 50L46 50L46 49L48 49L48 50L49 50L49 48L50 48L50 49L53 49L53 48L50 48L50 47L51 47L51 46L50 46L50 45L51 45L51 44L53 44L53 43L51 43L51 42L52 42L52 41L51 41L51 42L50 42L50 41L49 41L49 40L50 40L50 39L51 39L51 38L52 38L52 39L53 39L53 36L52 36L52 35L51 35L51 36L49 36L49 35L50 35L50 34L49 34L49 32L50 32L50 33L51 33L51 34L53 34L53 32L52 32L52 30L51 30L51 31L50 31L50 30L49 30L49 32L48 32L48 31L45 31L45 33L47 33L47 32L48 32L48 34L47 34L47 36L49 36L49 37L50 37L50 38L48 38L48 37L47 37L47 38L46 38L46 37L45 37L45 38L44 38L44 37L43 37L43 33L44 33L44 31L43 31L43 32L42 32L42 31L39 31L39 30L42 30L42 29L40 29L40 28L41 28L41 25L39 25L39 24L40 24L40 23L39 23L39 22L38 22L38 21L36 21L36 20L37 20L37 18L38 18L38 19L40 19L40 20L39 20L39 21L40 21L40 22L41 22L41 23L43 23L43 24L42 24L42 25L43 25L43 27L42 27L42 28L43 28L43 29L44 29L44 30L45 30L45 29L46 29L46 30L48 30L48 29L50 29L50 27L49 27L49 26L51 26L51 28L53 28L53 26L51 26L51 25L52 25L52 24L47 24L47 23L48 23L48 22L50 22L50 23L51 23L51 22L53 22L53 21L52 21L52 20L51 20L51 18L50 18L50 15L51 15L51 17L53 17L53 16L52 16L52 15L53 15L53 13L52 13L52 15L51 15L51 13L50 13L50 12L49 12L49 10L48 10L48 9L51 9L51 12L53 12L53 11L52 11L52 10L53 10L53 8L52 8L52 9L51 9L51 8L48 8L48 9L47 9L47 10L46 10L46 11L47 11L47 15L46 15L46 13L45 13L45 12L44 12L44 11L45 11L45 10L44 10L44 9L46 9L46 8L45 8L45 6L44 6L44 8L43 8L43 3L44 3L44 4L45 4L45 3L44 3L44 1L43 1L43 0L41 0L41 1L40 1L40 0L39 0L39 2L41 2L41 1L42 1L42 2L43 2L43 3L41 3L41 4L40 4L40 7L41 7L41 4L42 4L42 9L41 9L41 8L39 8L39 4L38 4L38 5L36 5L36 7L35 7L35 6L34 6L34 8L33 8L33 9L35 9L35 8L37 8L37 6L38 6L38 8L39 8L39 10L40 10L40 9L41 9L41 11L42 11L42 12L41 12L41 13L37 13L37 12L38 12L38 9L37 9L37 10L35 10L35 11L36 11L36 12L35 12L35 14L37 14L37 17L36 17L36 15L35 15L35 16L34 16L34 15L33 15L33 14L34 14L34 13L33 13L33 14L32 14L32 12L33 12L33 10L31 10L31 9L29 9L29 5L30 5L30 7L31 7L31 5L34 5L34 4L37 4L37 2L36 2L36 1L35 1L35 2L33 2L33 1L32 1L32 0L28 0L28 1L30 1L30 2L27 2L27 1L26 1L26 2L27 2L27 3L26 3L26 4L24 4L24 2L25 2L25 0L23 0L23 1L24 1L24 2L23 2L23 4L21 4L21 2L20 2L20 3L18 3L18 1L21 1L21 0L18 0L18 1L17 1L17 2L16 2L16 0L15 0L15 1L14 1L14 0ZM37 0L37 1L38 1L38 0ZM13 1L13 2L14 2L14 1ZM31 1L31 2L32 2L32 1ZM15 2L15 3L16 3L16 2ZM35 2L35 3L36 3L36 2ZM28 3L28 4L30 4L30 5L31 5L31 3ZM32 3L32 4L33 4L33 3ZM19 4L19 5L20 5L20 4ZM23 4L23 7L22 7L22 5L21 5L21 7L22 7L22 8L23 8L23 10L22 10L22 11L20 11L20 12L22 12L22 13L21 13L21 14L20 14L20 13L19 13L19 15L17 15L17 16L16 16L16 15L15 15L15 12L13 12L13 11L11 11L11 14L14 14L14 16L13 16L13 17L12 17L12 19L9 19L9 20L12 20L12 21L11 21L11 22L12 22L12 23L11 23L11 24L10 24L10 22L7 22L7 21L6 21L6 22L5 22L5 23L3 23L3 24L8 24L8 23L9 23L9 27L10 27L10 26L12 26L12 29L13 29L13 31L15 31L15 30L14 30L14 28L15 28L15 29L16 29L16 27L17 27L17 28L18 28L18 29L17 29L17 30L16 30L16 32L17 32L17 30L18 30L18 31L19 31L19 32L20 32L20 33L22 33L22 34L18 34L18 33L16 33L16 35L17 35L17 36L18 36L18 35L19 35L19 37L18 37L18 38L17 38L17 39L16 39L16 38L15 38L15 39L16 39L16 40L14 40L14 42L15 42L15 41L16 41L16 42L17 42L17 39L19 39L19 40L18 40L18 42L19 42L19 40L20 40L20 39L19 39L19 38L20 38L20 35L22 35L22 34L24 34L24 36L21 36L21 38L22 38L22 39L24 39L24 38L25 38L25 40L24 40L24 42L23 42L23 43L22 43L22 41L20 41L20 43L17 43L17 44L15 44L15 45L16 45L16 46L15 46L15 47L14 47L14 48L13 48L13 49L15 49L15 50L17 50L17 48L18 48L18 50L19 50L19 49L20 49L20 50L21 50L21 47L23 47L23 46L24 46L24 45L23 45L23 46L21 46L21 45L20 45L20 43L22 43L22 44L23 44L23 43L24 43L24 42L25 42L25 43L26 43L26 44L29 44L29 43L28 43L28 42L30 42L30 45L31 45L31 46L32 46L32 45L33 45L33 44L34 44L34 43L33 43L33 42L34 42L34 41L37 41L37 42L36 42L36 43L37 43L37 44L39 44L39 43L40 43L40 44L41 44L41 46L42 46L42 44L43 44L43 43L44 43L44 44L45 44L45 42L46 42L46 43L47 43L47 44L48 44L48 43L49 43L49 41L48 41L48 43L47 43L47 40L49 40L49 39L48 39L48 38L47 38L47 40L46 40L46 39L45 39L45 41L44 41L44 40L40 40L40 41L39 41L39 39L40 39L40 37L42 37L42 38L41 38L41 39L42 39L42 38L43 38L43 39L44 39L44 38L43 38L43 37L42 37L42 36L41 36L41 35L42 35L42 34L41 34L41 33L42 33L42 32L41 32L41 33L39 33L39 31L38 31L38 30L39 30L39 29L38 29L38 28L39 28L39 27L40 27L40 26L39 26L39 27L38 27L38 28L37 28L37 26L38 26L38 24L39 24L39 23L38 23L38 22L35 22L35 20L36 20L36 17L35 17L35 18L31 18L31 16L33 16L33 15L31 15L31 16L29 16L29 15L28 15L28 14L27 14L27 13L26 13L26 12L29 12L29 13L30 13L30 14L31 14L31 11L29 11L29 10L28 10L28 9L25 9L25 11L24 11L24 12L25 12L25 13L23 13L23 12L22 12L22 11L23 11L23 10L24 10L24 4ZM25 5L25 8L28 8L28 5ZM8 6L8 7L9 7L9 6ZM10 6L10 7L11 7L11 6ZM15 6L15 7L16 7L16 6ZM26 6L26 7L27 7L27 6ZM32 6L32 7L33 7L33 6ZM6 8L6 9L7 9L7 8ZM1 9L1 10L3 10L3 11L5 11L5 12L4 12L4 13L5 13L5 12L7 12L7 11L5 11L5 10L3 10L3 9ZM17 10L17 11L16 11L16 12L17 12L17 13L16 13L16 14L17 14L17 13L18 13L18 12L19 12L19 10ZM47 10L47 11L48 11L48 10ZM17 11L17 12L18 12L18 11ZM25 11L25 12L26 12L26 11ZM39 11L39 12L40 12L40 11ZM0 12L0 13L1 13L1 12ZM12 12L12 13L13 13L13 12ZM6 13L6 14L7 14L7 13ZM22 13L22 15L21 15L21 16L20 16L20 19L19 19L19 18L18 18L18 19L17 19L17 20L20 20L20 21L24 21L24 23L23 23L23 25L20 25L20 23L21 23L21 22L19 22L19 24L18 24L18 22L17 22L17 24L18 24L18 25L20 25L20 26L21 26L21 29L22 29L22 27L23 27L23 25L24 25L24 28L23 28L23 29L24 29L24 30L25 30L25 29L26 29L26 30L27 30L27 29L28 29L28 31L29 31L29 32L30 32L30 34L29 34L29 33L28 33L28 32L27 32L27 33L26 33L26 32L25 32L25 31L23 31L23 30L22 30L22 31L21 31L21 30L20 30L20 28L19 28L19 26L17 26L17 25L16 25L16 24L15 24L15 23L16 23L16 22L15 22L15 21L14 21L14 20L13 20L13 23L12 23L12 26L13 26L13 28L14 28L14 26L17 26L17 27L18 27L18 28L19 28L19 29L18 29L18 30L20 30L20 32L22 32L22 33L23 33L23 32L24 32L24 33L25 33L25 34L27 34L27 35L28 35L28 36L27 36L27 37L26 37L26 35L25 35L25 37L26 37L26 38L27 38L27 37L29 37L29 36L30 36L30 35L31 35L31 33L32 33L32 35L33 35L33 37L32 37L32 36L31 36L31 37L32 37L32 38L30 38L30 40L27 40L27 39L26 39L26 41L25 41L25 42L26 42L26 43L27 43L27 42L28 42L28 41L31 41L31 39L32 39L32 41L33 41L33 39L32 39L32 38L34 38L34 36L35 36L35 38L37 38L37 36L38 36L38 39L39 39L39 36L38 36L38 35L37 35L37 36L36 36L36 35L35 35L35 34L37 34L37 33L38 33L38 31L37 31L37 30L38 30L38 29L36 29L36 30L35 30L35 29L34 29L34 27L33 27L33 25L32 25L32 28L31 28L31 26L30 26L30 25L29 25L29 24L28 24L28 23L27 23L27 24L24 24L24 23L26 23L26 22L29 22L29 23L31 23L31 24L33 24L33 23L32 23L32 22L33 22L33 21L34 21L34 20L33 20L33 21L31 21L31 19L28 19L28 21L27 21L27 19L26 19L26 18L27 18L27 17L28 17L28 18L29 18L29 16L26 16L26 14L24 14L24 15L23 15L23 13ZM41 13L41 14L40 14L40 15L42 15L42 14L43 14L43 16L42 16L42 17L41 17L41 16L39 16L39 14L38 14L38 18L39 18L39 17L40 17L40 19L42 19L42 20L43 20L43 21L44 21L44 22L43 22L43 23L44 23L44 22L45 22L45 24L46 24L46 22L48 22L48 21L49 21L49 19L48 19L48 18L47 18L47 19L46 19L46 18L45 18L45 16L46 16L46 17L49 17L49 15L50 15L50 13L48 13L48 15L47 15L47 16L46 16L46 15L45 15L45 14L43 14L43 13ZM3 14L3 15L1 15L1 16L4 16L4 17L3 17L3 20L5 20L5 19L6 19L6 20L7 20L7 19L8 19L8 17L6 17L6 16L7 16L7 15L6 15L6 16L5 16L5 15L4 15L4 14ZM10 15L10 16L9 16L9 17L11 17L11 16L12 16L12 15ZM44 15L44 16L45 16L45 15ZM14 16L14 17L16 17L16 18L17 18L17 17L16 17L16 16ZM18 16L18 17L19 17L19 16ZM21 16L21 18L22 18L22 19L20 19L20 20L25 20L25 21L26 21L26 19L25 19L25 18L26 18L26 16L24 16L24 18L23 18L23 16ZM4 17L4 19L5 19L5 17ZM1 18L1 19L2 19L2 18ZM6 18L6 19L7 19L7 18ZM44 19L44 21L45 21L45 19ZM29 20L29 22L30 22L30 20ZM46 20L46 21L48 21L48 20ZM50 21L50 22L51 22L51 21ZM6 22L6 23L7 23L7 22ZM14 22L14 23L15 23L15 22ZM34 22L34 25L35 25L35 26L36 26L36 25L37 25L37 24L38 24L38 23L36 23L36 25L35 25L35 22ZM43 24L43 25L44 25L44 24ZM5 25L5 28L8 28L8 25ZM13 25L13 26L14 26L14 25ZM25 25L25 28L28 28L28 25ZM45 25L45 28L48 28L48 25ZM6 26L6 27L7 27L7 26ZM26 26L26 27L27 27L27 26ZM46 26L46 27L47 27L47 26ZM2 27L2 28L4 28L4 27ZM29 27L29 28L30 28L30 27ZM43 27L43 28L44 28L44 27ZM9 28L9 29L5 29L5 30L4 30L4 32L3 32L3 29L2 29L2 31L1 31L1 33L2 33L2 32L3 32L3 33L4 33L4 32L5 32L5 31L6 31L6 32L7 32L7 33L6 33L6 34L5 34L5 35L4 35L4 36L5 36L5 35L6 35L6 34L7 34L7 33L10 33L10 32L11 32L11 33L12 33L12 34L13 34L13 32L11 32L11 31L12 31L12 30L10 30L10 32L9 32L9 29L10 29L10 28ZM30 29L30 30L29 30L29 31L30 31L30 30L31 30L31 29ZM32 29L32 31L31 31L31 32L32 32L32 33L34 33L34 34L35 34L35 33L34 33L34 32L36 32L36 33L37 33L37 32L36 32L36 31L34 31L34 30L33 30L33 29ZM6 30L6 31L7 31L7 30ZM22 31L22 32L23 32L23 31ZM14 32L14 34L15 34L15 32ZM27 33L27 34L28 34L28 33ZM17 34L17 35L18 35L18 34ZM39 34L39 35L40 35L40 34ZM44 34L44 36L45 36L45 34ZM2 35L2 36L1 36L1 37L2 37L2 36L3 36L3 35ZM22 37L22 38L23 38L23 37ZM28 38L28 39L29 39L29 38ZM6 39L6 40L7 40L7 39ZM35 39L35 40L36 40L36 39ZM1 41L1 42L2 42L2 43L3 43L3 42L2 42L2 41ZM41 41L41 42L40 42L40 43L41 43L41 44L42 44L42 41ZM8 42L8 44L6 44L6 45L8 45L8 46L10 46L10 45L11 45L11 44L10 44L10 45L8 45L8 44L9 44L9 42ZM17 44L17 45L18 45L18 44ZM31 44L31 45L32 45L32 44ZM25 45L25 48L28 48L28 45ZM45 45L45 48L48 48L48 45ZM52 45L52 46L53 46L53 45ZM18 46L18 48L20 48L20 47L19 47L19 46ZM26 46L26 47L27 47L27 46ZM43 46L43 47L44 47L44 46ZM46 46L46 47L47 47L47 46ZM15 47L15 48L17 48L17 47ZM10 48L10 49L11 49L11 48ZM22 48L22 50L23 50L23 49L24 49L24 48ZM41 48L41 49L42 49L42 48ZM27 49L27 51L28 51L28 50L29 50L29 49ZM10 50L10 51L9 51L9 52L10 52L10 51L11 51L11 50ZM51 50L51 53L52 53L52 50ZM31 51L31 52L32 52L32 51ZM33 51L33 52L34 52L34 51ZM49 51L49 52L50 52L50 51ZM23 52L23 53L24 53L24 52ZM46 52L46 53L48 53L48 52ZM0 0L0 7L7 7L7 0ZM1 1L1 6L6 6L6 1ZM2 2L2 5L5 5L5 2ZM46 0L46 7L53 7L53 0ZM47 1L47 6L52 6L52 1ZM48 2L48 5L51 5L51 2ZM0 46L0 53L7 53L7 46ZM1 47L1 52L6 52L6 47ZM2 48L2 51L5 51L5 48Z" fill="#000000"/></g></g></svg>
