<?xml version="1.0" encoding="UTF-8"?>
<svg xmlns="http://www.w3.org/2000/svg" version="1.1" width="420" height="420" viewBox="0 0 420 420"><rect x="0" y="0" width="420" height="420" fill="#ffffff"/><g transform="scale(7.925)"><g transform="translate(0,0)"><path fill-rule="evenodd" d="M8 0L8 4L9 4L9 3L10 3L10 1L11 1L11 0L10 0L10 1L9 1L9 0ZM14 0L14 1L13 1L13 2L11 2L11 3L12 3L12 5L11 5L11 4L10 4L10 5L11 5L11 6L10 6L10 9L8 9L8 10L6 10L6 9L7 9L7 8L4 8L4 9L2 9L2 8L0 8L0 9L2 9L2 10L6 10L6 11L7 11L7 12L5 12L5 11L3 11L3 13L2 13L2 12L1 12L1 13L2 13L2 14L0 14L0 15L1 15L1 16L0 16L0 18L1 18L1 16L2 16L2 17L3 17L3 19L5 19L5 18L6 18L6 19L7 19L7 20L6 20L6 21L2 21L2 23L1 23L1 25L2 25L2 23L4 23L4 24L3 24L3 27L1 27L1 28L0 28L0 29L1 29L1 28L2 28L2 29L3 29L3 27L4 27L4 31L1 31L1 30L0 30L0 32L1 32L1 33L0 33L0 34L1 34L1 35L2 35L2 34L3 34L3 35L4 35L4 36L5 36L5 39L3 39L3 38L4 38L4 37L3 37L3 36L2 36L2 37L1 37L1 38L2 38L2 39L1 39L1 40L2 40L2 41L0 41L0 43L1 43L1 44L3 44L3 45L4 45L4 44L3 44L3 43L7 43L7 44L6 44L6 45L7 45L7 44L10 44L10 45L11 45L11 47L10 47L10 46L9 46L9 45L8 45L8 46L9 46L9 47L8 47L8 49L9 49L9 47L10 47L10 52L9 52L9 51L8 51L8 53L13 53L13 52L16 52L16 53L20 53L20 52L21 52L21 50L22 50L22 52L24 52L24 53L26 53L26 52L25 52L25 50L22 50L22 49L21 49L21 48L19 48L19 46L20 46L20 47L22 47L22 48L24 48L24 49L26 49L26 51L27 51L27 53L28 53L28 52L30 52L30 51L31 51L31 50L32 50L32 49L33 49L33 48L32 48L32 49L30 49L30 51L29 51L29 50L27 50L27 49L29 49L29 48L30 48L30 46L31 46L31 47L34 47L34 42L33 42L33 39L34 39L34 40L35 40L35 42L36 42L36 43L35 43L35 44L36 44L36 47L35 47L35 48L34 48L34 49L37 49L37 48L38 48L38 47L39 47L39 49L38 49L38 50L37 50L37 51L36 51L36 50L35 50L35 52L33 52L33 51L32 51L32 53L35 53L35 52L36 52L36 53L38 53L38 52L37 52L37 51L39 51L39 52L40 52L40 47L41 47L41 51L42 51L42 53L44 53L44 52L45 52L45 51L46 51L46 53L47 53L47 52L48 52L48 53L50 53L50 48L49 48L49 47L50 47L50 46L51 46L51 48L52 48L52 49L53 49L53 48L52 48L52 47L53 47L53 44L52 44L52 45L50 45L50 43L51 43L51 42L52 42L52 43L53 43L53 41L50 41L50 39L52 39L52 40L53 40L53 36L52 36L52 37L48 37L48 38L46 38L46 35L48 35L48 36L50 36L50 35L53 35L53 33L52 33L52 32L53 32L53 29L52 29L52 30L51 30L51 29L50 29L50 30L49 30L49 28L50 28L50 26L51 26L51 25L50 25L50 26L49 26L49 24L50 24L50 23L49 23L49 24L48 24L48 22L49 22L49 21L50 21L50 22L51 22L51 24L52 24L52 23L53 23L53 13L52 13L52 12L53 12L53 8L49 8L49 10L48 10L48 8L47 8L47 10L48 10L48 12L47 12L47 13L48 13L48 14L49 14L49 15L47 15L47 19L45 19L45 20L47 20L47 21L48 21L48 22L47 22L47 23L46 23L46 21L44 21L44 22L45 22L45 23L44 23L44 24L42 24L42 23L43 23L43 21L42 21L42 19L43 19L43 17L44 17L44 18L46 18L46 16L45 16L45 15L44 15L44 14L46 14L46 9L44 9L44 8L43 8L43 3L44 3L44 4L45 4L45 3L44 3L44 1L43 1L43 0L41 0L41 1L39 1L39 0L38 0L38 1L36 1L36 2L34 2L34 3L33 3L33 1L34 1L34 0L32 0L32 1L31 1L31 0L26 0L26 1L25 1L25 0L21 0L21 1L24 1L24 2L23 2L23 3L22 3L22 2L20 2L20 1L19 1L19 0L18 0L18 2L19 2L19 5L18 5L18 3L17 3L17 2L16 2L16 1L15 1L15 0ZM26 1L26 3L25 3L25 2L24 2L24 3L23 3L23 4L24 4L24 3L25 3L25 4L27 4L27 3L28 3L28 2L29 2L29 3L30 3L30 2L31 2L31 3L32 3L32 4L31 4L31 5L30 5L30 4L29 4L29 9L28 9L28 10L27 10L27 11L26 11L26 10L24 10L24 5L20 5L20 6L19 6L19 7L18 7L18 5L17 5L17 3L16 3L16 4L15 4L15 3L14 3L14 2L13 2L13 5L12 5L12 6L11 6L11 7L12 7L12 8L13 8L13 9L12 9L12 10L13 10L13 11L10 11L10 10L8 10L8 12L7 12L7 13L6 13L6 14L4 14L4 13L3 13L3 14L2 14L2 16L3 16L3 17L4 17L4 18L5 18L5 17L6 17L6 18L7 18L7 19L8 19L8 20L7 20L7 21L6 21L6 22L4 22L4 23L6 23L6 24L8 24L8 23L6 23L6 22L7 22L7 21L8 21L8 20L11 20L11 19L13 19L13 20L14 20L14 19L16 19L16 18L18 18L18 19L20 19L20 18L22 18L22 17L24 17L24 16L25 16L25 15L23 15L23 14L26 14L26 17L25 17L25 18L24 18L24 19L23 19L23 20L22 20L22 22L23 22L23 23L22 23L22 25L23 25L23 24L25 24L25 23L24 23L24 21L25 21L25 22L28 22L28 18L30 18L30 17L28 17L28 18L27 18L27 16L28 16L28 15L27 15L27 12L28 12L28 13L29 13L29 16L31 16L31 17L32 17L32 18L31 18L31 20L29 20L29 22L30 22L30 21L31 21L31 22L33 22L33 21L32 21L32 19L34 19L34 18L36 18L36 19L35 19L35 20L36 20L36 19L37 19L37 22L35 22L35 21L34 21L34 23L37 23L37 24L38 24L38 25L39 25L39 24L40 24L40 25L42 25L42 24L41 24L41 23L39 23L39 22L38 22L38 18L37 18L37 17L41 17L41 18L42 18L42 16L44 16L44 17L45 17L45 16L44 16L44 15L41 15L41 14L38 14L38 13L35 13L35 11L34 11L34 15L35 15L35 17L34 17L34 18L33 18L33 17L32 17L32 16L33 16L33 15L32 15L32 14L33 14L33 13L32 13L32 11L33 11L33 10L32 10L32 11L30 11L30 12L29 12L29 11L28 11L28 10L29 10L29 9L30 9L30 8L31 8L31 9L32 9L32 4L33 4L33 3L32 3L32 2L31 2L31 1L30 1L30 2L29 2L29 1ZM38 1L38 3L34 3L34 5L33 5L33 7L34 7L34 10L38 10L38 8L39 8L39 7L40 7L40 6L41 6L41 8L40 8L40 9L39 9L39 10L41 10L41 9L43 9L43 10L44 10L44 11L43 11L43 14L44 14L44 13L45 13L45 10L44 10L44 9L43 9L43 8L42 8L42 5L40 5L40 3L41 3L41 4L42 4L42 3L43 3L43 2L42 2L42 3L41 3L41 2L40 2L40 3L39 3L39 1ZM21 3L21 4L22 4L22 3ZM35 4L35 5L34 5L34 7L35 7L35 8L36 8L36 9L37 9L37 6L38 6L38 7L39 7L39 6L38 6L38 5L39 5L39 4ZM8 5L8 7L9 7L9 5ZM15 5L15 6L14 6L14 8L15 8L15 6L16 6L16 8L17 8L17 6L16 6L16 5ZM25 5L25 8L28 8L28 5ZM35 5L35 7L36 7L36 6L37 6L37 5ZM12 6L12 7L13 7L13 6ZM20 6L20 9L19 9L19 8L18 8L18 9L13 9L13 10L14 10L14 12L12 12L12 14L11 14L11 12L10 12L10 11L9 11L9 12L8 12L8 13L7 13L7 14L6 14L6 15L4 15L4 14L3 14L3 16L6 16L6 17L7 17L7 18L8 18L8 19L11 19L11 18L12 18L12 17L11 17L11 18L10 18L10 17L9 17L9 16L11 16L11 15L13 15L13 17L14 17L14 18L15 18L15 17L16 17L16 16L14 16L14 15L13 15L13 14L14 14L14 13L15 13L15 14L16 14L16 15L17 15L17 17L18 17L18 18L19 18L19 17L21 17L21 16L19 16L19 15L22 15L22 16L23 16L23 15L22 15L22 14L23 14L23 13L22 13L22 14L21 14L21 13L19 13L19 12L18 12L18 13L19 13L19 14L18 14L18 15L17 15L17 14L16 14L16 13L17 13L17 12L16 12L16 13L15 13L15 11L16 11L16 10L19 10L19 11L20 11L20 10L22 10L22 11L21 11L21 12L23 12L23 9L22 9L22 8L23 8L23 6L22 6L22 8L21 8L21 6ZM26 6L26 7L27 7L27 6ZM30 6L30 7L31 7L31 6ZM44 6L44 7L45 7L45 6ZM51 9L51 11L50 11L50 10L49 10L49 11L50 11L50 12L49 12L49 13L50 13L50 12L52 12L52 9ZM0 10L0 11L1 11L1 10ZM37 11L37 12L40 12L40 13L41 13L41 11ZM9 12L9 13L8 13L8 16L7 16L7 15L6 15L6 16L7 16L7 17L8 17L8 16L9 16L9 13L10 13L10 12ZM24 12L24 13L26 13L26 12ZM30 13L30 15L31 15L31 13ZM51 13L51 14L52 14L52 13ZM10 14L10 15L11 15L11 14ZM35 14L35 15L36 15L36 17L37 17L37 16L38 16L38 15L36 15L36 14ZM39 15L39 16L40 16L40 15ZM50 15L50 16L49 16L49 17L48 17L48 19L47 19L47 20L49 20L49 17L51 17L51 19L50 19L50 21L51 21L51 22L52 22L52 21L51 21L51 19L52 19L52 17L51 17L51 15ZM18 16L18 17L19 17L19 16ZM25 18L25 19L26 19L26 18ZM40 19L40 21L41 21L41 19ZM15 20L15 21L9 21L9 23L10 23L10 22L11 22L11 25L10 25L10 24L9 24L9 25L10 25L10 26L9 26L9 27L11 27L11 26L13 26L13 27L14 27L14 28L15 28L15 29L13 29L13 30L10 30L10 28L9 28L9 29L6 29L6 30L5 30L5 32L2 32L2 33L3 33L3 34L4 34L4 35L5 35L5 36L7 36L7 35L5 35L5 34L7 34L7 33L8 33L8 36L9 36L9 34L10 34L10 37L9 37L9 38L7 38L7 37L6 37L6 38L7 38L7 39L5 39L5 40L4 40L4 42L5 42L5 41L6 41L6 42L7 42L7 43L9 43L9 42L7 42L7 41L6 41L6 40L8 40L8 41L10 41L10 42L11 42L11 44L13 44L13 46L14 46L14 50L15 50L15 51L16 51L16 50L17 50L17 51L18 51L18 49L19 49L19 51L20 51L20 50L21 50L21 49L19 49L19 48L18 48L18 49L17 49L17 48L16 48L16 47L15 47L15 46L17 46L17 47L18 47L18 46L19 46L19 45L21 45L21 46L22 46L22 45L23 45L23 44L22 44L22 43L23 43L23 41L21 41L21 42L20 42L20 43L19 43L19 42L16 42L16 43L15 43L15 42L14 42L14 44L13 44L13 42L12 42L12 41L18 41L18 40L19 40L19 41L20 41L20 38L18 38L18 37L17 37L17 36L16 36L16 38L18 38L18 39L17 39L17 40L14 40L14 39L12 39L12 41L10 41L10 40L11 40L11 39L10 39L10 38L11 38L11 36L12 36L12 38L15 38L15 37L13 37L13 34L14 34L14 36L15 36L15 35L16 35L16 34L18 34L18 35L20 35L20 34L22 34L22 35L21 35L21 36L20 36L20 37L21 37L21 39L22 39L22 40L23 40L23 38L22 38L22 37L25 37L25 38L26 38L26 39L24 39L24 40L26 40L26 39L27 39L27 40L28 40L28 41L29 41L29 42L27 42L27 41L26 41L26 42L24 42L24 43L25 43L25 44L27 44L27 43L30 43L30 44L29 44L29 45L31 45L31 44L32 44L32 43L33 43L33 42L32 42L32 41L31 41L31 40L32 40L32 39L33 39L33 38L31 38L31 39L30 39L30 37L32 37L32 36L33 36L33 37L34 37L34 39L35 39L35 40L36 40L36 39L37 39L37 40L38 40L38 41L36 41L36 42L37 42L37 44L38 44L38 45L39 45L39 46L40 46L40 45L41 45L41 46L42 46L42 45L43 45L43 47L42 47L42 49L44 49L44 50L43 50L43 52L44 52L44 51L45 51L45 49L44 49L44 45L43 45L43 43L45 43L45 44L48 44L48 42L47 42L47 43L45 43L45 42L46 42L46 41L49 41L49 40L47 40L47 39L46 39L46 38L45 38L45 37L43 37L43 38L45 38L45 42L44 42L44 41L43 41L43 43L42 43L42 42L40 42L40 41L41 41L41 40L43 40L43 39L40 39L40 41L39 41L39 39L37 39L37 37L35 37L35 36L38 36L38 37L39 37L39 38L40 38L40 37L41 37L41 38L42 38L42 34L41 34L41 33L43 33L43 31L45 31L45 32L46 32L46 34L48 34L48 33L51 33L51 34L52 34L52 33L51 33L51 32L52 32L52 31L51 31L51 30L50 30L50 32L49 32L49 31L48 31L48 32L47 32L47 31L46 31L46 30L47 30L47 29L44 29L44 25L43 25L43 26L42 26L42 28L43 28L43 31L42 31L42 32L41 32L41 31L40 31L40 30L41 30L41 27L40 27L40 30L39 30L39 32L40 32L40 34L39 34L39 35L38 35L38 34L35 34L35 32L36 32L36 31L38 31L38 30L37 30L37 29L35 29L35 28L34 28L34 30L32 30L32 31L31 31L31 32L29 32L29 33L28 33L28 31L27 31L27 30L29 30L29 31L30 31L30 30L29 30L29 29L32 29L32 27L30 27L30 25L31 25L31 24L32 24L32 23L30 23L30 24L29 24L29 23L26 23L26 24L29 24L29 27L30 27L30 28L29 28L29 29L27 29L27 30L25 30L25 29L24 29L24 28L22 28L22 29L21 29L21 27L22 27L22 26L20 26L20 27L18 27L18 26L16 26L16 27L15 27L15 26L13 26L13 25L18 25L18 24L19 24L19 25L20 25L20 24L21 24L21 22L20 22L20 23L19 23L19 21L21 21L21 20L19 20L19 21L18 21L18 20L17 20L17 21L16 21L16 20ZM23 20L23 21L24 21L24 20ZM0 21L0 22L1 22L1 21ZM15 21L15 22L12 22L12 23L14 23L14 24L16 24L16 23L18 23L18 22L16 22L16 21ZM15 22L15 23L16 23L16 22ZM12 24L12 25L13 25L13 24ZM35 24L35 25L33 25L33 26L34 26L34 27L35 27L35 26L36 26L36 27L38 27L38 28L39 28L39 27L38 27L38 26L36 26L36 24ZM5 25L5 28L8 28L8 25ZM25 25L25 28L28 28L28 25ZM45 25L45 28L48 28L48 25ZM6 26L6 27L7 27L7 26ZM26 26L26 27L27 27L27 26ZM46 26L46 27L47 27L47 26ZM52 26L52 27L51 27L51 28L52 28L52 27L53 27L53 26ZM17 27L17 28L16 28L16 29L15 29L15 31L16 31L16 32L14 32L14 31L12 31L12 32L10 32L10 30L9 30L9 33L12 33L12 34L11 34L11 35L12 35L12 34L13 34L13 33L14 33L14 34L15 34L15 33L16 33L16 32L17 32L17 33L18 33L18 34L19 34L19 33L21 33L21 32L19 32L19 30L20 30L20 31L21 31L21 29L19 29L19 28L18 28L18 27ZM17 28L17 29L16 29L16 30L17 30L17 31L18 31L18 30L19 30L19 29L18 29L18 28ZM22 29L22 30L23 30L23 31L22 31L22 32L23 32L23 31L24 31L24 32L25 32L25 33L27 33L27 31L26 31L26 32L25 32L25 31L24 31L24 30L23 30L23 29ZM6 30L6 31L7 31L7 32L5 32L5 33L4 33L4 34L5 34L5 33L7 33L7 32L8 32L8 31L7 31L7 30ZM32 31L32 32L31 32L31 33L30 33L30 34L29 34L29 35L27 35L27 34L26 34L26 35L27 35L27 36L25 36L25 37L27 37L27 36L28 36L28 37L30 37L30 35L31 35L31 36L32 36L32 35L31 35L31 34L32 34L32 33L33 33L33 32L35 32L35 31ZM12 32L12 33L13 33L13 32ZM18 32L18 33L19 33L19 32ZM23 34L23 35L22 35L22 36L21 36L21 37L22 37L22 36L23 36L23 35L24 35L24 34ZM40 34L40 35L39 35L39 37L40 37L40 35L41 35L41 34ZM43 34L43 35L45 35L45 34ZM34 35L34 36L35 36L35 35ZM35 38L35 39L36 39L36 38ZM49 38L49 39L50 39L50 38ZM28 39L28 40L30 40L30 39ZM30 41L30 43L31 43L31 41ZM38 41L38 42L39 42L39 41ZM2 42L2 43L3 43L3 42ZM38 43L38 44L39 44L39 45L40 45L40 44L42 44L42 43L40 43L40 44L39 44L39 43ZM16 44L16 45L19 45L19 44ZM21 44L21 45L22 45L22 44ZM14 45L14 46L15 46L15 45ZM25 45L25 48L28 48L28 45ZM32 45L32 46L33 46L33 45ZM45 45L45 48L48 48L48 45ZM49 45L49 46L50 46L50 45ZM23 46L23 47L24 47L24 46ZM26 46L26 47L27 47L27 46ZM46 46L46 47L47 47L47 46ZM11 47L11 52L13 52L13 51L12 51L12 50L13 50L13 49L12 49L12 47ZM15 48L15 49L16 49L16 48ZM46 49L46 50L47 50L47 49ZM48 49L48 51L49 51L49 49ZM51 51L51 53L52 53L52 52L53 52L53 51ZM0 0L0 7L7 7L7 0ZM1 1L1 6L6 6L6 1ZM2 2L2 5L5 5L5 2ZM46 0L46 7L53 7L53 0ZM47 1L47 6L52 6L52 1ZM48 2L48 5L51 5L51 2ZM0 46L0 53L7 53L7 46ZM1 47L1 52L6 52L6 47ZM2 48L2 51L5 51L5 48Z" fill="#000000"/></g></g></svg>
