<?xml version="1.0" encoding="UTF-8"?>
<svg xmlns="http://www.w3.org/2000/svg" version="1.1" width="500" height="500" viewBox="0 0 500 500"><rect x="0" y="0" width="500" height="500" fill="#ffffff"/><g transform="scale(15.152)"><g transform="translate(0,0)"><path fill-rule="evenodd" d="M9 0L9 1L11 1L11 2L9 2L9 3L8 3L8 5L9 5L9 6L8 6L8 7L9 7L9 9L10 9L10 10L6 10L6 9L8 9L8 8L5 8L5 9L2 9L2 8L0 8L0 12L1 12L1 13L0 13L0 14L1 14L1 15L0 15L0 17L3 17L3 18L1 18L1 19L0 19L0 25L2 25L2 24L5 24L5 22L6 22L6 23L7 23L7 22L9 22L9 23L8 23L8 24L9 24L9 25L8 25L8 28L9 28L9 27L11 27L11 26L13 26L13 25L12 25L12 24L11 24L11 25L10 25L10 24L9 24L9 23L10 23L10 22L9 22L9 17L10 17L10 14L11 14L11 12L12 12L12 11L13 11L13 10L14 10L14 12L16 12L16 13L15 13L15 14L14 14L14 15L17 15L17 11L16 11L16 8L17 8L17 10L20 10L20 9L21 9L21 6L22 6L22 7L23 7L23 6L22 6L22 5L24 5L24 9L23 9L23 10L24 10L24 11L22 11L22 13L20 13L20 11L19 11L19 13L18 13L18 14L20 14L20 16L21 16L21 15L23 15L23 14L26 14L26 15L27 15L27 17L26 17L26 18L24 18L24 17L25 17L25 16L24 16L24 17L22 17L22 18L21 18L21 17L19 17L19 16L17 16L17 17L16 17L16 16L15 16L15 17L14 17L14 16L13 16L13 15L12 15L12 17L13 17L13 18L12 18L12 19L11 19L11 18L10 18L10 19L11 19L11 20L10 20L10 21L12 21L12 22L13 22L13 21L14 21L14 22L15 22L15 23L16 23L16 24L14 24L14 26L15 26L15 27L16 27L16 28L15 28L15 29L14 29L14 28L13 28L13 27L12 27L12 28L13 28L13 29L11 29L11 28L10 28L10 29L9 29L9 30L10 30L10 29L11 29L11 32L9 32L9 31L8 31L8 33L12 33L12 32L13 32L13 33L14 33L14 32L16 32L16 33L19 33L19 32L16 32L16 31L18 31L18 30L16 30L16 29L20 29L20 28L21 28L21 27L23 27L23 28L24 28L24 32L23 32L23 29L22 29L22 32L23 32L23 33L25 33L25 31L26 31L26 33L29 33L29 31L30 31L30 33L32 33L32 32L31 32L31 31L30 31L30 30L31 30L31 29L32 29L32 28L31 28L31 27L32 27L32 26L31 26L31 25L30 25L30 24L31 24L31 23L32 23L32 22L31 22L31 23L30 23L30 24L28 24L28 23L29 23L29 21L30 21L30 20L31 20L31 21L32 21L32 19L33 19L33 17L32 17L32 19L31 19L31 17L29 17L29 16L32 16L32 14L33 14L33 12L32 12L32 13L30 13L30 14L31 14L31 15L29 15L29 14L28 14L28 13L27 13L27 12L28 12L28 11L27 11L27 12L25 12L25 10L26 10L26 9L25 9L25 4L23 4L23 3L25 3L25 0L24 0L24 2L23 2L23 3L22 3L22 2L21 2L21 3L20 3L20 4L18 4L18 3L19 3L19 2L18 2L18 3L16 3L16 2L15 2L15 1L16 1L16 0L15 0L15 1L14 1L14 0L13 0L13 1L12 1L12 0ZM17 0L17 1L18 1L18 0ZM19 0L19 1L20 1L20 0ZM21 0L21 1L22 1L22 0ZM13 1L13 2L12 2L12 4L11 4L11 7L10 7L10 6L9 6L9 7L10 7L10 8L11 8L11 10L10 10L10 11L9 11L9 12L7 12L7 11L6 11L6 10L2 10L2 9L1 9L1 10L2 10L2 11L1 11L1 12L2 12L2 11L3 11L3 12L5 12L5 14L4 14L4 15L3 15L3 13L2 13L2 15L1 15L1 16L2 16L2 15L3 15L3 16L4 16L4 18L7 18L7 17L5 17L5 16L4 16L4 15L5 15L5 14L7 14L7 15L6 15L6 16L8 16L8 17L9 17L9 16L8 16L8 14L9 14L9 12L10 12L10 11L11 11L11 10L13 10L13 9L12 9L12 6L13 6L13 8L14 8L14 6L15 6L15 8L16 8L16 6L17 6L17 8L18 8L18 9L20 9L20 6L21 6L21 4L20 4L20 5L19 5L19 7L18 7L18 5L17 5L17 4L16 4L16 3L15 3L15 2L14 2L14 1ZM9 3L9 5L10 5L10 3ZM13 3L13 4L12 4L12 5L14 5L14 3ZM28 8L28 9L27 9L27 10L29 10L29 12L31 12L31 11L32 11L32 9L30 9L30 8ZM6 12L6 13L7 13L7 14L8 14L8 13L7 13L7 12ZM23 12L23 13L22 13L22 14L23 14L23 13L25 13L25 12ZM12 13L12 14L13 14L13 13ZM27 14L27 15L28 15L28 16L29 16L29 15L28 15L28 14ZM15 17L15 18L16 18L16 17ZM18 17L18 18L17 18L17 19L16 19L16 20L15 20L15 19L14 19L14 18L13 18L13 19L12 19L12 20L14 20L14 21L15 21L15 22L16 22L16 21L17 21L17 24L16 24L16 26L17 26L17 28L19 28L19 27L21 27L21 26L20 26L20 25L22 25L22 26L24 26L24 25L22 25L22 23L23 23L23 24L24 24L24 23L25 23L25 24L26 24L26 23L28 23L28 22L27 22L27 21L28 21L28 20L30 20L30 18L29 18L29 17L28 17L28 19L23 19L23 20L22 20L22 19L21 19L21 21L20 21L20 19L19 19L19 21L20 21L20 22L19 22L19 23L20 23L20 25L18 25L18 21L17 21L17 20L18 20L18 18L19 18L19 17ZM6 19L6 20L5 20L5 21L6 21L6 22L7 22L7 21L8 21L8 19ZM1 20L1 24L2 24L2 23L3 23L3 22L4 22L4 20ZM6 20L6 21L7 21L7 20ZM23 21L23 22L24 22L24 21ZM25 21L25 22L26 22L26 21ZM20 22L20 23L22 23L22 22ZM6 24L6 25L7 25L7 24ZM25 25L25 28L28 28L28 25ZM29 25L29 28L30 28L30 29L25 29L25 30L27 30L27 32L28 32L28 30L30 30L30 29L31 29L31 28L30 28L30 25ZM18 26L18 27L19 27L19 26ZM26 26L26 27L27 27L27 26ZM13 29L13 32L14 32L14 31L15 31L15 30L14 30L14 29ZM19 30L19 31L21 31L21 30ZM32 30L32 31L33 31L33 30ZM20 32L20 33L21 33L21 32ZM0 0L0 7L7 7L7 0ZM1 1L1 6L6 6L6 1ZM2 2L2 5L5 5L5 2ZM26 0L26 7L33 7L33 0ZM27 1L27 6L32 6L32 1ZM28 2L28 5L31 5L31 2ZM0 26L0 33L7 33L7 26ZM1 27L1 32L6 32L6 27ZM2 28L2 31L5 31L5 28Z" fill="#000000"/></g></g></svg>
