<?xml version="1.0" encoding="UTF-8"?>
<svg xmlns="http://www.w3.org/2000/svg" version="1.1" width="420" height="420" viewBox="0 0 420 420"><rect x="0" y="0" width="420" height="420" fill="#ffffff"/><g transform="scale(11.351)"><g transform="translate(0,0)"><path fill-rule="evenodd" d="M8 0L8 1L11 1L11 3L10 3L10 2L9 2L9 3L10 3L10 5L9 5L9 6L8 6L8 8L9 8L9 11L7 11L7 10L6 10L6 9L7 9L7 8L6 8L6 9L5 9L5 8L3 8L3 10L2 10L2 8L0 8L0 10L2 10L2 11L3 11L3 10L4 10L4 9L5 9L5 11L4 11L4 12L3 12L3 15L2 15L2 14L1 14L1 13L2 13L2 12L1 12L1 11L0 11L0 16L1 16L1 17L0 17L0 20L1 20L1 21L2 21L2 22L0 22L0 23L1 23L1 24L2 24L2 23L3 23L3 21L2 21L2 20L4 20L4 24L3 24L3 25L0 25L0 29L1 29L1 27L2 27L2 28L3 28L3 29L7 29L7 28L6 28L6 27L7 27L7 26L6 26L6 27L5 27L5 26L4 26L4 24L6 24L6 25L7 25L7 24L6 24L6 23L7 23L7 22L6 22L6 21L8 21L8 24L9 24L9 25L8 25L8 30L9 30L9 29L10 29L10 31L12 31L12 33L14 33L14 36L13 36L13 37L17 37L17 36L18 36L18 37L20 37L20 36L21 36L21 37L22 37L22 36L23 36L23 37L24 37L24 35L27 35L27 37L29 37L29 36L28 36L28 35L30 35L30 37L33 37L33 36L36 36L36 37L37 37L37 32L36 32L36 31L37 31L37 29L35 29L35 30L36 30L36 31L35 31L35 32L34 32L34 30L33 30L33 29L34 29L34 28L35 28L35 27L36 27L36 28L37 28L37 26L35 26L35 27L34 27L34 26L33 26L33 25L32 25L32 27L31 27L31 26L30 26L30 25L31 25L31 24L32 24L32 23L34 23L34 24L35 24L35 23L34 23L34 22L35 22L35 21L34 21L34 20L33 20L33 19L34 19L34 18L31 18L31 17L32 17L32 16L30 16L30 17L29 17L29 14L28 14L28 12L29 12L29 13L30 13L30 14L31 14L31 15L33 15L33 14L34 14L34 17L35 17L35 15L36 15L36 17L37 17L37 14L36 14L36 13L37 13L37 10L36 10L36 9L37 9L37 8L36 8L36 9L34 9L34 10L33 10L33 9L32 9L32 11L33 11L33 13L32 13L32 12L31 12L31 10L30 10L30 9L31 9L31 8L30 8L30 9L29 9L29 6L28 6L28 9L27 9L27 10L25 10L25 8L26 8L26 7L27 7L27 3L29 3L29 0L28 0L28 2L27 2L27 1L26 1L26 0L24 0L24 1L25 1L25 2L24 2L24 3L25 3L25 4L24 4L24 5L23 5L23 3L22 3L22 2L21 2L21 1L22 1L22 0L20 0L20 1L18 1L18 0L17 0L17 1L18 1L18 2L21 2L21 4L20 4L20 3L17 3L17 6L16 6L16 7L17 7L17 6L18 6L18 7L19 7L19 6L18 6L18 4L19 4L19 5L20 5L20 8L18 8L18 9L17 9L17 8L15 8L15 5L16 5L16 3L15 3L15 2L16 2L16 0L13 0L13 1L12 1L12 0ZM12 2L12 4L14 4L14 5L15 5L15 4L14 4L14 3L13 3L13 2ZM21 4L21 5L22 5L22 4ZM10 5L10 6L9 6L9 7L10 7L10 9L11 9L11 11L9 11L9 12L10 12L10 13L6 13L6 12L7 12L7 11L5 11L5 12L4 12L4 14L5 14L5 13L6 13L6 14L8 14L8 15L9 15L9 16L10 16L10 15L11 15L11 16L12 16L12 15L14 15L14 14L16 14L16 15L15 15L15 16L13 16L13 17L12 17L12 18L11 18L11 17L9 17L9 18L10 18L10 19L9 19L9 24L10 24L10 19L12 19L12 21L11 21L11 22L12 22L12 23L13 23L13 22L12 22L12 21L13 21L13 19L12 19L12 18L15 18L15 16L16 16L16 15L17 15L17 17L20 17L20 18L21 18L21 20L22 20L22 21L21 21L21 22L19 22L19 23L18 23L18 21L20 21L20 19L19 19L19 18L18 18L18 19L14 19L14 25L16 25L16 26L17 26L17 25L19 25L19 26L18 26L18 27L15 27L15 26L14 26L14 27L12 27L12 28L10 28L10 29L14 29L14 28L16 28L16 29L15 29L15 30L12 30L12 31L13 31L13 32L14 32L14 31L15 31L15 34L16 34L16 35L15 35L15 36L16 36L16 35L17 35L17 34L18 34L18 35L19 35L19 36L20 36L20 34L22 34L22 35L21 35L21 36L22 36L22 35L23 35L23 34L22 34L22 32L23 32L23 33L24 33L24 31L23 31L23 30L22 30L22 27L23 27L23 28L24 28L24 30L27 30L27 31L26 31L26 32L25 32L25 34L29 34L29 33L26 33L26 32L28 32L28 29L27 29L27 28L28 28L28 27L27 27L27 28L26 28L26 27L24 27L24 26L25 26L25 25L26 25L26 26L27 26L27 24L26 24L26 23L25 23L25 22L27 22L27 21L24 21L24 23L25 23L25 25L24 25L24 24L23 24L23 23L21 23L21 22L22 22L22 21L23 21L23 20L25 20L25 19L26 19L26 18L27 18L27 17L26 17L26 16L27 16L27 13L26 13L26 12L27 12L27 11L25 11L25 12L24 12L24 11L23 11L23 9L24 9L24 6L23 6L23 7L22 7L22 6L21 6L21 10L19 10L19 12L18 12L18 13L16 13L16 12L17 12L17 11L18 11L18 10L17 10L17 9L15 9L15 11L16 11L16 12L15 12L15 13L13 13L13 12L14 12L14 9L12 9L12 6L13 6L13 8L14 8L14 6L13 6L13 5L12 5L12 6L11 6L11 5ZM25 5L25 7L26 7L26 5ZM10 6L10 7L11 7L11 6ZM22 8L22 9L23 9L23 8ZM12 10L12 11L13 11L13 10ZM21 10L21 11L22 11L22 10ZM35 10L35 12L34 12L34 14L35 14L35 13L36 13L36 10ZM29 11L29 12L30 12L30 11ZM19 12L19 13L20 13L20 14L17 14L17 15L18 15L18 16L19 16L19 15L20 15L20 17L21 17L21 18L22 18L22 19L24 19L24 18L23 18L23 17L25 17L25 18L26 18L26 17L25 17L25 16L23 16L23 17L22 17L22 16L21 16L21 15L22 15L22 14L26 14L26 13L23 13L23 12L22 12L22 14L21 14L21 13L20 13L20 12ZM12 13L12 14L13 14L13 13ZM9 14L9 15L10 15L10 14ZM20 14L20 15L21 15L21 14ZM5 15L5 17L6 17L6 18L4 18L4 17L3 17L3 16L2 16L2 17L1 17L1 18L3 18L3 19L5 19L5 20L7 20L7 19L6 19L6 18L7 18L7 17L8 17L8 16L7 16L7 15ZM6 16L6 17L7 17L7 16ZM29 18L29 19L27 19L27 20L28 20L28 21L29 21L29 22L28 22L28 23L29 23L29 24L28 24L28 26L29 26L29 25L30 25L30 23L29 23L29 22L31 22L31 21L32 21L32 20L31 20L31 21L29 21L29 20L30 20L30 18ZM36 18L36 19L35 19L35 20L36 20L36 21L37 21L37 20L36 20L36 19L37 19L37 18ZM15 20L15 24L18 24L18 23L16 23L16 22L17 22L17 21L18 21L18 20ZM33 21L33 22L34 22L34 21ZM5 22L5 23L6 23L6 22ZM36 22L36 25L37 25L37 22ZM20 23L20 24L19 24L19 25L21 25L21 26L19 26L19 27L21 27L21 26L22 26L22 25L21 25L21 23ZM9 25L9 26L13 26L13 25ZM23 25L23 26L24 26L24 25ZM2 26L2 27L3 27L3 28L5 28L5 27L3 27L3 26ZM29 27L29 28L30 28L30 27ZM32 27L32 28L34 28L34 27ZM19 28L19 30L18 30L18 29L17 29L17 30L18 30L18 32L16 32L16 33L18 33L18 34L20 34L20 33L18 33L18 32L21 32L21 31L22 31L22 30L21 30L21 28ZM25 28L25 29L26 29L26 28ZM29 29L29 32L32 32L32 29ZM15 30L15 31L16 31L16 30ZM20 30L20 31L21 31L21 30ZM30 30L30 31L31 31L31 30ZM8 32L8 34L9 34L9 35L8 35L8 37L11 37L11 36L10 36L10 35L11 35L11 34L9 34L9 32ZM35 32L35 33L36 33L36 32ZM31 33L31 34L30 34L30 35L31 35L31 36L32 36L32 35L31 35L31 34L33 34L33 35L34 35L34 34L33 34L33 33ZM12 34L12 35L13 35L13 34ZM35 34L35 35L36 35L36 34ZM0 0L0 7L7 7L7 0ZM1 1L1 6L6 6L6 1ZM2 2L2 5L5 5L5 2ZM30 0L30 7L37 7L37 0ZM31 1L31 6L36 6L36 1ZM32 2L32 5L35 5L35 2ZM0 30L0 37L7 37L7 30ZM1 31L1 36L6 36L6 31ZM2 32L2 35L5 35L5 32Z" fill="#000000"/></g></g></svg>
