<?xml version="1.0" encoding="UTF-8"?>
<svg xmlns="http://www.w3.org/2000/svg" version="1.1" width="420" height="420" viewBox="0 0 420 420"><rect x="0" y="0" width="420" height="420" fill="#ffffff"/><g transform="scale(7.925)"><g transform="translate(0,0)"><path fill-rule="evenodd" d="M8 0L8 1L9 1L9 2L8 2L8 5L9 5L9 6L8 6L8 7L9 7L9 8L8 8L8 11L7 11L7 10L6 10L6 9L7 9L7 8L6 8L6 9L4 9L4 8L0 8L0 9L1 9L1 10L2 10L2 9L4 9L4 11L7 11L7 12L4 12L4 13L3 13L3 11L2 11L2 12L0 12L0 14L1 14L1 15L0 15L0 17L1 17L1 19L0 19L0 20L1 20L1 21L3 21L3 24L1 24L1 23L0 23L0 28L1 28L1 29L0 29L0 31L1 31L1 32L0 32L0 34L1 34L1 35L0 35L0 37L1 37L1 38L2 38L2 39L1 39L1 40L0 40L0 43L1 43L1 44L3 44L3 45L4 45L4 44L3 44L3 43L7 43L7 44L6 44L6 45L7 45L7 44L9 44L9 45L8 45L8 46L9 46L9 48L10 48L10 49L8 49L8 53L12 53L12 46L13 46L13 44L14 44L14 43L15 43L15 42L13 42L13 40L14 40L14 41L16 41L16 42L17 42L17 41L16 41L16 39L15 39L15 40L14 40L14 38L13 38L13 36L14 36L14 34L13 34L13 31L16 31L16 35L15 35L15 36L16 36L16 37L17 37L17 39L19 39L19 37L20 37L20 38L22 38L22 39L23 39L23 41L21 41L21 40L20 40L20 43L19 43L19 44L20 44L20 45L21 45L21 44L22 44L22 46L21 46L21 47L19 47L19 48L18 48L18 46L17 46L17 47L16 47L16 45L14 45L14 47L15 47L15 49L13 49L13 52L15 52L15 51L14 51L14 50L17 50L17 51L16 51L16 53L17 53L17 52L19 52L19 53L20 53L20 52L19 52L19 50L17 50L17 49L16 49L16 48L18 48L18 49L20 49L20 50L21 50L21 49L20 49L20 48L21 48L21 47L23 47L23 48L22 48L22 49L23 49L23 50L22 50L22 51L23 51L23 52L24 52L24 50L26 50L26 51L27 51L27 50L28 50L28 52L29 52L29 53L30 53L30 52L29 52L29 51L31 51L31 50L30 50L30 49L32 49L32 50L34 50L34 51L32 51L32 52L31 52L31 53L35 53L35 50L36 50L36 51L37 51L37 48L38 48L38 51L40 51L40 52L39 52L39 53L40 53L40 52L42 52L42 53L43 53L43 52L44 52L44 53L45 53L45 51L43 51L43 50L39 50L39 48L38 48L38 45L36 45L36 44L39 44L39 46L41 46L41 48L43 48L43 46L44 46L44 49L45 49L45 50L46 50L46 51L47 51L47 50L46 50L46 49L48 49L48 50L49 50L49 48L50 48L50 49L52 49L52 48L50 48L50 47L52 47L52 46L50 46L50 45L53 45L53 43L52 43L52 44L51 44L51 43L49 43L49 42L48 42L48 41L49 41L49 40L50 40L50 39L52 39L52 40L53 40L53 36L52 36L52 35L51 35L51 34L53 34L53 32L52 32L52 31L50 31L50 30L49 30L49 32L48 32L48 31L45 31L45 32L44 32L44 31L42 31L42 32L41 32L41 31L40 31L40 30L42 30L42 29L43 29L43 30L44 30L44 29L46 29L46 30L48 30L48 29L49 29L49 27L51 27L51 28L53 28L53 26L50 26L50 25L52 25L52 22L53 22L53 21L52 21L52 20L51 20L51 17L50 17L50 15L52 15L52 16L53 16L53 13L52 13L52 14L51 14L51 12L53 12L53 11L52 11L52 10L53 10L53 8L52 8L52 9L51 9L51 8L48 8L48 9L47 9L47 10L46 10L46 12L44 12L44 14L42 14L42 13L43 13L43 11L45 11L45 10L44 10L44 9L46 9L46 8L45 8L45 6L44 6L44 8L43 8L43 3L44 3L44 4L45 4L45 3L44 3L44 1L43 1L43 0L39 0L39 1L38 1L38 0L35 0L35 1L34 1L34 0L32 0L32 3L31 3L31 0L30 0L30 4L31 4L31 5L29 5L29 4L28 4L28 3L26 3L26 4L24 4L24 9L25 9L25 10L26 10L26 11L25 11L25 12L23 12L23 11L24 11L24 10L23 10L23 11L22 11L22 10L21 10L21 9L20 9L20 8L22 8L22 9L23 9L23 8L22 8L22 7L23 7L23 4L22 4L22 7L21 7L21 4L19 4L19 3L20 3L20 2L21 2L21 3L25 3L25 1L26 1L26 0L25 0L25 1L24 1L24 0L23 0L23 1L22 1L22 0L21 0L21 1L19 1L19 0L16 0L16 2L13 2L13 1L12 1L12 2L11 2L11 3L12 3L12 4L11 4L11 5L10 5L10 4L9 4L9 3L10 3L10 1L9 1L9 0ZM27 0L27 1L29 1L29 0ZM17 1L17 2L16 2L16 3L13 3L13 2L12 2L12 3L13 3L13 4L14 4L14 6L13 6L13 7L14 7L14 6L15 6L15 8L14 8L14 10L13 10L13 13L14 13L14 14L13 14L13 15L12 15L12 16L11 16L11 13L12 13L12 10L11 10L11 9L12 9L12 6L11 6L11 9L10 9L10 8L9 8L9 10L10 10L10 11L9 11L9 12L8 12L8 14L7 14L7 13L6 13L6 14L5 14L5 13L4 13L4 14L5 14L5 15L3 15L3 17L2 17L2 16L1 16L1 17L2 17L2 18L3 18L3 17L4 17L4 18L5 18L5 19L4 19L4 20L3 20L3 19L1 19L1 20L3 20L3 21L4 21L4 23L6 23L6 24L7 24L7 23L6 23L6 22L10 22L10 23L11 23L11 25L12 25L12 26L13 26L13 25L15 25L15 26L14 26L14 27L10 27L10 26L9 26L9 27L10 27L10 29L11 29L11 31L13 31L13 30L12 30L12 29L11 29L11 28L13 28L13 29L14 29L14 27L15 27L15 26L17 26L17 27L16 27L16 28L15 28L15 30L16 30L16 28L17 28L17 29L18 29L18 30L17 30L17 33L19 33L19 34L17 34L17 35L16 35L16 36L19 36L19 34L21 34L21 35L20 35L20 36L22 36L22 37L24 37L24 35L25 35L25 36L26 36L26 38L23 38L23 39L25 39L25 40L27 40L27 41L29 41L29 42L30 42L30 43L31 43L31 44L30 44L30 45L32 45L32 46L33 46L33 48L32 48L32 49L33 49L33 48L34 48L34 46L35 46L35 44L34 44L34 45L33 45L33 42L34 42L34 41L35 41L35 43L36 43L36 41L38 41L38 42L37 42L37 43L38 43L38 42L39 42L39 41L38 41L38 40L39 40L39 39L37 39L37 38L36 38L36 39L35 39L35 36L36 36L36 35L35 35L35 36L34 36L34 38L33 38L33 36L31 36L31 35L30 35L30 36L31 36L31 37L30 37L30 38L31 38L31 39L30 39L30 40L29 40L29 39L28 39L28 38L27 38L27 37L29 37L29 36L28 36L28 35L27 35L27 36L26 36L26 34L24 34L24 35L23 35L23 33L27 33L27 30L28 30L28 29L27 29L27 30L26 30L26 29L24 29L24 30L23 30L23 28L24 28L24 26L23 26L23 25L24 25L24 24L28 24L28 23L29 23L29 25L30 25L30 26L31 26L31 27L34 27L34 28L33 28L33 29L36 29L36 30L31 30L31 29L32 29L32 28L31 28L31 29L30 29L30 27L29 27L29 29L30 29L30 31L28 31L28 34L30 34L30 33L31 33L31 34L33 34L33 35L34 35L34 34L35 34L35 31L36 31L36 33L38 33L38 35L37 35L37 37L38 37L38 36L40 36L40 37L39 37L39 38L41 38L41 39L42 39L42 38L43 38L43 37L46 37L46 38L47 38L47 40L49 40L49 39L48 39L48 38L50 38L50 37L51 37L51 38L52 38L52 37L51 37L51 35L50 35L50 34L51 34L51 33L50 33L50 32L49 32L49 34L48 34L48 32L45 32L45 33L44 33L44 34L43 34L43 35L42 35L42 36L43 36L43 37L41 37L41 35L39 35L39 32L37 32L37 30L38 30L38 31L39 31L39 30L40 30L40 29L41 29L41 28L42 28L42 26L43 26L43 29L44 29L44 24L46 24L46 22L48 22L48 23L47 23L47 24L51 24L51 23L50 23L50 22L52 22L52 21L50 21L50 22L49 22L49 20L48 20L48 18L47 18L47 19L46 19L46 18L45 18L45 16L46 16L46 17L49 17L49 18L50 18L50 17L49 17L49 15L50 15L50 12L51 12L51 11L49 11L49 15L48 15L48 14L47 14L47 13L48 13L48 10L50 10L50 9L48 9L48 10L47 10L47 13L46 13L46 15L45 15L45 14L44 14L44 15L45 15L45 16L44 16L44 17L43 17L43 16L42 16L42 18L41 18L41 16L39 16L39 15L37 15L37 14L38 14L38 13L39 13L39 14L41 14L41 15L42 15L42 14L41 14L41 13L42 13L42 12L41 12L41 11L39 11L39 9L40 9L40 10L41 10L41 9L42 9L42 3L43 3L43 2L41 2L41 1L39 1L39 2L40 2L40 4L39 4L39 9L38 9L38 8L36 8L36 6L37 6L37 7L38 7L38 3L37 3L37 4L36 4L36 6L35 6L35 3L36 3L36 2L38 2L38 1L36 1L36 2L34 2L34 1L33 1L33 3L32 3L32 4L34 4L34 5L32 5L32 6L31 6L31 7L30 7L30 6L29 6L29 7L30 7L30 8L29 8L29 10L28 10L28 9L27 9L27 10L28 10L28 11L26 11L26 12L25 12L25 15L26 15L26 16L24 16L24 19L23 19L23 18L22 18L22 17L20 17L20 19L18 19L18 20L16 20L16 22L15 22L15 23L14 23L14 21L15 21L15 20L14 20L14 21L13 21L13 22L12 22L12 23L11 23L11 22L10 22L10 20L9 20L9 19L10 19L10 18L11 18L11 20L12 20L12 19L13 19L13 17L12 17L12 16L14 16L14 19L15 19L15 17L16 17L16 18L17 18L17 15L19 15L19 14L20 14L20 15L21 15L21 14L22 14L22 15L24 15L24 13L23 13L23 12L22 12L22 13L21 13L21 14L20 14L20 11L21 11L21 10L19 10L19 14L17 14L17 13L16 13L16 11L17 11L17 12L18 12L18 9L16 9L16 11L14 11L14 10L15 10L15 8L17 8L17 7L18 7L18 6L17 6L17 4L16 4L16 3L17 3L17 2L18 2L18 3L19 3L19 1ZM40 4L40 9L41 9L41 4ZM15 5L15 6L16 6L16 7L17 7L17 6L16 6L16 5ZM25 5L25 8L28 8L28 5ZM9 6L9 7L10 7L10 6ZM19 6L19 8L20 8L20 6ZM26 6L26 7L27 7L27 6ZM32 6L32 7L33 7L33 8L35 8L35 6L34 6L34 7L33 7L33 6ZM30 8L30 13L28 13L28 15L27 15L27 12L26 12L26 15L27 15L27 16L26 16L26 17L25 17L25 18L26 18L26 19L25 19L25 20L24 20L24 22L25 22L25 23L27 23L27 22L25 22L25 20L27 20L27 21L28 21L28 22L29 22L29 23L30 23L30 22L31 22L31 21L32 21L32 22L34 22L34 24L35 24L35 25L36 25L36 26L38 26L38 27L39 27L39 29L40 29L40 27L41 27L41 25L43 25L43 24L44 24L44 23L45 23L45 22L44 22L44 21L45 21L45 18L44 18L44 19L43 19L43 20L42 20L42 19L41 19L41 20L39 20L39 21L41 21L41 22L40 22L40 23L41 23L41 22L43 22L43 24L41 24L41 25L40 25L40 24L39 24L39 23L38 23L38 24L36 24L36 20L37 20L37 21L38 21L38 19L40 19L40 18L38 18L38 19L37 19L37 17L36 17L36 16L35 16L35 17L34 17L34 15L32 15L32 14L30 14L30 13L32 13L32 12L31 12L31 9L32 9L32 10L33 10L33 12L34 12L34 13L33 13L33 14L34 14L34 13L38 13L38 9L36 9L36 10L34 10L34 9L32 9L32 8ZM36 10L36 11L37 11L37 10ZM34 11L34 12L35 12L35 11ZM9 12L9 13L10 13L10 12ZM39 12L39 13L40 13L40 12ZM22 13L22 14L23 14L23 13ZM6 14L6 15L5 15L5 16L6 16L6 17L5 17L5 18L6 18L6 19L5 19L5 20L6 20L6 21L5 21L5 22L6 22L6 21L8 21L8 19L9 19L9 17L10 17L10 15L9 15L9 17L8 17L8 15L7 15L7 14ZM14 14L14 16L16 16L16 15L17 15L17 14ZM6 15L6 16L7 16L7 15ZM28 15L28 16L27 16L27 17L26 17L26 18L27 18L27 19L29 19L29 18L30 18L30 20L28 20L28 21L30 21L30 20L32 20L32 21L34 21L34 22L35 22L35 20L33 20L33 18L31 18L31 17L32 17L32 16L30 16L30 15ZM46 15L46 16L47 16L47 15ZM18 16L18 18L19 18L19 16ZM28 16L28 17L27 17L27 18L28 18L28 17L30 17L30 16ZM6 17L6 18L7 18L7 19L6 19L6 20L7 20L7 19L8 19L8 17ZM21 18L21 19L20 19L20 20L19 20L19 21L21 21L21 19L22 19L22 22L23 22L23 19L22 19L22 18ZM34 18L34 19L36 19L36 18ZM41 20L41 21L42 21L42 20ZM46 20L46 21L47 21L47 20ZM16 22L16 24L17 24L17 26L18 26L18 24L20 24L20 23L19 23L19 22L18 22L18 24L17 24L17 22ZM12 23L12 25L13 25L13 23ZM21 23L21 26L20 26L20 25L19 25L19 27L18 27L18 28L23 28L23 27L21 27L21 26L22 26L22 24L24 24L24 23ZM31 23L31 24L33 24L33 23ZM3 24L3 28L2 28L2 27L1 27L1 28L2 28L2 29L3 29L3 28L4 28L4 24ZM9 24L9 25L10 25L10 24ZM5 25L5 28L8 28L8 25ZM25 25L25 28L28 28L28 25ZM31 25L31 26L33 26L33 25ZM45 25L45 28L48 28L48 25ZM6 26L6 27L7 27L7 26ZM26 26L26 27L27 27L27 26ZM39 26L39 27L40 27L40 26ZM46 26L46 27L47 27L47 26ZM6 29L6 30L8 30L8 29ZM19 29L19 30L18 30L18 31L19 31L19 32L21 32L21 34L22 34L22 32L23 32L23 30L22 30L22 32L21 32L21 31L20 31L20 29ZM51 29L51 30L52 30L52 29ZM2 30L2 32L1 32L1 34L2 34L2 35L1 35L1 37L3 37L3 39L4 39L4 38L5 38L5 40L3 40L3 41L2 41L2 40L1 40L1 41L2 41L2 43L3 43L3 41L4 41L4 42L8 42L8 41L9 41L9 42L11 42L11 41L12 41L12 40L13 40L13 38L12 38L12 37L11 37L11 39L12 39L12 40L8 40L8 39L10 39L10 38L8 38L8 37L10 37L10 36L13 36L13 34L12 34L12 33L11 33L11 32L10 32L10 31L8 31L8 32L10 32L10 33L9 33L9 34L8 34L8 33L6 33L6 34L5 34L5 35L6 35L6 36L7 36L7 35L6 35L6 34L8 34L8 35L10 35L10 36L8 36L8 37L6 37L6 38L5 38L5 37L4 37L4 36L2 36L2 35L3 35L3 31L5 31L5 32L7 32L7 31L5 31L5 30ZM24 30L24 32L26 32L26 31L25 31L25 30ZM14 32L14 33L15 33L15 32ZM42 32L42 33L43 33L43 32ZM10 33L10 35L11 35L11 33ZM33 33L33 34L34 34L34 33ZM40 33L40 34L41 34L41 33ZM45 33L45 34L44 34L44 35L45 35L45 36L46 36L46 33ZM47 35L47 36L48 36L48 35ZM49 36L49 37L50 37L50 36ZM47 37L47 38L48 38L48 37ZM6 38L6 39L8 39L8 38ZM32 38L32 39L31 39L31 41L33 41L33 38ZM44 38L44 39L45 39L45 40L40 40L40 41L42 41L42 42L40 42L40 43L39 43L39 44L40 44L40 43L42 43L42 44L43 44L43 41L44 41L44 42L45 42L45 43L44 43L44 44L45 44L45 43L48 43L48 44L49 44L49 45L50 45L50 44L49 44L49 43L48 43L48 42L45 42L45 41L46 41L46 39L45 39L45 38ZM34 39L34 40L35 40L35 39ZM36 39L36 40L37 40L37 39ZM5 40L5 41L8 41L8 40ZM18 40L18 41L19 41L19 40ZM51 41L51 42L52 42L52 41ZM12 42L12 43L11 43L11 44L10 44L10 45L9 45L9 46L10 46L10 47L11 47L11 46L10 46L10 45L11 45L11 44L13 44L13 42ZM22 42L22 44L23 44L23 45L24 45L24 44L25 44L25 43L24 43L24 42ZM26 42L26 43L27 43L27 44L29 44L29 43L27 43L27 42ZM20 43L20 44L21 44L21 43ZM17 44L17 45L18 45L18 44ZM25 45L25 48L28 48L28 45ZM45 45L45 48L48 48L48 45ZM26 46L26 47L27 47L27 46ZM29 46L29 49L28 49L28 50L29 50L29 49L30 49L30 48L31 48L31 46ZM46 46L46 47L47 47L47 46ZM35 47L35 49L34 49L34 50L35 50L35 49L36 49L36 47ZM23 48L23 49L24 49L24 48ZM10 49L10 50L9 50L9 51L10 51L10 52L11 52L11 49ZM51 50L51 53L52 53L52 50ZM42 51L42 52L43 52L43 51ZM49 51L49 53L50 53L50 51ZM25 52L25 53L27 53L27 52ZM46 52L46 53L48 53L48 52ZM0 0L0 7L7 7L7 0ZM1 1L1 6L6 6L6 1ZM2 2L2 5L5 5L5 2ZM46 0L46 7L53 7L53 0ZM47 1L47 6L52 6L52 1ZM48 2L48 5L51 5L51 2ZM0 46L0 53L7 53L7 46ZM1 47L1 52L6 52L6 47ZM2 48L2 51L5 51L5 48Z" fill="#000000"/></g></g></svg>
