<?xml version="1.0" encoding="UTF-8"?>
<svg xmlns="http://www.w3.org/2000/svg" version="1.1" width="420" height="420" viewBox="0 0 420 420"><rect x="0" y="0" width="420" height="420" fill="#ffffff"/><g transform="scale(7.925)"><g transform="translate(0,0)"><path fill-rule="evenodd" d="M8 0L8 4L10 4L10 5L8 5L8 7L9 7L9 6L10 6L10 7L11 7L11 6L12 6L12 8L11 8L11 9L12 9L12 8L13 8L13 9L14 9L14 10L15 10L15 9L16 9L16 7L17 7L17 9L18 9L18 11L17 11L17 10L16 10L16 11L15 11L15 12L14 12L14 11L13 11L13 13L17 13L17 12L18 12L18 13L19 13L19 15L20 15L20 14L21 14L21 13L22 13L22 14L23 14L23 13L22 13L22 12L24 12L24 11L25 11L25 10L27 10L27 9L28 9L28 11L27 11L27 12L28 12L28 14L26 14L26 15L28 15L28 16L32 16L32 18L33 18L33 16L35 16L35 17L37 17L37 18L38 18L38 20L37 20L37 19L36 19L36 18L35 18L35 21L37 21L37 23L34 23L34 19L32 19L32 20L31 20L31 17L30 17L30 18L29 18L29 17L27 17L27 18L28 18L28 20L27 20L27 21L26 21L26 20L25 20L25 21L24 21L24 20L23 20L23 19L24 19L24 18L25 18L25 19L26 19L26 17L24 17L24 18L23 18L23 19L22 19L22 18L21 18L21 17L23 17L23 16L22 16L22 15L21 15L21 16L20 16L20 17L19 17L19 16L18 16L18 17L13 17L13 16L12 16L12 15L14 15L14 16L17 16L17 15L18 15L18 14L17 14L17 15L16 15L16 14L12 14L12 13L11 13L11 11L12 11L12 10L11 10L11 11L9 11L9 10L10 10L10 9L9 9L9 10L8 10L8 9L7 9L7 8L4 8L4 9L2 9L2 8L0 8L0 9L1 9L1 10L0 10L0 13L1 13L1 12L2 12L2 11L4 11L4 12L6 12L6 13L8 13L8 14L9 14L9 15L10 15L10 14L12 14L12 15L11 15L11 16L9 16L9 17L8 17L8 16L6 16L6 15L7 15L7 14L6 14L6 15L4 15L4 16L3 16L3 14L2 14L2 15L1 15L1 14L0 14L0 15L1 15L1 16L0 16L0 17L1 17L1 18L0 18L0 19L1 19L1 21L0 21L0 24L1 24L1 26L2 26L2 27L1 27L1 28L0 28L0 29L1 29L1 28L3 28L3 30L2 30L2 31L0 31L0 32L1 32L1 34L2 34L2 33L5 33L5 34L3 34L3 35L1 35L1 36L0 36L0 37L1 37L1 38L2 38L2 37L4 37L4 38L3 38L3 39L7 39L7 40L5 40L5 41L11 41L11 42L10 42L10 43L9 43L9 44L8 44L8 46L9 46L9 47L8 47L8 49L9 49L9 50L10 50L10 49L11 49L11 48L10 48L10 47L12 47L12 46L9 46L9 44L11 44L11 43L12 43L12 40L13 40L13 41L14 41L14 42L13 42L13 44L12 44L12 45L13 45L13 44L14 44L14 45L15 45L15 47L14 47L14 46L13 46L13 47L14 47L14 48L13 48L13 50L11 50L11 53L13 53L13 52L12 52L12 51L13 51L13 50L15 50L15 51L16 51L16 50L17 50L17 53L20 53L20 52L18 52L18 50L19 50L19 51L20 51L20 50L21 50L21 52L22 52L22 50L21 50L21 49L23 49L23 48L22 48L22 47L21 47L21 46L23 46L23 47L24 47L24 49L26 49L26 50L27 50L27 49L29 49L29 48L30 48L30 47L32 47L32 48L31 48L31 49L30 49L30 51L29 51L29 50L28 50L28 51L27 51L27 53L28 53L28 51L29 51L29 52L30 52L30 51L31 51L31 50L32 50L32 49L33 49L33 48L34 48L34 49L35 49L35 50L37 50L37 51L34 51L34 50L33 50L33 51L32 51L32 53L33 53L33 51L34 51L34 52L35 52L35 53L38 53L38 51L39 51L39 53L40 53L40 51L44 51L44 53L47 53L47 52L48 52L48 53L50 53L50 52L49 52L49 51L48 51L48 49L50 49L50 48L49 48L49 47L50 47L50 46L51 46L51 47L52 47L52 48L51 48L51 49L52 49L52 48L53 48L53 41L51 41L51 42L49 42L49 41L50 41L50 39L51 39L51 40L52 40L52 39L53 39L53 36L52 36L52 38L51 38L51 37L50 37L50 33L48 33L48 31L49 31L49 32L50 32L50 30L51 30L51 33L52 33L52 34L51 34L51 35L53 35L53 29L52 29L52 30L51 30L51 29L50 29L50 27L51 27L51 28L52 28L52 27L53 27L53 26L52 26L52 27L51 27L51 25L49 25L49 24L50 24L50 23L49 23L49 20L50 20L50 19L51 19L51 21L50 21L50 22L52 22L52 23L51 23L51 24L52 24L52 23L53 23L53 22L52 22L52 21L53 21L53 17L52 17L52 19L51 19L51 17L49 17L49 16L50 16L50 15L51 15L51 13L52 13L52 15L53 15L53 13L52 13L52 12L53 12L53 8L49 8L49 9L50 9L50 10L49 10L49 11L48 11L48 10L47 10L47 11L46 11L46 9L44 9L44 8L43 8L43 3L44 3L44 4L45 4L45 3L44 3L44 1L43 1L43 0L42 0L42 1L41 1L41 2L40 2L40 1L39 1L39 0L37 0L37 1L36 1L36 0L35 0L35 1L36 1L36 2L34 2L34 0L32 0L32 3L34 3L34 4L33 4L33 6L32 6L32 4L31 4L31 3L30 3L30 2L28 2L28 3L29 3L29 4L27 4L27 3L26 3L26 1L29 1L29 0L13 0L13 1L11 1L11 0ZM30 0L30 1L31 1L31 0ZM9 1L9 3L10 3L10 4L11 4L11 5L10 5L10 6L11 6L11 5L12 5L12 6L13 6L13 7L14 7L14 8L15 8L15 7L16 7L16 5L18 5L18 6L17 6L17 7L18 7L18 6L19 6L19 7L20 7L20 8L21 8L21 9L19 9L19 8L18 8L18 9L19 9L19 11L18 11L18 12L19 12L19 13L21 13L21 12L19 12L19 11L20 11L20 10L21 10L21 11L22 11L22 10L23 10L23 9L24 9L24 8L22 8L22 6L21 6L21 7L20 7L20 5L19 5L19 4L20 4L20 3L21 3L21 4L22 4L22 5L23 5L23 7L24 7L24 4L22 4L22 3L21 3L21 2L24 2L24 3L25 3L25 4L26 4L26 3L25 3L25 1L21 1L21 2L20 2L20 1L19 1L19 3L18 3L18 4L17 4L17 2L18 2L18 1L17 1L17 2L16 2L16 1L15 1L15 3L14 3L14 2L11 2L11 3L10 3L10 1ZM38 1L38 3L35 3L35 4L34 4L34 5L35 5L35 7L36 7L36 8L38 8L38 9L39 9L39 11L38 11L38 10L37 10L37 12L38 12L38 13L39 13L39 14L42 14L42 11L41 11L41 10L40 10L40 9L41 9L41 8L42 8L42 9L43 9L43 12L44 12L44 13L43 13L43 14L44 14L44 17L45 17L45 14L46 14L46 19L47 19L47 20L48 20L48 19L49 19L49 18L48 18L48 17L47 17L47 16L48 16L48 15L49 15L49 14L48 14L48 13L47 13L47 12L46 12L46 11L45 11L45 10L44 10L44 9L43 9L43 8L42 8L42 5L41 5L41 4L42 4L42 3L43 3L43 2L42 2L42 3L41 3L41 4L40 4L40 3L39 3L39 1ZM15 3L15 4L16 4L16 3ZM12 4L12 5L13 5L13 6L14 6L14 7L15 7L15 5L13 5L13 4ZM35 4L35 5L36 5L36 7L37 7L37 6L38 6L38 7L39 7L39 6L38 6L38 5L40 5L40 7L41 7L41 5L40 5L40 4L37 4L37 5L36 5L36 4ZM25 5L25 8L28 8L28 5ZM29 5L29 7L30 7L30 8L29 8L29 11L28 11L28 12L30 12L30 9L32 9L32 6L31 6L31 7L30 7L30 5ZM26 6L26 7L27 7L27 6ZM33 6L33 7L34 7L34 6ZM44 6L44 7L45 7L45 6ZM39 8L39 9L40 9L40 8ZM47 8L47 9L48 9L48 8ZM5 9L5 10L7 10L7 11L6 11L6 12L9 12L9 11L8 11L8 10L7 10L7 9ZM33 9L33 10L32 10L32 11L33 11L33 13L32 13L32 14L31 14L31 15L33 15L33 13L34 13L34 15L35 15L35 12L34 12L34 11L35 11L35 9ZM51 9L51 10L50 10L50 12L49 12L49 13L51 13L51 12L52 12L52 9ZM1 10L1 11L2 11L2 10ZM33 10L33 11L34 11L34 10ZM39 11L39 13L40 13L40 12L41 12L41 11ZM45 12L45 13L44 13L44 14L45 14L45 13L46 13L46 12ZM9 13L9 14L10 14L10 13ZM24 13L24 15L25 15L25 13ZM47 14L47 15L48 15L48 14ZM36 15L36 16L37 16L37 15ZM40 15L40 18L39 18L39 19L40 19L40 20L38 20L38 21L39 21L39 23L37 23L37 24L38 24L38 25L36 25L36 24L34 24L34 25L33 25L33 26L32 26L32 27L31 27L31 28L29 28L29 29L26 29L26 30L25 30L25 29L24 29L24 31L23 31L23 30L22 30L22 29L23 29L23 28L22 28L22 27L23 27L23 26L24 26L24 25L23 25L23 24L25 24L25 23L26 23L26 24L27 24L27 23L26 23L26 22L25 22L25 23L24 23L24 21L23 21L23 20L22 20L22 19L21 19L21 18L20 18L20 19L19 19L19 18L18 18L18 19L19 19L19 21L21 21L21 22L22 22L22 21L23 21L23 24L22 24L22 23L21 23L21 25L19 25L19 24L20 24L20 22L19 22L19 24L18 24L18 25L17 25L17 24L16 24L16 22L17 22L17 23L18 23L18 21L16 21L16 20L17 20L17 18L16 18L16 19L15 19L15 18L13 18L13 17L12 17L12 16L11 16L11 17L9 17L9 18L10 18L10 21L9 21L9 20L7 20L7 19L6 19L6 20L5 20L5 19L3 19L3 18L2 18L2 21L1 21L1 23L2 23L2 26L4 26L4 25L3 25L3 23L4 23L4 24L5 24L5 23L6 23L6 24L7 24L7 23L8 23L8 24L9 24L9 28L10 28L10 29L8 29L8 30L7 30L7 29L4 29L4 30L3 30L3 31L2 31L2 32L4 32L4 31L5 31L5 32L7 32L7 33L6 33L6 34L7 34L7 35L3 35L3 36L4 36L4 37L5 37L5 38L7 38L7 39L8 39L8 40L9 40L9 38L10 38L10 40L11 40L11 39L12 39L12 38L13 38L13 39L14 39L14 40L15 40L15 39L16 39L16 41L15 41L15 43L16 43L16 42L17 42L17 43L18 43L18 44L17 44L17 45L16 45L16 44L15 44L15 45L16 45L16 46L18 46L18 47L17 47L17 48L16 48L16 47L15 47L15 49L18 49L18 48L19 48L19 49L20 49L20 48L21 48L21 47L20 47L20 46L19 46L19 45L24 45L24 44L26 44L26 43L22 43L22 44L19 44L19 43L20 43L20 42L21 42L21 41L22 41L22 42L23 42L23 41L24 41L24 42L25 42L25 40L27 40L27 41L26 41L26 42L27 42L27 41L29 41L29 42L28 42L28 43L30 43L30 40L32 40L32 38L34 38L34 39L35 39L35 38L36 38L36 39L37 39L37 40L38 40L38 41L37 41L37 42L36 42L36 40L35 40L35 41L34 41L34 40L33 40L33 41L34 41L34 42L36 42L36 43L35 43L35 44L33 44L33 45L32 45L32 43L31 43L31 46L33 46L33 47L34 47L34 46L35 46L35 48L36 48L36 47L37 47L37 46L38 46L38 47L39 47L39 46L38 46L38 45L39 45L39 43L40 43L40 45L43 45L43 43L42 43L42 44L41 44L41 43L40 43L40 42L39 42L39 43L38 43L38 41L39 41L39 39L40 39L40 41L41 41L41 39L42 39L42 40L43 40L43 38L39 38L39 39L38 39L38 38L37 38L37 37L34 37L34 36L35 36L35 34L36 34L36 35L37 35L37 34L38 34L38 33L39 33L39 31L38 31L38 30L37 30L37 31L38 31L38 32L37 32L37 33L36 33L36 31L35 31L35 29L34 29L34 31L33 31L33 30L32 30L32 27L33 27L33 28L35 28L35 26L37 26L37 29L39 29L39 30L40 30L40 29L41 29L41 30L42 30L42 27L43 27L43 29L44 29L44 30L43 30L43 31L44 31L44 30L45 30L45 31L46 31L46 32L45 32L45 34L44 34L44 33L43 33L43 35L42 35L42 36L41 36L41 35L40 35L40 34L41 34L41 32L42 32L42 31L40 31L40 34L39 34L39 36L40 36L40 37L43 37L43 35L45 35L45 34L46 34L46 32L47 32L47 31L46 31L46 29L44 29L44 27L43 27L43 26L44 26L44 24L49 24L49 23L47 23L47 21L46 21L46 20L45 20L45 19L42 19L42 20L41 20L41 19L40 19L40 18L42 18L42 17L43 17L43 15ZM1 16L1 17L3 17L3 16ZM5 16L5 17L4 17L4 18L5 18L5 17L6 17L6 18L8 18L8 17L6 17L6 16ZM12 18L12 19L11 19L11 20L13 20L13 21L12 21L12 22L11 22L11 23L13 23L13 25L11 25L11 26L13 26L13 25L14 25L14 28L13 28L13 27L12 27L12 28L11 28L11 29L10 29L10 31L7 31L7 30L5 30L5 31L7 31L7 32L8 32L8 36L6 36L6 37L8 37L8 38L9 38L9 34L10 34L10 36L11 36L11 34L10 34L10 33L11 33L11 31L12 31L12 33L13 33L13 34L15 34L15 35L16 35L16 34L18 34L18 35L17 35L17 36L16 36L16 37L15 37L15 36L14 36L14 35L13 35L13 36L12 36L12 37L11 37L11 38L12 38L12 37L15 37L15 38L16 38L16 39L17 39L17 41L18 41L18 42L19 42L19 41L21 41L21 40L19 40L19 39L20 39L20 38L21 38L21 39L22 39L22 40L23 40L23 39L24 39L24 40L25 40L25 39L28 39L28 40L30 40L30 39L31 39L31 34L32 34L32 33L33 33L33 32L32 32L32 33L30 33L30 35L27 35L27 34L26 34L26 33L28 33L28 34L29 34L29 33L28 33L28 32L30 32L30 30L31 30L31 31L32 31L32 30L31 30L31 29L29 29L29 31L28 31L28 32L27 32L27 31L26 31L26 32L22 32L22 31L21 31L21 32L20 32L20 33L19 33L19 32L18 32L18 33L13 33L13 31L14 31L14 32L15 32L15 30L16 30L16 31L18 31L18 30L16 30L16 29L19 29L19 30L21 30L21 29L22 29L22 28L21 28L21 26L22 26L22 25L21 25L21 26L20 26L20 27L19 27L19 28L17 28L17 26L16 26L16 27L15 27L15 25L16 25L16 24L14 24L14 23L13 23L13 21L15 21L15 19L14 19L14 20L13 20L13 18ZM47 18L47 19L48 19L48 18ZM3 20L3 21L4 21L4 23L5 23L5 22L6 22L6 23L7 23L7 22L9 22L9 24L10 24L10 22L9 22L9 21L7 21L7 20L6 20L6 21L5 21L5 20ZM21 20L21 21L22 21L22 20ZM28 20L28 21L31 21L31 20ZM6 21L6 22L7 22L7 21ZM32 21L32 22L33 22L33 21ZM42 21L42 22L40 22L40 23L39 23L39 25L38 25L38 26L40 26L40 23L41 23L41 24L42 24L42 25L41 25L41 27L42 27L42 26L43 26L43 24L44 24L44 23L43 23L43 21ZM44 21L44 22L45 22L45 21ZM30 23L30 24L29 24L29 27L30 27L30 25L32 25L32 23ZM42 23L42 24L43 24L43 23ZM5 25L5 28L8 28L8 25ZM18 25L18 26L19 26L19 25ZM25 25L25 28L28 28L28 25ZM45 25L45 28L48 28L48 25ZM6 26L6 27L7 27L7 26ZM26 26L26 27L27 27L27 26ZM33 26L33 27L34 27L34 26ZM46 26L46 27L47 27L47 26ZM39 27L39 29L40 29L40 27ZM15 28L15 29L13 29L13 30L12 30L12 31L13 31L13 30L15 30L15 29L16 29L16 28ZM19 28L19 29L21 29L21 28ZM49 29L49 30L50 30L50 29ZM9 32L9 33L10 33L10 32ZM34 32L34 33L35 33L35 32ZM21 33L21 34L20 34L20 35L19 35L19 37L16 37L16 38L17 38L17 39L18 39L18 38L19 38L19 37L21 37L21 38L22 38L22 37L23 37L23 38L24 38L24 39L25 39L25 37L26 37L26 38L27 38L27 37L26 37L26 35L25 35L25 33L24 33L24 35L25 35L25 37L24 37L24 36L22 36L22 34L23 34L23 33ZM48 34L48 35L46 35L46 36L45 36L45 37L44 37L44 38L45 38L45 39L46 39L46 40L44 40L44 41L45 41L45 42L44 42L44 43L45 43L45 44L47 44L47 43L46 43L46 41L47 41L47 39L46 39L46 38L45 38L45 37L47 37L47 38L48 38L48 37L49 37L49 34ZM32 35L32 37L33 37L33 35ZM28 36L28 37L30 37L30 36ZM49 38L49 39L50 39L50 38ZM0 39L0 40L1 40L1 41L0 41L0 43L1 43L1 44L3 44L3 45L4 45L4 44L3 44L3 43L8 43L8 42L4 42L4 40L3 40L3 43L2 43L2 39ZM18 40L18 41L19 41L19 40ZM48 42L48 44L49 44L49 42ZM51 42L51 43L50 43L50 45L49 45L49 46L50 46L50 45L51 45L51 46L52 46L52 44L51 44L51 43L52 43L52 42ZM36 43L36 44L35 44L35 46L37 46L37 45L38 45L38 44L37 44L37 43ZM6 44L6 45L7 45L7 44ZM18 44L18 45L19 45L19 44ZM25 45L25 48L28 48L28 45ZM33 45L33 46L34 46L34 45ZM45 45L45 48L48 48L48 45ZM26 46L26 47L27 47L27 46ZM43 46L43 48L42 48L42 47L40 47L40 50L41 50L41 49L43 49L43 48L44 48L44 46ZM46 46L46 47L47 47L47 46ZM9 48L9 49L10 49L10 48ZM37 48L37 50L38 50L38 49L39 49L39 48ZM44 49L44 51L45 51L45 52L46 52L46 49ZM23 50L23 51L25 51L25 50ZM50 50L50 51L51 51L51 53L52 53L52 52L53 52L53 51L51 51L51 50ZM8 51L8 53L9 53L9 52L10 52L10 51ZM14 52L14 53L16 53L16 52ZM23 52L23 53L26 53L26 52ZM41 52L41 53L43 53L43 52ZM0 0L0 7L7 7L7 0ZM1 1L1 6L6 6L6 1ZM2 2L2 5L5 5L5 2ZM46 0L46 7L53 7L53 0ZM47 1L47 6L52 6L52 1ZM48 2L48 5L51 5L51 2ZM0 46L0 53L7 53L7 46ZM1 47L1 52L6 52L6 47ZM2 48L2 51L5 51L5 48Z" fill="#000000"/></g></g></svg>
