<?xml version="1.0" encoding="UTF-8"?>
<svg xmlns="http://www.w3.org/2000/svg" version="1.1" width="420" height="420" viewBox="0 0 420 420"><rect x="0" y="0" width="420" height="420" fill="#ffffff"/><g transform="scale(8.571)"><g transform="translate(0,0)"><path fill-rule="evenodd" d="M11 0L11 1L12 1L12 0ZM16 0L16 2L15 2L15 4L14 4L14 2L13 2L13 4L14 4L14 5L12 5L12 2L11 2L11 5L12 5L12 7L13 7L13 6L14 6L14 8L15 8L15 6L16 6L16 7L17 7L17 10L18 10L18 12L17 12L17 11L16 11L16 10L15 10L15 9L14 9L14 10L15 10L15 11L16 11L16 12L15 12L15 14L14 14L14 15L13 15L13 14L12 14L12 15L13 15L13 17L12 17L12 16L11 16L11 14L10 14L10 12L9 12L9 11L10 11L10 10L11 10L11 9L12 9L12 10L13 10L13 9L12 9L12 8L11 8L11 9L10 9L10 8L9 8L9 4L8 4L8 8L6 8L6 9L5 9L5 10L3 10L3 9L4 9L4 8L3 8L3 9L2 9L2 8L0 8L0 12L1 12L1 11L2 11L2 13L1 13L1 14L3 14L3 15L2 15L2 16L4 16L4 17L2 17L2 21L3 21L3 22L1 22L1 24L0 24L0 28L1 28L1 29L0 29L0 30L1 30L1 32L2 32L2 31L4 31L4 32L3 32L3 33L4 33L4 34L2 34L2 33L0 33L0 36L1 36L1 37L0 37L0 38L1 38L1 40L0 40L0 41L3 41L3 40L4 40L4 39L2 39L2 38L1 38L1 37L3 37L3 38L5 38L5 39L8 39L8 40L6 40L6 41L8 41L8 43L9 43L9 45L8 45L8 46L9 46L9 47L8 47L8 49L9 49L9 48L10 48L10 49L12 49L12 48L10 48L10 47L13 47L13 48L14 48L14 49L16 49L16 45L17 45L17 46L18 46L18 48L17 48L17 49L20 49L20 48L21 48L21 47L26 47L26 48L22 48L22 49L30 49L30 48L31 48L31 49L33 49L33 48L34 48L34 47L35 47L35 46L36 46L36 48L35 48L35 49L37 49L37 48L41 48L41 49L42 49L42 47L44 47L44 48L43 48L43 49L45 49L45 47L46 47L46 46L49 46L49 44L48 44L48 45L45 45L45 42L46 42L46 41L48 41L48 43L49 43L49 41L48 41L48 40L49 40L49 33L48 33L48 32L49 32L49 29L48 29L48 27L49 27L49 22L48 22L48 21L49 21L49 18L47 18L47 19L46 19L46 17L48 17L48 15L49 15L49 12L48 12L48 11L49 11L49 9L48 9L48 8L46 8L46 9L47 9L47 14L48 14L48 15L47 15L47 16L46 16L46 17L45 17L45 15L44 15L44 16L43 16L43 18L44 18L44 20L45 20L45 21L43 21L43 22L39 22L39 23L38 23L38 22L37 22L37 23L38 23L38 24L35 24L35 25L34 25L34 26L32 26L32 25L33 25L33 24L34 24L34 23L33 23L33 21L32 21L32 20L34 20L34 21L35 21L35 20L36 20L36 21L38 21L38 20L37 20L37 18L35 18L35 19L33 19L33 18L34 18L34 17L33 17L33 15L30 15L30 13L32 13L32 14L38 14L38 15L34 15L34 16L36 16L36 17L38 17L38 18L40 18L40 17L41 17L41 16L42 16L42 14L41 14L41 13L42 13L42 12L41 12L41 11L40 11L40 12L41 12L41 13L40 13L40 14L41 14L41 15L40 15L40 17L38 17L38 15L39 15L39 14L38 14L38 13L39 13L39 10L40 10L40 9L39 9L39 8L38 8L38 9L39 9L39 10L38 10L38 11L37 11L37 6L38 6L38 7L39 7L39 5L37 5L37 4L38 4L38 3L37 3L37 4L35 4L35 2L39 2L39 4L40 4L40 3L41 3L41 0L40 0L40 1L38 1L38 0L37 0L37 1L35 1L35 0L34 0L34 1L35 1L35 2L34 2L34 4L33 4L33 5L34 5L34 7L33 7L33 6L32 6L32 7L31 7L31 4L28 4L28 3L27 3L27 2L30 2L30 3L33 3L33 2L32 2L32 1L33 1L33 0L32 0L32 1L31 1L31 0L29 0L29 1L27 1L27 0L26 0L26 1L25 1L25 4L22 4L22 8L20 8L20 7L21 7L21 4L20 4L20 3L19 3L19 4L20 4L20 5L17 5L17 4L18 4L18 3L17 3L17 2L19 2L19 1L17 1L17 0ZM20 0L20 2L21 2L21 0ZM22 0L22 1L23 1L23 2L22 2L22 3L23 3L23 2L24 2L24 1L23 1L23 0ZM8 1L8 3L10 3L10 1ZM16 3L16 4L17 4L17 3ZM26 3L26 4L27 4L27 5L28 5L28 6L27 6L27 7L28 7L28 8L27 8L27 9L26 9L26 12L27 12L27 13L26 13L26 17L25 17L25 19L26 19L26 21L25 21L25 22L27 22L27 19L28 19L28 18L27 18L27 19L26 19L26 17L29 17L29 16L30 16L30 18L29 18L29 19L30 19L30 23L32 23L32 24L33 24L33 23L32 23L32 21L31 21L31 19L32 19L32 18L33 18L33 17L32 17L32 16L30 16L30 15L29 15L29 16L28 16L28 12L27 12L27 11L28 11L28 10L27 10L27 9L28 9L28 8L29 8L29 13L30 13L30 12L31 12L31 10L33 10L33 11L32 11L32 12L33 12L33 11L34 11L34 13L35 13L35 12L36 12L36 10L35 10L35 9L34 9L34 10L33 10L33 8L32 8L32 9L30 9L30 8L29 8L29 7L30 7L30 6L29 6L29 5L28 5L28 4L27 4L27 3ZM34 4L34 5L35 5L35 4ZM23 5L23 8L26 8L26 5ZM36 5L36 6L35 6L35 8L36 8L36 6L37 6L37 5ZM10 6L10 7L11 7L11 6ZM17 6L17 7L18 7L18 8L19 8L19 9L20 9L20 10L21 10L21 11L20 11L20 12L21 12L21 11L22 11L22 13L20 13L20 15L21 15L21 16L19 16L19 17L18 17L18 19L16 19L16 20L15 20L15 19L14 19L14 18L17 18L17 17L16 17L16 16L17 16L17 15L16 15L16 16L15 16L15 17L14 17L14 18L12 18L12 20L11 20L11 19L10 19L10 18L8 18L8 17L4 17L4 20L3 20L3 21L4 21L4 22L8 22L8 21L6 21L6 20L7 20L7 19L6 19L6 18L8 18L8 19L9 19L9 21L10 21L10 20L11 20L11 27L12 27L12 29L11 29L11 28L10 28L10 24L9 24L9 28L7 28L7 27L3 27L3 26L4 26L4 25L3 25L3 24L2 24L2 25L1 25L1 26L2 26L2 27L1 27L1 28L3 28L3 29L2 29L2 30L4 30L4 31L5 31L5 32L4 32L4 33L5 33L5 34L4 34L4 37L5 37L5 38L8 38L8 37L5 37L5 36L8 36L8 35L5 35L5 34L7 34L7 33L8 33L8 34L11 34L11 33L12 33L12 32L13 32L13 34L14 34L14 33L15 33L15 35L16 35L16 36L15 36L15 37L14 37L14 35L13 35L13 37L14 37L14 38L12 38L12 36L11 36L11 37L9 37L9 43L10 43L10 41L11 41L11 42L14 42L14 43L12 43L12 44L11 44L11 45L12 45L12 46L13 46L13 45L12 45L12 44L14 44L14 43L15 43L15 44L16 44L16 42L17 42L17 41L16 41L16 39L17 39L17 40L19 40L19 41L22 41L22 40L26 40L26 39L28 39L28 38L34 38L34 39L33 39L33 40L34 40L34 41L33 41L33 42L32 42L32 40L31 40L31 39L29 39L29 40L28 40L28 41L27 41L27 44L28 44L28 43L31 43L31 45L30 45L30 44L29 44L29 46L28 46L28 45L27 45L27 47L30 47L30 46L31 46L31 45L33 45L33 44L34 44L34 46L33 46L33 47L32 47L32 48L33 48L33 47L34 47L34 46L35 46L35 45L36 45L36 43L35 43L35 42L38 42L38 43L37 43L37 46L39 46L39 47L42 47L42 46L43 46L43 45L42 45L42 46L40 46L40 39L41 39L41 40L42 40L42 39L41 39L41 38L42 38L42 36L41 36L41 35L40 35L40 34L39 34L39 33L40 33L40 32L41 32L41 34L43 34L43 32L42 32L42 30L43 30L43 29L42 29L42 28L41 28L41 27L40 27L40 24L39 24L39 25L38 25L38 26L37 26L37 25L35 25L35 26L36 26L36 27L37 27L37 28L38 28L38 29L37 29L37 31L36 31L36 30L35 30L35 28L34 28L34 27L32 27L32 26L31 26L31 24L29 24L29 25L28 25L28 24L27 24L27 25L28 25L28 27L27 27L27 29L28 29L28 30L27 30L27 31L28 31L28 32L29 32L29 31L30 31L30 32L32 32L32 33L33 33L33 35L32 35L32 34L31 34L31 33L27 33L27 34L28 34L28 35L29 35L29 37L28 37L28 36L27 36L27 35L26 35L26 34L25 34L25 33L26 33L26 31L25 31L25 29L26 29L26 27L24 27L24 29L23 29L23 28L22 28L22 30L23 30L23 31L22 31L22 33L23 33L23 32L24 32L24 34L25 34L25 35L24 35L24 36L23 36L23 35L22 35L22 34L21 34L21 33L20 33L20 32L21 32L21 31L20 31L20 32L19 32L19 31L18 31L18 32L17 32L17 33L15 33L15 31L14 31L14 30L13 30L13 29L15 29L15 28L16 28L16 30L20 30L20 29L19 29L19 28L20 28L20 27L21 27L21 25L22 25L22 24L21 24L21 23L22 23L22 22L23 22L23 20L24 20L24 17L22 17L22 18L19 18L19 17L21 17L21 16L25 16L25 14L24 14L24 15L23 15L23 14L22 14L22 13L24 13L24 11L22 11L22 10L24 10L24 9L22 9L22 10L21 10L21 9L20 9L20 8L19 8L19 7L20 7L20 6L19 6L19 7L18 7L18 6ZM24 6L24 7L25 7L25 6ZM28 6L28 7L29 7L29 6ZM40 6L40 8L41 8L41 6ZM8 8L8 9L9 9L9 8ZM42 8L42 9L41 9L41 10L42 10L42 9L43 9L43 13L44 13L44 14L45 14L45 11L46 11L46 10L45 10L45 8ZM6 9L6 10L5 10L5 12L8 12L8 14L7 14L7 13L5 13L5 14L7 14L7 15L5 15L5 16L10 16L10 17L11 17L11 16L10 16L10 15L9 15L9 12L8 12L8 11L9 11L9 10L8 10L8 11L6 11L6 10L7 10L7 9ZM34 10L34 11L35 11L35 10ZM44 10L44 11L45 11L45 10ZM3 11L3 13L4 13L4 11ZM13 11L13 12L11 12L11 13L14 13L14 11ZM37 12L37 13L38 13L38 12ZM17 13L17 14L18 14L18 13ZM21 14L21 15L22 15L22 14ZM0 15L0 17L1 17L1 15ZM44 17L44 18L45 18L45 17ZM0 18L0 21L1 21L1 18ZM22 18L22 19L21 19L21 21L22 21L22 20L23 20L23 18ZM41 18L41 19L39 19L39 20L41 20L41 19L42 19L42 20L43 20L43 19L42 19L42 18ZM5 19L5 20L6 20L6 19ZM13 19L13 20L14 20L14 19ZM45 19L45 20L46 20L46 21L45 21L45 23L46 23L46 24L45 24L45 28L44 28L44 29L45 29L45 28L47 28L47 27L46 27L46 25L48 25L48 23L47 23L47 20L46 20L46 19ZM16 20L16 24L17 24L17 25L16 25L16 27L17 27L17 29L18 29L18 28L19 28L19 27L20 27L20 26L19 26L19 25L20 25L20 24L19 24L19 23L21 23L21 22L18 22L18 21L20 21L20 20ZM28 21L28 23L29 23L29 21ZM13 22L13 23L12 23L12 25L13 25L13 28L15 28L15 24L14 24L14 23L15 23L15 22ZM17 22L17 23L18 23L18 22ZM5 23L5 26L8 26L8 23ZM23 23L23 26L26 26L26 23ZM41 23L41 26L44 26L44 23ZM6 24L6 25L7 25L7 24ZM13 24L13 25L14 25L14 24ZM24 24L24 25L25 25L25 24ZM42 24L42 25L43 25L43 24ZM17 25L17 27L19 27L19 26L18 26L18 25ZM29 25L29 27L28 27L28 28L32 28L32 29L31 29L31 30L32 30L32 32L33 32L33 30L32 30L32 29L33 29L33 28L32 28L32 27L30 27L30 25ZM38 26L38 28L39 28L39 26ZM5 28L5 29L4 29L4 30L6 30L6 31L7 31L7 32L6 32L6 33L7 33L7 32L8 32L8 30L10 30L10 32L9 32L9 33L11 33L11 29L7 29L7 28ZM40 28L40 29L38 29L38 30L40 30L40 31L41 31L41 30L42 30L42 29L41 29L41 28ZM6 29L6 30L7 30L7 29ZM46 29L46 30L45 30L45 31L44 31L44 32L46 32L46 30L47 30L47 32L48 32L48 29ZM12 30L12 31L13 31L13 32L14 32L14 31L13 31L13 30ZM28 30L28 31L29 31L29 30ZM34 31L34 32L36 32L36 33L35 33L35 34L34 34L34 35L33 35L33 36L32 36L32 35L31 35L31 34L29 34L29 35L31 35L31 36L32 36L32 37L34 37L34 38L35 38L35 37L37 37L37 35L38 35L38 37L39 37L39 38L38 38L38 40L39 40L39 38L41 38L41 37L39 37L39 35L38 35L38 34L36 34L36 33L39 33L39 32L36 32L36 31ZM18 32L18 33L17 33L17 34L18 34L18 35L17 35L17 36L16 36L16 37L17 37L17 36L18 36L18 37L19 37L19 38L17 38L17 39L19 39L19 40L22 40L22 39L26 39L26 37L27 37L27 36L26 36L26 35L25 35L25 36L24 36L24 37L25 37L25 38L22 38L22 37L23 37L23 36L22 36L22 35L21 35L21 34L20 34L20 33L19 33L19 32ZM44 33L44 35L45 35L45 36L43 36L43 37L44 37L44 39L43 39L43 40L44 40L44 39L45 39L45 41L46 41L46 40L48 40L48 34L47 34L47 33ZM19 34L19 35L18 35L18 36L19 36L19 35L20 35L20 34ZM35 34L35 35L34 35L34 36L35 36L35 35L36 35L36 34ZM45 34L45 35L46 35L46 34ZM20 36L20 39L21 39L21 36ZM25 36L25 37L26 37L26 36ZM45 36L45 37L46 37L46 39L47 39L47 37L46 37L46 36ZM11 38L11 39L12 39L12 40L11 40L11 41L12 41L12 40L13 40L13 41L15 41L15 42L16 42L16 41L15 41L15 40L13 40L13 39L12 39L12 38ZM36 38L36 39L35 39L35 40L36 40L36 41L37 41L37 38ZM30 40L30 41L28 41L28 42L30 42L30 41L31 41L31 40ZM23 41L23 44L26 44L26 41ZM38 41L38 42L39 42L39 41ZM41 41L41 44L44 44L44 41ZM18 42L18 43L19 43L19 44L17 44L17 45L18 45L18 46L20 46L20 47L19 47L19 48L20 48L20 47L21 47L21 46L23 46L23 45L20 45L20 44L21 44L21 43L19 43L19 42ZM24 42L24 43L25 43L25 42ZM33 42L33 43L32 43L32 44L33 44L33 43L34 43L34 44L35 44L35 43L34 43L34 42ZM42 42L42 43L43 43L43 42ZM46 43L46 44L47 44L47 43ZM9 45L9 46L10 46L10 45ZM14 45L14 48L15 48L15 45ZM25 45L25 46L26 46L26 45ZM47 48L47 49L49 49L49 48ZM0 0L0 7L7 7L7 0ZM1 1L1 6L6 6L6 1ZM2 2L2 5L5 5L5 2ZM42 0L42 7L49 7L49 0ZM43 1L43 6L48 6L48 1ZM44 2L44 5L47 5L47 2ZM0 42L0 49L7 49L7 42ZM1 43L1 48L6 48L6 43ZM2 44L2 47L5 47L5 44Z" fill="#000000"/></g></g></svg>
