<?xml version="1.0" encoding="UTF-8"?>
<svg xmlns="http://www.w3.org/2000/svg" version="1.1" width="420" height="420" viewBox="0 0 420 420"><rect x="0" y="0" width="420" height="420" fill="#ffffff"/><g transform="scale(7.925)"><g transform="translate(0,0)"><path fill-rule="evenodd" d="M9 0L9 1L8 1L8 2L9 2L9 3L8 3L8 4L10 4L10 7L9 7L9 5L8 5L8 7L9 7L9 8L6 8L6 9L8 9L8 10L4 10L4 9L5 9L5 8L0 8L0 9L1 9L1 10L0 10L0 11L1 11L1 10L3 10L3 11L4 11L4 12L1 12L1 13L0 13L0 15L1 15L1 16L3 16L3 15L1 15L1 13L2 13L2 14L3 14L3 13L5 13L5 14L4 14L4 15L7 15L7 16L5 16L5 17L4 17L4 18L1 18L1 19L0 19L0 22L1 22L1 23L2 23L2 24L3 24L3 23L2 23L2 22L3 22L3 20L4 20L4 23L5 23L5 24L4 24L4 25L0 25L0 28L1 28L1 26L2 26L2 27L3 27L3 28L4 28L4 29L2 29L2 32L4 32L4 31L5 31L5 30L6 30L6 31L7 31L7 30L6 30L6 29L9 29L9 31L8 31L8 32L5 32L5 33L4 33L4 36L3 36L3 35L2 35L2 34L3 34L3 33L2 33L2 34L1 34L1 32L0 32L0 37L1 37L1 38L3 38L3 39L4 39L4 37L5 37L5 36L6 36L6 37L8 37L8 38L10 38L10 39L7 39L7 38L5 38L5 39L7 39L7 40L6 40L6 41L8 41L8 42L5 42L5 41L3 41L3 40L2 40L2 42L0 42L0 43L1 43L1 44L3 44L3 45L4 45L4 44L3 44L3 43L7 43L7 44L6 44L6 45L7 45L7 44L8 44L8 47L9 47L9 48L8 48L8 53L9 53L9 51L10 51L10 50L11 50L11 49L12 49L12 48L11 48L11 47L13 47L13 48L14 48L14 49L13 49L13 50L12 50L12 52L11 52L11 53L12 53L12 52L13 52L13 53L15 53L15 52L13 52L13 51L16 51L16 52L17 52L17 53L19 53L19 51L20 51L20 50L19 50L19 49L20 49L20 48L19 48L19 46L18 46L18 47L17 47L17 48L18 48L18 49L16 49L16 48L14 48L14 47L16 47L16 46L15 46L15 45L17 45L17 44L16 44L16 43L15 43L15 42L16 42L16 41L15 41L15 42L14 42L14 41L13 41L13 40L14 40L14 39L13 39L13 38L15 38L15 37L21 37L21 38L22 38L22 39L23 39L23 42L24 42L24 39L27 39L27 37L22 37L22 36L17 36L17 35L18 35L18 34L19 34L19 35L20 35L20 34L19 34L19 33L20 33L20 32L19 32L19 31L20 31L20 30L18 30L18 31L16 31L16 32L15 32L15 29L21 29L21 32L23 32L23 31L22 31L22 30L25 30L25 29L26 29L26 30L27 30L27 31L26 31L26 32L28 32L28 33L26 33L26 34L24 34L24 33L25 33L25 31L24 31L24 33L22 33L22 34L24 34L24 35L26 35L26 36L28 36L28 35L29 35L29 36L30 36L30 37L28 37L28 39L30 39L30 42L28 42L28 41L29 41L29 40L28 40L28 41L26 41L26 43L22 43L22 40L21 40L21 41L18 41L18 40L17 40L17 39L18 39L18 38L17 38L17 39L15 39L15 40L17 40L17 41L18 41L18 42L17 42L17 43L18 43L18 45L22 45L22 47L21 47L21 46L20 46L20 47L21 47L21 48L22 48L22 49L21 49L21 52L20 52L20 53L22 53L22 52L23 52L23 53L25 53L25 51L28 51L28 52L29 52L29 53L32 53L32 52L31 52L31 51L30 51L30 50L31 50L31 49L30 49L30 50L29 50L29 46L31 46L31 47L30 47L30 48L31 48L31 47L32 47L32 48L34 48L34 47L37 47L37 48L35 48L35 49L37 49L37 50L36 50L36 52L33 52L33 53L37 53L37 51L38 51L38 52L39 52L39 51L41 51L41 50L43 50L43 51L42 51L42 53L44 53L44 50L45 50L45 51L46 51L46 50L45 50L45 49L47 49L47 50L48 50L48 51L49 51L49 52L48 52L48 53L49 53L49 52L50 52L50 51L49 51L49 50L48 50L48 49L49 49L49 47L50 47L50 45L51 45L51 47L52 47L52 46L53 46L53 44L52 44L52 43L51 43L51 44L50 44L50 45L49 45L49 44L47 44L47 43L49 43L49 42L50 42L50 41L52 41L52 42L53 42L53 41L52 41L52 40L53 40L53 39L52 39L52 38L53 38L53 35L52 35L52 34L53 34L53 32L52 32L52 30L53 30L53 29L52 29L52 28L53 28L53 27L51 27L51 26L52 26L52 24L53 24L53 23L51 23L51 24L50 24L50 23L49 23L49 22L50 22L50 21L51 21L51 20L52 20L52 21L53 21L53 20L52 20L52 19L51 19L51 18L53 18L53 17L52 17L52 16L53 16L53 15L51 15L51 14L53 14L53 13L51 13L51 12L50 12L50 8L49 8L49 12L48 12L48 8L47 8L47 10L45 10L45 12L44 12L44 13L43 13L43 11L44 11L44 9L46 9L46 8L44 8L44 9L41 9L41 10L43 10L43 11L42 11L42 12L41 12L41 11L40 11L40 9L39 9L39 10L38 10L38 8L36 8L36 9L37 9L37 11L39 11L39 12L38 12L38 13L37 13L37 12L36 12L36 11L34 11L34 10L33 10L33 12L35 12L35 14L34 14L34 15L31 15L31 13L32 13L32 14L33 14L33 13L32 13L32 12L31 12L31 11L32 11L32 10L31 10L31 9L32 9L32 8L35 8L35 5L36 5L36 7L37 7L37 5L36 5L36 4L37 4L37 1L38 1L38 4L39 4L39 5L38 5L38 7L39 7L39 8L40 8L40 7L41 7L41 8L42 8L42 7L43 7L43 3L44 3L44 4L45 4L45 3L44 3L44 1L43 1L43 0L41 0L41 1L40 1L40 0L39 0L39 1L38 1L38 0L37 0L37 1L36 1L36 3L35 3L35 2L34 2L34 1L33 1L33 4L34 4L34 3L35 3L35 5L34 5L34 7L33 7L33 5L32 5L32 0L30 0L30 1L31 1L31 2L30 2L30 5L32 5L32 8L31 8L31 6L30 6L30 8L31 8L31 9L30 9L30 10L29 10L29 3L28 3L28 4L27 4L27 3L25 3L25 4L24 4L24 9L22 9L22 8L23 8L23 6L22 6L22 5L21 5L21 6L20 6L20 5L19 5L19 6L18 6L18 5L16 5L16 4L17 4L17 1L18 1L18 2L20 2L20 1L19 1L19 0L16 0L16 1L15 1L15 2L14 2L14 3L15 3L15 4L13 4L13 3L11 3L11 4L10 4L10 2L12 2L12 1L13 1L13 0L12 0L12 1L11 1L11 0ZM22 0L22 1L21 1L21 3L20 3L20 4L21 4L21 3L22 3L22 1L23 1L23 0ZM24 0L24 1L25 1L25 0ZM28 0L28 1L26 1L26 2L28 2L28 1L29 1L29 0ZM39 1L39 3L40 3L40 4L41 4L41 3L43 3L43 2L41 2L41 3L40 3L40 1ZM15 2L15 3L16 3L16 2ZM23 2L23 3L24 3L24 2ZM18 3L18 4L19 4L19 3ZM11 5L11 7L10 7L10 8L9 8L9 9L10 9L10 10L9 10L9 11L5 11L5 13L6 13L6 14L7 14L7 15L8 15L8 16L7 16L7 17L5 17L5 18L7 18L7 19L4 19L4 20L5 20L5 23L6 23L6 24L11 24L11 23L9 23L9 22L11 22L11 21L15 21L15 20L16 20L16 19L15 19L15 18L16 18L16 17L18 17L18 16L17 16L17 15L18 15L18 14L20 14L20 15L19 15L19 16L20 16L20 17L19 17L19 18L20 18L20 19L18 19L18 18L17 18L17 20L21 20L21 21L19 21L19 22L18 22L18 21L16 21L16 22L12 22L12 25L11 25L11 26L9 26L9 29L10 29L10 30L11 30L11 31L10 31L10 32L9 32L9 33L10 33L10 34L8 34L8 33L6 33L6 34L8 34L8 35L6 35L6 36L9 36L9 37L11 37L11 39L10 39L10 40L9 40L9 42L10 42L10 43L13 43L13 42L12 42L12 41L10 41L10 40L12 40L12 37L15 37L15 36L16 36L16 35L15 35L15 34L16 34L16 33L18 33L18 32L16 32L16 33L13 33L13 32L14 32L14 31L13 31L13 32L12 32L12 30L13 30L13 29L15 29L15 28L14 28L14 26L15 26L15 27L16 27L16 28L17 28L17 26L18 26L18 25L21 25L21 24L20 24L20 22L21 22L21 21L23 21L23 22L22 22L22 25L23 25L23 27L22 27L22 26L21 26L21 29L23 29L23 28L24 28L24 25L23 25L23 22L24 22L24 23L25 23L25 24L29 24L29 26L30 26L30 27L31 27L31 30L29 30L29 29L30 29L30 28L29 28L29 29L28 29L28 30L29 30L29 31L28 31L28 32L29 32L29 33L28 33L28 34L27 34L27 35L28 35L28 34L30 34L30 35L31 35L31 37L33 37L33 38L35 38L35 39L33 39L33 40L32 40L32 39L31 39L31 38L30 38L30 39L31 39L31 42L30 42L30 43L28 43L28 44L29 44L29 45L31 45L31 44L32 44L32 45L33 45L33 46L32 46L32 47L33 47L33 46L35 46L35 45L36 45L36 46L37 46L37 47L38 47L38 48L39 48L39 49L38 49L38 50L41 50L41 48L42 48L42 49L43 49L43 48L44 48L44 46L42 46L42 45L44 45L44 44L43 44L43 43L47 43L47 42L45 42L45 41L48 41L48 40L49 40L49 41L50 41L50 40L51 40L51 39L50 39L50 38L51 38L51 37L50 37L50 36L52 36L52 35L50 35L50 34L51 34L51 33L52 33L52 32L51 32L51 29L50 29L50 32L51 32L51 33L49 33L49 32L48 32L48 31L49 31L49 30L47 30L47 29L46 29L46 30L41 30L41 32L40 32L40 31L39 31L39 30L40 30L40 29L41 29L41 28L44 28L44 26L43 26L43 27L42 27L42 26L40 26L40 25L42 25L42 23L44 23L44 24L43 24L43 25L44 25L44 24L45 24L45 23L44 23L44 22L45 22L45 21L44 21L44 20L46 20L46 22L47 22L47 23L46 23L46 24L48 24L48 22L49 22L49 21L50 21L50 20L51 20L51 19L50 19L50 20L49 20L49 19L48 19L48 18L51 18L51 17L48 17L48 18L47 18L47 16L49 16L49 14L51 14L51 13L50 13L50 12L49 12L49 13L48 13L48 12L47 12L47 11L46 11L46 12L45 12L45 13L44 13L44 15L43 15L43 14L42 14L42 15L43 15L43 17L44 17L44 18L42 18L42 16L40 16L40 17L36 17L36 16L37 16L37 15L38 15L38 16L39 16L39 15L40 15L40 14L39 14L39 13L38 13L38 14L37 14L37 15L36 15L36 14L35 14L35 15L34 15L34 16L32 16L32 18L30 18L30 17L31 17L31 15L30 15L30 14L28 14L28 15L29 15L29 16L28 16L28 17L25 17L25 16L27 16L27 13L26 13L26 14L24 14L24 15L25 15L25 16L23 16L23 14L22 14L22 17L21 17L21 13L23 13L23 12L24 12L24 11L25 11L25 12L27 12L27 11L26 11L26 10L27 10L27 9L25 9L25 10L22 10L22 9L21 9L21 7L22 7L22 6L21 6L21 7L20 7L20 6L19 6L19 7L18 7L18 6L17 6L17 8L15 8L15 7L16 7L16 6L15 6L15 5ZM25 5L25 8L28 8L28 5ZM40 5L40 6L39 6L39 7L40 7L40 6L41 6L41 7L42 7L42 5ZM12 6L12 7L11 7L11 8L10 8L10 9L11 9L11 10L10 10L10 11L11 11L11 12L10 12L10 13L9 13L9 12L6 12L6 13L9 13L9 18L8 18L8 17L7 17L7 18L8 18L8 19L10 19L10 20L6 20L6 21L11 21L11 18L13 18L13 17L16 17L16 15L17 15L17 14L16 14L16 13L17 13L17 12L16 12L16 11L15 11L15 12L16 12L16 13L13 13L13 12L14 12L14 11L11 11L11 10L12 10L12 9L13 9L13 10L14 10L14 9L13 9L13 8L14 8L14 7L15 7L15 6L14 6L14 7L13 7L13 6ZM26 6L26 7L27 7L27 6ZM44 6L44 7L45 7L45 6ZM12 7L12 8L11 8L11 9L12 9L12 8L13 8L13 7ZM19 7L19 8L20 8L20 7ZM17 8L17 9L18 9L18 10L17 10L17 11L18 11L18 13L21 13L21 12L22 12L22 11L21 11L21 9L18 9L18 8ZM51 8L51 10L53 10L53 9L52 9L52 8ZM15 9L15 10L16 10L16 9ZM18 10L18 11L20 11L20 10ZM28 10L28 11L29 11L29 13L30 13L30 11L31 11L31 10L30 10L30 11L29 11L29 10ZM11 12L11 14L10 14L10 16L11 16L11 14L13 14L13 13L12 13L12 12ZM40 12L40 13L41 13L41 12ZM45 13L45 15L44 15L44 17L45 17L45 15L46 15L46 16L47 16L47 14L46 14L46 13ZM13 15L13 16L14 16L14 15ZM35 15L35 16L34 16L34 17L35 17L35 16L36 16L36 15ZM50 15L50 16L51 16L51 15ZM10 17L10 18L11 18L11 17ZM22 17L22 18L21 18L21 19L24 19L24 21L25 21L25 19L26 19L26 18L25 18L25 17L24 17L24 18L23 18L23 17ZM28 17L28 18L27 18L27 20L26 20L26 21L28 21L28 22L27 22L27 23L28 23L28 22L31 22L31 23L30 23L30 24L31 24L31 25L30 25L30 26L31 26L31 27L32 27L32 28L33 28L33 29L32 29L32 30L34 30L34 31L33 31L33 33L32 33L32 32L31 32L31 31L30 31L30 32L31 32L31 33L30 33L30 34L31 34L31 33L32 33L32 34L34 34L34 35L35 35L35 36L34 36L34 37L35 37L35 36L36 36L36 38L37 38L37 39L39 39L39 40L38 40L38 41L37 41L37 40L36 40L36 39L35 39L35 44L36 44L36 45L37 45L37 46L38 46L38 44L42 44L42 42L44 42L44 41L43 41L43 40L45 40L45 39L44 39L44 38L45 38L45 37L42 37L42 34L43 34L43 36L45 36L45 35L44 35L44 34L43 34L43 33L41 33L41 35L39 35L39 34L38 34L38 37L39 37L39 36L41 36L41 37L40 37L40 39L39 39L39 38L37 38L37 36L36 36L36 35L37 35L37 32L39 32L39 31L38 31L38 29L37 29L37 28L38 28L38 27L39 27L39 28L41 28L41 27L40 27L40 26L38 26L38 27L37 27L37 24L36 24L36 27L35 27L35 26L34 26L34 25L35 25L35 24L34 24L34 23L35 23L35 22L36 22L36 23L38 23L38 21L37 21L37 20L38 20L38 19L39 19L39 20L42 20L42 21L41 21L41 22L44 22L44 21L43 21L43 19L40 19L40 18L41 18L41 17L40 17L40 18L38 18L38 19L37 19L37 18L36 18L36 20L33 20L33 19L32 19L32 20L33 20L33 22L31 22L31 19L30 19L30 20L29 20L29 19L28 19L28 18L29 18L29 17ZM24 18L24 19L25 19L25 18ZM46 18L46 20L48 20L48 21L49 21L49 20L48 20L48 19L47 19L47 18ZM1 19L1 21L2 21L2 19ZM12 19L12 20L15 20L15 19ZM28 20L28 21L29 21L29 20ZM34 21L34 22L33 22L33 23L34 23L34 22L35 22L35 21ZM6 22L6 23L7 23L7 22ZM17 22L17 23L18 23L18 22ZM25 22L25 23L26 23L26 22ZM13 23L13 24L14 24L14 23ZM31 23L31 24L32 24L32 25L31 25L31 26L32 26L32 27L33 27L33 28L34 28L34 30L35 30L35 31L34 31L34 34L35 34L35 31L36 31L36 32L37 32L37 31L36 31L36 30L37 30L37 29L36 29L36 30L35 30L35 27L33 27L33 25L34 25L34 24L32 24L32 23ZM40 23L40 24L41 24L41 23ZM17 24L17 25L18 25L18 24ZM38 24L38 25L39 25L39 24ZM5 25L5 28L8 28L8 25ZM12 25L12 28L11 28L11 27L10 27L10 29L11 29L11 30L12 30L12 29L13 29L13 26L14 26L14 25ZM15 25L15 26L16 26L16 25ZM25 25L25 28L28 28L28 25ZM45 25L45 28L48 28L48 25ZM3 26L3 27L4 27L4 26ZM6 26L6 27L7 27L7 26ZM19 26L19 27L20 27L20 26ZM26 26L26 27L27 27L27 26ZM46 26L46 27L47 27L47 26ZM50 27L50 28L51 28L51 27ZM0 30L0 31L1 31L1 30ZM3 30L3 31L4 31L4 30ZM42 31L42 32L44 32L44 33L45 33L45 34L47 34L47 33L46 33L46 32L47 32L47 31L46 31L46 32L45 32L45 31ZM10 32L10 33L11 33L11 34L10 34L10 35L9 35L9 36L12 36L12 35L13 35L13 36L14 36L14 35L13 35L13 34L12 34L12 33L11 33L11 32ZM48 33L48 35L47 35L47 36L50 36L50 35L49 35L49 33ZM32 35L32 36L33 36L33 35ZM1 36L1 37L3 37L3 36ZM48 37L48 38L49 38L49 37ZM19 38L19 39L20 39L20 38ZM23 38L23 39L24 39L24 38ZM41 38L41 39L43 39L43 38ZM46 39L46 40L47 40L47 39ZM49 39L49 40L50 40L50 39ZM0 40L0 41L1 41L1 40ZM33 40L33 41L34 41L34 40ZM39 40L39 41L38 41L38 42L37 42L37 41L36 41L36 44L38 44L38 43L40 43L40 42L39 42L39 41L41 41L41 40ZM2 42L2 43L3 43L3 42ZM19 42L19 43L20 43L20 42ZM31 42L31 43L30 43L30 44L31 44L31 43L33 43L33 44L34 44L34 42ZM8 43L8 44L9 44L9 43ZM26 43L26 44L27 44L27 43ZM10 44L10 45L9 45L9 47L11 47L11 46L12 46L12 45L13 45L13 46L14 46L14 45L15 45L15 44L14 44L14 45L13 45L13 44L12 44L12 45L11 45L11 44ZM22 44L22 45L23 45L23 46L24 46L24 44ZM51 44L51 45L52 45L52 44ZM10 45L10 46L11 46L11 45ZM25 45L25 48L28 48L28 45ZM39 45L39 46L40 46L40 45ZM45 45L45 48L48 48L48 45ZM26 46L26 47L27 47L27 46ZM46 46L46 47L47 47L47 46ZM23 47L23 49L22 49L22 50L23 50L23 51L24 51L24 47ZM39 47L39 48L41 48L41 47ZM42 47L42 48L43 48L43 47ZM9 48L9 49L11 49L11 48ZM50 48L50 49L51 49L51 50L52 50L52 51L51 51L51 52L52 52L52 51L53 51L53 50L52 50L52 49L51 49L51 48ZM15 49L15 50L16 50L16 49ZM25 49L25 50L28 50L28 51L29 51L29 50L28 50L28 49ZM32 49L32 50L33 50L33 51L35 51L35 50L34 50L34 49ZM17 50L17 52L18 52L18 50ZM26 52L26 53L27 53L27 52ZM45 52L45 53L47 53L47 52ZM0 0L0 7L7 7L7 0ZM1 1L1 6L6 6L6 1ZM2 2L2 5L5 5L5 2ZM46 0L46 7L53 7L53 0ZM47 1L47 6L52 6L52 1ZM48 2L48 5L51 5L51 2ZM0 46L0 53L7 53L7 46ZM1 47L1 52L6 52L6 47ZM2 48L2 51L5 51L5 48Z" fill="#000000"/></g></g></svg>
