<?xml version="1.0" encoding="UTF-8"?>
<svg xmlns="http://www.w3.org/2000/svg" version="1.1" width="500" height="500" viewBox="0 0 500 500"><rect x="0" y="0" width="500" height="500" fill="#ffffff"/><g transform="scale(13.514)"><g transform="translate(0,0)"><path fill-rule="evenodd" d="M8 0L8 4L9 4L9 5L8 5L8 7L9 7L9 6L10 6L10 9L11 9L11 8L12 8L12 9L13 9L13 10L15 10L15 9L14 9L14 7L15 7L15 8L18 8L18 9L16 9L16 11L17 11L17 12L18 12L18 11L17 11L17 10L19 10L19 9L20 9L20 11L21 11L21 13L20 13L20 12L19 12L19 13L20 13L20 14L21 14L21 16L19 16L19 17L18 17L18 15L17 15L17 14L13 14L13 13L16 13L16 12L15 12L15 11L14 11L14 12L13 12L13 11L12 11L12 12L9 12L9 13L8 13L8 12L6 12L6 11L7 11L7 10L6 10L6 9L7 9L7 8L4 8L4 9L2 9L2 8L0 8L0 12L1 12L1 11L2 11L2 12L4 12L4 13L2 13L2 14L1 14L1 13L0 13L0 15L1 15L1 16L2 16L2 17L0 17L0 20L1 20L1 19L2 19L2 21L1 21L1 22L0 22L0 26L1 26L1 24L2 24L2 25L5 25L5 26L4 26L4 27L3 27L3 28L0 28L0 29L5 29L5 28L4 28L4 27L7 27L7 28L6 28L6 29L7 29L7 28L8 28L8 30L9 30L9 28L10 28L10 29L12 29L12 30L10 30L10 31L11 31L11 32L12 32L12 33L13 33L13 34L15 34L15 35L14 35L14 36L13 36L13 35L12 35L12 36L10 36L10 35L11 35L11 34L10 34L10 32L9 32L9 31L8 31L8 33L9 33L9 35L8 35L8 37L9 37L9 36L10 36L10 37L12 37L12 36L13 36L13 37L15 37L15 36L17 36L17 37L20 37L20 36L22 36L22 37L23 37L23 36L25 36L25 35L26 35L26 33L25 33L25 32L24 32L24 30L23 30L23 31L22 31L22 30L20 30L20 31L21 31L21 32L20 32L20 33L22 33L22 32L24 32L24 33L23 33L23 34L21 34L21 35L20 35L20 36L18 36L18 35L19 35L19 33L18 33L18 31L16 31L16 30L17 30L17 29L18 29L18 28L19 28L19 25L21 25L21 26L20 26L20 29L23 29L23 28L25 28L25 27L24 27L24 25L25 25L25 26L26 26L26 27L27 27L27 28L28 28L28 31L26 31L26 32L28 32L28 34L27 34L27 35L28 35L28 34L29 34L29 35L32 35L32 36L29 36L29 37L37 37L37 36L36 36L36 35L34 35L34 36L33 36L33 35L32 35L32 33L33 33L33 34L34 34L34 33L33 33L33 31L34 31L34 32L35 32L35 31L34 31L34 30L35 30L35 29L36 29L36 30L37 30L37 29L36 29L36 27L34 27L34 26L33 26L33 25L37 25L37 24L35 24L35 22L33 22L33 21L32 21L32 22L31 22L31 24L29 24L29 23L30 23L30 22L28 22L28 21L31 21L31 20L30 20L30 19L29 19L29 18L28 18L28 17L30 17L30 18L33 18L33 20L34 20L34 21L35 21L35 19L34 19L34 18L36 18L36 17L37 17L37 16L36 16L36 15L35 15L35 14L36 14L36 13L37 13L37 12L35 12L35 11L34 11L34 10L33 10L33 9L35 9L35 10L36 10L36 9L37 9L37 8L33 8L33 9L32 9L32 8L31 8L31 10L33 10L33 11L34 11L34 13L32 13L32 12L30 12L30 14L28 14L28 13L29 13L29 11L30 11L30 9L29 9L29 11L28 11L28 7L29 7L29 5L28 5L28 3L29 3L29 1L28 1L28 0L27 0L27 1L26 1L26 0L22 0L22 1L25 1L25 2L26 2L26 3L24 3L24 2L21 2L21 0L20 0L20 1L18 1L18 2L17 2L17 3L19 3L19 4L20 4L20 5L19 5L19 6L18 6L18 7L17 7L17 5L16 5L16 7L15 7L15 6L14 6L14 7L13 7L13 6L12 6L12 7L11 7L11 3L10 3L10 2L9 2L9 0ZM13 0L13 1L11 1L11 2L12 2L12 5L13 5L13 2L14 2L14 3L15 3L15 2L16 2L16 1L17 1L17 0L16 0L16 1L15 1L15 0ZM27 1L27 2L28 2L28 1ZM20 2L20 3L21 3L21 4L22 4L22 3L21 3L21 2ZM26 3L26 4L25 4L25 5L26 5L26 6L25 6L25 7L24 7L24 5L22 5L22 6L21 6L21 7L20 7L20 6L19 6L19 7L20 7L20 9L21 9L21 10L22 10L22 9L24 9L24 8L25 8L25 9L26 9L26 11L25 11L25 10L24 10L24 11L22 11L22 13L21 13L21 14L22 14L22 16L21 16L21 17L22 17L22 18L20 18L20 17L19 17L19 19L20 19L20 20L18 20L18 21L17 21L17 20L15 20L15 21L13 21L13 20L14 20L14 19L15 19L15 18L13 18L13 17L12 17L12 16L13 16L13 15L12 15L12 16L11 16L11 14L12 14L12 13L13 13L13 12L12 12L12 13L9 13L9 14L8 14L8 13L6 13L6 12L5 12L5 11L6 11L6 10L5 10L5 11L4 11L4 10L2 10L2 11L4 11L4 12L5 12L5 13L4 13L4 14L5 14L5 16L4 16L4 18L2 18L2 19L3 19L3 20L4 20L4 21L5 21L5 22L1 22L1 23L4 23L4 24L5 24L5 25L6 25L6 26L7 26L7 25L6 25L6 24L7 24L7 23L8 23L8 24L9 24L9 23L10 23L10 22L12 22L12 21L13 21L13 22L15 22L15 21L16 21L16 22L17 22L17 23L19 23L19 24L18 24L18 25L19 25L19 24L20 24L20 21L21 21L21 22L22 22L22 24L23 24L23 21L22 21L22 20L21 20L21 19L22 19L22 18L23 18L23 17L24 17L24 18L26 18L26 19L25 19L25 20L26 20L26 23L24 23L24 24L25 24L25 25L26 25L26 26L27 26L27 25L28 25L28 26L29 26L29 27L30 27L30 28L31 28L31 26L32 26L32 25L33 25L33 22L32 22L32 24L31 24L31 25L30 25L30 26L29 26L29 25L28 25L28 23L27 23L27 21L28 21L28 20L27 20L27 18L26 18L26 17L24 17L24 16L23 16L23 14L22 14L22 13L23 13L23 12L24 12L24 13L26 13L26 15L25 15L25 16L26 16L26 15L27 15L27 17L28 17L28 15L27 15L27 13L28 13L28 11L27 11L27 9L26 9L26 6L27 6L27 7L28 7L28 5L26 5L26 4L27 4L27 3ZM22 6L22 7L21 7L21 9L22 9L22 8L24 8L24 7L23 7L23 6ZM12 7L12 8L13 8L13 7ZM8 9L8 11L9 11L9 9ZM10 10L10 11L11 11L11 10ZM26 12L26 13L27 13L27 12ZM5 13L5 14L6 14L6 15L8 15L8 16L6 16L6 17L8 17L8 16L9 16L9 17L10 17L10 18L8 18L8 19L7 19L7 18L5 18L5 19L4 19L4 20L5 20L5 19L7 19L7 20L6 20L6 21L7 21L7 20L9 20L9 21L10 21L10 20L11 20L11 21L12 21L12 20L13 20L13 19L12 19L12 20L11 20L11 16L9 16L9 15L8 15L8 14L6 14L6 13ZM34 13L34 14L33 14L33 15L34 15L34 14L35 14L35 13ZM31 14L31 17L33 17L33 18L34 18L34 17L33 17L33 16L32 16L32 14ZM14 15L14 17L16 17L16 18L18 18L18 17L16 17L16 15ZM36 19L36 21L37 21L37 19ZM18 21L18 22L19 22L19 21ZM24 21L24 22L25 22L25 21ZM5 22L5 23L7 23L7 22ZM12 23L12 24L10 24L10 25L11 25L11 28L12 28L12 29L13 29L13 30L16 30L16 29L17 29L17 27L18 27L18 26L17 26L17 25L16 25L16 26L17 26L17 27L16 27L16 28L15 28L15 29L13 29L13 28L14 28L14 27L15 27L15 26L13 26L13 25L12 25L12 24L13 24L13 23ZM14 23L14 25L15 25L15 24L16 24L16 23ZM26 23L26 24L27 24L27 23ZM8 25L8 26L9 26L9 27L8 27L8 28L9 28L9 27L10 27L10 26L9 26L9 25ZM22 25L22 26L21 26L21 27L23 27L23 25ZM12 27L12 28L13 28L13 27ZM33 28L33 30L34 30L34 29L35 29L35 28ZM25 29L25 30L27 30L27 29ZM29 29L29 32L32 32L32 29ZM30 30L30 31L31 31L31 30ZM12 31L12 32L13 32L13 31ZM14 31L14 33L15 33L15 34L16 34L16 33L17 33L17 34L18 34L18 33L17 33L17 32L16 32L16 33L15 33L15 31ZM36 31L36 33L35 33L35 34L37 34L37 31ZM24 34L24 35L25 35L25 34ZM0 0L0 7L7 7L7 0ZM1 1L1 6L6 6L6 1ZM2 2L2 5L5 5L5 2ZM30 0L30 7L37 7L37 0ZM31 1L31 6L36 6L36 1ZM32 2L32 5L35 5L35 2ZM0 30L0 37L7 37L7 30ZM1 31L1 36L6 36L6 31ZM2 32L2 35L5 35L5 32Z" fill="#000000"/></g></g></svg>
