<?xml version="1.0" encoding="UTF-8"?>
<svg xmlns="http://www.w3.org/2000/svg" version="1.1" width="420" height="420" viewBox="0 0 420 420"><rect x="0" y="0" width="420" height="420" fill="#ffffff"/><g transform="scale(7.925)"><g transform="translate(0,0)"><path fill-rule="evenodd" d="M11 0L11 2L10 2L10 3L8 3L8 4L9 4L9 5L8 5L8 7L9 7L9 8L6 8L6 9L7 9L7 10L6 10L6 11L5 11L5 8L0 8L0 9L2 9L2 10L0 10L0 14L1 14L1 15L0 15L0 16L1 16L1 15L2 15L2 16L3 16L3 17L0 17L0 19L1 19L1 20L2 20L2 21L1 21L1 22L0 22L0 23L1 23L1 24L0 24L0 25L1 25L1 26L0 26L0 27L1 27L1 28L0 28L0 30L1 30L1 29L2 29L2 30L5 30L5 29L8 29L8 30L9 30L9 26L10 26L10 30L11 30L11 31L12 31L12 32L10 32L10 31L9 31L9 32L8 32L8 31L7 31L7 30L6 30L6 31L5 31L5 32L6 32L6 33L7 33L7 34L5 34L5 33L2 33L2 31L0 31L0 32L1 32L1 33L0 33L0 37L1 37L1 39L0 39L0 40L1 40L1 41L0 41L0 43L1 43L1 44L3 44L3 45L4 45L4 44L3 44L3 43L7 43L7 44L6 44L6 45L7 45L7 44L8 44L8 47L9 47L9 48L8 48L8 53L9 53L9 52L10 52L10 53L11 53L11 52L10 52L10 51L9 51L9 49L10 49L10 50L11 50L11 49L12 49L12 52L13 52L13 53L22 53L22 52L21 52L21 49L22 49L22 48L21 48L21 47L22 47L22 46L23 46L23 45L22 45L22 44L19 44L19 43L20 43L20 42L19 42L19 41L20 41L20 40L19 40L19 39L20 39L20 38L18 38L18 39L17 39L17 38L16 38L16 37L22 37L22 39L21 39L21 40L22 40L22 41L21 41L21 43L22 43L22 41L23 41L23 42L24 42L24 43L23 43L23 44L24 44L24 47L23 47L23 48L24 48L24 49L23 49L23 50L25 50L25 51L28 51L28 50L25 50L25 49L29 49L29 46L31 46L31 47L30 47L30 50L29 50L29 51L30 51L30 52L29 52L29 53L32 53L32 52L33 52L33 51L34 51L34 50L33 50L33 51L32 51L32 50L31 50L31 49L32 49L32 48L33 48L33 49L35 49L35 48L34 48L34 47L37 47L37 46L38 46L38 47L39 47L39 48L38 48L38 49L39 49L39 50L37 50L37 51L38 51L38 52L35 52L35 53L38 53L38 52L41 52L41 51L42 51L42 52L43 52L43 53L44 53L44 52L43 52L43 51L44 51L44 50L45 50L45 51L46 51L46 50L45 50L45 49L47 49L47 50L48 50L48 51L49 51L49 52L48 52L48 53L51 53L51 52L52 52L52 51L53 51L53 50L52 50L52 48L53 48L53 47L51 47L51 48L50 48L50 50L48 50L48 49L49 49L49 47L50 47L50 45L51 45L51 44L50 44L50 43L49 43L49 42L50 42L50 41L52 41L52 42L53 42L53 41L52 41L52 40L53 40L53 39L52 39L52 40L50 40L50 39L51 39L51 38L53 38L53 35L52 35L52 34L53 34L53 33L51 33L51 32L50 32L50 29L52 29L52 30L53 30L53 29L52 29L52 28L53 28L53 27L51 27L51 26L52 26L52 24L53 24L53 23L52 23L52 24L50 24L50 23L49 23L49 22L50 22L50 21L51 21L51 20L52 20L52 22L53 22L53 20L52 20L52 19L51 19L51 18L53 18L53 17L52 17L52 16L53 16L53 15L52 15L52 16L50 16L50 15L51 15L51 14L53 14L53 13L51 13L51 12L50 12L50 10L53 10L53 9L52 9L52 8L51 8L51 9L50 9L50 8L49 8L49 9L50 9L50 10L49 10L49 12L48 12L48 13L49 13L49 12L50 12L50 13L51 13L51 14L49 14L49 16L47 16L47 14L46 14L46 16L47 16L47 18L46 18L46 19L47 19L47 20L44 20L44 19L45 19L45 18L44 18L44 17L45 17L45 16L43 16L43 13L40 13L40 12L41 12L41 10L43 10L43 11L42 11L42 12L44 12L44 13L47 13L47 12L46 12L46 11L48 11L48 8L47 8L47 10L45 10L45 12L44 12L44 9L46 9L46 8L45 8L45 6L44 6L44 7L43 7L43 3L44 3L44 4L45 4L45 3L44 3L44 1L43 1L43 0L42 0L42 2L43 2L43 3L42 3L42 4L40 4L40 3L41 3L41 2L40 2L40 1L41 1L41 0L39 0L39 2L40 2L40 3L38 3L38 4L39 4L39 5L38 5L38 7L37 7L37 6L36 6L36 7L35 7L35 5L37 5L37 3L35 3L35 1L36 1L36 2L37 2L37 1L38 1L38 0L35 0L35 1L34 1L34 0L32 0L32 1L33 1L33 2L31 2L31 3L29 3L29 2L30 2L30 1L31 1L31 0L30 0L30 1L29 1L29 0L27 0L27 1L26 1L26 2L25 2L25 0L24 0L24 1L22 1L22 2L24 2L24 3L26 3L26 2L27 2L27 4L21 4L21 5L20 5L20 4L19 4L19 3L21 3L21 0L18 0L18 1L17 1L17 3L16 3L16 2L15 2L15 1L16 1L16 0L15 0L15 1L14 1L14 0ZM8 1L8 2L9 2L9 1ZM12 1L12 2L13 2L13 3L12 3L12 4L11 4L11 3L10 3L10 4L11 4L11 5L12 5L12 6L11 6L11 7L10 7L10 6L9 6L9 7L10 7L10 8L11 8L11 7L12 7L12 9L8 9L8 10L7 10L7 11L6 11L6 12L7 12L7 11L10 11L10 12L8 12L8 13L10 13L10 14L9 14L9 16L7 16L7 15L8 15L8 14L7 14L7 13L6 13L6 14L5 14L5 13L3 13L3 12L5 12L5 11L1 11L1 12L2 12L2 13L1 13L1 14L3 14L3 16L4 16L4 17L3 17L3 18L1 18L1 19L3 19L3 18L4 18L4 17L6 17L6 18L7 18L7 19L6 19L6 20L5 20L5 19L4 19L4 23L3 23L3 22L1 22L1 23L2 23L2 24L1 24L1 25L2 25L2 26L1 26L1 27L2 27L2 28L3 28L3 29L4 29L4 27L3 27L3 26L4 26L4 25L3 25L3 24L4 24L4 23L5 23L5 24L7 24L7 23L9 23L9 20L8 20L8 19L9 19L9 18L10 18L10 16L11 16L11 17L14 17L14 20L13 20L13 19L12 19L12 20L10 20L10 21L11 21L11 22L12 22L12 23L11 23L11 24L12 24L12 26L13 26L13 27L11 27L11 28L13 28L13 29L11 29L11 30L12 30L12 31L14 31L14 32L13 32L13 33L12 33L12 34L10 34L10 33L8 33L8 32L7 32L7 31L6 31L6 32L7 32L7 33L8 33L8 34L7 34L7 35L4 35L4 37L3 37L3 34L2 34L2 36L1 36L1 37L3 37L3 38L2 38L2 39L1 39L1 40L2 40L2 39L3 39L3 38L5 38L5 39L4 39L4 40L7 40L7 39L9 39L9 37L11 37L11 40L10 40L10 42L9 42L9 41L3 41L3 42L2 42L2 43L3 43L3 42L7 42L7 43L8 43L8 42L9 42L9 43L10 43L10 44L11 44L11 43L12 43L12 44L16 44L16 43L14 43L14 42L16 42L16 41L18 41L18 40L17 40L17 39L16 39L16 41L13 41L13 42L11 42L11 41L12 41L12 39L13 39L13 40L14 40L14 39L13 39L13 38L14 38L14 37L16 37L16 36L18 36L18 35L17 35L17 34L18 34L18 33L21 33L21 34L22 34L22 35L23 35L23 36L22 36L22 37L24 37L24 36L25 36L25 37L27 37L27 38L26 38L26 39L25 39L25 38L23 38L23 41L24 41L24 42L25 42L25 43L26 43L26 44L27 44L27 42L26 42L26 41L27 41L27 40L28 40L28 42L30 42L30 43L28 43L28 44L29 44L29 45L31 45L31 46L32 46L32 45L33 45L33 46L37 46L37 45L38 45L38 46L39 46L39 47L41 47L41 44L40 44L40 46L39 46L39 45L38 45L38 44L39 44L39 43L38 43L38 42L40 42L40 43L42 43L42 45L44 45L44 44L43 44L43 43L44 43L44 40L43 40L43 42L41 42L41 40L39 40L39 39L37 39L37 38L35 38L35 37L34 37L34 35L33 35L33 32L32 32L32 29L33 29L33 30L35 30L35 31L34 31L34 32L36 32L36 30L37 30L37 31L38 31L38 34L39 34L39 35L38 35L38 38L39 38L39 37L40 37L40 39L45 39L45 40L46 40L46 41L50 41L50 40L49 40L49 39L50 39L50 38L51 38L51 36L52 36L52 35L51 35L51 33L49 33L49 32L48 32L48 31L49 31L49 30L47 30L47 29L46 29L46 30L45 30L45 29L44 29L44 27L43 27L43 26L44 26L44 24L43 24L43 26L40 26L40 25L41 25L41 24L42 24L42 23L45 23L45 22L47 22L47 23L46 23L46 24L48 24L48 22L49 22L49 21L50 21L50 20L51 20L51 19L50 19L50 20L49 20L49 19L48 19L48 18L49 18L49 17L48 17L48 18L47 18L47 19L48 19L48 20L47 20L47 21L44 21L44 20L42 20L42 19L44 19L44 18L40 18L40 19L41 19L41 20L40 20L40 22L39 22L39 21L38 21L38 20L39 20L39 19L38 19L38 18L39 18L39 17L38 17L38 16L39 16L39 15L38 15L38 14L39 14L39 12L40 12L40 10L41 10L41 9L44 9L44 8L43 8L43 7L42 7L42 5L41 5L41 7L42 7L42 8L40 8L40 10L39 10L39 9L38 9L38 10L39 10L39 12L37 12L37 11L36 11L36 8L37 8L37 7L36 7L36 8L35 8L35 9L34 9L34 10L33 10L33 11L32 11L32 9L33 9L33 8L34 8L34 6L33 6L33 5L35 5L35 4L34 4L34 2L33 2L33 3L32 3L32 4L31 4L31 5L32 5L32 6L31 6L31 8L30 8L30 6L29 6L29 10L25 10L25 9L24 9L24 8L23 8L23 9L22 9L22 8L21 8L21 7L22 7L22 5L21 5L21 7L20 7L20 5L19 5L19 4L16 4L16 3L14 3L14 1ZM19 1L19 2L20 2L20 1ZM28 1L28 2L29 2L29 1ZM28 3L28 4L29 4L29 3ZM13 4L13 6L12 6L12 7L13 7L13 6L14 6L14 8L13 8L13 9L16 9L16 10L15 10L15 11L16 11L16 13L13 13L13 12L14 12L14 11L13 11L13 12L12 12L12 11L11 11L11 12L12 12L12 13L11 13L11 14L10 14L10 15L11 15L11 16L12 16L12 15L11 15L11 14L12 14L12 13L13 13L13 14L16 14L16 13L19 13L19 12L17 12L17 11L18 11L18 10L19 10L19 11L20 11L20 10L19 10L19 9L20 9L20 8L19 8L19 5L18 5L18 7L17 7L17 5L16 5L16 4ZM15 5L15 8L16 8L16 9L18 9L18 8L17 8L17 7L16 7L16 5ZM23 5L23 7L24 7L24 5ZM25 5L25 8L28 8L28 5ZM26 6L26 7L27 7L27 6ZM32 6L32 8L33 8L33 6ZM39 6L39 7L38 7L38 8L39 8L39 7L40 7L40 6ZM21 9L21 10L22 10L22 9ZM30 9L30 10L29 10L29 11L28 11L28 12L29 12L29 11L30 11L30 10L31 10L31 9ZM24 10L24 11L23 11L23 12L24 12L24 11L25 11L25 10ZM34 10L34 12L33 12L33 15L30 15L30 18L29 18L29 16L28 16L28 14L31 14L31 13L32 13L32 12L31 12L31 13L27 13L27 12L26 12L26 14L25 14L25 15L23 15L23 16L24 16L24 17L23 17L23 18L24 18L24 20L23 20L23 19L22 19L22 18L21 18L21 17L22 17L22 16L21 16L21 15L22 15L22 14L24 14L24 13L22 13L22 12L20 12L20 13L21 13L21 15L19 15L19 16L21 16L21 17L18 17L18 16L17 16L17 17L18 17L18 18L17 18L17 19L18 19L18 21L19 21L19 20L20 20L20 21L22 21L22 23L21 23L21 22L20 22L20 23L21 23L21 24L22 24L22 25L21 25L21 28L20 28L20 29L21 29L21 31L22 31L22 30L24 30L24 31L23 31L23 32L24 32L24 33L23 33L23 34L24 34L24 35L25 35L25 36L26 36L26 35L25 35L25 34L28 34L28 35L27 35L27 36L28 36L28 35L29 35L29 37L28 37L28 38L29 38L29 41L30 41L30 42L32 42L32 40L33 40L33 43L32 43L32 44L34 44L34 45L37 45L37 44L35 44L35 42L34 42L34 40L35 40L35 41L37 41L37 39L36 39L36 40L35 40L35 38L33 38L33 37L32 37L32 38L33 38L33 39L31 39L31 40L30 40L30 38L31 38L31 36L33 36L33 35L32 35L32 34L31 34L31 33L32 33L32 32L31 32L31 28L30 28L30 29L29 29L29 27L30 27L30 26L31 26L31 27L32 27L32 28L33 28L33 29L34 29L34 28L33 28L33 27L35 27L35 26L36 26L36 27L37 27L37 28L35 28L35 30L36 30L36 29L37 29L37 30L38 30L38 31L40 31L40 32L41 32L41 34L40 34L40 33L39 33L39 34L40 34L40 35L39 35L39 36L40 36L40 35L41 35L41 34L43 34L43 32L44 32L44 33L47 33L47 31L46 31L46 32L45 32L45 31L43 31L43 32L42 32L42 31L41 31L41 30L43 30L43 27L41 27L41 30L38 30L38 29L39 29L39 28L40 28L40 26L38 26L38 25L40 25L40 24L41 24L41 23L38 23L38 21L37 21L37 20L36 20L36 19L37 19L37 18L38 18L38 17L37 17L37 16L36 16L36 17L35 17L35 18L36 18L36 19L35 19L35 22L36 22L36 23L35 23L35 26L34 26L34 25L33 25L33 27L32 27L32 25L30 25L30 26L29 26L29 24L28 24L28 22L29 22L29 23L30 23L30 24L31 24L31 23L30 23L30 22L31 22L31 20L33 20L33 21L32 21L32 22L33 22L33 21L34 21L34 18L33 18L33 17L32 17L32 18L33 18L33 19L30 19L30 18L31 18L31 16L34 16L34 15L37 15L37 12L35 12L35 10ZM34 13L34 14L36 14L36 13ZM4 14L4 15L5 15L5 14ZM6 14L6 15L7 15L7 14ZM17 14L17 15L18 15L18 14ZM40 14L40 15L41 15L41 14ZM44 14L44 15L45 15L45 14ZM13 15L13 16L14 16L14 15ZM15 15L15 16L16 16L16 15ZM26 15L26 16L25 16L25 19L26 19L26 21L24 21L24 22L25 22L25 23L26 23L26 24L27 24L27 23L26 23L26 21L27 21L27 22L28 22L28 20L27 20L27 19L29 19L29 20L30 20L30 19L29 19L29 18L27 18L27 17L26 17L26 16L27 16L27 15ZM6 16L6 17L7 17L7 16ZM40 16L40 17L42 17L42 16ZM15 17L15 18L16 18L16 17ZM36 17L36 18L37 18L37 17ZM19 18L19 19L20 19L20 18ZM26 18L26 19L27 19L27 18ZM15 19L15 20L16 20L16 21L14 21L14 22L13 22L13 20L12 20L12 22L13 22L13 23L14 23L14 24L13 24L13 25L16 25L16 26L15 26L15 27L14 27L14 28L15 28L15 29L14 29L14 30L15 30L15 32L17 32L17 33L18 33L18 32L17 32L17 31L18 31L18 30L19 30L19 32L20 32L20 30L19 30L19 27L20 27L20 26L19 26L19 25L20 25L20 24L19 24L19 22L18 22L18 23L17 23L17 22L16 22L16 21L17 21L17 20L16 20L16 19ZM6 20L6 21L7 21L7 22L6 22L6 23L7 23L7 22L8 22L8 21L7 21L7 20ZM22 20L22 21L23 21L23 20ZM48 20L48 21L49 21L49 20ZM41 21L41 22L43 22L43 21ZM16 23L16 25L18 25L18 24L17 24L17 23ZM32 23L32 24L34 24L34 23ZM9 24L9 25L10 25L10 24ZM23 24L23 25L22 25L22 26L23 26L23 28L22 28L22 29L23 29L23 28L24 28L24 24ZM5 25L5 28L8 28L8 25ZM25 25L25 28L28 28L28 25ZM36 25L36 26L37 26L37 25ZM45 25L45 28L48 28L48 25ZM6 26L6 27L7 27L7 26ZM17 26L17 28L18 28L18 26ZM26 26L26 27L27 27L27 26ZM46 26L46 27L47 27L47 26ZM49 26L49 29L50 29L50 28L51 28L51 27L50 27L50 26ZM15 27L15 28L16 28L16 27ZM38 27L38 28L37 28L37 29L38 29L38 28L39 28L39 27ZM16 29L16 30L17 30L17 29ZM24 29L24 30L25 30L25 31L27 31L27 32L26 32L26 33L28 33L28 34L29 34L29 35L30 35L30 36L31 36L31 34L30 34L30 32L29 32L29 31L30 31L30 30L29 30L29 29L28 29L28 31L27 31L27 30L25 30L25 29ZM21 32L21 33L22 33L22 32ZM28 32L28 33L29 33L29 32ZM13 33L13 35L12 35L12 36L11 36L11 35L9 35L9 34L8 34L8 35L9 35L9 36L5 36L5 38L6 38L6 39L7 39L7 38L8 38L8 37L9 37L9 36L11 36L11 37L12 37L12 38L13 38L13 35L15 35L15 36L16 36L16 35L15 35L15 34L16 34L16 33L15 33L15 34L14 34L14 33ZM34 33L34 34L35 34L35 36L37 36L37 34L35 34L35 33ZM48 33L48 34L47 34L47 35L46 35L46 36L49 36L49 37L48 37L48 38L49 38L49 37L50 37L50 35L49 35L49 33ZM19 34L19 35L20 35L20 34ZM42 35L42 36L41 36L41 38L44 38L44 37L42 37L42 36L44 36L44 35ZM6 37L6 38L7 38L7 37ZM33 39L33 40L34 40L34 39ZM46 39L46 40L47 40L47 39ZM25 40L25 41L26 41L26 40ZM10 42L10 43L11 43L11 42ZM17 42L17 43L19 43L19 42ZM36 42L36 43L37 43L37 42ZM45 42L45 44L46 44L46 43L47 43L47 44L48 44L48 42ZM12 45L12 47L11 47L11 46L9 46L9 47L11 47L11 48L10 48L10 49L11 49L11 48L12 48L12 47L13 47L13 45ZM14 45L14 46L15 46L15 47L14 47L14 48L15 48L15 49L16 49L16 50L15 50L15 51L16 51L16 52L17 52L17 50L18 50L18 51L20 51L20 50L18 50L18 49L21 49L21 48L20 48L20 46L22 46L22 45L16 45L16 46L15 46L15 45ZM25 45L25 48L28 48L28 45ZM45 45L45 48L48 48L48 45ZM17 46L17 47L18 47L18 46ZM26 46L26 47L27 47L27 46ZM42 46L42 48L39 48L39 49L40 49L40 50L39 50L39 51L41 51L41 49L44 49L44 48L43 48L43 47L44 47L44 46ZM46 46L46 47L47 47L47 46ZM31 47L31 48L32 48L32 47ZM17 48L17 49L18 49L18 48ZM36 48L36 49L37 49L37 48ZM13 49L13 51L14 51L14 49ZM30 50L30 51L31 51L31 52L32 52L32 51L31 51L31 50ZM42 50L42 51L43 51L43 50ZM50 50L50 52L51 52L51 51L52 51L52 50ZM23 51L23 53L26 53L26 52L24 52L24 51ZM45 52L45 53L47 53L47 52ZM0 0L0 7L7 7L7 0ZM1 1L1 6L6 6L6 1ZM2 2L2 5L5 5L5 2ZM46 0L46 7L53 7L53 0ZM47 1L47 6L52 6L52 1ZM48 2L48 5L51 5L51 2ZM0 46L0 53L7 53L7 46ZM1 47L1 52L6 52L6 47ZM2 48L2 51L5 51L5 48Z" fill="#000000"/></g></g></svg>
