<?xml version="1.0" encoding="UTF-8"?>
<svg xmlns="http://www.w3.org/2000/svg" version="1.1" width="420" height="420" viewBox="0 0 420 420"><rect x="0" y="0" width="420" height="420" fill="#ffffff"/><g transform="scale(7.925)"><g transform="translate(0,0)"><path fill-rule="evenodd" d="M8 0L8 1L9 1L9 2L10 2L10 3L9 3L9 6L8 6L8 8L9 8L9 9L8 9L8 12L5 12L5 14L6 14L6 15L8 15L8 14L10 14L10 15L9 15L9 16L8 16L8 18L9 18L9 19L8 19L8 20L6 20L6 19L7 19L7 18L6 18L6 17L7 17L7 16L5 16L5 17L4 17L4 18L3 18L3 17L2 17L2 19L0 19L0 21L1 21L1 22L0 22L0 26L1 26L1 28L0 28L0 29L1 29L1 30L0 30L0 31L3 31L3 32L0 32L0 34L1 34L1 35L0 35L0 37L1 37L1 35L2 35L2 34L3 34L3 32L4 32L4 33L5 33L5 34L6 34L6 35L3 35L3 36L2 36L2 37L3 37L3 36L5 36L5 39L4 39L4 38L3 38L3 39L2 39L2 41L3 41L3 43L2 43L2 42L0 42L0 43L1 43L1 44L3 44L3 45L4 45L4 44L3 44L3 43L10 43L10 45L12 45L12 46L13 46L13 43L14 43L14 41L15 41L15 39L14 39L14 38L13 38L13 37L15 37L15 38L16 38L16 39L17 39L17 38L16 38L16 36L18 36L18 37L19 37L19 38L18 38L18 40L16 40L16 42L17 42L17 41L19 41L19 42L18 42L18 45L19 45L19 42L20 42L20 46L21 46L21 48L22 48L22 49L20 49L20 50L18 50L18 49L19 49L19 47L18 47L18 46L17 46L17 45L16 45L16 43L15 43L15 45L14 45L14 46L15 46L15 47L14 47L14 48L17 48L17 50L15 50L15 49L14 49L14 50L15 50L15 51L14 51L14 52L13 52L13 51L11 51L11 49L12 49L12 48L13 48L13 47L11 47L11 46L10 46L10 47L9 47L9 48L8 48L8 50L9 50L9 49L10 49L10 51L11 51L11 52L12 52L12 53L14 53L14 52L15 52L15 51L17 51L17 50L18 50L18 53L19 53L19 52L21 52L21 53L22 53L22 52L21 52L21 51L22 51L22 50L23 50L23 52L24 52L24 53L25 53L25 50L26 50L26 52L27 52L27 53L28 53L28 52L27 52L27 51L29 51L29 52L30 52L30 53L33 53L33 52L34 52L34 53L35 53L35 51L34 51L34 50L33 50L33 51L32 51L32 49L33 49L33 47L32 47L32 48L31 48L31 47L30 47L30 46L31 46L31 44L33 44L33 43L35 43L35 45L34 45L34 49L35 49L35 48L36 48L36 49L37 49L37 48L38 48L38 47L39 47L39 42L38 42L38 41L37 41L37 40L36 40L36 39L33 39L33 40L32 40L32 41L33 41L33 43L29 43L29 44L27 44L27 43L28 43L28 42L31 42L31 39L30 39L30 40L29 40L29 39L28 39L28 40L27 40L27 38L31 38L31 37L32 37L32 38L33 38L33 36L34 36L34 37L35 37L35 36L36 36L36 37L38 37L38 40L39 40L39 38L43 38L43 37L45 37L45 38L46 38L46 39L45 39L45 40L44 40L44 39L41 39L41 40L42 40L42 42L43 42L43 43L45 43L45 42L44 42L44 41L45 41L45 40L46 40L46 39L47 39L47 38L46 38L46 37L48 37L48 38L49 38L49 40L47 40L47 41L48 41L48 43L49 43L49 44L47 44L47 42L46 42L46 44L43 44L43 45L42 45L42 46L41 46L41 44L42 44L42 43L40 43L40 46L41 46L41 48L40 48L40 49L38 49L38 51L39 51L39 52L41 52L41 53L49 53L49 52L50 52L50 53L51 53L51 51L50 51L50 50L51 50L51 49L50 49L50 48L49 48L49 47L51 47L51 48L52 48L52 50L53 50L53 47L52 47L52 46L51 46L51 45L53 45L53 44L51 44L51 42L52 42L52 43L53 43L53 42L52 42L52 40L51 40L51 39L53 39L53 37L52 37L52 34L51 34L51 31L53 31L53 30L50 30L50 28L51 28L51 29L52 29L52 28L51 28L51 26L50 26L50 27L49 27L49 24L50 24L50 23L51 23L51 22L53 22L53 21L51 21L51 19L50 19L50 20L48 20L48 19L49 19L49 18L47 18L47 17L45 17L45 18L44 18L44 17L43 17L43 15L42 15L42 14L43 14L43 13L44 13L44 14L45 14L45 16L46 16L46 14L45 14L45 13L44 13L44 12L43 12L43 11L46 11L46 13L49 13L49 14L50 14L50 15L49 15L49 16L48 16L48 17L50 17L50 16L51 16L51 17L52 17L52 16L51 16L51 13L50 13L50 11L51 11L51 12L52 12L52 15L53 15L53 11L51 11L51 9L49 9L49 12L47 12L47 10L48 10L48 9L47 9L47 8L46 8L46 9L45 9L45 6L44 6L44 7L43 7L43 3L44 3L44 4L45 4L45 3L44 3L44 1L43 1L43 0L42 0L42 1L41 1L41 0L38 0L38 1L36 1L36 0L34 0L34 1L36 1L36 2L37 2L37 3L35 3L35 2L33 2L33 0L32 0L32 2L30 2L30 3L29 3L29 2L28 2L28 3L27 3L27 4L23 4L23 3L24 3L24 2L25 2L25 3L26 3L26 2L27 2L27 0L23 0L23 1L24 1L24 2L21 2L21 4L20 4L20 5L18 5L18 4L19 4L19 3L20 3L20 1L22 1L22 0L19 0L19 1L18 1L18 2L19 2L19 3L18 3L18 4L17 4L17 6L16 6L16 8L15 8L15 6L14 6L14 8L13 8L13 10L11 10L11 9L12 9L12 7L13 7L13 5L14 5L14 4L15 4L15 5L16 5L16 4L15 4L15 0L13 0L13 1L12 1L12 0L11 0L11 2L10 2L10 1L9 1L9 0ZM29 0L29 1L31 1L31 0ZM16 1L16 2L17 2L17 1ZM25 1L25 2L26 2L26 1ZM38 1L38 2L39 2L39 3L37 3L37 4L36 4L36 5L37 5L37 7L36 7L36 6L35 6L35 10L34 10L34 11L31 11L31 10L32 10L32 9L34 9L34 6L33 6L33 7L32 7L32 6L31 6L31 5L32 5L32 4L31 4L31 5L30 5L30 4L29 4L29 3L28 3L28 4L29 4L29 9L28 9L28 11L29 11L29 12L27 12L27 10L26 10L26 9L25 9L25 10L24 10L24 11L25 11L25 12L24 12L24 13L23 13L23 14L22 14L22 11L23 11L23 10L22 10L22 5L23 5L23 4L21 4L21 5L20 5L20 6L19 6L19 7L18 7L18 6L17 6L17 7L18 7L18 8L17 8L17 9L18 9L18 10L16 10L16 9L15 9L15 8L14 8L14 9L15 9L15 11L14 11L14 10L13 10L13 11L14 11L14 12L15 12L15 13L13 13L13 12L11 12L11 10L10 10L10 9L11 9L11 8L10 8L10 9L9 9L9 11L10 11L10 13L11 13L11 15L10 15L10 16L9 16L9 17L10 17L10 19L9 19L9 20L8 20L8 22L7 22L7 21L6 21L6 20L5 20L5 21L4 21L4 19L6 19L6 18L4 18L4 19L3 19L3 20L2 20L2 21L3 21L3 22L2 22L2 23L1 23L1 24L3 24L3 25L2 25L2 26L3 26L3 25L4 25L4 24L7 24L7 23L8 23L8 24L9 24L9 25L10 25L10 26L9 26L9 29L10 29L10 30L8 30L8 31L6 31L6 32L5 32L5 31L4 31L4 32L5 32L5 33L6 33L6 34L7 34L7 35L6 35L6 36L7 36L7 37L6 37L6 38L7 38L7 39L5 39L5 40L7 40L7 41L6 41L6 42L7 42L7 41L8 41L8 42L9 42L9 41L11 41L11 40L12 40L12 39L13 39L13 38L12 38L12 37L13 37L13 36L12 36L12 37L10 37L10 36L11 36L11 35L10 35L10 34L11 34L11 32L9 32L9 31L10 31L10 30L11 30L11 31L12 31L12 32L13 32L13 34L12 34L12 35L14 35L14 36L15 36L15 35L18 35L18 36L19 36L19 37L21 37L21 38L19 38L19 41L20 41L20 42L24 42L24 43L25 43L25 42L26 42L26 38L27 38L27 37L28 37L28 34L29 34L29 37L30 37L30 35L31 35L31 36L32 36L32 34L33 34L33 35L34 35L34 33L33 33L33 32L35 32L35 30L36 30L36 32L38 32L38 33L37 33L37 35L38 35L38 37L40 37L40 36L41 36L41 37L43 37L43 34L44 34L44 33L43 33L43 32L45 32L45 31L46 31L46 29L45 29L45 31L43 31L43 30L42 30L42 28L44 28L44 27L42 27L42 26L41 26L41 27L36 27L36 25L35 25L35 24L34 24L34 22L32 22L32 21L34 21L34 18L33 18L33 17L34 17L34 15L36 15L36 16L37 16L37 15L39 15L39 16L38 16L38 17L36 17L36 18L38 18L38 20L37 20L37 19L36 19L36 20L35 20L35 22L36 22L36 24L38 24L38 25L40 25L40 24L41 24L41 22L38 22L38 21L40 21L40 19L39 19L39 16L40 16L40 18L41 18L41 14L40 14L40 13L39 13L39 12L41 12L41 13L42 13L42 12L41 12L41 10L40 10L40 8L41 8L41 9L43 9L43 7L42 7L42 6L41 6L41 7L40 7L40 5L39 5L39 8L37 8L37 7L38 7L38 4L40 4L40 3L43 3L43 2L39 2L39 1ZM12 2L12 5L13 5L13 4L14 4L14 3L13 3L13 2ZM34 3L34 4L33 4L33 5L35 5L35 3ZM10 4L10 5L11 5L11 4ZM41 4L41 5L42 5L42 4ZM25 5L25 8L28 8L28 5ZM9 6L9 7L10 7L10 6ZM11 6L11 7L12 7L12 6ZM20 6L20 8L18 8L18 9L20 9L20 10L21 10L21 6ZM23 6L23 9L24 9L24 6ZM26 6L26 7L27 7L27 6ZM30 6L30 8L32 8L32 7L31 7L31 6ZM41 7L41 8L42 8L42 7ZM0 8L0 9L1 9L1 10L0 10L0 13L1 13L1 12L3 12L3 13L4 13L4 12L3 12L3 11L7 11L7 10L4 10L4 9L5 9L5 8L3 8L3 11L1 11L1 10L2 10L2 8ZM6 8L6 9L7 9L7 8ZM36 8L36 9L37 9L37 11L38 11L38 10L39 10L39 11L40 11L40 10L39 10L39 9L37 9L37 8ZM52 8L52 9L53 9L53 8ZM30 9L30 10L31 10L31 9ZM35 10L35 12L36 12L36 13L35 13L35 14L36 14L36 15L37 15L37 13L38 13L38 14L39 14L39 13L38 13L38 12L36 12L36 10ZM42 10L42 11L43 11L43 10ZM15 11L15 12L16 12L16 11ZM17 11L17 13L19 13L19 14L17 14L17 15L16 15L16 14L14 14L14 15L16 15L16 17L15 17L15 18L13 18L13 17L14 17L14 16L13 16L13 17L11 17L11 18L13 18L13 19L16 19L16 18L17 18L17 19L19 19L19 20L17 20L17 21L16 21L16 20L15 20L15 21L16 21L16 22L17 22L17 21L18 21L18 22L19 22L19 20L20 20L20 22L21 22L21 20L22 20L22 21L23 21L23 22L22 22L22 23L20 23L20 24L18 24L18 23L15 23L15 22L14 22L14 20L13 20L13 22L12 22L12 21L11 21L11 19L10 19L10 21L9 21L9 22L8 22L8 23L10 23L10 21L11 21L11 22L12 22L12 24L11 24L11 25L12 25L12 27L16 27L16 28L14 28L14 29L13 29L13 30L12 30L12 28L11 28L11 26L10 26L10 29L11 29L11 30L12 30L12 31L13 31L13 32L14 32L14 35L15 35L15 32L18 32L18 33L16 33L16 34L18 34L18 33L19 33L19 34L20 34L20 35L19 35L19 36L20 36L20 35L21 35L21 37L22 37L22 39L20 39L20 40L22 40L22 39L23 39L23 38L25 38L25 37L27 37L27 34L26 34L26 36L25 36L25 37L24 37L24 35L25 35L25 34L24 34L24 33L26 33L26 31L28 31L28 30L29 30L29 29L30 29L30 30L31 30L31 31L30 31L30 32L33 32L33 30L35 30L35 27L34 27L34 26L33 26L33 23L32 23L32 22L31 22L31 21L32 21L32 19L33 19L33 18L32 18L32 17L33 17L33 16L32 16L32 13L34 13L34 12L32 12L32 13L31 13L31 11L30 11L30 12L29 12L29 13L28 13L28 14L25 14L25 13L24 13L24 14L23 14L23 15L22 15L22 16L23 16L23 19L24 19L24 21L23 21L23 20L22 20L22 18L21 18L21 19L20 19L20 18L18 18L18 17L20 17L20 16L21 16L21 15L20 15L20 16L17 16L17 15L19 15L19 14L21 14L21 13L19 13L19 11ZM20 11L20 12L21 12L21 11ZM8 12L8 13L9 13L9 12ZM6 13L6 14L7 14L7 13ZM1 14L1 15L2 15L2 16L4 16L4 14ZM12 14L12 15L13 15L13 14ZM24 14L24 15L25 15L25 16L24 16L24 17L25 17L25 18L24 18L24 19L26 19L26 17L27 17L27 18L29 18L29 16L30 16L30 17L31 17L31 14L29 14L29 16L28 16L28 17L27 17L27 16L26 16L26 15L25 15L25 14ZM0 16L0 18L1 18L1 16ZM25 16L25 17L26 17L26 16ZM30 18L30 19L29 19L29 20L31 20L31 18ZM42 18L42 19L43 19L43 18ZM45 18L45 19L47 19L47 18ZM52 18L52 19L53 19L53 18ZM27 19L27 20L28 20L28 19ZM36 20L36 22L37 22L37 23L38 23L38 22L37 22L37 20ZM41 20L41 21L42 21L42 20ZM47 20L47 22L49 22L49 23L50 23L50 22L49 22L49 21L48 21L48 20ZM25 21L25 22L23 22L23 23L22 23L22 24L20 24L20 25L21 25L21 26L19 26L19 25L18 25L18 26L19 26L19 27L23 27L23 28L20 28L20 29L18 29L18 28L17 28L17 29L18 29L18 31L20 31L20 30L21 30L21 35L23 35L23 33L24 33L24 31L23 31L23 30L24 30L24 23L25 23L25 24L27 24L27 22L26 22L26 21ZM28 21L28 23L31 23L31 24L30 24L30 25L29 25L29 26L30 26L30 27L31 27L31 30L32 30L32 28L33 28L33 29L34 29L34 28L33 28L33 26L30 26L30 25L32 25L32 23L31 23L31 22L29 22L29 21ZM45 21L45 22L42 22L42 23L44 23L44 24L46 24L46 23L45 23L45 22L46 22L46 21ZM3 22L3 23L5 23L5 22ZM6 22L6 23L7 23L7 22ZM13 22L13 23L14 23L14 24L15 24L15 23L14 23L14 22ZM25 22L25 23L26 23L26 22ZM39 23L39 24L40 24L40 23ZM12 24L12 25L13 25L13 26L14 26L14 25L13 25L13 24ZM16 24L16 25L15 25L15 26L16 26L16 27L17 27L17 24ZM22 24L22 26L23 26L23 24ZM51 24L51 25L53 25L53 24ZM5 25L5 28L8 28L8 25ZM25 25L25 28L28 28L28 25ZM43 25L43 26L44 26L44 25ZM45 25L45 28L48 28L48 25ZM6 26L6 27L7 27L7 26ZM26 26L26 27L27 27L27 26ZM46 26L46 27L47 27L47 26ZM52 26L52 27L53 27L53 26ZM3 27L3 29L2 29L2 30L7 30L7 29L4 29L4 27ZM36 28L36 29L37 29L37 30L38 30L38 29L39 29L39 32L40 32L40 33L38 33L38 34L43 34L43 33L41 33L41 31L42 31L42 32L43 32L43 31L42 31L42 30L41 30L41 31L40 31L40 29L39 29L39 28L38 28L38 29L37 29L37 28ZM27 29L27 30L28 30L28 29ZM47 29L47 30L48 30L48 31L47 31L47 33L45 33L45 35L47 35L47 36L48 36L48 37L49 37L49 36L48 36L48 35L47 35L47 34L48 34L48 33L49 33L49 35L50 35L50 37L51 37L51 38L52 38L52 37L51 37L51 34L50 34L50 30L48 30L48 29ZM13 30L13 31L14 31L14 32L15 32L15 31L16 31L16 30ZM22 31L22 33L23 33L23 31ZM48 31L48 32L49 32L49 31ZM6 32L6 33L7 33L7 34L8 34L8 36L9 36L9 34L10 34L10 33L7 33L7 32ZM27 32L27 33L28 33L28 32ZM1 33L1 34L2 34L2 33ZM30 33L30 34L31 34L31 33ZM35 34L35 35L36 35L36 34ZM45 36L45 37L46 37L46 36ZM9 37L9 38L8 38L8 40L9 40L9 39L10 39L10 40L11 40L11 39L10 39L10 37ZM13 40L13 41L12 41L12 42L10 42L10 43L13 43L13 41L14 41L14 40ZM23 40L23 41L24 41L24 40ZM34 40L34 41L35 41L35 43L36 43L36 44L38 44L38 43L37 43L37 41L36 41L36 40ZM43 40L43 41L44 41L44 40ZM49 40L49 41L50 41L50 42L51 42L51 40ZM4 41L4 42L5 42L5 41ZM27 41L27 42L28 42L28 41ZM21 43L21 44L22 44L22 43ZM6 44L6 45L8 45L8 46L9 46L9 45L8 45L8 44ZM23 44L23 45L22 45L22 46L23 46L23 47L24 47L24 46L23 46L23 45L24 45L24 44ZM29 44L29 45L30 45L30 44ZM25 45L25 48L28 48L28 45ZM32 45L32 46L33 46L33 45ZM36 45L36 46L37 46L37 47L36 47L36 48L37 48L37 47L38 47L38 46L37 46L37 45ZM45 45L45 48L48 48L48 45ZM16 46L16 47L17 47L17 48L18 48L18 47L17 47L17 46ZM26 46L26 47L27 47L27 46ZM42 46L42 47L43 47L43 48L41 48L41 49L40 49L40 51L41 51L41 52L42 52L42 51L45 51L45 49L44 49L44 46ZM46 46L46 47L47 47L47 46ZM10 47L10 49L11 49L11 47ZM30 48L30 49L29 49L29 50L30 50L30 51L31 51L31 52L32 52L32 51L31 51L31 50L30 50L30 49L31 49L31 48ZM41 49L41 50L43 50L43 49ZM46 49L46 50L47 50L47 52L49 52L49 51L48 51L48 50L49 50L49 49L48 49L48 50L47 50L47 49ZM20 50L20 51L21 51L21 50ZM36 50L36 53L38 53L38 52L37 52L37 50ZM8 51L8 53L9 53L9 51ZM52 51L52 52L53 52L53 51ZM0 0L0 7L7 7L7 0ZM1 1L1 6L6 6L6 1ZM2 2L2 5L5 5L5 2ZM46 0L46 7L53 7L53 0ZM47 1L47 6L52 6L52 1ZM48 2L48 5L51 5L51 2ZM0 46L0 53L7 53L7 46ZM1 47L1 52L6 52L6 47ZM2 48L2 51L5 51L5 48Z" fill="#000000"/></g></g></svg>
