<?xml version="1.0" encoding="UTF-8"?>
<svg xmlns="http://www.w3.org/2000/svg" version="1.1" width="420" height="420" viewBox="0 0 420 420"><rect x="0" y="0" width="420" height="420" fill="#ffffff"/><g transform="scale(7.925)"><g transform="translate(0,0)"><path fill-rule="evenodd" d="M8 0L8 4L10 4L10 5L8 5L8 7L9 7L9 8L10 8L10 10L8 10L8 9L7 9L7 8L4 8L4 9L3 9L3 11L5 11L5 12L6 12L6 13L7 13L7 12L6 12L6 11L7 11L7 10L8 10L8 11L10 11L10 10L12 10L12 12L13 12L13 13L12 13L12 14L13 14L13 15L14 15L14 16L17 16L17 15L20 15L20 14L21 14L21 13L22 13L22 14L23 14L23 13L22 13L22 12L23 12L23 11L24 11L24 10L26 10L26 11L28 11L28 12L27 12L27 13L28 13L28 14L26 14L26 15L28 15L28 16L32 16L32 18L34 18L34 19L32 19L32 20L31 20L31 17L30 17L30 18L29 18L29 17L28 17L28 18L27 18L27 20L28 20L28 19L29 19L29 21L26 21L26 20L24 20L24 19L25 19L25 18L26 18L26 17L24 17L24 18L23 18L23 17L22 17L22 15L21 15L21 17L19 17L19 16L18 16L18 17L12 17L12 15L11 15L11 13L10 13L10 12L8 12L8 15L7 15L7 14L5 14L5 15L7 15L7 16L5 16L5 17L4 17L4 18L5 18L5 19L2 19L2 18L3 18L3 17L2 17L2 15L1 15L1 13L0 13L0 15L1 15L1 17L0 17L0 18L1 18L1 19L0 19L0 20L1 20L1 19L2 19L2 20L3 20L3 21L2 21L2 22L1 22L1 21L0 21L0 22L1 22L1 23L0 23L0 25L2 25L2 23L3 23L3 24L4 24L4 25L3 25L3 26L0 26L0 28L1 28L1 27L3 27L3 28L2 28L2 30L3 30L3 31L2 31L2 32L1 32L1 30L0 30L0 34L2 34L2 35L3 35L3 33L4 33L4 34L5 34L5 35L7 35L7 34L6 34L6 33L9 33L9 34L8 34L8 35L9 35L9 36L10 36L10 35L9 35L9 34L10 34L10 33L11 33L11 34L12 34L12 33L13 33L13 34L15 34L15 36L14 36L14 35L13 35L13 36L11 36L11 37L10 37L10 38L9 38L9 39L11 39L11 38L12 38L12 37L15 37L15 38L16 38L16 39L15 39L15 40L14 40L14 39L13 39L13 40L12 40L12 41L14 41L14 42L13 42L13 44L11 44L11 46L10 46L10 47L8 47L8 49L9 49L9 48L11 48L11 49L10 49L10 52L9 52L9 51L8 51L8 53L10 53L10 52L12 52L12 53L16 53L16 52L17 52L17 53L20 53L20 51L19 51L19 52L18 52L18 49L20 49L20 50L21 50L21 52L22 52L22 50L24 50L24 49L25 49L25 51L27 51L27 52L28 52L28 51L29 51L29 48L30 48L30 47L31 47L31 44L32 44L32 46L33 46L33 47L32 47L32 48L31 48L31 49L30 49L30 51L31 51L31 50L32 50L32 49L34 49L34 48L35 48L35 49L37 49L37 48L38 48L38 47L39 47L39 49L38 49L38 50L37 50L37 51L36 51L36 50L35 50L35 51L36 51L36 52L35 52L35 53L38 53L38 51L40 51L40 52L39 52L39 53L40 53L40 52L42 52L42 53L43 53L43 52L44 52L44 53L45 53L45 52L44 52L44 50L43 50L43 49L42 49L42 47L43 47L43 45L44 45L44 49L45 49L45 51L46 51L46 53L47 53L47 52L48 52L48 53L52 53L52 52L53 52L53 51L51 51L51 52L50 52L50 51L48 51L48 49L49 49L49 50L52 50L52 48L53 48L53 44L52 44L52 43L53 43L53 41L50 41L50 39L51 39L51 40L52 40L52 39L53 39L53 36L52 36L52 38L51 38L51 37L50 37L50 35L53 35L53 29L52 29L52 30L51 30L51 29L50 29L50 30L49 30L49 28L50 28L50 27L51 27L51 28L52 28L52 27L53 27L53 26L52 26L52 27L51 27L51 26L49 26L49 24L50 24L50 23L49 23L49 24L48 24L48 22L47 22L47 23L46 23L46 22L45 22L45 21L44 21L44 20L42 20L42 21L41 21L41 22L40 22L40 19L43 19L43 17L44 17L44 18L46 18L46 16L45 16L45 15L46 15L46 14L45 14L45 13L46 13L46 12L47 12L47 11L46 11L46 9L44 9L44 8L43 8L43 3L44 3L44 4L45 4L45 3L44 3L44 1L43 1L43 0L41 0L41 1L39 1L39 0L38 0L38 1L36 1L36 2L34 2L34 4L32 4L32 3L33 3L33 1L34 1L34 0L32 0L32 3L31 3L31 4L27 4L27 3L26 3L26 4L25 4L25 1L26 1L26 2L27 2L27 1L29 1L29 0L22 0L22 1L24 1L24 3L23 3L23 2L21 2L21 3L20 3L20 1L21 1L21 0L19 0L19 1L18 1L18 2L17 2L17 0L10 0L10 1L12 1L12 2L11 2L11 3L12 3L12 2L14 2L14 3L15 3L15 4L16 4L16 3L15 3L15 1L16 1L16 2L17 2L17 4L18 4L18 3L20 3L20 4L19 4L19 5L20 5L20 7L19 7L19 6L18 6L18 5L16 5L16 7L15 7L15 5L13 5L13 4L10 4L10 3L9 3L9 0ZM30 0L30 1L31 1L31 0ZM38 1L38 2L37 2L37 3L35 3L35 4L34 4L34 5L30 5L30 6L29 6L29 7L30 7L30 8L29 8L29 13L30 13L30 12L31 12L31 13L32 13L32 14L31 14L31 15L35 15L35 17L34 17L34 18L36 18L36 19L35 19L35 20L34 20L34 22L33 22L33 23L34 23L34 22L35 22L35 23L36 23L36 22L38 22L38 23L37 23L37 24L38 24L38 25L39 25L39 24L40 24L40 25L42 25L42 24L43 24L43 23L44 23L44 24L45 24L45 23L44 23L44 21L43 21L43 23L42 23L42 24L41 24L41 23L40 23L40 22L38 22L38 21L39 21L39 20L38 20L38 18L37 18L37 17L41 17L41 18L42 18L42 16L44 16L44 17L45 17L45 16L44 16L44 15L45 15L45 14L44 14L44 13L45 13L45 10L44 10L44 9L43 9L43 8L42 8L42 5L40 5L40 4L39 4L39 5L38 5L38 6L37 6L37 9L36 9L36 8L35 8L35 7L36 7L36 6L35 6L35 7L34 7L34 5L35 5L35 4L36 4L36 5L37 5L37 4L38 4L38 2L39 2L39 3L41 3L41 4L42 4L42 3L43 3L43 2L42 2L42 3L41 3L41 2L39 2L39 1ZM28 2L28 3L30 3L30 2ZM21 3L21 4L22 4L22 5L23 5L23 7L22 7L22 6L21 6L21 7L20 7L20 8L19 8L19 9L18 9L18 8L17 8L17 7L18 7L18 6L17 6L17 7L16 7L16 9L15 9L15 10L14 10L14 9L12 9L12 8L13 8L13 7L14 7L14 8L15 8L15 7L14 7L14 6L13 6L13 5L11 5L11 7L10 7L10 6L9 6L9 7L10 7L10 8L11 8L11 9L12 9L12 10L13 10L13 11L14 11L14 12L15 12L15 11L16 11L16 10L17 10L17 11L18 11L18 12L17 12L17 13L13 13L13 14L16 14L16 15L17 15L17 14L19 14L19 13L21 13L21 11L22 11L22 9L24 9L24 8L23 8L23 7L24 7L24 4L22 4L22 3ZM25 5L25 8L28 8L28 5ZM12 6L12 7L13 7L13 6ZM26 6L26 7L27 7L27 6ZM30 6L30 7L31 7L31 6ZM32 6L32 9L30 9L30 11L32 11L32 10L33 10L33 12L32 12L32 13L33 13L33 14L34 14L34 13L33 13L33 12L34 12L34 11L35 11L35 14L36 14L36 13L38 13L38 14L37 14L37 15L36 15L36 17L37 17L37 16L38 16L38 15L39 15L39 16L40 16L40 15L39 15L39 13L38 13L38 12L36 12L36 11L39 11L39 12L40 12L40 11L41 11L41 13L40 13L40 14L42 14L42 15L44 15L44 14L43 14L43 13L44 13L44 12L42 12L42 11L44 11L44 10L43 10L43 9L41 9L41 10L39 10L39 9L40 9L40 8L41 8L41 6L40 6L40 7L39 7L39 6L38 6L38 7L39 7L39 8L38 8L38 10L34 10L34 7L33 7L33 6ZM44 6L44 7L45 7L45 6ZM0 8L0 10L1 10L1 9L2 9L2 8ZM21 8L21 9L19 9L19 10L18 10L18 9L17 9L17 10L18 10L18 11L21 11L21 9L22 9L22 8ZM47 8L47 10L48 10L48 13L49 13L49 14L47 14L47 19L48 19L48 21L50 21L50 22L52 22L52 23L51 23L51 24L52 24L52 23L53 23L53 22L52 22L52 21L53 21L53 17L52 17L52 19L51 19L51 17L49 17L49 16L50 16L50 15L51 15L51 16L52 16L52 15L53 15L53 13L52 13L52 12L53 12L53 8L49 8L49 9L50 9L50 10L48 10L48 8ZM4 9L4 10L5 10L5 11L6 11L6 10L7 10L7 9L6 9L6 10L5 10L5 9ZM51 9L51 10L50 10L50 13L51 13L51 15L52 15L52 13L51 13L51 12L52 12L52 9ZM1 11L1 12L2 12L2 11ZM3 12L3 16L4 16L4 12ZM18 12L18 13L19 13L19 12ZM9 13L9 14L10 14L10 13ZM24 13L24 15L25 15L25 13ZM8 15L8 16L7 16L7 17L6 17L6 18L7 18L7 17L8 17L8 20L7 20L7 19L6 19L6 20L4 20L4 21L3 21L3 23L4 23L4 22L5 22L5 21L6 21L6 22L7 22L7 23L6 23L6 24L8 24L8 23L9 23L9 24L10 24L10 25L9 25L9 28L10 28L10 29L8 29L8 30L7 30L7 29L5 29L5 31L6 31L6 32L9 32L9 33L10 33L10 32L11 32L11 33L12 33L12 30L15 30L15 32L14 32L14 31L13 31L13 33L15 33L15 32L17 32L17 33L16 33L16 35L18 35L18 34L19 34L19 37L16 37L16 36L15 36L15 37L16 37L16 38L19 38L19 37L21 37L21 38L20 38L20 39L18 39L18 40L17 40L17 39L16 39L16 40L15 40L15 42L14 42L14 43L15 43L15 42L16 42L16 43L18 43L18 44L17 44L17 45L16 45L16 44L15 44L15 45L14 45L14 44L13 44L13 45L12 45L12 46L11 46L11 48L12 48L12 49L11 49L11 51L13 51L13 52L16 52L16 50L17 50L17 49L18 49L18 47L19 47L19 48L20 48L20 49L21 49L21 50L22 50L22 49L24 49L24 48L22 48L22 46L21 46L21 47L20 47L20 46L19 46L19 45L24 45L24 44L27 44L27 42L28 42L28 43L29 43L29 45L30 45L30 44L31 44L31 43L30 43L30 40L32 40L32 39L33 39L33 41L34 41L34 42L35 42L35 44L36 44L36 42L37 42L37 43L38 43L38 44L37 44L37 45L36 45L36 46L35 46L35 45L34 45L34 44L33 44L33 43L32 43L32 44L33 44L33 45L34 45L34 46L35 46L35 47L37 47L37 46L38 46L38 44L39 44L39 43L40 43L40 45L39 45L39 47L40 47L40 51L41 51L41 47L40 47L40 46L42 46L42 45L43 45L43 44L42 44L42 42L40 42L40 41L41 41L41 40L43 40L43 39L41 39L41 38L39 38L39 39L38 39L38 36L39 36L39 35L40 35L40 37L41 37L41 36L42 36L42 37L43 37L43 38L44 38L44 39L45 39L45 40L46 40L46 41L45 41L45 42L44 42L44 41L43 41L43 43L46 43L46 44L47 44L47 43L49 43L49 44L50 44L50 45L49 45L49 46L50 46L50 47L49 47L49 48L50 48L50 49L51 49L51 48L52 48L52 47L51 47L51 46L52 46L52 45L51 45L51 43L52 43L52 42L50 42L50 41L49 41L49 42L47 42L47 43L46 43L46 41L48 41L48 40L47 40L47 39L46 39L46 38L48 38L48 37L49 37L49 35L50 35L50 34L48 34L48 33L51 33L51 34L52 34L52 33L51 33L51 30L50 30L50 32L49 32L49 31L48 31L48 32L47 32L47 31L46 31L46 30L47 30L47 29L44 29L44 25L43 25L43 26L42 26L42 27L43 27L43 31L42 31L42 32L41 32L41 30L40 30L40 31L39 31L39 30L38 30L38 29L39 29L39 28L38 28L38 26L36 26L36 24L35 24L35 25L33 25L33 26L32 26L32 27L30 27L30 25L32 25L32 23L30 23L30 22L29 22L29 23L30 23L30 24L29 24L29 29L25 29L25 30L24 30L24 31L23 31L23 30L22 30L22 29L24 29L24 28L22 28L22 27L23 27L23 26L24 26L24 25L23 25L23 24L28 24L28 23L24 23L24 22L25 22L25 21L24 21L24 20L22 20L22 19L23 19L23 18L22 18L22 17L21 17L21 18L22 18L22 19L20 19L20 18L19 18L19 17L18 17L18 19L19 19L19 21L21 21L21 24L20 24L20 22L18 22L18 21L16 21L16 20L17 20L17 18L16 18L16 19L15 19L15 18L13 18L13 19L12 19L12 20L9 20L9 19L10 19L10 18L9 18L9 17L8 17L8 16L9 16L9 15ZM10 16L10 17L11 17L11 18L12 18L12 17L11 17L11 16ZM48 17L48 19L49 19L49 17ZM13 19L13 20L12 20L12 21L15 21L15 19ZM50 19L50 21L51 21L51 19ZM6 20L6 21L7 21L7 22L8 22L8 21L9 21L9 22L11 22L11 23L10 23L10 24L11 24L11 25L10 25L10 28L11 28L11 25L12 25L12 29L10 29L10 31L9 31L9 30L8 30L8 31L9 31L9 32L10 32L10 31L11 31L11 30L12 30L12 29L15 29L15 30L16 30L16 31L20 31L20 30L21 30L21 31L22 31L22 32L21 32L21 33L19 33L19 32L18 32L18 33L17 33L17 34L18 34L18 33L19 33L19 34L20 34L20 35L21 35L21 34L22 34L22 36L24 36L24 37L22 37L22 39L21 39L21 41L20 41L20 40L18 40L18 41L17 41L17 40L16 40L16 41L17 41L17 42L18 42L18 41L19 41L19 44L18 44L18 45L19 45L19 44L20 44L20 42L21 42L21 44L22 44L22 43L25 43L25 42L26 42L26 41L27 41L27 40L28 40L28 41L29 41L29 40L30 40L30 39L31 39L31 38L32 38L32 37L33 37L33 39L34 39L34 40L35 40L35 42L36 42L36 41L38 41L38 42L39 42L39 41L40 41L40 39L39 39L39 41L38 41L38 40L37 40L37 39L36 39L36 40L35 40L35 38L34 38L34 37L36 37L36 38L37 38L37 36L38 36L38 35L39 35L39 34L40 34L40 35L41 35L41 34L42 34L42 36L43 36L43 37L45 37L45 38L46 38L46 36L47 36L47 35L48 35L48 34L47 34L47 33L46 33L46 36L45 36L45 35L44 35L44 34L45 34L45 33L44 33L44 32L45 32L45 31L43 31L43 33L41 33L41 34L40 34L40 32L39 32L39 31L36 31L36 30L37 30L37 29L38 29L38 28L36 28L36 26L35 26L35 27L34 27L34 26L33 26L33 27L32 27L32 28L30 28L30 29L29 29L29 30L30 30L30 31L28 31L28 30L27 30L27 31L26 31L26 32L24 32L24 33L22 33L22 32L23 32L23 31L22 31L22 30L21 30L21 29L22 29L22 28L21 28L21 25L22 25L22 26L23 26L23 25L22 25L22 24L21 24L21 25L20 25L20 24L18 24L18 22L16 22L16 24L18 24L18 25L17 25L17 26L16 26L16 27L17 27L17 26L18 26L18 25L19 25L19 26L20 26L20 28L21 28L21 29L19 29L19 28L16 28L16 29L15 29L15 24L14 24L14 23L13 23L13 24L11 24L11 23L12 23L12 22L11 22L11 21L9 21L9 20L8 20L8 21L7 21L7 20ZM21 20L21 21L22 21L22 23L23 23L23 22L24 22L24 21L22 21L22 20ZM35 20L35 22L36 22L36 21L38 21L38 20ZM5 25L5 28L8 28L8 25ZM13 25L13 28L14 28L14 25ZM25 25L25 28L28 28L28 25ZM45 25L45 28L48 28L48 25ZM6 26L6 27L7 27L7 26ZM26 26L26 27L27 27L27 26ZM46 26L46 27L47 27L47 26ZM40 27L40 29L41 29L41 27ZM3 28L3 29L4 29L4 28ZM33 28L33 29L32 29L32 30L31 30L31 31L30 31L30 32L29 32L29 34L28 34L28 32L27 32L27 33L26 33L26 34L25 34L25 33L24 33L24 35L26 35L26 36L27 36L27 35L29 35L29 36L28 36L28 37L29 37L29 36L32 36L32 35L34 35L34 36L36 36L36 35L38 35L38 34L35 34L35 32L36 32L36 31L35 31L35 28ZM16 29L16 30L19 30L19 29ZM33 29L33 32L32 32L32 33L30 33L30 35L31 35L31 34L32 34L32 33L33 33L33 32L35 32L35 31L34 31L34 29ZM6 30L6 31L7 31L7 30ZM3 31L3 32L4 32L4 31ZM0 36L0 37L1 37L1 39L0 39L0 40L1 40L1 39L2 39L2 37L3 37L3 38L5 38L5 39L4 39L4 42L3 42L3 40L2 40L2 41L0 41L0 43L1 43L1 44L3 44L3 45L4 45L4 44L3 44L3 43L8 43L8 46L9 46L9 44L10 44L10 43L8 43L8 41L7 41L7 40L8 40L8 39L7 39L7 38L5 38L5 37L8 37L8 36L5 36L5 37L3 37L3 36L2 36L2 37L1 37L1 36ZM25 37L25 38L24 38L24 39L23 39L23 40L22 40L22 41L24 41L24 42L25 42L25 40L27 40L27 39L29 39L29 38L27 38L27 37ZM25 38L25 39L27 39L27 38ZM49 38L49 39L50 39L50 38ZM6 39L6 40L5 40L5 41L6 41L6 42L7 42L7 41L6 41L6 40L7 40L7 39ZM9 40L9 42L10 42L10 40ZM2 42L2 43L3 43L3 42ZM11 42L11 43L12 43L12 42ZM6 44L6 45L7 45L7 44ZM15 45L15 46L13 46L13 48L14 48L14 47L16 47L16 48L15 48L15 49L17 49L17 46L16 46L16 45ZM25 45L25 48L28 48L28 45ZM45 45L45 48L48 48L48 45ZM50 45L50 46L51 46L51 45ZM23 46L23 47L24 47L24 46ZM26 46L26 47L27 47L27 46ZM46 46L46 47L47 47L47 46ZM21 48L21 49L22 49L22 48ZM12 49L12 50L13 50L13 51L15 51L15 50L13 50L13 49ZM46 49L46 50L47 50L47 49ZM33 50L33 51L32 51L32 53L34 53L34 52L33 52L33 51L34 51L34 50ZM42 51L42 52L43 52L43 51ZM23 52L23 53L26 53L26 52ZM29 52L29 53L31 53L31 52ZM0 0L0 7L7 7L7 0ZM1 1L1 6L6 6L6 1ZM2 2L2 5L5 5L5 2ZM46 0L46 7L53 7L53 0ZM47 1L47 6L52 6L52 1ZM48 2L48 5L51 5L51 2ZM0 46L0 53L7 53L7 46ZM1 47L1 52L6 52L6 47ZM2 48L2 51L5 51L5 48Z" fill="#000000"/></g></g></svg>
