<?xml version="1.0" encoding="UTF-8"?>
<svg xmlns="http://www.w3.org/2000/svg" version="1.1" width="500" height="500" viewBox="0 0 500 500"><rect x="0" y="0" width="500" height="500" fill="#ffffff"/><g transform="scale(15.152)"><g transform="translate(0,0)"><path fill-rule="evenodd" d="M8 0L8 4L9 4L9 5L8 5L8 7L9 7L9 6L10 6L10 9L11 9L11 8L12 8L12 9L13 9L13 8L12 8L12 7L13 7L13 6L14 6L14 8L16 8L16 7L17 7L17 9L14 9L14 12L15 12L15 13L12 13L12 12L13 12L13 11L12 11L12 12L11 12L11 13L10 13L10 14L8 14L8 15L7 15L7 14L4 14L4 13L2 13L2 12L4 12L4 11L7 11L7 12L5 12L5 13L8 13L8 10L9 10L9 12L10 12L10 11L11 11L11 10L9 10L9 9L7 9L7 8L4 8L4 9L5 9L5 10L4 10L4 11L3 11L3 9L2 9L2 8L0 8L0 11L2 11L2 12L0 12L0 13L2 13L2 15L3 15L3 16L2 16L2 17L1 17L1 14L0 14L0 19L1 19L1 20L2 20L2 19L3 19L3 17L4 17L4 18L5 18L5 20L4 20L4 21L0 21L0 22L3 22L3 23L4 23L4 25L5 25L5 24L6 24L6 25L8 25L8 26L9 26L9 25L8 25L8 24L6 24L6 23L8 23L8 22L10 22L10 21L12 21L12 22L11 22L11 23L9 23L9 24L13 24L13 22L15 22L15 24L14 24L14 25L11 25L11 28L12 28L12 27L13 27L13 26L14 26L14 25L15 25L15 27L14 27L14 29L10 29L10 27L8 27L8 29L9 29L9 31L8 31L8 33L9 33L9 31L10 31L10 32L11 32L11 33L12 33L12 32L11 32L11 31L12 31L12 30L13 30L13 31L14 31L14 33L20 33L20 31L21 31L21 33L22 33L22 32L23 32L23 33L26 33L26 32L28 32L28 33L29 33L29 32L30 32L30 33L31 33L31 32L30 32L30 31L32 31L32 30L33 30L33 27L32 27L32 26L33 26L33 25L30 25L30 26L29 26L29 24L30 24L30 23L32 23L32 21L33 21L33 20L32 20L32 17L33 17L33 15L32 15L32 14L31 14L31 13L30 13L30 12L29 12L29 10L31 10L31 11L32 11L32 10L31 10L31 9L33 9L33 8L29 8L29 10L28 10L28 8L27 8L27 10L28 10L28 12L25 12L25 13L24 13L24 12L23 12L23 16L24 16L24 17L22 17L22 11L24 11L24 10L25 10L25 8L24 8L24 7L25 7L25 3L23 3L23 2L21 2L21 1L20 1L20 0L19 0L19 2L21 2L21 3L22 3L22 5L21 5L21 4L20 4L20 5L19 5L19 3L18 3L18 2L15 2L15 3L13 3L13 2L14 2L14 0L13 0L13 1L11 1L11 2L12 2L12 5L13 5L13 6L12 6L12 7L11 7L11 3L10 3L10 2L9 2L9 0ZM16 0L16 1L17 1L17 0ZM22 0L22 1L24 1L24 2L25 2L25 0ZM17 3L17 4L16 4L16 5L15 5L15 7L16 7L16 6L17 6L17 7L18 7L18 5L17 5L17 4L18 4L18 3ZM13 4L13 5L14 5L14 4ZM22 5L22 6L21 6L21 7L22 7L22 6L23 6L23 7L24 7L24 5ZM19 6L19 8L18 8L18 9L19 9L19 11L20 11L20 13L19 13L19 12L18 12L18 13L17 13L17 11L15 11L15 12L16 12L16 13L17 13L17 14L16 14L16 16L15 16L15 17L14 17L14 14L13 14L13 15L12 15L12 16L10 16L10 15L8 15L8 16L7 16L7 15L4 15L4 17L6 17L6 18L7 18L7 19L6 19L6 20L5 20L5 21L4 21L4 22L7 22L7 21L10 21L10 20L12 20L12 19L13 19L13 21L14 21L14 20L16 20L16 21L15 21L15 22L16 22L16 24L15 24L15 25L16 25L16 27L17 27L17 26L18 26L18 27L20 27L20 28L19 28L19 29L16 29L16 28L15 28L15 29L14 29L14 31L15 31L15 32L16 32L16 31L15 31L15 29L16 29L16 30L18 30L18 31L20 31L20 30L19 30L19 29L20 29L20 28L21 28L21 23L20 23L20 22L22 22L22 21L24 21L24 22L25 22L25 23L24 23L24 24L23 24L23 23L22 23L22 29L21 29L21 31L22 31L22 29L23 29L23 31L24 31L24 32L26 32L26 31L28 31L28 32L29 32L29 31L28 31L28 30L30 30L30 29L32 29L32 27L31 27L31 26L30 26L30 29L27 29L27 30L24 30L24 24L25 24L25 23L26 23L26 24L28 24L28 23L29 23L29 22L31 22L31 21L32 21L32 20L31 20L31 18L29 18L29 17L31 17L31 15L29 15L29 14L30 14L30 13L28 13L28 14L27 14L27 13L25 13L25 16L26 16L26 14L27 14L27 17L26 17L26 18L25 18L25 17L24 17L24 19L25 19L25 20L23 20L23 19L22 19L22 21L21 21L21 20L20 20L20 19L21 19L21 18L22 18L22 17L18 17L18 18L17 18L17 19L18 19L18 20L20 20L20 21L19 21L19 22L18 22L18 21L17 21L17 20L16 20L16 19L15 19L15 18L16 18L16 17L17 17L17 14L18 14L18 13L19 13L19 16L21 16L21 15L20 15L20 14L21 14L21 11L22 11L22 9L24 9L24 8L22 8L22 9L21 9L21 8L20 8L20 6ZM19 8L19 9L20 9L20 8ZM1 9L1 10L2 10L2 9ZM6 9L6 10L7 10L7 9ZM32 12L32 13L33 13L33 12ZM11 13L11 14L12 14L12 13ZM6 16L6 17L7 17L7 16ZM9 16L9 17L8 17L8 19L7 19L7 20L6 20L6 21L7 21L7 20L8 20L8 19L9 19L9 17L10 17L10 16ZM12 16L12 17L13 17L13 16ZM28 16L28 17L27 17L27 20L25 20L25 21L27 21L27 22L28 22L28 21L30 21L30 19L28 19L28 17L29 17L29 16ZM1 18L1 19L2 19L2 18ZM10 18L10 19L11 19L11 18ZM13 18L13 19L14 19L14 18ZM17 22L17 24L16 24L16 25L19 25L19 26L20 26L20 23L19 23L19 24L18 24L18 22ZM0 24L0 25L3 25L3 24ZM25 25L25 28L28 28L28 25ZM26 26L26 27L27 27L27 26ZM10 30L10 31L11 31L11 30ZM32 32L32 33L33 33L33 32ZM0 0L0 7L7 7L7 0ZM1 1L1 6L6 6L6 1ZM2 2L2 5L5 5L5 2ZM26 0L26 7L33 7L33 0ZM27 1L27 6L32 6L32 1ZM28 2L28 5L31 5L31 2ZM0 26L0 33L7 33L7 26ZM1 27L1 32L6 32L6 27ZM2 28L2 31L5 31L5 28Z" fill="#000000"/></g></g></svg>
