<?xml version="1.0" encoding="UTF-8"?>
<svg xmlns="http://www.w3.org/2000/svg" version="1.1" width="420" height="420" viewBox="0 0 420 420"><rect x="0" y="0" width="420" height="420" fill="#ffffff"/><g transform="scale(7.925)"><g transform="translate(0,0)"><path fill-rule="evenodd" d="M16 0L16 1L14 1L14 3L15 3L15 2L16 2L16 4L13 4L13 3L12 3L12 2L11 2L11 3L8 3L8 4L9 4L9 5L8 5L8 7L9 7L9 5L10 5L10 7L11 7L11 6L12 6L12 8L10 8L10 9L9 9L9 8L6 8L6 9L5 9L5 8L0 8L0 9L2 9L2 10L1 10L1 11L2 11L2 10L3 10L3 11L4 11L4 12L1 12L1 13L3 13L3 17L4 17L4 16L5 16L5 14L6 14L6 15L7 15L7 14L9 14L9 15L8 15L8 16L6 16L6 17L7 17L7 18L5 18L5 21L7 21L7 22L6 22L6 23L7 23L7 22L8 22L8 24L5 24L5 22L4 22L4 21L3 21L3 20L4 20L4 18L2 18L2 16L1 16L1 15L0 15L0 17L1 17L1 19L2 19L2 20L0 20L0 21L1 21L1 23L0 23L0 24L2 24L2 22L4 22L4 26L1 26L1 25L0 25L0 26L1 26L1 27L0 27L0 28L1 28L1 29L0 29L0 31L1 31L1 32L0 32L0 33L1 33L1 34L2 34L2 36L3 36L3 35L9 35L9 34L11 34L11 33L12 33L12 37L11 37L11 36L10 36L10 38L11 38L11 39L13 39L13 40L14 40L14 39L13 39L13 35L16 35L16 37L14 37L14 38L15 38L15 40L16 40L16 39L18 39L18 38L16 38L16 37L22 37L22 38L21 38L21 39L22 39L22 38L24 38L24 39L26 39L26 38L27 38L27 39L29 39L29 40L28 40L28 41L26 41L26 40L25 40L25 41L26 41L26 42L27 42L27 44L25 44L25 42L24 42L24 41L23 41L23 42L24 42L24 43L23 43L23 44L24 44L24 45L22 45L22 44L21 44L21 43L22 43L22 42L21 42L21 41L22 41L22 40L21 40L21 41L18 41L18 40L17 40L17 41L18 41L18 42L20 42L20 43L17 43L17 44L16 44L16 43L15 43L15 44L14 44L14 41L13 41L13 44L11 44L11 43L12 43L12 42L10 42L10 41L11 41L11 40L10 40L10 41L8 41L8 39L9 39L9 38L8 38L8 37L7 37L7 36L6 36L6 37L7 37L7 38L5 38L5 39L7 39L7 40L6 40L6 41L8 41L8 42L5 42L5 40L4 40L4 42L3 42L3 43L2 43L2 42L1 42L1 41L2 41L2 40L1 40L1 39L0 39L0 40L1 40L1 41L0 41L0 43L1 43L1 44L3 44L3 45L4 45L4 44L3 44L3 43L7 43L7 44L6 44L6 45L8 45L8 47L9 47L9 48L8 48L8 53L10 53L10 52L9 52L9 51L10 51L10 49L11 49L11 51L13 51L13 53L22 53L22 49L23 49L23 53L26 53L26 52L24 52L24 51L27 51L27 52L30 52L30 50L31 50L31 51L32 51L32 52L31 52L31 53L32 53L32 52L34 52L34 53L37 53L37 52L35 52L35 51L34 51L34 50L33 50L33 51L32 51L32 50L31 50L31 49L32 49L32 48L33 48L33 49L35 49L35 48L34 48L34 47L35 47L35 46L37 46L37 47L39 47L39 48L38 48L38 49L39 49L39 50L37 50L37 51L39 51L39 50L40 50L40 49L39 49L39 48L42 48L42 47L40 47L40 46L44 46L44 47L43 47L43 48L44 48L44 50L43 50L43 49L41 49L41 51L40 51L40 52L41 52L41 53L42 53L42 50L43 50L43 52L45 52L45 53L47 53L47 52L45 52L45 51L46 51L46 50L45 50L45 49L47 49L47 50L48 50L48 51L49 51L49 52L48 52L48 53L51 53L51 52L52 52L52 51L53 51L53 50L52 50L52 48L53 48L53 47L51 47L51 48L50 48L50 50L48 50L48 49L49 49L49 47L50 47L50 45L51 45L51 44L53 44L53 43L51 43L51 44L50 44L50 43L49 43L49 42L50 42L50 41L52 41L52 42L53 42L53 41L52 41L52 40L53 40L53 39L52 39L52 40L50 40L50 39L51 39L51 38L53 38L53 35L52 35L52 34L53 34L53 33L51 33L51 32L50 32L50 29L52 29L52 30L53 30L53 29L52 29L52 28L53 28L53 27L51 27L51 26L52 26L52 24L53 24L53 23L52 23L52 24L50 24L50 23L49 23L49 22L50 22L50 21L51 21L51 20L52 20L52 22L53 22L53 20L52 20L52 19L51 19L51 18L53 18L53 17L52 17L52 16L53 16L53 15L52 15L52 16L50 16L50 15L51 15L51 14L53 14L53 13L51 13L51 12L50 12L50 10L53 10L53 9L52 9L52 8L51 8L51 9L50 9L50 8L49 8L49 9L50 9L50 10L49 10L49 12L48 12L48 13L49 13L49 12L50 12L50 13L51 13L51 14L49 14L49 16L47 16L47 14L46 14L46 16L47 16L47 18L46 18L46 19L45 19L45 18L44 18L44 17L45 17L45 15L39 15L39 14L40 14L40 12L42 12L42 14L43 14L43 12L44 12L44 13L47 13L47 12L46 12L46 11L48 11L48 8L47 8L47 10L45 10L45 12L44 12L44 9L46 9L46 8L44 8L44 9L41 9L41 10L40 10L40 8L42 8L42 7L43 7L43 3L44 3L44 4L45 4L45 3L44 3L44 1L43 1L43 0L39 0L39 2L38 2L38 4L39 4L39 5L37 5L37 3L35 3L35 1L36 1L36 2L37 2L37 1L38 1L38 0L35 0L35 1L34 1L34 0L32 0L32 1L33 1L33 3L35 3L35 4L36 4L36 5L33 5L33 6L32 6L32 5L31 5L31 4L32 4L32 3L31 3L31 2L30 2L30 1L31 1L31 0L30 0L30 1L29 1L29 0L27 0L27 3L26 3L26 2L25 2L25 3L26 3L26 4L21 4L21 5L20 5L20 4L19 4L19 2L20 2L20 1L19 1L19 0ZM21 0L21 1L22 1L22 2L23 2L23 3L24 3L24 2L23 2L23 1L24 1L24 0L23 0L23 1L22 1L22 0ZM25 0L25 1L26 1L26 0ZM8 1L8 2L9 2L9 1ZM28 1L28 2L29 2L29 1ZM40 1L40 2L39 2L39 3L40 3L40 4L42 4L42 3L43 3L43 2L42 2L42 1ZM40 2L40 3L41 3L41 2ZM11 3L11 4L12 4L12 6L13 6L13 7L14 7L14 8L12 8L12 9L11 9L11 10L9 10L9 9L8 9L8 10L7 10L7 9L6 9L6 10L4 10L4 9L3 9L3 10L4 10L4 11L5 11L5 12L4 12L4 14L5 14L5 12L7 12L7 13L6 13L6 14L7 14L7 13L9 13L9 11L11 11L11 10L12 10L12 12L10 12L10 13L11 13L11 14L10 14L10 17L8 17L8 18L7 18L7 19L6 19L6 20L7 20L7 21L8 21L8 20L7 20L7 19L8 19L8 18L10 18L10 17L12 17L12 16L14 16L14 15L12 15L12 13L16 13L16 14L15 14L15 15L16 15L16 17L13 17L13 18L14 18L14 20L12 20L12 19L11 19L11 20L10 20L10 21L9 21L9 23L10 23L10 22L11 22L11 20L12 20L12 21L13 21L13 23L14 23L14 24L9 24L9 25L10 25L10 27L9 27L9 28L10 28L10 27L11 27L11 28L12 28L12 27L13 27L13 29L12 29L12 30L11 30L11 29L10 29L10 30L11 30L11 31L10 31L10 32L7 32L7 31L9 31L9 29L8 29L8 30L7 30L7 29L4 29L4 28L3 28L3 27L1 27L1 28L2 28L2 29L1 29L1 30L2 30L2 31L3 31L3 32L1 32L1 33L2 33L2 34L4 34L4 33L3 33L3 32L4 32L4 31L3 31L3 30L5 30L5 31L6 31L6 32L5 32L5 34L7 34L7 33L8 33L8 34L9 34L9 33L10 33L10 32L12 32L12 33L13 33L13 34L16 34L16 33L18 33L18 32L16 32L16 33L13 33L13 32L14 32L14 31L13 31L13 30L14 30L14 29L15 29L15 28L14 28L14 27L16 27L16 28L18 28L18 25L21 25L21 26L23 26L23 28L22 28L22 29L24 29L24 24L23 24L23 22L24 22L24 21L25 21L25 20L22 20L22 21L20 21L20 20L21 20L21 17L22 17L22 19L23 19L23 17L24 17L24 16L23 16L23 17L22 17L22 16L20 16L20 17L19 17L19 18L20 18L20 19L19 19L19 21L18 21L18 19L17 19L17 21L16 21L16 19L15 19L15 18L16 18L16 17L18 17L18 16L17 16L17 15L18 15L18 14L19 14L19 15L22 15L22 14L21 14L21 13L20 13L20 12L19 12L19 11L20 11L20 10L18 10L18 9L21 9L21 12L22 12L22 13L23 13L23 12L24 12L24 10L25 10L25 13L24 13L24 14L23 14L23 15L25 15L25 13L26 13L26 16L25 16L25 18L24 18L24 19L26 19L26 21L27 21L27 22L28 22L28 24L29 24L29 26L30 26L30 28L31 28L31 30L30 30L30 29L28 29L28 31L27 31L27 29L25 29L25 31L24 31L24 30L23 30L23 31L24 31L24 32L25 32L25 31L27 31L27 32L26 32L26 33L27 33L27 35L28 35L28 36L26 36L26 35L24 35L24 34L23 34L23 33L22 33L22 32L21 32L21 31L22 31L22 30L21 30L21 29L20 29L20 28L19 28L19 30L20 30L20 33L19 33L19 34L20 34L20 35L19 35L19 36L21 36L21 33L22 33L22 35L23 35L23 36L22 36L22 37L24 37L24 38L25 38L25 37L24 37L24 36L26 36L26 37L27 37L27 38L28 38L28 37L29 37L29 36L30 36L30 37L31 37L31 38L29 38L29 39L30 39L30 40L31 40L31 38L32 38L32 37L33 37L33 38L37 38L37 41L35 41L35 40L36 40L36 39L35 39L35 40L34 40L34 39L33 39L33 40L32 40L32 42L30 42L30 41L28 41L28 42L30 42L30 43L31 43L31 44L29 44L29 43L28 43L28 44L29 44L29 45L31 45L31 44L32 44L32 47L31 47L31 48L32 48L32 47L33 47L33 46L35 46L35 45L34 45L34 43L33 43L33 40L34 40L34 42L35 42L35 44L37 44L37 43L38 43L38 46L39 46L39 45L41 45L41 44L42 44L42 45L44 45L44 44L42 44L42 43L43 43L43 42L45 42L45 44L46 44L46 43L47 43L47 44L48 44L48 42L47 42L47 41L50 41L50 40L49 40L49 39L50 39L50 38L51 38L51 36L52 36L52 35L51 35L51 33L49 33L49 32L48 32L48 31L49 31L49 30L47 30L47 29L46 29L46 30L45 30L45 29L44 29L44 27L43 27L43 26L44 26L44 24L45 24L45 22L47 22L47 23L46 23L46 24L48 24L48 22L49 22L49 21L50 21L50 20L51 20L51 19L50 19L50 20L49 20L49 19L48 19L48 18L49 18L49 17L48 17L48 18L47 18L47 19L46 19L46 21L44 21L44 20L45 20L45 19L44 19L44 18L40 18L40 20L37 20L37 19L38 19L38 18L39 18L39 17L38 17L38 16L39 16L39 15L38 15L38 14L39 14L39 11L40 11L40 10L39 10L39 9L38 9L38 10L39 10L39 11L38 11L38 12L37 12L37 11L36 11L36 8L37 8L37 7L38 7L38 8L39 8L39 7L40 7L40 6L41 6L41 7L42 7L42 5L40 5L40 6L39 6L39 7L38 7L38 6L37 6L37 7L36 7L36 6L35 6L35 7L36 7L36 8L35 8L35 9L34 9L34 10L33 10L33 11L32 11L32 9L33 9L33 8L34 8L34 6L33 6L33 8L32 8L32 6L31 6L31 5L29 5L29 9L28 9L28 10L25 10L25 9L24 9L24 8L23 8L23 7L24 7L24 5L22 5L22 6L21 6L21 7L20 7L20 5L19 5L19 4L16 4L16 5L18 5L18 6L17 6L17 7L16 7L16 6L15 6L15 5L13 5L13 4L12 4L12 3ZM28 3L28 4L30 4L30 3ZM25 5L25 8L28 8L28 5ZM14 6L14 7L15 7L15 8L16 8L16 7L15 7L15 6ZM18 6L18 7L19 7L19 6ZM22 6L22 7L23 7L23 6ZM26 6L26 7L27 7L27 6ZM30 6L30 8L31 8L31 6ZM44 6L44 7L45 7L45 6ZM17 8L17 9L18 9L18 8ZM21 8L21 9L22 9L22 8ZM12 9L12 10L14 10L14 9ZM15 9L15 10L16 10L16 9ZM30 9L30 10L29 10L29 13L28 13L28 12L26 12L26 13L27 13L27 17L28 17L28 18L26 18L26 19L28 19L28 20L29 20L29 21L28 21L28 22L30 22L30 24L31 24L31 19L30 19L30 18L31 18L31 16L34 16L34 15L35 15L35 14L36 14L36 15L37 15L37 12L36 12L36 11L35 11L35 10L34 10L34 13L35 13L35 14L33 14L33 13L32 13L32 12L31 12L31 11L30 11L30 10L31 10L31 9ZM6 10L6 11L7 11L7 10ZM8 10L8 11L9 11L9 10ZM17 10L17 11L18 11L18 10ZM41 10L41 11L42 11L42 12L43 12L43 10ZM13 11L13 12L14 12L14 11ZM15 11L15 12L16 12L16 13L19 13L19 12L16 12L16 11ZM30 12L30 13L31 13L31 15L33 15L33 14L32 14L32 13L31 13L31 12ZM28 14L28 16L29 16L29 18L28 18L28 19L29 19L29 20L30 20L30 19L29 19L29 18L30 18L30 15L29 15L29 14ZM36 16L36 17L35 17L35 18L36 18L36 19L37 19L37 18L38 18L38 17L37 17L37 16ZM40 16L40 17L42 17L42 16ZM32 17L32 18L33 18L33 19L32 19L32 20L33 20L33 21L32 21L32 24L34 24L34 23L35 23L35 26L34 26L34 25L33 25L33 27L32 27L32 25L30 25L30 26L31 26L31 28L33 28L33 29L32 29L32 30L33 30L33 29L34 29L34 27L35 27L35 26L36 26L36 27L39 27L39 28L38 28L38 29L37 29L37 28L35 28L35 30L37 30L37 31L36 31L36 32L34 32L34 31L32 31L32 32L31 32L31 31L30 31L30 30L29 30L29 32L30 32L30 34L31 34L31 35L30 35L30 36L31 36L31 35L32 35L32 36L33 36L33 37L34 37L34 36L33 36L33 35L35 35L35 34L37 34L37 36L35 36L35 37L37 37L37 38L38 38L38 39L39 39L39 40L41 40L41 42L43 42L43 40L44 40L44 41L47 41L47 39L46 39L46 40L45 40L45 39L39 39L39 38L40 38L40 36L41 36L41 38L44 38L44 37L43 37L43 36L44 36L44 35L41 35L41 34L44 34L44 33L45 33L45 34L46 34L46 33L47 33L47 31L46 31L46 32L45 32L45 31L43 31L43 32L42 32L42 31L40 31L40 29L39 29L39 28L40 28L40 26L43 26L43 23L44 23L44 21L41 21L41 22L38 22L38 23L37 23L37 22L36 22L36 21L37 21L37 20L35 20L35 19L34 19L34 18L33 18L33 17ZM36 17L36 18L37 18L37 17ZM33 19L33 20L34 20L34 19ZM42 19L42 20L44 20L44 19ZM47 19L47 20L48 20L48 21L49 21L49 20L48 20L48 19ZM14 21L14 22L15 22L15 24L16 24L16 23L18 23L18 22L16 22L16 21ZM22 21L22 22L20 22L20 23L22 23L22 22L23 22L23 21ZM34 21L34 22L35 22L35 23L36 23L36 22L35 22L35 21ZM25 22L25 23L26 23L26 24L27 24L27 23L26 23L26 22ZM41 23L41 24L40 24L40 25L38 25L38 26L40 26L40 25L41 25L41 24L42 24L42 23ZM17 24L17 25L18 25L18 24ZM21 24L21 25L22 25L22 24ZM5 25L5 28L8 28L8 25ZM12 25L12 26L11 26L11 27L12 27L12 26L14 26L14 25ZM15 25L15 26L16 26L16 25ZM25 25L25 28L28 28L28 25ZM36 25L36 26L37 26L37 25ZM45 25L45 28L48 28L48 25ZM6 26L6 27L7 27L7 26ZM19 26L19 27L20 27L20 26ZM26 26L26 27L27 27L27 26ZM46 26L46 27L47 27L47 26ZM49 26L49 29L50 29L50 28L51 28L51 27L50 27L50 26ZM42 27L42 28L43 28L43 27ZM2 29L2 30L3 30L3 29ZM16 29L16 30L17 30L17 31L18 31L18 30L17 30L17 29ZM38 29L38 34L39 34L39 35L38 35L38 36L37 36L37 37L38 37L38 38L39 38L39 37L38 37L38 36L39 36L39 35L40 35L40 34L41 34L41 32L40 32L40 31L39 31L39 29ZM41 29L41 30L43 30L43 29ZM6 30L6 31L7 31L7 30ZM12 31L12 32L13 32L13 31ZM6 32L6 33L7 33L7 32ZM27 32L27 33L28 33L28 32ZM32 32L32 33L31 33L31 34L32 34L32 35L33 35L33 32ZM43 32L43 33L44 33L44 32ZM34 33L34 34L35 34L35 33ZM39 33L39 34L40 34L40 33ZM48 33L48 34L47 34L47 35L46 35L46 36L49 36L49 37L48 37L48 38L49 38L49 37L50 37L50 35L49 35L49 33ZM28 34L28 35L29 35L29 34ZM17 35L17 36L18 36L18 35ZM4 36L4 37L0 37L0 38L2 38L2 39L4 39L4 37L5 37L5 36ZM19 38L19 39L20 39L20 38ZM15 41L15 42L16 42L16 41ZM36 42L36 43L37 43L37 42ZM38 42L38 43L39 43L39 44L41 44L41 43L40 43L40 42ZM9 43L9 47L10 47L10 43ZM32 43L32 44L33 44L33 43ZM13 44L13 49L14 49L14 47L15 47L15 48L16 48L16 49L15 49L15 50L13 50L13 51L14 51L14 52L16 52L16 51L15 51L15 50L16 50L16 49L18 49L18 48L17 48L17 47L18 47L18 46L19 46L19 48L20 48L20 49L19 49L19 50L18 50L18 51L19 51L19 52L21 52L21 49L22 49L22 48L20 48L20 46L21 46L21 47L22 47L22 45L16 45L16 46L14 46L14 44ZM11 45L11 49L12 49L12 45ZM25 45L25 48L28 48L28 45ZM45 45L45 48L48 48L48 45ZM26 46L26 47L27 47L27 46ZM29 46L29 49L26 49L26 50L28 50L28 51L29 51L29 50L30 50L30 46ZM46 46L46 47L47 47L47 46ZM23 47L23 49L24 49L24 50L25 50L25 49L24 49L24 47ZM9 48L9 49L10 49L10 48ZM36 48L36 49L37 49L37 48ZM19 50L19 51L20 51L20 50ZM44 50L44 51L45 51L45 50ZM50 50L50 52L51 52L51 51L52 51L52 50ZM11 52L11 53L12 53L12 52ZM38 52L38 53L39 53L39 52ZM0 0L0 7L7 7L7 0ZM1 1L1 6L6 6L6 1ZM2 2L2 5L5 5L5 2ZM46 0L46 7L53 7L53 0ZM47 1L47 6L52 6L52 1ZM48 2L48 5L51 5L51 2ZM0 46L0 53L7 53L7 46ZM1 47L1 52L6 52L6 47ZM2 48L2 51L5 51L5 48Z" fill="#000000"/></g></g></svg>
