<?xml version="1.0" encoding="UTF-8"?>
<svg xmlns="http://www.w3.org/2000/svg" version="1.1" width="420" height="420" viewBox="0 0 420 420"><rect x="0" y="0" width="420" height="420" fill="#ffffff"/><g transform="scale(8.571)"><g transform="translate(0,0)"><path fill-rule="evenodd" d="M9 0L9 1L8 1L8 2L9 2L9 1L10 1L10 3L8 3L8 4L10 4L10 5L11 5L11 4L13 4L13 5L12 5L12 7L13 7L13 5L14 5L14 4L13 4L13 3L14 3L14 2L13 2L13 1L12 1L12 0ZM14 0L14 1L16 1L16 0ZM21 0L21 1L20 1L20 2L21 2L21 1L22 1L22 4L21 4L21 5L22 5L22 7L21 7L21 6L20 6L20 7L21 7L21 8L20 8L20 9L21 9L21 11L20 11L20 12L17 12L17 11L16 11L16 12L17 12L17 14L18 14L18 15L19 15L19 16L16 16L16 15L15 15L15 14L16 14L16 13L15 13L15 9L17 9L17 6L18 6L18 9L19 9L19 6L18 6L18 5L17 5L17 4L16 4L16 3L15 3L15 4L16 4L16 5L15 5L15 6L14 6L14 8L15 8L15 9L13 9L13 11L12 11L12 13L10 13L10 14L11 14L11 15L10 15L10 16L11 16L11 17L9 17L9 15L8 15L8 16L5 16L5 15L1 15L1 16L0 16L0 18L2 18L2 17L3 17L3 18L4 18L4 16L5 16L5 19L2 19L2 20L4 20L4 21L3 21L3 22L2 22L2 24L1 24L1 23L0 23L0 25L3 25L3 24L4 24L4 27L5 27L5 28L4 28L4 30L1 30L1 28L2 28L2 29L3 29L3 28L2 28L2 26L1 26L1 28L0 28L0 30L1 30L1 31L0 31L0 32L2 32L2 31L3 31L3 32L4 32L4 34L5 34L5 35L7 35L7 36L4 36L4 35L3 35L3 36L4 36L4 37L5 37L5 39L7 39L7 38L6 38L6 37L7 37L7 36L8 36L8 35L7 35L7 34L6 34L6 33L7 33L7 32L8 32L8 30L9 30L9 31L10 31L10 29L12 29L12 28L13 28L13 29L15 29L15 30L16 30L16 29L15 29L15 27L16 27L16 26L15 26L15 25L17 25L17 27L18 27L18 25L22 25L22 27L20 27L20 26L19 26L19 29L18 29L18 28L17 28L17 29L18 29L18 30L17 30L17 31L18 31L18 32L17 32L17 33L19 33L19 30L20 30L20 33L21 33L21 34L22 34L22 35L21 35L21 36L23 36L23 37L21 37L21 38L20 38L20 36L19 36L19 35L20 35L20 34L18 34L18 35L17 35L17 36L18 36L18 37L16 37L16 34L15 34L15 33L13 33L13 32L14 32L14 31L13 31L13 30L12 30L12 32L11 32L11 33L13 33L13 34L11 34L11 35L10 35L10 34L9 34L9 36L10 36L10 37L8 37L8 39L11 39L11 41L10 41L10 40L9 40L9 41L8 41L8 43L9 43L9 41L10 41L10 43L12 43L12 44L10 44L10 45L12 45L12 46L10 46L10 47L9 47L9 44L8 44L8 49L10 49L10 47L12 47L12 48L11 48L11 49L12 49L12 48L13 48L13 45L15 45L15 46L14 46L14 48L16 48L16 49L22 49L22 48L21 48L21 46L22 46L22 47L24 47L24 48L23 48L23 49L26 49L26 47L27 47L27 48L29 48L29 49L30 49L30 47L31 47L31 44L29 44L29 45L28 45L28 46L27 46L27 43L29 43L29 42L32 42L32 44L33 44L33 42L32 42L32 40L33 40L33 38L31 38L31 37L28 37L28 36L29 36L29 35L30 35L30 36L31 36L31 35L32 35L32 36L34 36L34 35L35 35L35 38L34 38L34 39L37 39L37 40L36 40L36 42L34 42L34 43L35 43L35 44L34 44L34 45L32 45L32 46L33 46L33 47L32 47L32 48L31 48L31 49L32 49L32 48L33 48L33 49L37 49L37 48L34 48L34 47L35 47L35 46L34 46L34 45L37 45L37 46L36 46L36 47L37 47L37 46L38 46L38 45L37 45L37 44L36 44L36 43L40 43L40 44L39 44L39 45L40 45L40 46L39 46L39 48L38 48L38 49L42 49L42 48L43 48L43 49L44 49L44 47L43 47L43 45L44 45L44 46L47 46L47 45L49 45L49 42L48 42L48 43L47 43L47 42L46 42L46 41L48 41L48 39L49 39L49 38L48 38L48 37L49 37L49 36L48 36L48 37L47 37L47 36L46 36L46 37L47 37L47 40L45 40L45 39L46 39L46 38L45 38L45 39L44 39L44 37L45 37L45 36L44 36L44 37L43 37L43 36L42 36L42 35L43 35L43 33L45 33L45 32L44 32L44 30L43 30L43 28L42 28L42 29L41 29L41 28L39 28L39 27L44 27L44 29L45 29L45 31L46 31L46 29L48 29L48 28L49 28L49 26L48 26L48 28L46 28L46 29L45 29L45 27L46 27L46 26L45 26L45 25L47 25L47 24L46 24L46 22L45 22L45 21L44 21L44 22L43 22L43 21L42 21L42 18L43 18L43 17L42 17L42 18L40 18L40 17L41 17L41 14L43 14L43 13L44 13L44 14L45 14L45 15L42 15L42 16L45 16L45 17L44 17L44 18L46 18L46 19L49 19L49 17L48 17L48 16L49 16L49 14L47 14L47 13L49 13L49 10L47 10L47 12L45 12L45 13L44 13L44 12L43 12L43 11L42 11L42 12L41 12L41 11L40 11L40 9L42 9L42 10L43 10L43 9L44 9L44 11L45 11L45 9L46 9L46 8L45 8L45 9L44 9L44 8L43 8L43 9L42 9L42 8L38 8L38 9L37 9L37 8L36 8L36 7L37 7L37 5L38 5L38 7L39 7L39 5L38 5L38 4L37 4L37 3L36 3L36 2L35 2L35 1L34 1L34 0L33 0L33 1L34 1L34 2L32 2L32 1L31 1L31 0L27 0L27 2L25 2L25 1L26 1L26 0L25 0L25 1L24 1L24 3L23 3L23 1L22 1L22 0ZM37 0L37 2L39 2L39 4L40 4L40 3L41 3L41 0L40 0L40 1L38 1L38 0ZM17 1L17 2L19 2L19 1ZM28 1L28 2L31 2L31 1ZM11 2L11 3L10 3L10 4L11 4L11 3L13 3L13 2ZM34 2L34 3L32 3L32 4L33 4L33 7L34 7L34 8L32 8L32 10L29 10L29 12L28 12L28 13L26 13L26 12L27 12L27 11L26 11L26 10L27 10L27 9L22 9L22 10L23 10L23 11L22 11L22 12L20 12L20 14L21 14L21 13L22 13L22 12L23 12L23 15L20 15L20 16L22 16L22 20L21 20L21 19L20 19L20 18L21 18L21 17L19 17L19 18L18 18L18 19L19 19L19 20L21 20L21 21L19 21L19 22L20 22L20 23L18 23L18 20L16 20L16 21L15 21L15 19L17 19L17 17L15 17L15 16L14 16L14 14L15 14L15 13L13 13L13 15L12 15L12 19L11 19L11 18L10 18L10 20L9 20L9 23L10 23L10 22L11 22L11 23L12 23L12 24L10 24L10 25L9 25L9 27L10 27L10 26L11 26L11 25L12 25L12 24L13 24L13 25L15 25L15 24L16 24L16 23L15 23L15 22L16 22L16 21L17 21L17 23L18 23L18 24L22 24L22 22L21 22L21 21L22 21L22 20L23 20L23 22L27 22L27 23L29 23L29 22L30 22L30 24L28 24L28 25L29 25L29 28L28 28L28 26L27 26L27 28L26 28L26 29L25 29L25 28L24 28L24 27L22 27L22 28L20 28L20 30L21 30L21 33L22 33L22 34L24 34L24 33L25 33L25 34L26 34L26 35L25 35L25 36L24 36L24 37L23 37L23 38L21 38L21 39L20 39L20 40L21 40L21 41L18 41L18 43L17 43L17 41L16 41L16 43L15 43L15 45L16 45L16 46L15 46L15 47L16 47L16 48L20 48L20 47L18 47L18 45L19 45L19 46L21 46L21 45L22 45L22 44L21 44L21 43L22 43L22 42L21 42L21 41L22 41L22 40L25 40L25 38L24 38L24 37L26 37L26 39L27 39L27 38L28 38L28 39L30 39L30 38L28 38L28 37L27 37L27 35L29 35L29 33L30 33L30 31L31 31L31 32L32 32L32 33L31 33L31 34L32 34L32 35L33 35L33 34L35 34L35 35L36 35L36 36L37 36L37 39L38 39L38 38L39 38L39 36L41 36L41 37L40 37L40 38L41 38L41 39L42 39L42 40L43 40L43 39L42 39L42 38L43 38L43 37L42 37L42 36L41 36L41 35L38 35L38 34L39 34L39 33L38 33L38 34L37 34L37 35L36 35L36 33L33 33L33 32L36 32L36 30L37 30L37 32L40 32L40 33L41 33L41 32L40 32L40 31L42 31L42 33L43 33L43 31L42 31L42 30L40 30L40 31L38 31L38 30L39 30L39 29L38 29L38 28L37 28L37 27L38 27L38 26L40 26L40 25L39 25L39 23L40 23L40 22L41 22L41 21L39 21L39 19L38 19L38 18L39 18L39 17L38 17L38 16L40 16L40 15L38 15L38 14L41 14L41 13L39 13L39 12L40 12L40 11L39 11L39 9L38 9L38 11L36 11L36 10L37 10L37 9L36 9L36 8L35 8L35 7L36 7L36 6L35 6L35 7L34 7L34 5L35 5L35 4L34 4L34 3L35 3L35 2ZM18 3L18 4L19 4L19 5L20 5L20 3ZM25 3L25 4L27 4L27 3ZM28 3L28 4L29 4L29 3ZM8 5L8 7L9 7L9 5ZM23 5L23 8L26 8L26 5ZM28 5L28 6L27 6L27 7L28 7L28 6L29 6L29 8L28 8L28 9L29 9L29 8L31 8L31 7L32 7L32 6L31 6L31 5L30 5L30 6L29 6L29 5ZM10 6L10 9L9 9L9 8L6 8L6 9L5 9L5 8L0 8L0 9L2 9L2 10L3 10L3 9L5 9L5 10L6 10L6 11L7 11L7 12L5 12L5 11L4 11L4 12L5 12L5 14L6 14L6 15L7 15L7 14L8 14L8 13L9 13L9 12L11 12L11 11L9 11L9 10L12 10L12 9L11 9L11 6ZM15 6L15 8L16 8L16 6ZM24 6L24 7L25 7L25 6ZM30 6L30 7L31 7L31 6ZM40 6L40 7L41 7L41 6ZM47 8L47 9L48 9L48 8ZM6 9L6 10L9 10L9 9ZM33 9L33 11L32 11L32 12L31 12L31 11L30 11L30 14L31 14L31 13L32 13L32 14L33 14L33 15L32 15L32 16L31 16L31 17L30 17L30 15L28 15L28 14L26 14L26 13L25 13L25 12L24 12L24 13L25 13L25 15L24 15L24 16L23 16L23 17L25 17L25 18L24 18L24 19L23 19L23 20L24 20L24 21L27 21L27 22L28 22L28 21L27 21L27 20L28 20L28 18L33 18L33 19L30 19L30 20L31 20L31 21L30 21L30 22L31 22L31 23L32 23L32 24L31 24L31 25L30 25L30 26L32 26L32 27L33 27L33 26L32 26L32 24L33 24L33 25L35 25L35 26L38 26L38 23L39 23L39 22L38 22L38 20L35 20L35 22L38 22L38 23L36 23L36 24L34 24L34 22L33 22L33 21L34 21L34 19L37 19L37 18L38 18L38 17L37 17L37 16L36 16L36 18L34 18L34 16L35 16L35 15L36 15L36 14L34 14L34 13L37 13L37 14L38 14L38 13L37 13L37 12L34 12L34 11L35 11L35 10L34 10L34 9ZM18 10L18 11L19 11L19 10ZM24 10L24 11L25 11L25 10ZM8 11L8 12L9 12L9 11ZM13 11L13 12L14 12L14 11ZM0 12L0 14L1 14L1 13L3 13L3 14L4 14L4 13L3 13L3 12ZM32 12L32 13L34 13L34 12ZM42 12L42 13L43 13L43 12ZM6 13L6 14L7 14L7 13ZM18 13L18 14L19 14L19 13ZM45 13L45 14L46 14L46 13ZM25 15L25 17L26 17L26 18L25 18L25 19L24 19L24 20L25 20L25 19L26 19L26 20L27 20L27 17L26 17L26 16L28 16L28 17L29 17L29 16L28 16L28 15ZM33 15L33 16L32 16L32 17L33 17L33 16L34 16L34 15ZM45 15L45 16L48 16L48 15ZM6 17L6 18L7 18L7 19L5 19L5 20L7 20L7 19L9 19L9 17ZM14 17L14 18L15 18L15 17ZM46 17L46 18L48 18L48 17ZM12 19L12 20L11 20L11 21L12 21L12 23L13 23L13 22L14 22L14 21L12 21L12 20L14 20L14 19ZM40 19L40 20L41 20L41 19ZM44 19L44 20L45 20L45 19ZM32 20L32 21L33 21L33 20ZM46 20L46 21L47 21L47 20ZM48 20L48 22L47 22L47 23L49 23L49 20ZM0 21L0 22L1 22L1 21ZM4 21L4 22L3 22L3 23L4 23L4 22L5 22L5 21ZM6 21L6 22L7 22L7 21ZM32 22L32 23L33 23L33 22ZM5 23L5 26L8 26L8 23ZM14 23L14 24L15 24L15 23ZM23 23L23 26L26 26L26 23ZM41 23L41 26L44 26L44 23ZM6 24L6 25L7 25L7 24ZM24 24L24 25L25 25L25 24ZM42 24L42 25L43 25L43 24ZM48 24L48 25L49 25L49 24ZM12 26L12 27L11 27L11 28L12 28L12 27L13 27L13 28L14 28L14 27L13 27L13 26ZM6 27L6 28L5 28L5 29L6 29L6 30L4 30L4 32L7 32L7 31L6 31L6 30L7 30L7 29L6 29L6 28L8 28L8 27ZM34 27L34 28L33 28L33 29L32 29L32 28L31 28L31 29L30 29L30 30L31 30L31 29L32 29L32 30L33 30L33 31L32 31L32 32L33 32L33 31L35 31L35 30L36 30L36 29L37 29L37 30L38 30L38 29L37 29L37 28L35 28L35 27ZM9 28L9 29L10 29L10 28ZM23 28L23 31L22 31L22 32L23 32L23 31L24 31L24 32L25 32L25 31L26 31L26 32L29 32L29 31L28 31L28 28L27 28L27 31L26 31L26 30L25 30L25 29L24 29L24 28ZM34 28L34 29L33 29L33 30L35 30L35 28ZM21 29L21 30L22 30L22 29ZM48 30L48 31L47 31L47 32L48 32L48 31L49 31L49 30ZM15 31L15 32L16 32L16 31ZM32 33L32 34L33 34L33 33ZM0 34L0 37L1 37L1 40L0 40L0 41L3 41L3 40L4 40L4 39L2 39L2 38L3 38L3 37L1 37L1 36L2 36L2 34ZM13 34L13 35L12 35L12 36L11 36L11 37L12 37L12 38L11 38L11 39L12 39L12 41L11 41L11 42L12 42L12 41L15 41L15 40L16 40L16 39L15 39L15 38L16 38L16 37L15 37L15 34ZM44 34L44 35L45 35L45 34ZM48 34L48 35L49 35L49 34ZM13 35L13 36L12 36L12 37L13 37L13 38L14 38L14 37L13 37L13 36L14 36L14 35ZM37 35L37 36L38 36L38 35ZM41 37L41 38L42 38L42 37ZM17 38L17 39L18 39L18 38ZM13 39L13 40L14 40L14 39ZM21 39L21 40L22 40L22 39ZM31 39L31 40L32 40L32 39ZM39 39L39 40L40 40L40 39ZM6 40L6 41L7 41L7 40ZM27 40L27 42L28 42L28 41L30 41L30 40ZM23 41L23 44L26 44L26 41ZM38 41L38 42L40 42L40 41ZM41 41L41 44L44 44L44 41ZM19 42L19 43L20 43L20 42ZM24 42L24 43L25 43L25 42ZM42 42L42 43L43 43L43 42ZM13 43L13 44L14 44L14 43ZM45 43L45 44L47 44L47 43ZM17 44L17 45L18 45L18 44ZM19 44L19 45L21 45L21 44ZM23 45L23 46L25 46L25 47L26 47L26 46L25 46L25 45ZM41 45L41 46L40 46L40 47L42 47L42 45ZM28 46L28 47L30 47L30 46ZM48 47L48 48L45 48L45 49L49 49L49 47ZM0 0L0 7L7 7L7 0ZM1 1L1 6L6 6L6 1ZM2 2L2 5L5 5L5 2ZM42 0L42 7L49 7L49 0ZM43 1L43 6L48 6L48 1ZM44 2L44 5L47 5L47 2ZM0 42L0 49L7 49L7 42ZM1 43L1 48L6 48L6 43ZM2 44L2 47L5 47L5 44Z" fill="#000000"/></g></g></svg>
