<?xml version="1.0" encoding="UTF-8"?>
<svg xmlns="http://www.w3.org/2000/svg" version="1.1" width="420" height="420" viewBox="0 0 420 420"><rect x="0" y="0" width="420" height="420" fill="#ffffff"/><g transform="scale(9.333)"><g transform="translate(0,0)"><path fill-rule="evenodd" d="M11 0L11 1L10 1L10 2L9 2L9 3L8 3L8 5L9 5L9 6L8 6L8 7L9 7L9 9L11 9L11 10L12 10L12 11L11 11L11 12L8 12L8 11L10 11L10 10L8 10L8 8L5 8L5 9L4 9L4 10L1 10L1 9L2 9L2 8L0 8L0 11L4 11L4 13L3 13L3 14L4 14L4 15L3 15L3 16L2 16L2 18L0 18L0 21L1 21L1 19L3 19L3 21L2 21L2 23L4 23L4 25L3 25L3 26L4 26L4 27L5 27L5 28L4 28L4 29L2 29L2 28L3 28L3 27L2 27L2 26L1 26L1 22L0 22L0 26L1 26L1 27L0 27L0 28L1 28L1 29L0 29L0 30L1 30L1 32L0 32L0 33L1 33L1 32L2 32L2 34L4 34L4 35L1 35L1 36L0 36L0 37L1 37L1 36L3 36L3 37L5 37L5 34L6 34L6 35L7 35L7 34L8 34L8 35L9 35L9 34L8 34L8 33L9 33L9 31L8 31L8 30L6 30L6 31L8 31L8 33L7 33L7 32L5 32L5 31L4 31L4 32L2 32L2 30L5 30L5 28L6 28L6 29L8 29L8 28L9 28L9 30L10 30L10 25L12 25L12 26L11 26L11 28L13 28L13 27L14 27L14 28L15 28L15 27L16 27L16 29L17 29L17 32L15 32L15 33L14 33L14 30L15 30L15 31L16 31L16 30L15 30L15 29L14 29L14 30L13 30L13 29L11 29L11 30L12 30L12 31L11 31L11 32L10 32L10 34L12 34L12 35L13 35L13 33L14 33L14 34L15 34L15 35L17 35L17 38L18 38L18 37L20 37L20 38L19 38L19 39L17 39L17 40L16 40L16 39L15 39L15 40L16 40L16 41L19 41L19 42L16 42L16 44L15 44L15 45L17 45L17 44L18 44L18 45L20 45L20 44L21 44L21 45L22 45L22 41L23 41L23 43L25 43L25 44L23 44L23 45L25 45L25 44L26 44L26 43L27 43L27 45L28 45L28 44L29 44L29 42L31 42L31 43L30 43L30 45L32 45L32 43L34 43L34 44L33 44L33 45L36 45L36 44L37 44L37 45L41 45L41 44L42 44L42 45L44 45L44 44L43 44L43 43L44 43L44 40L45 40L45 39L43 39L43 38L45 38L45 37L44 37L44 36L45 36L45 35L44 35L44 34L45 34L45 27L44 27L44 26L45 26L45 24L43 24L43 22L44 22L44 19L45 19L45 17L44 17L44 19L42 19L42 18L41 18L41 17L42 17L42 16L45 16L45 15L43 15L43 14L45 14L45 11L44 11L44 9L42 9L42 8L40 8L40 9L36 9L36 10L35 10L35 9L34 9L34 8L33 8L33 6L34 6L34 7L35 7L35 6L34 6L34 5L37 5L37 3L36 3L36 1L37 1L37 0L36 0L36 1L35 1L35 4L34 4L34 5L33 5L33 3L34 3L34 0L32 0L32 1L31 1L31 0L30 0L30 1L29 1L29 0L28 0L28 1L27 1L27 0L26 0L26 1L25 1L25 0L20 0L20 1L18 1L18 4L17 4L17 5L15 5L15 4L16 4L16 3L17 3L17 0L16 0L16 1L15 1L15 2L16 2L16 3L12 3L12 4L11 4L11 5L10 5L10 4L9 4L9 3L11 3L11 1L13 1L13 2L14 2L14 1L13 1L13 0ZM21 1L21 2L19 2L19 3L20 3L20 4L18 4L18 5L17 5L17 7L16 7L16 6L15 6L15 5L14 5L14 4L13 4L13 5L12 5L12 6L11 6L11 7L10 7L10 6L9 6L9 7L10 7L10 8L11 8L11 7L12 7L12 6L13 6L13 7L14 7L14 9L15 9L15 8L18 8L18 5L19 5L19 8L20 8L20 4L21 4L21 3L23 3L23 4L24 4L24 3L23 3L23 2L24 2L24 1ZM28 1L28 2L29 2L29 1ZM30 1L30 2L31 2L31 3L32 3L32 2L33 2L33 1L32 1L32 2L31 2L31 1ZM25 2L25 3L26 3L26 2ZM29 3L29 5L27 5L27 4L26 4L26 5L25 5L25 9L21 9L21 10L23 10L23 11L22 11L22 12L23 12L23 13L22 13L22 15L23 15L23 16L24 16L24 15L23 15L23 14L24 14L24 13L25 13L25 11L24 11L24 10L26 10L26 9L28 9L28 10L27 10L27 11L26 11L26 14L25 14L25 17L22 17L22 18L23 18L23 19L22 19L22 20L23 20L23 19L24 19L24 20L26 20L26 21L27 21L27 23L26 23L26 22L25 22L25 24L27 24L27 25L26 25L26 26L25 26L25 25L24 25L24 27L22 27L22 25L20 25L20 26L19 26L19 25L18 25L18 24L19 24L19 23L20 23L20 22L19 22L19 21L20 21L20 20L21 20L21 16L20 16L20 15L19 15L19 17L18 17L18 18L20 18L20 19L18 19L18 20L16 20L16 19L15 19L15 20L14 20L14 19L13 19L13 18L15 18L15 16L18 16L18 14L21 14L21 13L18 13L18 14L17 14L17 13L16 13L16 12L19 12L19 11L18 11L18 10L17 10L17 11L15 11L15 10L13 10L13 8L12 8L12 10L13 10L13 11L14 11L14 12L11 12L11 14L12 14L12 13L14 13L14 12L15 12L15 13L16 13L16 14L17 14L17 15L15 15L15 14L14 14L14 15L12 15L12 16L11 16L11 15L10 15L10 16L9 16L9 17L10 17L10 19L9 19L9 18L8 18L8 16L7 16L7 15L6 15L6 14L7 14L7 13L8 13L8 12L7 12L7 11L6 11L6 12L7 12L7 13L5 13L5 15L4 15L4 16L3 16L3 19L4 19L4 20L9 20L9 22L10 22L10 21L11 21L11 20L12 20L12 21L13 21L13 20L14 20L14 22L13 22L13 23L14 23L14 24L13 24L13 25L14 25L14 27L15 27L15 25L16 25L16 26L17 26L17 25L18 25L18 27L22 27L22 28L21 28L21 29L20 29L20 30L22 30L22 29L23 29L23 30L24 30L24 31L25 31L25 32L26 32L26 33L27 33L27 34L25 34L25 33L23 33L23 31L22 31L22 32L21 32L21 33L22 33L22 34L23 34L23 36L24 36L24 35L25 35L25 37L26 37L26 38L27 38L27 37L26 37L26 36L30 36L30 37L28 37L28 39L27 39L27 40L28 40L28 41L29 41L29 40L30 40L30 39L32 39L32 41L31 41L31 42L32 42L32 41L33 41L33 40L34 40L34 42L35 42L35 43L36 43L36 42L37 42L37 43L38 43L38 44L40 44L40 43L38 43L38 42L40 42L40 41L38 41L38 42L37 42L37 41L36 41L36 40L34 40L34 39L36 39L36 37L34 37L34 36L35 36L35 35L36 35L36 36L38 36L38 35L40 35L40 36L42 36L42 35L41 35L41 34L38 34L38 35L36 35L36 34L37 34L37 33L38 33L38 32L35 32L35 31L38 31L38 30L39 30L39 25L37 25L37 26L38 26L38 27L36 27L36 28L34 28L34 27L33 27L33 26L31 26L31 28L32 28L32 30L30 30L30 28L27 28L27 29L26 29L26 31L25 31L25 30L24 30L24 27L25 27L25 28L26 28L26 27L30 27L30 26L27 26L27 25L28 25L28 24L27 24L27 23L29 23L29 24L30 24L30 22L29 22L29 20L32 20L32 22L31 22L31 25L32 25L32 23L34 23L34 21L33 21L33 20L34 20L34 19L35 19L35 17L37 17L37 16L36 16L36 13L37 13L37 12L40 12L40 10L42 10L42 9L40 9L40 10L39 10L39 11L38 11L38 10L36 10L36 11L37 11L37 12L35 12L35 11L33 11L33 15L31 15L31 16L30 16L30 14L29 14L29 13L28 13L28 12L27 12L27 11L28 11L28 10L29 10L29 8L30 8L30 9L31 9L31 10L30 10L30 11L29 11L29 12L30 12L30 11L31 11L31 10L33 10L33 8L32 8L32 6L33 6L33 5L32 5L32 4L31 4L31 5L30 5L30 3ZM21 5L21 8L24 8L24 5ZM26 5L26 7L27 7L27 8L29 8L29 6L28 6L28 7L27 7L27 5ZM14 6L14 7L15 7L15 6ZM22 6L22 7L23 7L23 6ZM30 6L30 8L31 8L31 9L32 9L32 8L31 8L31 6ZM36 6L36 8L37 8L37 6ZM6 9L6 10L7 10L7 9ZM19 9L19 10L20 10L20 9ZM4 10L4 11L5 11L5 10ZM20 11L20 12L21 12L21 11ZM41 11L41 13L38 13L38 18L36 18L36 20L35 20L35 21L36 21L36 20L37 20L37 19L38 19L38 20L40 20L40 19L39 19L39 17L41 17L41 15L42 15L42 14L41 14L41 13L43 13L43 12L42 12L42 11ZM31 12L31 13L32 13L32 12ZM0 13L0 15L2 15L2 14L1 14L1 13ZM9 13L9 14L10 14L10 13ZM27 13L27 14L26 14L26 15L27 15L27 14L28 14L28 13ZM34 14L34 16L35 16L35 14ZM4 16L4 17L5 17L5 19L7 19L7 18L6 18L6 17L7 17L7 16ZM12 16L12 18L13 18L13 17L14 17L14 16ZM26 16L26 17L27 17L27 16ZM29 16L29 17L28 17L28 18L27 18L27 19L26 19L26 18L24 18L24 19L26 19L26 20L27 20L27 19L28 19L28 20L29 20L29 19L30 19L30 18L31 18L31 19L32 19L32 20L33 20L33 19L34 19L34 17L33 17L33 19L32 19L32 16L31 16L31 17L30 17L30 16ZM16 17L16 18L17 18L17 17ZM29 17L29 18L30 18L30 17ZM10 19L10 20L11 20L11 19ZM12 19L12 20L13 20L13 19ZM41 19L41 20L42 20L42 21L43 21L43 20L42 20L42 19ZM15 20L15 21L16 21L16 22L14 22L14 23L16 23L16 25L17 25L17 23L16 23L16 22L17 22L17 21L16 21L16 20ZM18 20L18 21L19 21L19 20ZM3 21L3 22L4 22L4 21ZM5 21L5 24L8 24L8 21ZM21 21L21 24L24 24L24 21ZM37 21L37 24L40 24L40 21ZM6 22L6 23L7 23L7 22ZM18 22L18 23L19 23L19 22ZM22 22L22 23L23 23L23 22ZM35 22L35 24L34 24L34 26L35 26L35 24L36 24L36 22ZM38 22L38 23L39 23L39 22ZM9 23L9 24L10 24L10 23ZM11 23L11 24L12 24L12 23ZM14 24L14 25L15 25L15 24ZM41 24L41 25L40 25L40 26L42 26L42 25L43 25L43 26L44 26L44 25L43 25L43 24ZM5 25L5 26L7 26L7 25ZM12 26L12 27L13 27L13 26ZM6 27L6 28L8 28L8 27ZM40 27L40 30L42 30L42 31L43 31L43 32L41 32L41 31L39 31L39 32L41 32L41 33L43 33L43 34L44 34L44 31L43 31L43 30L44 30L44 29L43 29L43 28L44 28L44 27L43 27L43 28L42 28L42 27ZM17 28L17 29L18 29L18 30L19 30L19 29L18 29L18 28ZM41 28L41 29L42 29L42 30L43 30L43 29L42 29L42 28ZM1 29L1 30L2 30L2 29ZM28 29L28 30L27 30L27 31L26 31L26 32L27 32L27 31L28 31L28 30L29 30L29 29ZM36 29L36 30L37 30L37 29ZM32 30L32 31L31 31L31 32L30 32L30 31L29 31L29 32L30 32L30 33L29 33L29 34L27 34L27 35L29 35L29 34L31 34L31 35L32 35L32 38L33 38L33 39L34 39L34 38L33 38L33 36L34 36L34 35L35 35L35 33L34 33L34 31L33 31L33 30ZM12 31L12 32L11 32L11 33L13 33L13 31ZM18 31L18 32L19 32L19 31ZM4 32L4 33L5 33L5 32ZM32 32L32 33L33 33L33 34L32 34L32 35L33 35L33 34L34 34L34 33L33 33L33 32ZM6 33L6 34L7 34L7 33ZM17 33L17 35L18 35L18 34L19 34L19 36L20 36L20 34L19 34L19 33ZM43 35L43 36L44 36L44 35ZM6 36L6 37L7 37L7 36ZM9 36L9 37L8 37L8 40L9 40L9 39L10 39L10 41L9 41L9 42L10 42L10 43L8 43L8 45L9 45L9 44L10 44L10 45L11 45L11 44L10 44L10 43L12 43L12 44L13 44L13 45L14 45L14 44L13 44L13 43L12 43L12 42L13 42L13 41L14 41L14 40L13 40L13 41L12 41L12 40L11 40L11 39L13 39L13 38L14 38L14 37L15 37L15 36L14 36L14 37L12 37L12 36L11 36L11 37L10 37L10 36ZM9 37L9 38L10 38L10 37ZM21 37L21 40L24 40L24 37ZM30 37L30 38L31 38L31 37ZM37 37L37 40L40 40L40 37ZM22 38L22 39L23 39L23 38ZM38 38L38 39L39 39L39 38ZM25 39L25 40L26 40L26 39ZM28 39L28 40L29 40L29 39ZM41 39L41 40L42 40L42 41L41 41L41 42L42 42L42 43L43 43L43 40L42 40L42 39ZM19 40L19 41L20 41L20 42L19 42L19 44L20 44L20 42L21 42L21 41L20 41L20 40ZM11 41L11 42L12 42L12 41ZM24 41L24 42L25 42L25 43L26 43L26 42L27 42L27 43L28 43L28 42L27 42L27 41L26 41L26 42L25 42L25 41ZM14 42L14 43L15 43L15 42ZM0 0L0 7L7 7L7 0ZM1 1L1 6L6 6L6 1ZM2 2L2 5L5 5L5 2ZM38 0L38 7L45 7L45 0ZM39 1L39 6L44 6L44 1ZM40 2L40 5L43 5L43 2ZM0 38L0 45L7 45L7 38ZM1 39L1 44L6 44L6 39ZM2 40L2 43L5 43L5 40Z" fill="#000000"/></g></g></svg>
