<?xml version="1.0" encoding="UTF-8"?>
<svg xmlns="http://www.w3.org/2000/svg" version="1.1" width="420" height="420" viewBox="0 0 420 420"><rect x="0" y="0" width="420" height="420" fill="#ffffff"/><g transform="scale(10.244)"><g transform="translate(0,0)"><path fill-rule="evenodd" d="M10 0L10 1L12 1L12 0ZM14 0L14 1L13 1L13 2L14 2L14 1L15 1L15 2L16 2L16 1L19 1L19 3L17 3L17 4L19 4L19 6L18 6L18 5L17 5L17 6L16 6L16 8L15 8L15 9L14 9L14 10L13 10L13 9L12 9L12 8L14 8L14 7L15 7L15 6L14 6L14 5L13 5L13 4L14 4L14 3L11 3L11 2L8 2L8 3L11 3L11 4L9 4L9 6L8 6L8 8L4 8L4 12L3 12L3 11L1 11L1 12L0 12L0 13L1 13L1 12L2 12L2 14L1 14L1 15L0 15L0 17L1 17L1 18L0 18L0 19L2 19L2 18L5 18L5 16L4 16L4 15L5 15L5 14L6 14L6 15L7 15L7 16L6 16L6 17L8 17L8 18L6 18L6 19L3 19L3 21L0 21L0 26L1 26L1 28L0 28L0 29L2 29L2 30L3 30L3 32L2 32L2 31L1 31L1 30L0 30L0 31L1 31L1 32L0 32L0 33L1 33L1 32L2 32L2 33L3 33L3 32L4 32L4 33L8 33L8 37L9 37L9 38L8 38L8 41L9 41L9 39L10 39L10 40L11 40L11 41L12 41L12 40L13 40L13 41L15 41L15 39L13 39L13 38L16 38L16 40L17 40L17 41L19 41L19 37L17 37L17 36L21 36L21 37L20 37L20 38L22 38L22 39L20 39L20 40L22 40L22 39L23 39L23 40L24 40L24 41L27 41L27 38L26 38L26 36L28 36L28 38L30 38L30 36L31 36L31 35L32 35L32 38L31 38L31 40L32 40L32 41L33 41L33 40L35 40L35 41L37 41L37 40L35 40L35 39L32 39L32 38L33 38L33 37L36 37L36 39L38 39L38 37L37 37L37 34L38 34L38 33L37 33L37 31L39 31L39 33L40 33L40 35L41 35L41 33L40 33L40 31L41 31L41 30L40 30L40 29L39 29L39 30L37 30L37 31L36 31L36 30L35 30L35 29L36 29L36 28L37 28L37 29L38 29L38 28L37 28L37 27L39 27L39 28L41 28L41 25L40 25L40 23L41 23L41 20L40 20L40 21L39 21L39 25L40 25L40 27L39 27L39 26L37 26L37 27L35 27L35 26L36 26L36 25L35 25L35 24L36 24L36 23L35 23L35 22L34 22L34 21L35 21L35 20L36 20L36 19L37 19L37 18L36 18L36 16L35 16L35 15L33 15L33 14L34 14L34 13L35 13L35 14L36 14L36 15L37 15L37 14L39 14L39 15L41 15L41 12L39 12L39 13L38 13L38 12L37 12L37 14L36 14L36 13L35 13L35 12L36 12L36 11L35 11L35 10L36 10L36 9L35 9L35 8L33 8L33 6L32 6L32 3L33 3L33 2L32 2L32 1L33 1L33 0L31 0L31 1L29 1L29 0L27 0L27 1L26 1L26 0L25 0L25 1L24 1L24 0L23 0L23 1L21 1L21 0ZM20 1L20 2L21 2L21 3L19 3L19 4L20 4L20 5L23 5L23 4L21 4L21 3L23 3L23 2L21 2L21 1ZM25 1L25 7L26 7L26 8L28 8L28 9L27 9L27 11L26 11L26 10L25 10L25 11L24 11L24 10L23 10L23 9L25 9L25 8L23 8L23 7L24 7L24 6L23 6L23 7L22 7L22 6L21 6L21 7L22 7L22 9L21 9L21 8L20 8L20 6L19 6L19 7L18 7L18 6L17 6L17 7L18 7L18 8L20 8L20 9L19 9L19 11L18 11L18 10L17 10L17 11L18 11L18 12L17 12L17 13L16 13L16 14L15 14L15 12L16 12L16 9L15 9L15 10L14 10L14 11L13 11L13 10L12 10L12 9L11 9L11 8L10 8L10 6L11 6L11 7L12 7L12 6L13 6L13 7L14 7L14 6L13 6L13 5L12 5L12 6L11 6L11 5L10 5L10 6L9 6L9 8L10 8L10 9L9 9L9 10L10 10L10 9L11 9L11 12L10 12L10 13L9 13L9 12L8 12L8 10L7 10L7 9L6 9L6 10L5 10L5 11L6 11L6 12L7 12L7 13L6 13L6 14L7 14L7 15L8 15L8 14L11 14L11 15L12 15L12 16L10 16L10 19L9 19L9 18L8 18L8 19L6 19L6 20L8 20L8 21L10 21L10 20L11 20L11 21L12 21L12 20L13 20L13 23L14 23L14 20L13 20L13 19L14 19L14 18L15 18L15 19L17 19L17 18L18 18L18 17L17 17L17 18L16 18L16 17L15 17L15 15L18 15L18 14L19 14L19 15L22 15L22 14L23 14L23 15L24 15L24 16L22 16L22 17L24 17L24 18L23 18L23 19L22 19L22 21L23 21L23 23L22 23L22 25L23 25L23 28L21 28L21 27L22 27L22 26L20 26L20 24L21 24L21 23L20 23L20 21L21 21L21 20L20 20L20 21L19 21L19 19L21 19L21 18L20 18L20 16L19 16L19 19L18 19L18 20L17 20L17 21L18 21L18 22L19 22L19 27L18 27L18 25L17 25L17 27L16 27L16 26L15 26L15 24L17 24L17 23L16 23L16 22L15 22L15 24L14 24L14 25L13 25L13 24L12 24L12 23L11 23L11 24L10 24L10 23L8 23L8 24L7 24L7 23L6 23L6 24L5 24L5 22L7 22L7 21L5 21L5 22L4 22L4 21L3 21L3 24L4 24L4 25L3 25L3 27L2 27L2 28L3 28L3 29L4 29L4 28L3 28L3 27L5 27L5 28L7 28L7 27L9 27L9 25L10 25L10 26L11 26L11 27L10 27L10 29L6 29L6 30L7 30L7 31L6 31L6 32L7 32L7 31L9 31L9 33L10 33L10 32L11 32L11 35L10 35L10 34L9 34L9 35L10 35L10 36L9 36L9 37L11 37L11 36L13 36L13 37L14 37L14 36L13 36L13 35L14 35L14 34L15 34L15 35L20 35L20 32L21 32L21 31L22 31L22 32L24 32L24 33L22 33L22 34L21 34L21 35L25 35L25 34L26 34L26 33L25 33L25 32L24 32L24 30L25 30L25 31L26 31L26 30L27 30L27 31L28 31L28 32L27 32L27 35L30 35L30 33L31 33L31 34L32 34L32 32L33 32L33 31L34 31L34 28L35 28L35 27L34 27L34 28L31 28L31 27L33 27L33 26L34 26L34 25L33 25L33 24L34 24L34 23L32 23L32 22L33 22L33 21L32 21L32 20L35 20L35 19L36 19L36 18L35 18L35 17L34 17L34 18L33 18L33 15L32 15L32 14L31 14L31 12L32 12L32 13L33 13L33 11L34 11L34 12L35 12L35 11L34 11L34 10L35 10L35 9L34 9L34 10L33 10L33 9L32 9L32 6L31 6L31 4L30 4L30 3L32 3L32 2L29 2L29 1L28 1L28 2L27 2L27 3L26 3L26 1ZM28 2L28 3L27 3L27 4L26 4L26 5L27 5L27 6L26 6L26 7L27 7L27 6L28 6L28 8L30 8L30 9L29 9L29 10L28 10L28 11L29 11L29 12L28 12L28 14L29 14L29 16L30 16L30 15L31 15L31 14L29 14L29 13L30 13L30 11L31 11L31 10L30 10L30 9L31 9L31 6L30 6L30 5L28 5L28 3L29 3L29 2ZM15 3L15 4L16 4L16 3ZM29 6L29 7L30 7L30 6ZM0 8L0 9L1 9L1 10L2 10L2 9L3 9L3 8ZM38 8L38 9L37 9L37 11L38 11L38 9L39 9L39 10L40 10L40 11L41 11L41 10L40 10L40 9L39 9L39 8ZM6 10L6 11L7 11L7 10ZM22 10L22 11L19 11L19 12L20 12L20 14L22 14L22 13L21 13L21 12L22 12L22 11L23 11L23 10ZM32 10L32 11L33 11L33 10ZM25 11L25 12L23 12L23 14L24 14L24 15L25 15L25 16L24 16L24 17L25 17L25 18L24 18L24 19L23 19L23 20L24 20L24 21L26 21L26 19L25 19L25 18L26 18L26 17L28 17L28 15L27 15L27 13L25 13L25 12L26 12L26 11ZM4 12L4 14L3 14L3 15L4 15L4 14L5 14L5 12ZM11 12L11 14L12 14L12 12ZM7 13L7 14L8 14L8 13ZM13 13L13 14L14 14L14 13ZM17 13L17 14L18 14L18 13ZM1 15L1 17L2 17L2 15ZM13 15L13 18L14 18L14 15ZM3 16L3 17L4 17L4 16ZM31 16L31 17L32 17L32 16ZM37 16L37 17L40 17L40 19L41 19L41 16ZM28 18L28 19L27 19L27 20L28 20L28 23L25 23L25 22L24 22L24 23L25 23L25 25L26 25L26 26L24 26L24 27L25 27L25 30L26 30L26 28L27 28L27 29L28 29L28 30L30 30L30 31L29 31L29 33L30 33L30 32L32 32L32 31L33 31L33 30L32 30L32 31L31 31L31 30L30 30L30 23L29 23L29 22L30 22L30 20L32 20L32 19L33 19L33 18L32 18L32 19L31 19L31 18L30 18L30 19L29 19L29 18ZM38 18L38 19L39 19L39 18ZM8 19L8 20L9 20L9 19ZM11 19L11 20L12 20L12 19ZM28 19L28 20L29 20L29 19ZM15 20L15 21L16 21L16 20ZM37 20L37 22L38 22L38 20ZM31 21L31 22L32 22L32 21ZM1 24L1 25L2 25L2 24ZM6 24L6 25L7 25L7 24ZM8 24L8 25L9 25L9 24ZM11 24L11 25L12 25L12 24ZM23 24L23 25L24 25L24 24ZM27 24L27 26L26 26L26 27L27 27L27 28L28 28L28 29L29 29L29 27L28 27L28 26L29 26L29 25L28 25L28 24ZM4 25L4 26L5 26L5 27L7 27L7 26L5 26L5 25ZM32 25L32 26L33 26L33 25ZM12 26L12 27L11 27L11 28L12 28L12 27L14 27L14 26ZM17 27L17 28L18 28L18 27ZM19 27L19 29L18 29L18 30L17 30L17 29L16 29L16 28L15 28L15 30L17 30L17 32L16 32L16 31L13 31L13 32L12 32L12 31L11 31L11 30L12 30L12 29L10 29L10 31L11 31L11 32L12 32L12 33L13 33L13 34L12 34L12 35L13 35L13 34L14 34L14 32L15 32L15 34L16 34L16 33L17 33L17 34L19 34L19 32L20 32L20 31L21 31L21 30L23 30L23 29L20 29L20 27ZM19 29L19 31L18 31L18 32L19 32L19 31L20 31L20 29ZM4 30L4 32L5 32L5 30ZM35 31L35 32L36 32L36 31ZM33 33L33 36L36 36L36 33ZM34 34L34 35L35 35L35 34ZM15 36L15 37L16 37L16 36ZM22 36L22 37L23 37L23 39L26 39L26 38L24 38L24 37L23 37L23 36ZM39 36L39 37L40 37L40 38L39 38L39 41L41 41L41 40L40 40L40 39L41 39L41 36ZM10 38L10 39L11 39L11 40L12 40L12 39L11 39L11 38ZM17 38L17 39L18 39L18 38ZM29 39L29 40L28 40L28 41L30 41L30 39ZM0 0L0 7L7 7L7 0ZM1 1L1 6L6 6L6 1ZM2 2L2 5L5 5L5 2ZM34 0L34 7L41 7L41 0ZM35 1L35 6L40 6L40 1ZM36 2L36 5L39 5L39 2ZM0 34L0 41L7 41L7 34ZM1 35L1 40L6 40L6 35ZM2 36L2 39L5 39L5 36Z" fill="#000000"/></g></g></svg>
