<?xml version="1.0" encoding="UTF-8"?>
<svg xmlns="http://www.w3.org/2000/svg" version="1.1" width="420" height="420" viewBox="0 0 420 420"><rect x="0" y="0" width="420" height="420" fill="#ffffff"/><g transform="scale(11.351)"><g transform="translate(0,0)"><path fill-rule="evenodd" d="M9 0L9 1L11 1L11 2L9 2L9 3L8 3L8 5L9 5L9 6L8 6L8 7L9 7L9 9L10 9L10 10L11 10L11 11L9 11L9 10L8 10L8 8L5 8L5 9L2 9L2 8L0 8L0 9L1 9L1 10L0 10L0 12L1 12L1 14L6 14L6 15L5 15L5 16L3 16L3 18L2 18L2 15L1 15L1 17L0 17L0 18L1 18L1 19L0 19L0 21L1 21L1 22L0 22L0 24L1 24L1 23L2 23L2 24L3 24L3 25L2 25L2 27L4 27L4 26L3 26L3 25L4 25L4 24L3 24L3 23L2 23L2 22L3 22L3 21L4 21L4 22L5 22L5 27L7 27L7 26L6 26L6 25L7 25L7 24L6 24L6 23L9 23L9 25L10 25L10 26L9 26L9 27L8 27L8 28L4 28L4 29L8 29L8 32L10 32L10 34L9 34L9 35L8 35L8 37L9 37L9 35L11 35L11 36L12 36L12 35L13 35L13 34L11 34L11 31L12 31L12 33L13 33L13 32L14 32L14 34L15 34L15 35L14 35L14 36L13 36L13 37L17 37L17 36L15 36L15 35L16 35L16 34L15 34L15 32L14 32L14 31L12 31L12 30L15 30L15 31L16 31L16 30L17 30L17 29L18 29L18 28L17 28L17 29L16 29L16 28L15 28L15 29L12 29L12 27L13 27L13 26L11 26L11 25L14 25L14 23L15 23L15 24L16 24L16 22L17 22L17 23L19 23L19 22L20 22L20 24L19 24L19 25L17 25L17 27L18 27L18 26L20 26L20 27L21 27L21 26L22 26L22 29L23 29L23 26L24 26L24 27L25 27L25 26L24 26L24 25L25 25L25 23L26 23L26 24L27 24L27 25L26 25L26 28L25 28L25 29L28 29L28 32L27 32L27 30L23 30L23 31L24 31L24 33L22 33L22 34L21 34L21 35L20 35L20 36L19 36L19 35L18 35L18 37L20 37L20 36L21 36L21 37L22 37L22 36L21 36L21 35L22 35L22 34L24 34L24 35L26 35L26 34L25 34L25 33L29 33L29 34L27 34L27 37L29 37L29 36L30 36L30 37L33 37L33 36L34 36L34 35L36 35L36 37L37 37L37 32L36 32L36 31L37 31L37 29L36 29L36 28L37 28L37 26L32 26L32 25L31 25L31 24L32 24L32 22L33 22L33 23L34 23L34 22L35 22L35 24L36 24L36 25L37 25L37 22L35 22L35 20L36 20L36 21L37 21L37 20L36 20L36 19L37 19L37 18L36 18L36 17L37 17L37 14L36 14L36 13L37 13L37 10L36 10L36 9L34 9L34 8L32 8L32 10L33 10L33 14L32 14L32 15L33 15L33 14L34 14L34 11L35 11L35 12L36 12L36 13L35 13L35 15L34 15L34 18L31 18L31 17L33 17L33 16L29 16L29 15L28 15L28 11L29 11L29 13L30 13L30 14L31 14L31 13L32 13L32 12L31 12L31 10L30 10L30 9L27 9L27 12L26 12L26 16L27 16L27 18L26 18L26 17L25 17L25 16L24 16L24 17L23 17L23 18L22 18L22 16L21 16L21 15L23 15L23 14L25 14L25 13L23 13L23 12L25 12L25 11L26 11L26 10L25 10L25 9L26 9L26 8L27 8L27 5L26 5L26 4L27 4L27 3L28 3L28 2L29 2L29 0L28 0L28 2L26 2L26 3L25 3L25 2L24 2L24 3L25 3L25 4L23 4L23 1L22 1L22 0L20 0L20 1L22 1L22 2L21 2L21 4L22 4L22 5L20 5L20 2L19 2L19 1L18 1L18 0L17 0L17 1L18 1L18 2L19 2L19 3L17 3L17 2L16 2L16 0L13 0L13 1L12 1L12 0ZM24 0L24 1L26 1L26 0ZM13 1L13 2L12 2L12 4L11 4L11 7L10 7L10 6L9 6L9 7L10 7L10 8L11 8L11 10L13 10L13 11L12 11L12 12L11 12L11 13L10 13L10 12L9 12L9 11L8 11L8 12L7 12L7 11L6 11L6 10L7 10L7 9L5 9L5 10L4 10L4 11L5 11L5 12L4 12L4 13L5 13L5 12L7 12L7 13L6 13L6 14L7 14L7 15L6 15L6 16L5 16L5 17L4 17L4 18L3 18L3 19L2 19L2 21L3 21L3 19L4 19L4 20L5 20L5 21L6 21L6 22L8 22L8 21L9 21L9 22L10 22L10 21L11 21L11 24L12 24L12 23L13 23L13 22L12 22L12 21L14 21L14 22L15 22L15 20L16 20L16 21L17 21L17 22L18 22L18 21L19 21L19 18L18 18L18 17L20 17L20 18L21 18L21 19L20 19L20 20L25 20L25 21L24 21L24 22L23 22L23 24L22 24L22 23L21 23L21 25L22 25L22 26L23 26L23 25L24 25L24 23L25 23L25 22L26 22L26 23L27 23L27 21L26 21L26 20L30 20L30 17L28 17L28 18L29 18L29 19L26 19L26 18L25 18L25 17L24 17L24 19L22 19L22 18L21 18L21 16L20 16L20 15L21 15L21 14L22 14L22 11L24 11L24 10L23 10L23 9L24 9L24 5L22 5L22 6L21 6L21 10L22 10L22 11L20 11L20 10L19 10L19 12L18 12L18 11L17 11L17 9L18 9L18 8L19 8L19 9L20 9L20 8L19 8L19 7L20 7L20 5L19 5L19 4L17 4L17 3L16 3L16 2L15 2L15 1ZM14 2L14 4L12 4L12 5L13 5L13 6L12 6L12 9L13 9L13 8L14 8L14 10L15 10L15 9L16 9L16 8L14 8L14 7L15 7L15 5L16 5L16 7L17 7L17 5L16 5L16 3L15 3L15 2ZM9 3L9 5L10 5L10 3ZM25 5L25 8L26 8L26 5ZM28 5L28 8L29 8L29 5ZM13 6L13 7L14 7L14 6ZM18 6L18 7L19 7L19 6ZM22 6L22 7L23 7L23 6ZM33 9L33 10L34 10L34 9ZM29 10L29 11L30 11L30 10ZM1 11L1 12L2 12L2 13L3 13L3 11ZM14 11L14 12L13 12L13 13L12 13L12 14L13 14L13 15L12 15L12 17L13 17L13 16L14 16L14 17L15 17L15 18L12 18L12 19L10 19L10 18L11 18L11 17L10 17L10 18L9 18L9 17L8 17L8 20L6 20L6 19L7 19L7 18L6 18L6 19L5 19L5 18L4 18L4 19L5 19L5 20L6 20L6 21L8 21L8 20L9 20L9 21L10 21L10 20L11 20L11 21L12 21L12 19L14 19L14 20L15 20L15 19L18 19L18 18L16 18L16 17L18 17L18 16L19 16L19 14L20 14L20 12L19 12L19 14L17 14L17 15L16 15L16 14L15 14L15 12L16 12L16 13L18 13L18 12L17 12L17 11ZM7 13L7 14L9 14L9 15L8 15L8 16L11 16L11 15L10 15L10 14L9 14L9 13ZM17 15L17 16L18 16L18 15ZM35 15L35 16L36 16L36 15ZM6 16L6 17L7 17L7 16ZM34 18L34 19L31 19L31 20L35 20L35 19L36 19L36 18ZM17 20L17 21L18 21L18 20ZM21 21L21 22L22 22L22 21ZM29 21L29 22L28 22L28 27L27 27L27 28L28 28L28 27L29 27L29 28L30 28L30 27L29 27L29 25L30 25L30 26L31 26L31 25L30 25L30 24L29 24L29 23L30 23L30 22L31 22L31 21ZM33 21L33 22L34 22L34 21ZM0 25L0 29L1 29L1 25ZM15 25L15 27L16 27L16 25ZM9 27L9 28L8 28L8 29L9 29L9 28L10 28L10 27ZM32 27L32 28L34 28L34 29L33 29L33 30L34 30L34 33L36 33L36 32L35 32L35 31L36 31L36 29L35 29L35 28L36 28L36 27L35 27L35 28L34 28L34 27ZM2 28L2 29L3 29L3 28ZM19 28L19 30L18 30L18 32L17 32L17 33L18 33L18 34L20 34L20 32L19 32L19 31L20 31L20 30L21 30L21 31L22 31L22 30L21 30L21 29L20 29L20 28ZM10 29L10 30L12 30L12 29ZM15 29L15 30L16 30L16 29ZM29 29L29 32L32 32L32 29ZM34 29L34 30L35 30L35 29ZM30 30L30 31L31 31L31 30ZM25 31L25 32L26 32L26 31ZM18 32L18 33L19 33L19 32ZM31 33L31 34L29 34L29 35L31 35L31 36L32 36L32 35L34 35L34 34L33 34L33 33ZM31 34L31 35L32 35L32 34ZM23 36L23 37L24 37L24 36ZM0 0L0 7L7 7L7 0ZM1 1L1 6L6 6L6 1ZM2 2L2 5L5 5L5 2ZM30 0L30 7L37 7L37 0ZM31 1L31 6L36 6L36 1ZM32 2L32 5L35 5L35 2ZM0 30L0 37L7 37L7 30ZM1 31L1 36L6 36L6 31ZM2 32L2 35L5 35L5 32Z" fill="#000000"/></g></g></svg>
