<?xml version="1.0" encoding="UTF-8"?>
<svg xmlns="http://www.w3.org/2000/svg" version="1.1" width="420" height="420" viewBox="0 0 420 420"><rect x="0" y="0" width="420" height="420" fill="#ffffff"/><g transform="scale(7.925)"><g transform="translate(0,0)"><path fill-rule="evenodd" d="M9 0L9 1L8 1L8 2L9 2L9 3L8 3L8 4L9 4L9 5L8 5L8 7L9 7L9 8L6 8L6 9L5 9L5 8L0 8L0 10L1 10L1 12L3 12L3 10L5 10L5 13L7 13L7 14L5 14L5 15L4 15L4 17L7 17L7 18L6 18L6 19L5 19L5 18L3 18L3 20L4 20L4 19L5 19L5 20L6 20L6 21L7 21L7 22L5 22L5 21L4 21L4 22L3 22L3 21L2 21L2 19L0 19L0 20L1 20L1 22L2 22L2 23L3 23L3 24L2 24L2 25L1 25L1 23L0 23L0 25L1 25L1 27L2 27L2 30L1 30L1 29L0 29L0 30L1 30L1 32L0 32L0 34L1 34L1 36L0 36L0 37L1 37L1 38L3 38L3 39L1 39L1 40L2 40L2 41L3 41L3 43L2 43L2 42L1 42L1 41L0 41L0 43L1 43L1 44L3 44L3 45L4 45L4 44L3 44L3 43L7 43L7 42L5 42L5 41L4 41L4 40L6 40L6 41L8 41L8 42L10 42L10 39L9 39L9 40L8 40L8 39L7 39L7 38L12 38L12 39L13 39L13 40L14 40L14 39L13 39L13 38L15 38L15 40L16 40L16 38L15 38L15 37L13 37L13 38L12 38L12 36L15 36L15 35L16 35L16 36L17 36L17 37L18 37L18 38L17 38L17 39L18 39L18 38L19 38L19 36L17 36L17 34L18 34L18 35L20 35L20 34L19 34L19 33L20 33L20 32L19 32L19 30L18 30L18 31L17 31L17 32L18 32L18 33L16 33L16 32L15 32L15 31L16 31L16 30L15 30L15 29L17 29L17 28L16 28L16 27L15 27L15 29L9 29L9 27L10 27L10 26L12 26L12 27L11 27L11 28L12 28L12 27L13 27L13 28L14 28L14 27L13 27L13 26L14 26L14 25L13 25L13 24L14 24L14 23L12 23L12 22L15 22L15 21L17 21L17 18L18 18L18 19L20 19L20 18L19 18L19 17L20 17L20 14L18 14L18 15L16 15L16 16L15 16L15 13L17 13L17 12L18 12L18 13L21 13L21 16L24 16L24 17L22 17L22 18L21 18L21 20L18 20L18 21L21 21L21 20L22 20L22 18L23 18L23 19L24 19L24 20L23 20L23 22L22 22L22 23L23 23L23 26L24 26L24 29L21 29L21 28L22 28L22 27L21 27L21 26L22 26L22 24L21 24L21 25L18 25L18 24L17 24L17 23L18 23L18 22L17 22L17 23L15 23L15 24L17 24L17 25L18 25L18 26L17 26L17 27L18 27L18 29L21 29L21 30L20 30L20 31L21 31L21 32L22 32L22 33L21 33L21 35L23 35L23 36L24 36L24 37L26 37L26 36L27 36L27 39L26 39L26 38L25 38L25 39L24 39L24 40L23 40L23 42L22 42L22 43L23 43L23 42L24 42L24 43L25 43L25 44L23 44L23 45L21 45L21 41L22 41L22 40L21 40L21 39L22 39L22 38L23 38L23 37L21 37L21 36L20 36L20 37L21 37L21 38L20 38L20 40L21 40L21 41L18 41L18 40L17 40L17 41L18 41L18 42L17 42L17 44L16 44L16 43L15 43L15 44L14 44L14 45L15 45L15 46L14 46L14 47L16 47L16 45L21 45L21 46L20 46L20 47L21 47L21 48L22 48L22 49L21 49L21 50L22 50L22 49L23 49L23 47L24 47L24 50L23 50L23 51L26 51L26 49L27 49L27 52L26 52L26 53L27 53L27 52L30 52L30 53L31 53L31 51L30 51L30 50L31 50L31 49L32 49L32 50L34 50L34 52L33 52L33 51L32 51L32 52L33 52L33 53L35 53L35 50L34 50L34 49L37 49L37 50L36 50L36 51L37 51L37 52L36 52L36 53L37 53L37 52L39 52L39 51L41 51L41 50L43 50L43 49L44 49L44 50L45 50L45 51L44 51L44 53L47 53L47 52L45 52L45 51L46 51L46 50L45 50L45 49L47 49L47 50L48 50L48 51L49 51L49 52L48 52L48 53L49 53L49 52L50 52L50 53L51 53L51 52L52 52L52 51L53 51L53 50L52 50L52 49L53 49L53 47L52 47L52 46L53 46L53 43L51 43L51 42L49 42L49 41L46 41L46 40L47 40L47 39L46 39L46 40L45 40L45 37L42 37L42 38L43 38L43 39L39 39L39 38L33 38L33 39L32 39L32 38L31 38L31 37L32 37L32 36L35 36L35 37L37 37L37 36L35 36L35 35L37 35L37 32L39 32L39 31L40 31L40 32L41 32L41 31L40 31L40 30L41 30L41 29L40 29L40 30L37 30L37 28L36 28L36 27L37 27L37 24L36 24L36 27L35 27L35 26L34 26L34 25L35 25L35 24L34 24L34 23L35 23L35 22L34 22L34 23L33 23L33 21L32 21L32 20L34 20L34 19L32 19L32 20L31 20L31 19L30 19L30 20L31 20L31 21L28 21L28 20L29 20L29 19L27 19L27 20L25 20L25 19L26 19L26 18L27 18L27 17L25 17L25 16L26 16L26 15L28 15L28 14L29 14L29 13L28 13L28 12L29 12L29 11L28 11L28 12L26 12L26 13L24 13L24 12L25 12L25 11L23 11L23 13L22 13L22 11L21 11L21 10L23 10L23 9L22 9L22 8L24 8L24 10L25 10L25 9L27 9L27 10L26 10L26 11L27 11L27 10L28 10L28 9L29 9L29 10L31 10L31 11L32 11L32 12L31 12L31 13L30 13L30 14L31 14L31 15L29 15L29 16L28 16L28 17L30 17L30 18L31 18L31 17L32 17L32 18L33 18L33 17L32 17L32 16L31 16L31 15L32 15L32 12L34 12L34 13L35 13L35 14L33 14L33 16L34 16L34 17L35 17L35 16L36 16L36 17L40 17L40 18L38 18L38 19L37 19L37 18L36 18L36 19L37 19L37 20L35 20L35 21L37 21L37 20L38 20L38 19L40 19L40 20L41 20L41 21L40 21L40 24L41 24L41 22L43 22L43 23L42 23L42 25L40 25L40 26L38 26L38 27L39 27L39 28L38 28L38 29L39 29L39 28L42 28L42 30L46 30L46 29L47 29L47 30L49 30L49 31L48 31L48 32L49 32L49 33L48 33L48 34L49 34L49 37L48 37L48 38L49 38L49 37L52 37L52 38L50 38L50 39L49 39L49 40L50 40L50 41L52 41L52 42L53 42L53 41L52 41L52 40L50 40L50 39L52 39L52 38L53 38L53 35L52 35L52 34L53 34L53 33L51 33L51 32L50 32L50 29L51 29L51 31L52 31L52 30L53 30L53 29L52 29L52 28L53 28L53 27L51 27L51 28L50 28L50 25L51 25L51 26L52 26L52 24L53 24L53 23L52 23L52 22L53 22L53 20L52 20L52 19L51 19L51 18L53 18L53 16L52 16L52 14L53 14L53 13L51 13L51 14L49 14L49 13L50 13L50 11L51 11L51 10L53 10L53 9L52 9L52 8L51 8L51 10L50 10L50 11L49 11L49 12L48 12L48 8L47 8L47 10L45 10L45 12L43 12L43 11L44 11L44 9L46 9L46 8L44 8L44 7L45 7L45 6L44 6L44 7L43 7L43 3L44 3L44 4L45 4L45 3L44 3L44 1L43 1L43 0L42 0L42 2L43 2L43 3L41 3L41 1L40 1L40 0L39 0L39 1L38 1L38 0L37 0L37 1L36 1L36 2L37 2L37 1L38 1L38 2L39 2L39 5L40 5L40 3L41 3L41 6L40 6L40 7L39 7L39 6L38 6L38 7L39 7L39 8L40 8L40 7L41 7L41 8L42 8L42 7L43 7L43 8L44 8L44 9L41 9L41 10L43 10L43 11L40 11L40 9L39 9L39 10L38 10L38 8L36 8L36 9L37 9L37 11L38 11L38 12L34 12L34 10L33 10L33 11L32 11L32 10L31 10L31 9L32 9L32 8L35 8L35 6L36 6L36 7L37 7L37 5L38 5L38 4L37 4L37 3L35 3L35 2L34 2L34 1L33 1L33 2L32 2L32 3L35 3L35 4L37 4L37 5L33 5L33 4L32 4L32 5L31 5L31 4L30 4L30 5L29 5L29 4L28 4L28 3L27 3L27 4L24 4L24 1L26 1L26 0L21 0L21 3L19 3L19 2L20 2L20 1L19 1L19 0L16 0L16 1L15 1L15 2L14 2L14 3L15 3L15 4L13 4L13 5L16 5L16 4L17 4L17 6L16 6L16 7L17 7L17 6L18 6L18 7L19 7L19 6L18 6L18 4L21 4L21 3L23 3L23 4L22 4L22 5L20 5L20 8L21 8L21 9L18 9L18 8L17 8L17 9L18 9L18 10L17 10L17 12L16 12L16 11L15 11L15 10L16 10L16 9L15 9L15 10L14 10L14 9L12 9L12 8L14 8L14 7L15 7L15 6L14 6L14 7L13 7L13 6L12 6L12 4L11 4L11 5L10 5L10 4L9 4L9 3L11 3L11 1L12 1L12 3L13 3L13 0L11 0L11 1L10 1L10 0ZM28 0L28 1L27 1L27 2L28 2L28 1L29 1L29 2L30 2L30 3L31 3L31 2L30 2L30 1L32 1L32 0ZM17 1L17 2L18 2L18 1ZM22 1L22 2L23 2L23 1ZM39 1L39 2L40 2L40 1ZM15 2L15 3L16 3L16 2ZM25 2L25 3L26 3L26 2ZM17 3L17 4L18 4L18 3ZM22 5L22 6L21 6L21 8L22 8L22 6L23 6L23 7L24 7L24 5ZM25 5L25 8L28 8L28 5ZM30 5L30 6L29 6L29 7L30 7L30 6L31 6L31 8L32 8L32 6L31 6L31 5ZM9 6L9 7L10 7L10 6ZM11 6L11 8L9 8L9 9L10 9L10 10L8 10L8 15L9 15L9 11L10 11L10 15L11 15L11 17L10 17L10 19L13 19L13 20L12 20L12 21L11 21L11 22L12 22L12 21L15 21L15 20L16 20L16 19L15 19L15 18L16 18L16 17L18 17L18 16L16 16L16 17L13 17L13 16L14 16L14 15L13 15L13 16L12 16L12 14L11 14L11 12L12 12L12 13L13 13L13 14L14 14L14 13L15 13L15 12L14 12L14 10L13 10L13 12L12 12L12 10L11 10L11 8L12 8L12 6ZM26 6L26 7L27 7L27 6ZM33 6L33 7L34 7L34 6ZM41 6L41 7L42 7L42 6ZM29 8L29 9L30 9L30 8ZM49 8L49 9L50 9L50 8ZM6 9L6 10L7 10L7 9ZM10 10L10 11L11 11L11 10ZM19 10L19 11L20 11L20 10ZM6 11L6 12L7 12L7 11ZM38 12L38 14L35 14L35 15L34 15L34 16L35 16L35 15L36 15L36 16L37 16L37 15L38 15L38 16L39 16L39 13L41 13L41 12ZM45 12L45 13L44 13L44 14L40 14L40 15L43 15L43 17L44 17L44 18L42 18L42 16L40 16L40 17L41 17L41 18L40 18L40 19L41 19L41 20L42 20L42 19L43 19L43 20L45 20L45 19L46 19L46 21L44 21L44 23L43 23L43 25L44 25L44 23L45 23L45 22L47 22L47 23L46 23L46 24L48 24L48 21L47 21L47 19L48 19L48 18L51 18L51 17L52 17L52 16L51 16L51 15L50 15L50 16L51 16L51 17L48 17L48 18L47 18L47 16L49 16L49 15L47 15L47 16L46 16L46 14L48 14L48 13L47 13L47 12ZM26 13L26 14L22 14L22 15L26 15L26 14L28 14L28 13ZM0 14L0 17L1 17L1 18L2 18L2 17L3 17L3 16L2 16L2 15L3 15L3 14L2 14L2 15L1 15L1 14ZM44 14L44 15L45 15L45 14ZM5 15L5 16L7 16L7 15ZM1 16L1 17L2 17L2 16ZM8 16L8 17L9 17L9 16ZM44 16L44 17L45 17L45 16ZM11 17L11 18L12 18L12 17ZM8 18L8 19L9 19L9 18ZM24 18L24 19L25 19L25 18ZM46 18L46 19L47 19L47 18ZM6 19L6 20L7 20L7 21L10 21L10 20L7 20L7 19ZM14 19L14 20L15 20L15 19ZM50 19L50 20L49 20L49 21L50 21L50 22L49 22L49 23L50 23L50 24L51 24L51 21L52 21L52 20L51 20L51 19ZM24 20L24 23L26 23L26 24L28 24L28 23L29 23L29 26L30 26L30 28L32 28L32 29L33 29L33 30L35 30L35 27L33 27L33 28L32 28L32 27L31 27L31 26L33 26L33 25L34 25L34 24L32 24L32 22L31 22L31 24L30 24L30 22L28 22L28 23L26 23L26 22L27 22L27 21L25 21L25 20ZM50 20L50 21L51 21L51 20ZM8 22L8 23L6 23L6 24L9 24L9 25L12 25L12 26L13 26L13 25L12 25L12 23L10 23L10 24L9 24L9 22ZM19 22L19 23L20 23L20 22ZM36 22L36 23L37 23L37 22ZM38 22L38 23L39 23L39 22ZM38 24L38 25L39 25L39 24ZM3 25L3 26L2 26L2 27L3 27L3 29L4 29L4 30L3 30L3 31L2 31L2 32L1 32L1 33L2 33L2 34L3 34L3 35L4 35L4 32L5 32L5 33L6 33L6 34L8 34L8 35L9 35L9 34L10 34L10 37L11 37L11 34L14 34L14 35L15 35L15 34L16 34L16 33L12 33L12 32L14 32L14 31L11 31L11 30L9 30L9 29L6 29L6 30L5 30L5 29L4 29L4 27L3 27L3 26L4 26L4 25ZM5 25L5 28L8 28L8 25ZM15 25L15 26L16 26L16 25ZM25 25L25 28L28 28L28 25ZM30 25L30 26L31 26L31 25ZM45 25L45 28L48 28L48 25ZM6 26L6 27L7 27L7 26ZM18 26L18 27L20 27L20 26ZM26 26L26 27L27 27L27 26ZM40 26L40 27L42 27L42 28L44 28L44 26L43 26L43 27L42 27L42 26ZM46 26L46 27L47 27L47 26ZM33 28L33 29L34 29L34 28ZM24 29L24 30L23 30L23 32L24 32L24 33L22 33L22 34L23 34L23 35L24 35L24 34L25 34L25 33L27 33L27 34L26 34L26 35L28 35L28 36L32 36L32 35L34 35L34 34L35 34L35 31L34 31L34 34L32 34L32 33L33 33L33 32L32 32L32 31L31 31L31 30L29 30L29 29L28 29L28 30L29 30L29 31L27 31L27 29ZM6 30L6 31L7 31L7 32L6 32L6 33L8 33L8 34L9 34L9 32L10 32L10 33L11 33L11 32L10 32L10 31L9 31L9 32L8 32L8 31L7 31L7 30ZM21 30L21 31L22 31L22 30ZM26 31L26 32L27 32L27 31ZM36 31L36 32L37 32L37 31ZM42 31L42 32L45 32L45 31ZM46 31L46 32L47 32L47 31ZM2 32L2 33L3 33L3 32ZM28 33L28 35L29 35L29 33ZM30 33L30 34L31 34L31 33ZM41 33L41 35L39 35L39 34L38 34L38 37L39 37L39 36L41 36L41 35L42 35L42 36L48 36L48 35L46 35L46 34L45 34L45 33ZM49 33L49 34L51 34L51 33ZM42 34L42 35L45 35L45 34ZM5 35L5 36L7 36L7 35ZM50 35L50 36L52 36L52 35ZM3 37L3 38L5 38L5 39L6 39L6 40L7 40L7 39L6 39L6 38L7 38L7 37ZM28 37L28 39L27 39L27 40L25 40L25 42L26 42L26 44L27 44L27 43L28 43L28 44L29 44L29 45L31 45L31 46L30 46L30 47L29 47L29 49L28 49L28 51L29 51L29 50L30 50L30 49L31 49L31 48L32 48L32 49L33 49L33 48L34 48L34 47L33 47L33 46L35 46L35 48L37 48L37 47L38 47L38 48L39 48L39 49L38 49L38 50L41 50L41 48L42 48L42 49L43 49L43 48L44 48L44 46L42 46L42 44L43 44L43 45L44 45L44 44L43 44L43 43L45 43L45 44L46 44L46 43L47 43L47 42L46 42L46 43L45 43L45 40L43 40L43 41L44 41L44 42L42 42L42 44L39 44L39 43L40 43L40 42L39 42L39 41L41 41L41 40L39 40L39 39L36 39L36 40L37 40L37 41L36 41L36 43L38 43L38 44L37 44L37 45L34 45L34 43L33 43L33 40L34 40L34 42L35 42L35 39L33 39L33 40L32 40L32 39L31 39L31 38L29 38L29 37ZM30 39L30 40L31 40L31 39ZM11 40L11 41L12 41L12 40ZM27 40L27 41L26 41L26 42L28 42L28 43L29 43L29 44L30 44L30 42L32 42L32 41L30 41L30 42L29 42L29 41L28 41L28 40ZM38 40L38 41L37 41L37 42L38 42L38 41L39 41L39 40ZM13 41L13 42L14 42L14 41ZM15 41L15 42L16 42L16 41ZM19 42L19 43L20 43L20 42ZM48 42L48 44L49 44L49 45L50 45L50 47L49 47L49 49L48 49L48 50L50 50L50 52L51 52L51 51L52 51L52 50L50 50L50 48L51 48L51 46L52 46L52 45L50 45L50 44L51 44L51 43L50 43L50 44L49 44L49 42ZM8 43L8 44L6 44L6 45L8 45L8 47L9 47L9 48L8 48L8 53L9 53L9 50L10 50L10 52L12 52L12 53L13 53L13 51L11 51L11 50L10 50L10 49L12 49L12 48L13 48L13 47L11 47L11 48L10 48L10 46L9 46L9 45L8 45L8 44L9 44L9 43ZM12 43L12 45L13 45L13 43ZM31 43L31 45L32 45L32 43ZM25 45L25 48L28 48L28 45ZM39 45L39 46L38 46L38 47L39 47L39 48L41 48L41 47L40 47L40 46L41 46L41 45ZM45 45L45 48L48 48L48 45ZM18 46L18 47L17 47L17 48L18 48L18 49L16 49L16 48L15 48L15 49L16 49L16 50L14 50L14 51L16 51L16 52L14 52L14 53L19 53L19 52L17 52L17 51L18 51L18 50L19 50L19 51L20 51L20 50L19 50L19 49L20 49L20 48L19 48L19 46ZM21 46L21 47L22 47L22 46ZM26 46L26 47L27 47L27 46ZM36 46L36 47L37 47L37 46ZM46 46L46 47L47 47L47 46ZM30 47L30 48L31 48L31 47ZM42 47L42 48L43 48L43 47ZM9 48L9 49L10 49L10 48ZM42 51L42 52L43 52L43 51ZM20 52L20 53L22 53L22 52ZM24 52L24 53L25 53L25 52ZM0 0L0 7L7 7L7 0ZM1 1L1 6L6 6L6 1ZM2 2L2 5L5 5L5 2ZM46 0L46 7L53 7L53 0ZM47 1L47 6L52 6L52 1ZM48 2L48 5L51 5L51 2ZM0 46L0 53L7 53L7 46ZM1 47L1 52L6 52L6 47ZM2 48L2 51L5 51L5 48Z" fill="#000000"/></g></g></svg>
